<svg width="383" height="21" viewBox="0 0 383 21" fill="none" xmlns="http://www.w3.org/2000/svg">
<path d="M271.228 13.1504C269.889 13.0493 268.699 12.8469 267.359 12.8469C266.318 12.8469 265.574 12.5435 264.681 12.0377C264.086 12.24 263.491 12.4423 262.747 12.6446C261.11 13.1504 259.473 13.1504 257.836 13.0493C257.688 13.0493 257.39 12.8469 257.241 12.7458C257.092 12.6446 257.39 12.3412 257.688 12.24C257.836 12.1388 258.134 12.1388 258.432 12.0377C258.58 12.0377 258.878 11.9365 259.027 11.8354C258.878 11.6331 258.729 11.4307 258.729 11.2284C258.729 10.925 259.027 10.6215 258.58 10.318C258.283 10.1157 257.688 9.91339 257.241 9.91339C255.753 9.91339 254.414 9.81223 252.926 9.91339C250.843 10.0145 248.908 10.2169 246.974 9.71108C246.528 9.60992 245.784 9.71108 245.188 9.71108C243.998 9.91339 242.808 9.81223 241.766 9.40761C240.724 9.00298 239.832 9.10414 238.79 9.50876C237.302 10.0145 235.814 10.1157 234.326 9.60992C233.433 9.30645 232.541 9.30645 231.499 9.40761C230.755 9.50876 230.16 9.50876 229.416 9.60992C229.267 9.60992 229.118 9.81223 228.969 9.91339C228.821 10.0145 229.118 10.4192 229.416 10.5203C229.862 10.6215 230.309 10.8238 230.755 10.8238C232.689 11.0261 234.624 10.925 236.409 10.7226C239.236 10.4192 242.064 10.318 244.891 10.5203C245.486 10.5203 246.081 10.6215 246.676 10.5203C249.355 10.4192 252.033 10.8238 254.86 10.925C255.009 10.925 255.158 11.1273 255.158 11.2284C255.009 11.2284 255.009 11.3296 254.86 11.3296C253.372 11.4307 251.736 11.4307 250.248 11.5319C249.95 11.5319 249.801 11.6331 249.95 11.8354C249.95 11.9365 250.099 12.0377 250.248 12.0377C250.992 12.0377 251.587 12.0377 252.331 12.0377C252.48 12.0377 252.777 12.24 252.926 12.3412C253.075 12.4423 252.777 12.8469 252.48 12.9481C252.182 13.0493 251.736 13.1504 251.438 13.1504C251.14 13.1504 250.694 13.1504 250.396 13.0493C249.801 12.9481 249.206 12.8469 248.611 12.7458C248.313 12.7458 247.867 12.6446 247.569 12.6446C246.379 12.6446 245.188 12.7458 243.998 12.7458C242.956 12.7458 241.915 12.24 240.873 12.4423C239.683 12.6446 238.79 12.1388 237.749 11.9365C237.451 12.1388 237.005 12.3412 236.707 12.5435C235.814 13.1504 234.921 13.1504 233.731 12.8469C233.285 12.4423 232.987 12.0377 232.541 11.6331C232.243 11.4307 231.499 11.3296 231.201 11.5319C230.904 11.6331 230.904 11.9365 230.904 12.1388C230.755 12.5435 230.457 12.7458 230.011 12.5435C229.416 12.3412 228.821 12.0377 228.225 11.8354C227.928 11.7342 227.481 11.7342 227.481 12.0377C227.333 12.5435 227.035 12.7458 226.44 12.8469C224.654 13.1504 223.017 13.3527 221.232 13.0493C220.785 12.9481 220.339 12.9481 219.893 12.8469C218.107 12.5435 216.321 12.3412 214.387 12.8469C213.197 13.1504 212.006 12.8469 211.114 12.3412C210.816 12.24 210.518 12.0377 210.37 11.8354C210.221 11.9365 210.221 12.1388 210.072 12.24C209.626 12.6446 209.03 12.7458 208.584 12.5435C208.138 12.3412 207.691 12.0377 207.096 11.8354C206.798 11.7342 206.501 11.6331 206.203 11.5319C206.054 11.5319 205.906 11.5319 205.906 11.5319C205.757 11.6331 205.459 11.7342 205.608 11.9365C205.608 12.1388 205.757 12.4423 205.906 12.6446C206.054 12.9481 206.501 13.2516 206.054 13.4539C205.906 13.555 205.459 13.555 205.013 13.555C203.822 13.555 202.93 13.2516 202.632 12.3412C202.632 12.1388 202.483 12.0377 202.334 11.9365C202.037 11.6331 201.442 11.5319 201.144 11.8354C200.995 11.9365 200.995 12.1388 200.846 12.24C200.549 12.6446 200.102 12.8469 199.507 12.8469C197.424 12.7458 195.192 12.9481 193.109 13.1504C192.365 13.2516 191.621 13.1504 191.026 13.1504C190.282 13.1504 189.538 13.0493 188.942 13.1504C187.901 13.3527 186.859 13.2516 185.818 13.0493C184.925 12.8469 184.032 13.0493 183.288 13.6562C183.139 13.8585 182.693 13.9597 182.395 14.0608C181.205 14.162 180.015 14.162 178.973 13.6562C177.187 13.1504 175.402 13.2516 173.467 13.4539C172.426 13.555 171.384 13.4539 170.491 13.0493C170.343 12.9481 170.045 12.8469 169.896 12.8469C169.747 12.8469 169.747 12.7458 169.599 12.7458C169.45 12.7458 169.45 12.8469 169.45 12.8469C169.599 12.9481 169.747 12.9481 169.896 13.0493C170.045 13.0493 170.343 13.0493 170.491 13.0493C170.343 13.1504 170.194 13.3527 170.194 13.4539C169.896 13.7574 169.599 14.0608 169.003 13.9597C168.111 13.7574 167.367 13.7574 166.623 14.0608C164.539 14.7689 162.159 14.7689 159.927 14.5666C158.588 14.4655 157.397 14.3643 156.058 14.6678C155.165 14.8701 154.124 14.8701 153.231 14.7689C151.594 14.5666 149.957 14.6678 148.32 14.9712C147.279 15.1736 146.237 15.2747 145.196 15.0724C142.964 14.6678 140.732 14.8701 138.5 15.1736C135.97 15.5782 133.589 15.6793 131.06 15.3759C130.018 15.2747 129.125 15.3759 128.381 15.8817C127.637 16.3874 126.745 16.4886 125.703 16.4886C125.108 16.4886 124.513 16.5898 123.917 16.4886C121.834 16.1851 119.751 16.3874 117.519 16.5897C114.989 16.8932 112.609 16.6909 110.079 16.9944C108.889 17.0955 107.996 16.8932 107.401 16.084C107.252 15.7805 106.508 15.7805 106.21 16.084C106.062 16.1851 105.913 16.2863 105.764 16.3874C105.318 16.7921 105.02 17.1967 104.127 17.1967C103.234 17.1967 102.193 17.1967 101.449 16.6909C101.3 16.5898 101.002 16.5897 100.705 16.5897C100.407 16.7921 100.11 16.9944 99.812 17.1967C99.3656 17.5002 98.9192 17.7025 98.324 17.7025C96.9848 17.9048 95.4968 18.2083 94.1576 18.3094C92.372 18.5117 90.5864 18.6129 88.8009 18.6129C86.1225 18.5117 83.4441 18.8152 80.6169 19.1187C77.7897 19.4221 74.9626 19.6245 72.1354 19.8268C71.3914 19.9279 70.6474 19.8268 70.0522 19.8268C69.3082 19.8268 68.713 19.6245 68.1178 19.321C67.225 18.9164 66.481 19.0175 65.737 19.7256C65.4394 20.1302 64.993 20.3326 64.249 20.3326C63.9514 20.3326 63.5051 20.3326 63.2075 20.3326C62.9099 20.3326 62.7611 20.3326 62.4635 20.2314C62.4635 20.1302 62.3147 20.1302 62.3147 20.0291C62.3147 19.6245 62.017 19.4221 61.4219 19.4221C60.2315 19.5233 59.0411 19.6245 57.8507 19.7256C57.4043 19.7256 56.9579 19.6245 56.5115 19.6245C56.5115 19.6245 56.3627 19.5233 56.3627 19.4221C56.3627 19.321 56.3627 19.2198 56.5115 19.2198C56.8091 19.1187 57.1067 19.0175 57.5531 18.9164C59.1899 18.8152 60.8267 18.5117 62.4635 18.3094C68.1178 17.5002 73.921 16.6909 79.7241 16.6909C81.9561 16.6909 83.8905 16.1851 86.1225 16.084C87.4617 15.9828 88.6521 15.8817 89.9912 15.7805C92.2232 15.5782 94.4552 15.477 96.6872 15.2747C97.2824 15.2747 97.7288 14.7689 97.58 14.3643C97.4312 13.8585 97.2824 13.4539 96.9848 12.9481C96.5384 12.24 95.4968 11.9365 94.4552 11.7342C94.1576 11.7342 93.7112 11.7342 93.4136 11.8354C91.628 12.3412 89.8424 12.6446 87.9081 12.8469C83.4441 13.3527 78.8313 13.3527 74.5162 13.9597C72.433 13.9597 70.201 14.3643 68.1178 14.162C67.5226 14.162 66.9274 14.2631 66.481 14.3643C64.6954 14.9712 62.6122 15.0724 60.6779 15.3759C60.2315 15.477 59.7851 15.477 59.1899 15.3759C57.7019 15.3759 56.3627 15.2747 54.8747 15.2747C52.9403 15.2747 51.4523 14.7689 50.5596 13.4539C50.4108 13.1504 50.1132 12.9481 49.8156 12.6446C48.6252 12.3412 47.4348 12.5435 46.2444 12.1388C45.9468 12.0377 45.3516 12.0377 44.9052 12.1388C43.566 12.3412 42.078 12.5435 40.7388 12.8469C39.2508 13.1504 37.7628 13.1504 36.126 13.1504C30.3229 13.0493 24.5197 12.9481 18.7166 13.4539C16.3358 13.6562 13.955 13.6562 11.5742 13.7574C9.63985 13.8585 8.44948 13.1504 7.40789 12.24C6.66389 11.6331 6.06869 10.925 5.4735 10.2169C4.7295 9.81223 3.8367 9.91338 3.0927 9.81223C1.75352 9.60991 0.711946 9.00297 0.116751 8.29487C-0.180847 7.9914 0.116742 7.48562 0.711937 7.2833C1.60473 6.97983 2.49751 6.97983 3.53911 6.97983C4.4319 6.97983 5.47348 7.08099 6.36628 7.18214C7.25907 7.2833 8.00307 7.08099 8.30066 6.37289C8.44946 5.96826 9.04467 5.76595 9.63987 5.76595C10.8303 5.76595 12.0206 5.66479 13.211 5.76595C14.699 5.8671 16.0382 5.76595 17.5262 5.8671C17.9726 5.66479 18.2702 5.46248 18.5678 5.159C19.0142 4.75438 19.6094 4.55206 20.3534 4.45091C23.627 3.74281 27.0493 3.23702 30.4717 3.13586C33.1501 3.03471 35.6797 2.83239 38.358 3.03471C42.5244 2.83239 46.6908 2.93355 50.8571 2.63008C52.0475 2.52892 53.2379 2.52892 54.4283 2.52892C56.6603 2.52892 58.8923 2.63008 61.2731 2.52892C63.0587 2.52892 64.8442 2.32661 66.6298 2.22545C67.5226 2.22545 68.2666 2.12429 69.1594 2.22545C71.8378 2.42777 74.665 2.52892 77.3433 2.42777C78.6825 2.42777 80.0217 2.52892 81.2121 2.42777C84.6345 2.1243 88.0569 2.22545 91.4792 2.22545C92.372 2.22545 93.4136 2.32661 94.3064 2.1243C96.6872 1.61851 99.068 1.71967 101.449 1.82082C103.086 1.92198 104.722 1.92198 106.508 1.71967C107.401 1.61851 108.442 1.61851 109.335 1.61851C111.121 1.61851 112.906 1.61851 114.692 1.21388C116.031 0.910412 117.519 0.910412 119.007 1.01157C120.346 1.11273 121.537 1.01157 122.876 0.910412C124.215 0.708098 125.703 0.606941 127.191 0.708098C129.274 0.809255 131.506 0.708099 133.589 0.505785C136.416 0.303471 139.244 0.202314 142.071 0.303471C145.642 0.404628 149.213 0.303471 152.784 0C153.38 1.76869e-08 153.975 3.53736e-08 154.57 5.30604e-08C154.868 6.19038e-08 155.016 0.101157 155.314 0.101157C156.951 0.101157 158.588 1.72447e-07 160.224 2.21086e-07C161.861 0.101157 163.498 0.202314 165.135 0.101157C165.73 4.06986e-07 166.325 0.101157 166.92 0.202314C168.259 0.505786 169.45 0.101158 170.789 0.202315C171.979 0.303472 173.17 0.505786 174.36 0.303472C177.187 7.23531e-07 180.015 0.303472 182.842 0.303472C184.627 0.303472 186.413 0.404629 188.199 0.404629C188.942 0.404629 189.686 0.404629 190.282 0.505786C191.472 0.606943 192.662 0.7081 193.853 0.505786C194.597 0.404629 195.49 0.404629 196.382 0.505786C197.87 0.7081 199.507 0.505787 200.995 0.708101C202.483 0.910415 204.12 0.708101 205.608 0.809258C208.286 0.910415 211.114 1.11273 213.792 1.21389C216.768 1.4162 219.744 1.31504 222.72 1.61851C224.654 1.31504 226.737 1.82083 228.821 1.51736C229.267 1.4162 229.713 1.51736 230.16 1.61851C233.285 1.82083 236.261 2.02314 239.385 2.1243C239.832 2.1243 240.278 2.1243 240.873 2.1243C242.956 1.92199 244.891 1.92199 246.825 2.22546C247.272 2.32661 247.718 2.32661 248.313 2.32661C254.86 2.52893 261.408 3.03471 267.955 2.93356C269.145 2.93356 270.335 3.03471 271.526 3.13587C272.419 3.13587 273.163 3.23703 274.055 3.23703C275.692 3.13587 277.18 3.43934 278.519 3.84397C278.817 4.45091 279.561 4.65323 280.156 4.75438C282.239 4.9567 284.471 5.15901 286.555 5.26017C290.126 5.36133 293.697 5.46248 297.268 5.56364C299.202 5.6648 300.988 5.86711 302.922 6.06943C306.642 6.3729 310.214 6.3729 313.934 6.3729C315.868 6.3729 317.802 6.3729 319.588 6.3729C320.481 6.3729 321.225 6.47405 321.969 6.87868C323.159 7.58678 324.796 7.7891 326.284 7.89025C328.516 7.99141 330.748 8.19372 332.98 8.29488C334.021 8.39604 335.063 8.4972 336.105 8.29488C339.081 7.89025 342.057 8.19372 345.032 8.39604C346.372 8.4972 347.562 8.59835 348.901 8.4972C349.645 8.4972 350.24 8.59835 350.984 8.69951C351.282 8.69951 351.58 9.10414 351.431 9.2053C351.282 9.30645 351.133 9.50877 350.984 9.50877C349.645 9.71108 348.157 9.71108 346.818 9.50877C346.372 9.40761 345.925 9.40761 345.479 9.40761C345.181 9.40761 344.735 9.60992 344.586 9.71108C344.14 10.2169 343.842 10.7227 343.544 11.3296C342.949 11.5319 342.503 11.7342 341.908 11.8354C341.015 12.1388 340.271 12.4423 339.973 13.1504C339.676 13.555 339.081 13.7574 338.485 13.6562C334.617 13.4539 330.599 13.555 326.73 13.7574C325.986 13.7574 325.093 13.555 324.349 13.4539C323.605 13.3527 322.713 13.1504 321.969 13.0493C321.225 13.3527 320.481 13.555 319.588 13.3527C318.844 13.1504 317.951 13.1504 317.207 13.3527C316.314 13.555 315.57 13.3527 314.826 13.0493C314.529 12.9481 314.082 12.8469 313.785 12.8469C312.594 13.2516 311.553 12.7458 310.362 12.5435C309.618 12.4423 309.023 12.24 308.279 12.1388C307.386 12.0377 306.642 12.1388 305.898 12.4423C305.452 12.5435 305.006 12.6446 304.559 12.7458C302.476 13.555 300.244 13.4539 298.012 13.0493C296.822 12.8469 295.631 12.4423 294.441 12.0377C293.846 11.8354 293.399 11.6331 293.25 11.2284C292.953 10.6215 292.358 10.5203 291.614 10.5203C290.87 10.5203 290.126 10.5203 289.531 10.5203C288.043 10.5203 286.703 10.6215 285.215 10.6215C284.025 10.6215 282.835 10.6215 281.644 10.318C280.603 10.0145 279.561 10.1157 278.519 10.2169C277.18 10.4192 275.692 10.6215 274.353 10.318C273.907 10.2169 273.46 10.318 273.014 10.318C271.526 10.4192 269.889 10.4192 268.401 10.0145C267.955 9.91339 267.508 9.81223 267.062 9.91339C265.276 10.1157 263.491 10.2169 261.705 10.2169C261.556 10.2169 261.259 10.318 261.11 10.4192C260.961 10.5203 260.961 10.7226 260.961 10.8238C260.961 10.925 261.11 10.925 261.11 11.0261C261.259 11.0261 261.259 11.1273 261.408 11.1273C263.64 10.8238 265.871 11.0261 268.103 11.4307C269.294 11.9365 270.484 12.4423 271.228 13.1504ZM162.01 10.7226L162.159 10.6215V10.5203C162.159 10.5203 162.159 10.7226 162.01 10.7226C161.266 10.7226 160.373 10.8238 159.629 11.0261C157.1 11.7342 154.57 11.7342 152.04 11.4307C149.511 11.1273 147.13 11.3296 144.898 12.1388C144.452 12.24 144.005 12.24 143.559 12.1388C143.261 12.0377 142.815 12.0377 142.517 12.1388C142.368 12.1388 142.22 12.3412 142.071 12.4423C142.071 12.5435 142.22 12.7458 142.368 12.8469C142.815 12.9481 143.261 12.9481 143.708 12.9481C144.303 12.8469 144.6 12.4423 144.749 12.1388C145.642 12.4423 146.684 12.7458 147.874 12.6446C149.808 12.6446 151.743 12.6446 153.528 12.5435C154.272 12.5435 155.016 12.5435 155.612 12.4423C157.1 12.1388 158.736 12.1388 160.224 12.4423C161.712 12.7458 163.349 12.6446 164.837 12.3412C166.623 11.9365 168.557 11.8354 170.491 11.9365C171.979 12.0377 173.319 12.0377 174.807 11.8354C177.336 11.5319 180.015 11.4307 182.544 11.9365C183.288 12.1388 184.181 12.1388 185.074 11.9365C186.413 11.5319 187.901 11.2284 189.389 10.925C189.538 10.925 189.538 10.6215 189.538 10.5203C189.24 10.318 188.942 10.0145 188.496 9.91339C187.901 9.81223 187.306 9.71108 186.711 9.71108C184.627 9.60992 182.395 9.50876 180.461 10.318C179.568 10.7226 178.378 10.7226 177.336 10.4192C175.699 10.0145 174.063 10.1157 172.426 10.2169C171.533 10.318 170.789 10.4192 169.896 10.5203C168.706 10.6215 167.515 10.6215 166.474 10.2169C165.879 10.0145 165.283 10.2169 164.837 10.5203C163.944 10.8238 162.903 11.1273 162.01 10.7226ZM192.067 10.8238C192.067 10.925 192.067 11.0261 192.216 11.0261C192.514 11.3296 192.96 11.4307 193.406 11.4307C194.894 11.4307 196.234 11.3296 197.722 11.2284C200.251 11.1273 202.632 11.0261 205.162 11.0261C207.542 11.0261 209.923 11.0261 212.304 11.0261C213.346 11.0261 214.089 11.2284 214.536 11.8354C214.685 12.0377 215.577 11.9365 215.726 11.7342C216.321 11.0261 216.024 10.1157 214.982 9.91339C213.792 9.60992 212.453 9.50876 211.114 9.60992C208.138 9.81223 205.162 9.81223 202.186 9.71108C201.293 9.71108 200.549 9.71108 199.656 9.81223C198.466 9.91339 197.573 9.81223 196.531 9.50876C195.936 9.30645 195.638 9.50876 195.49 10.1157C195.341 10.6215 194.894 10.8238 194.299 10.6215C194.002 10.5203 193.704 10.318 193.406 10.2169C192.96 9.91339 192.067 10.4192 192.067 10.8238ZM224.059 9.81223C223.166 9.81223 222.571 9.81223 221.976 9.91339C221.678 9.91339 221.381 10.0145 221.083 10.2169C220.785 10.318 220.637 10.5203 220.637 10.8238C220.637 11.0261 221.083 11.2284 221.381 11.2284C222.72 11.0261 224.059 10.8238 225.398 10.6215C225.547 10.6215 225.547 10.5203 225.696 10.5203C225.696 10.4192 225.845 10.4192 225.845 10.318C225.845 10.2169 225.845 10.1157 225.696 10.1157C225.101 9.91339 224.357 9.81223 224.059 9.81223ZM306.494 11.3296C307.238 11.3296 307.982 11.3296 308.726 11.2284C308.726 11.2284 308.874 11.1273 308.874 11.0261C308.874 10.925 308.726 10.8238 308.726 10.8238C307.535 10.6215 306.196 10.7226 305.006 10.925C304.708 10.925 304.708 11.1273 304.857 11.2284C304.857 11.3296 305.006 11.3296 305.154 11.3296C305.452 11.4307 306.047 11.3296 306.494 11.3296ZM154.272 8.49719C155.612 8.80066 156.356 8.90182 156.951 9.00298L157.248 8.90182C157.248 8.80066 157.248 8.6995 157.1 8.6995C156.356 8.39603 155.76 8.39603 154.272 8.49719ZM301.137 12.5435C301.434 12.4423 301.732 12.3412 301.881 12.1388C302.03 12.0377 302.03 11.8354 302.03 11.7342C301.881 11.7342 301.583 11.6331 301.434 11.7342C301.137 11.8354 300.988 12.0377 300.69 12.24C300.69 12.24 300.69 12.3412 300.69 12.4423C300.839 12.4423 300.988 12.4423 301.137 12.5435ZM86.5689 11.4307C86.8665 11.3296 86.8665 11.2284 86.7177 11.1273C86.7177 11.0261 86.5689 11.0261 86.4201 11.0261C86.1225 11.0261 85.9737 11.1273 85.9737 11.2284C86.1225 11.4307 86.4201 11.5319 86.5689 11.4307ZM187.454 12.8469C187.603 12.8469 187.752 12.8469 187.752 12.8469C187.901 12.7458 188.05 12.6446 188.199 12.5435C188.05 12.4423 187.752 12.3412 187.603 12.3412C187.454 12.3412 187.157 12.4423 187.008 12.5435C187.157 12.5435 187.306 12.6446 187.454 12.8469ZM247.42 12.0377L247.123 11.9365V12.1388L247.42 12.0377ZM96.3896 17.0955C96.5384 17.0955 96.6872 17.0955 96.6872 16.9944C96.6872 16.7921 96.5384 16.7921 96.3896 16.8932C96.2408 16.8932 96.2408 16.9944 96.3896 17.0955ZM163.2 13.8585C162.903 13.7574 162.903 13.8585 162.903 13.9597C162.903 13.9597 163.051 13.9597 163.2 13.9597V13.8585ZM217.809 10.1157C218.107 10.2169 218.256 10.1157 218.107 9.91339C218.107 9.91339 217.958 9.91339 217.809 9.91339C217.809 9.91339 217.809 10.0145 217.809 10.1157ZM126.893 13.9597L126.745 13.8585C126.596 13.8585 126.596 13.8585 126.447 13.9597L126.596 14.0608C126.745 13.9597 126.745 13.9597 126.893 13.9597ZM274.353 4.75438C274.502 4.75438 274.651 4.75438 274.651 4.75438C274.651 4.75438 274.651 4.65323 274.651 4.55207C274.502 4.55207 274.353 4.55207 274.353 4.55207C274.204 4.65323 274.353 4.75438 274.353 4.75438Z" fill="#246EC9"/>
<path d="M375.536 10.7227C375.387 10.7227 375.09 10.5203 374.941 10.5203C373.304 10.5203 371.965 10.318 370.626 9.71108C370.179 9.60992 369.584 9.60992 369.287 9.91339C368.84 10.318 368.394 10.318 367.799 10.0146C367.65 9.91339 367.352 9.81224 367.204 9.81224C365.864 9.71108 364.674 9.50877 363.335 9.40761C362.293 9.30645 361.549 9.60992 361.103 10.4192C360.805 10.2169 360.656 10.0146 360.359 9.81224C359.615 9.40761 358.871 9.20529 358.127 9.60992C357.234 10.1157 356.341 10.0146 355.448 9.71108C355.3 9.71108 355.3 9.60992 355.3 9.50877C355.448 9.40761 355.448 9.2053 355.597 9.2053C356.044 9.10414 356.49 9.00298 356.936 8.90182C357.532 8.80067 358.127 8.80067 358.722 8.80067C362.442 8.80067 366.311 8.69951 370.031 8.80067C373.602 8.90182 377.173 8.90182 380.744 8.69951C381.488 8.90182 382.083 9.10414 382.679 9.40761C383.125 10.0146 382.976 10.5203 382.976 11.1273C382.976 11.4307 382.381 11.7342 381.935 11.6331C381.339 11.6331 380.744 11.6331 380.149 11.5319C379.405 11.4308 378.512 11.2284 378.215 10.6215C378.066 10.2169 377.471 10.318 377.024 10.318C376.578 10.5203 376.131 10.7227 375.536 10.7227Z" fill="#246EC9"/>
<path d="M278.371 12.1388C276.436 11.7342 274.353 11.7342 272.419 11.6331C272.27 11.6331 272.121 11.4307 271.972 11.3296C272.121 11.3296 272.121 11.2284 272.27 11.2284C275.246 11.0261 278.073 11.1273 281.049 11.5319C282.239 11.7342 283.281 12.1388 284.025 12.6446V12.8469C284.025 12.9481 283.876 12.9481 283.727 12.9481C282.388 13.0493 280.9 13.1504 279.71 12.5435C279.263 11.9365 279.263 11.9365 278.371 12.1388Z" fill="#246EC9"/>
<path d="M289.531 11.7342C289.977 11.7342 290.126 11.8354 290.423 11.8354C290.721 11.8354 291.167 12.1388 291.018 12.3412C290.87 12.5435 290.721 12.8469 290.423 12.9481C289.679 13.1504 289.084 13.0493 288.34 12.9481C288.043 12.8469 287.596 12.5435 287.745 12.3412C287.894 12.24 288.043 12.0377 288.191 12.0377C288.787 11.8354 289.233 11.7342 289.531 11.7342Z" fill="#246EC9"/>
<path d="M272.121 13.2516C272.27 12.8469 272.419 12.4423 273.014 12.3412C273.46 12.24 273.907 12.24 274.353 12.4423C274.502 12.5435 274.502 12.7458 274.651 12.8469C274.651 12.8469 274.502 12.9481 274.502 13.0493C274.353 13.1504 274.055 13.1504 273.907 13.2516C273.163 13.1504 272.567 13.1504 272.121 13.2516Z" fill="#246EC9"/>
<path d="M53.9819 20.3326C53.8331 20.4337 53.8331 20.636 53.6843 20.7372C53.0891 21.0407 52.3451 21.0407 51.7499 20.9395C51.4523 20.8383 51.3035 20.7372 51.4523 20.636C52.0475 20.0291 52.9403 19.9279 53.8331 20.2314C53.9819 20.2314 53.9819 20.3326 53.9819 20.3326Z" fill="#246EC9"/>
<path d="M279.859 12.6446C279.561 12.7458 279.412 12.9481 279.115 13.0493C278.668 13.1504 278.371 12.9481 278.371 12.6446C278.371 12.5435 278.519 12.3412 278.519 12.24C278.817 12.3412 279.412 12.5435 279.859 12.6446Z" fill="#246EC9"/>
<path d="M361.103 10.318C361.4 10.2169 361.698 10.2169 362.144 10.1157C362.293 10.1157 362.442 10.1157 362.442 10.2169C362.591 10.4192 362.442 10.5203 362.144 10.5203C361.847 10.5203 361.549 10.4192 361.103 10.318Z" fill="#246EC9"/>
<path d="M271.079 13.2516C271.377 13.2516 271.675 13.2516 271.972 13.2516C271.823 13.1504 271.526 13.1504 271.079 13.2516Z" fill="#246EC9"/>
</svg>
