<svg width="260" height="14" viewBox="0 0 260 14" fill="none" xmlns="http://www.w3.org/2000/svg">
<path d="M189.027 4.42591C187.031 4.77168 185.034 5.18661 183.191 5.53238C183.037 5.73985 183.037 5.809 183.344 5.809C184.88 5.67069 186.416 5.73985 187.952 5.94731C188.566 6.15478 189.181 6.29309 189.642 6.50055C189.642 6.50055 189.642 6.56971 189.642 6.63886C189.642 6.70801 189.488 6.77717 189.488 6.77717C188.874 6.77717 188.259 6.84632 187.645 6.84632C185.648 6.77717 183.805 6.70801 181.809 6.70801C179.658 6.77717 177.662 6.98463 176.433 7.88365C176.433 7.9528 176.279 7.9528 176.126 8.02196C174.897 8.57519 172.9 8.36773 172.286 7.60703C172.286 7.53787 172.286 7.46872 172.132 7.46872C171.979 7.12294 172.132 6.91548 172.747 6.84632C173.515 6.77717 174.129 6.70801 174.897 6.5697C174.897 6.50055 175.051 6.4314 175.051 6.4314C174.436 5.32492 174.283 5.32492 171.979 5.809C171.057 6.01647 170.136 6.08562 169.214 6.29309C168.753 6.36224 168.753 6.63886 169.368 6.91548C169.06 7.05379 168.907 7.1921 168.6 7.26125C166.757 7.53787 164.76 7.67618 162.763 7.60703C161.842 7.53787 161.074 7.67618 160.306 7.88365C159.999 7.9528 159.691 8.09111 159.384 8.16026C158.77 8.29857 158.309 8.29857 157.541 8.22942C157.234 8.16026 156.773 8.09111 156.466 8.09111C156.005 8.09111 155.852 8.16026 155.698 8.36773C155.545 8.50604 155.391 8.64435 155.237 8.85181C153.701 8.92097 152.166 9.19759 150.476 9.19759C149.862 9.19759 149.247 9.26674 148.633 9.3359C147.404 9.47421 146.79 9.26674 146.175 8.85181C146.022 8.78266 145.868 8.64435 145.715 8.57519C145.254 8.36773 144.332 8.43688 144.179 8.64435C143.872 9.12843 143.257 9.40505 142.336 9.54336C141.107 9.75082 140.032 9.88913 138.803 9.88913C136.96 9.88913 135.117 9.95829 133.427 10.1658C131.892 10.3732 130.202 10.3732 128.666 10.1658C127.898 10.0966 126.977 10.0966 126.055 10.0274C125.441 9.95829 124.98 9.81998 124.519 9.61251C123.905 9.19759 123.905 9.19759 122.983 9.61251C121.908 10.0274 120.679 10.3732 119.451 10.7881C119.144 10.9265 118.529 10.9265 118.068 10.9265C117.3 10.9265 116.686 10.7881 115.918 10.7881C115.457 10.7881 114.843 10.719 114.536 10.7881C113.307 10.9956 111.925 11.0648 110.542 11.0648C109.16 11.0648 107.931 11.1339 106.549 11.2031C106.242 11.2031 106.088 11.2031 105.781 11.2031C102.249 11.6872 98.4088 11.4797 94.8762 11.8255C94.2619 11.8946 93.6475 11.8255 93.0331 11.8255C90.2685 11.7563 87.6575 11.7563 85.0464 12.0329C83.9713 12.1712 82.8961 12.1021 81.821 12.1712C80.8995 12.1712 79.8243 12.1712 78.9028 12.2404C73.5271 12.5862 68.1515 12.7245 62.7758 12.8628C58.0145 13.0011 53.2532 13.0703 48.4919 13.1394C44.1913 13.2086 39.8908 13.416 35.5902 13.5543C34.6687 13.5543 33.9007 13.6235 32.9792 13.6235C32.0576 13.6235 30.9825 13.6235 30.061 13.6926C27.1428 13.9001 24.2245 13.831 21.3063 13.9693C20.8455 13.9693 20.2312 14.0384 19.7704 13.9693C18.0809 13.7618 16.3914 13.831 14.7019 13.9693C13.6268 14.0384 12.5517 13.9693 11.3229 13.9693C10.2478 13.9693 9.17265 13.831 8.2511 13.5543C6.86879 13.1394 5.48645 12.7936 4.10414 12.517C2.10746 12.0329 1.03234 11.3414 0.57157 10.3041C0.417979 10.0274 0.264384 9.75082 0.110793 9.4742C-0.196388 8.85181 0.110798 8.29857 1.33952 7.88364C1.49311 7.81449 1.80029 7.74533 1.95388 7.67618C2.41465 7.53787 2.56823 7.3304 2.56823 7.12294C2.56823 6.84632 2.72183 6.70801 3.18261 6.5697C3.95056 6.29308 4.87209 6.01646 5.64004 5.87815C8.09749 5.46322 10.7085 5.0483 13.3196 4.63337C13.6268 4.56421 13.7804 4.56421 14.0875 4.56421C17.1594 4.4259 20.0776 4.08013 23.1494 3.94182C24.2245 3.94182 25.2997 3.87266 26.5284 3.87266C32.3648 3.87266 38.0477 3.80351 43.8841 3.6652C48.0311 3.59605 52.178 3.52689 56.4786 3.45774C56.6322 3.45774 56.7857 3.45774 56.7857 3.45774C59.5504 3.59605 62.1614 3.59605 64.926 3.45774C65.694 3.45774 66.3084 3.45774 67.0763 3.59605C68.6122 3.87267 70.3017 3.80351 71.684 3.52689C72.6056 3.31943 73.5271 3.31943 74.6023 3.38858C75.831 3.52689 77.0597 3.45774 78.2884 3.25027C80.5923 2.83534 82.8961 3.04281 85.2 2.97365C85.5072 2.97365 85.6608 2.97365 85.968 3.04281C87.3503 3.31943 88.7326 3.31943 90.2685 3.25027C92.5724 3.18112 94.8762 3.11196 97.1801 2.76619C97.948 2.62788 98.8696 2.69703 99.7911 2.69703C101.634 2.76619 103.477 2.83534 105.32 2.55872C106.549 2.42042 107.778 2.35126 109.007 2.42042C109.775 2.48957 110.542 2.48957 111.157 2.48957C115.611 2.28211 120.219 2.21295 124.673 2.07464C130.202 1.65971 136.039 1.5214 141.875 1.38309C144.025 1.31394 146.022 1.24478 148.172 1.17563C149.247 1.10647 150.322 1.17563 151.398 1.10647C151.551 1.10647 151.705 1.17563 151.705 1.17563C151.858 1.31394 151.705 1.38309 151.398 1.45225C150.322 1.5214 149.247 1.59056 148.172 1.65971C147.251 1.72887 146.79 2.07464 146.79 2.55873C146.79 2.83534 147.251 3.04281 148.019 3.04281C148.94 2.97365 149.708 2.9045 150.322 2.62788C150.937 2.35126 151.705 2.21295 152.626 2.21295C153.087 2.21295 153.701 2.28211 154.009 2.1438C156.62 1.65971 159.384 1.79802 161.995 1.59056C162.763 1.5214 163.224 1.65971 163.224 1.79802C163.224 2.07464 162.763 2.21295 162.456 2.28211C161.995 2.42042 161.688 2.55873 161.227 2.62788C160.92 2.69704 161.074 2.97365 161.535 3.04281C161.842 3.11196 162.302 3.11196 162.61 3.11196C163.07 3.11196 163.378 3.04281 163.531 2.9045C163.838 2.28211 164.914 2.07464 165.989 2.07464C167.525 2.07464 169.061 1.86718 170.75 2.1438C171.518 2.28211 172.439 2.21295 173.361 2.28211C173.668 2.28211 173.975 2.42042 174.129 2.62788C174.129 2.83535 173.822 3.11196 173.515 3.18112C173.207 3.25027 172.9 3.31943 172.439 3.31943C171.672 3.38858 170.75 3.52689 169.982 3.59605C169.675 3.6652 169.214 3.59605 169.06 3.80351C169.06 4.01098 169.521 4.01098 169.828 4.08013C170.289 4.21844 170.289 4.42591 169.982 4.49506C169.675 4.56422 169.368 4.63337 169.06 4.70253C168.753 4.77168 168.446 4.84083 168.139 4.90999C167.678 5.0483 167.525 5.32492 167.832 5.46323C168.139 5.60154 168.446 5.67069 168.753 5.60154C169.06 5.60154 169.521 5.53238 169.828 5.46323C170.904 5.25576 172.439 4.97914 173.668 4.56422V4.49506C174.436 4.56422 175.204 4.42591 175.358 4.08013C175.511 3.94182 175.511 3.73436 175.665 3.59605C175.972 3.31943 176.279 3.11196 177.047 3.18112C177.354 3.18112 177.508 3.18112 177.815 3.18112C178.276 3.18112 178.89 3.11196 179.044 2.9045C179.658 2.21295 180.887 2.07464 182.269 2.00549C182.576 2.00549 182.73 2.00549 183.037 2.00549C184.727 1.93633 186.109 1.72887 187.491 1.24479C187.952 1.03732 187.952 1.10648 188.72 1.45225C188.874 1.5214 189.027 1.65971 189.181 1.65971C189.642 1.79802 190.256 1.93633 190.717 2.00549C191.945 1.86718 193.021 1.72887 193.942 1.59056C194.249 1.5214 194.71 1.5214 195.017 1.45225C196.246 0.968166 197.475 1.03732 198.703 1.31394C199.318 1.45225 199.932 1.3831 200.393 1.17563C200.854 1.03732 201.161 0.899012 201.468 0.760702C202.39 0.968166 203.158 1.24479 204.233 1.17563C205.001 1.17563 205.922 1.17563 206.844 1.24479C206.69 1.3831 206.69 1.3831 206.69 1.45225C206.076 1.86718 206.076 1.86718 206.537 2.1438C206.69 2.21295 206.997 2.28211 207.151 2.35126C207.305 2.42042 207.305 2.55873 207.151 2.62788C206.537 2.97366 205.769 3.11197 205.001 3.18112C204.847 3.18112 204.54 3.04281 204.54 2.97366C204.386 2.62788 204.54 2.35126 204.386 2.00549C204.386 1.93633 203.926 1.86718 203.772 1.86718C203.465 1.93633 203.004 2.00549 202.85 2.07464C202.236 2.62788 201.007 2.69704 199.932 2.55873C198.55 2.42042 197.321 2.48957 195.939 2.42042H196.092C195.632 2.35126 195.324 2.21295 194.864 2.1438C194.403 2.07464 193.942 2.00549 193.481 2.00549C193.328 2.1438 193.328 2.1438 193.328 2.00549H193.481C193.481 2.21295 193.328 2.42042 193.328 2.62788C193.328 2.76619 193.789 2.9045 193.635 3.04281C193.328 3.25027 193.021 3.38858 192.713 3.52689C192.56 3.59605 192.099 3.59605 192.099 3.52689C191.638 3.18112 191.178 3.04281 190.256 3.18112C189.334 3.38858 188.413 3.38858 187.338 3.31943C186.723 3.25027 186.723 3.31943 185.648 3.52689C186.263 3.80351 187.031 3.6652 187.645 3.6652C188.567 3.94182 188.874 4.14929 189.027 4.42591ZM163.992 6.43139C163.992 6.43139 164.146 6.43139 164.299 6.43139C164.914 6.43139 165.374 6.22393 165.067 6.01647C164.606 5.60154 164.453 5.11745 164.146 4.63337C164.146 4.49506 163.378 4.42591 163.224 4.56422C162.917 4.70252 162.456 4.84083 162.149 4.97914C161.995 5.11745 161.842 5.32492 161.842 5.39407C161.995 5.67069 162.302 5.87816 162.61 6.15478C162.917 6.36224 163.378 6.43139 163.992 6.43139ZM155.237 2.69704C156.159 2.97365 157.08 2.9045 157.848 2.62788C157.848 2.62788 158.002 2.55873 158.002 2.48957C158.002 2.42042 157.848 2.35126 157.848 2.35126C156.773 2.21295 155.852 2.35126 155.237 2.69704ZM155.084 6.36224C155.084 6.29308 155.084 6.22393 154.93 6.22393C154.316 6.01647 153.855 6.15477 153.241 6.15477C153.087 6.15477 153.087 6.22393 153.087 6.29309C153.087 6.36224 153.241 6.43139 153.241 6.43139C153.701 6.50055 154.162 6.5697 154.623 6.5697C154.777 6.5697 154.93 6.43139 155.084 6.36224ZM134.349 3.31943C134.195 3.25027 134.042 3.11196 133.888 3.11196C133.581 3.11196 133.274 3.25027 132.967 3.31943V3.45774C133.274 3.45774 133.581 3.52689 133.888 3.52689C134.042 3.52689 134.195 3.38858 134.349 3.31943ZM150.169 6.77717C150.476 6.70801 150.476 6.63886 150.322 6.5697C150.322 6.5697 150.169 6.50055 150.015 6.5697C149.708 6.63886 149.708 6.70801 149.862 6.77717C150.015 6.77717 150.169 6.70801 150.169 6.77717ZM136.653 8.7135C136.653 8.7135 136.653 8.78266 136.499 8.78266C136.653 8.78266 136.653 8.78266 136.806 8.78266C136.806 8.78266 136.806 8.7135 136.96 8.7135C136.806 8.7135 136.806 8.7135 136.653 8.7135ZM143.104 2.62788C143.411 2.62788 143.564 2.55873 143.564 2.48957C143.564 2.42042 143.257 2.42042 142.95 2.42042C142.797 2.42042 142.643 2.48957 142.643 2.48957C142.643 2.55873 142.796 2.62788 143.104 2.62788ZM143.872 5.0483C144.025 5.11745 144.025 5.18661 144.025 5.25576C144.025 5.25576 144.179 5.32492 144.332 5.32492C144.793 5.32492 145.1 5.18661 144.947 5.11745C144.947 5.0483 144.793 5.0483 144.64 5.0483C144.486 4.97914 144.179 4.97914 143.872 5.0483ZM179.658 5.73985L179.351 5.67069V5.809L179.658 5.73985Z" fill="#E7694E"/>
<path d="M219.745 3.04281C218.363 3.11197 217.134 3.18112 215.752 3.25027C213.909 3.25027 212.066 3.45774 210.684 4.08013C210.53 4.21844 210.069 4.21844 209.762 4.21844C209.608 4.21844 209.455 4.14929 209.301 4.08013C209.301 4.08013 209.148 3.94182 209.301 3.94182C209.608 3.45774 209.916 2.97366 210.223 2.55873C210.53 2.07464 211.605 2.00549 212.527 2.35126C212.834 2.48957 213.141 2.69704 213.448 2.83535L213.602 2.76619H213.448C214.523 2.48957 215.752 2.35126 216.981 2.42042C217.902 2.42042 218.67 2.42042 219.592 2.42042C219.899 2.42042 220.36 2.35126 220.667 2.28211C221.128 2.21295 221.128 1.79802 220.821 1.72887C220.36 1.59056 220.053 1.52141 219.592 1.3831C219.438 1.24479 219.592 1.17563 219.899 1.17563C220.974 1.10648 222.049 1.03732 223.278 0.968167C224.046 1.31394 224.967 1.59056 225.735 1.86718C227.732 2.07464 229.729 1.86718 231.572 1.93633C231.572 1.93633 231.725 2.00549 231.725 2.07464C231.725 2.1438 231.572 2.21295 231.572 2.21295C229.575 2.28211 227.425 2.35126 225.428 2.42042C224.353 2.48957 223.278 2.55873 222.203 2.62788C220.974 2.55873 220.206 2.76619 219.745 3.04281ZM216.52 2.69704C216.213 2.62788 216.059 2.69704 216.213 2.83535C216.213 2.83535 216.366 2.83535 216.52 2.83535C216.52 2.83535 216.52 2.76619 216.52 2.69704Z" fill="#E7694E"/>
<path d="M198.55 5.809C198.243 6.22393 197.628 6.4314 196.553 6.36224C196.092 6.29309 195.478 6.22393 194.864 6.08562C195.017 5.809 195.324 5.67069 195.324 5.46323C195.478 5.18661 195.171 4.97914 194.557 4.97914C193.789 4.97914 193.174 5.0483 192.406 5.0483C192.253 5.0483 191.945 4.97914 191.792 4.97914L191.638 4.84084C192.713 4.49506 193.635 4.08013 194.71 3.73436C195.017 3.59605 195.632 3.59605 196.092 3.59605C196.246 3.59605 196.707 3.59605 196.707 3.6652C197.168 4.21844 198.55 4.56422 198.089 5.25576C198.089 5.32492 198.089 5.46323 198.243 5.60154C198.396 5.67069 198.55 5.73985 198.55 5.809Z" fill="#E7694E"/>
<path d="M238.944 3.38859C239.559 2.9045 240.327 2.69704 241.094 2.42042C241.709 2.21295 242.938 2.28211 243.398 2.55873C244.013 2.83535 244.32 3.25028 243.859 3.59605C243.398 3.94182 243.091 4.21844 243.091 4.63337C243.091 4.84084 242.17 4.90999 241.862 4.77168C241.094 4.2876 240.173 3.87267 238.944 3.38859Z" fill="#E7694E"/>
<path d="M254.457 1.3831C254.15 1.72887 253.843 2.07464 253.535 2.42042C253.075 2.76619 252.46 2.9045 251.846 2.97366C251.692 2.97366 251.385 2.9045 251.231 2.83535C251.078 2.76619 251.078 2.62788 251.231 2.55873C251.231 2.48957 251.539 2.42042 251.692 2.35126C252.46 2.00549 252.46 2.00549 251.385 1.65972C251.231 1.65972 251.231 1.59056 251.078 1.52141C251.078 1.45225 251.078 1.45225 251.078 1.3831C251.078 1.31394 251.231 1.24479 251.231 1.24479C252.46 1.10648 253.382 1.17563 254.457 1.3831Z" fill="#E7694E"/>
<path d="M205.615 5.53238C206.383 5.53238 207.151 5.53238 207.919 5.53238C208.226 5.53238 208.533 5.67069 208.533 5.87816C208.533 6.08562 208.226 6.36224 207.765 6.36224C207.458 6.36224 206.997 6.36224 206.69 6.29309C206.229 6.22393 205.769 6.29309 205.308 6.36224C205.001 6.4314 204.54 6.50055 204.386 6.29309C204.079 6.01647 203.465 5.94731 203.004 5.809C203.004 5.809 202.85 5.73985 203.004 5.67069C203.004 5.60154 203.158 5.53238 203.311 5.53238C204.079 5.53238 204.847 5.53238 205.615 5.53238Z" fill="#E7694E"/>
<path d="M205.769 3.94182C206.076 3.94182 206.229 3.94182 206.537 4.01098C206.844 4.01098 206.997 4.14929 206.844 4.21844C206.844 4.2876 206.69 4.35675 206.69 4.35675C205.922 4.56422 205.154 4.63337 204.233 4.56422C204.079 4.56422 203.926 4.49506 203.926 4.42591C203.926 4.35675 203.926 4.21844 204.079 4.14929C204.54 3.94182 205.308 3.94182 205.769 3.94182Z" fill="#E7694E"/>
<path d="M218.517 5.60154C218.21 5.53238 218.056 5.53238 217.749 5.53238C217.595 5.53238 217.442 5.46323 217.595 5.39407C217.595 5.32492 217.749 5.18661 217.902 5.11746C218.363 4.97915 218.977 4.97915 219.592 5.0483C219.745 5.0483 219.899 5.18661 220.053 5.25576C220.053 5.32492 219.899 5.46323 219.745 5.46323C219.285 5.60154 218.824 5.60154 218.517 5.60154Z" fill="#E7694E"/>
<path d="M245.088 0.899012C244.627 0.829858 244.166 0.691548 243.706 0.622393C243.245 0.484084 243.091 0.414929 243.398 0.276619C243.552 0.13831 243.859 -6.0457e-09 244.166 0C244.473 6.0457e-09 244.781 0.13831 244.934 0.276619C245.088 0.484084 245.088 0.691548 245.088 0.899012Z" fill="#E7694E"/>
<path d="M232.34 5.11746C232.186 5.0483 231.879 4.97915 231.879 4.90999C232.186 4.56422 232.647 4.35675 233.415 4.35675C233.569 4.35675 233.876 4.42591 233.876 4.49506C234.029 4.56422 233.876 4.70253 233.876 4.77168C233.569 5.0483 232.954 5.11746 232.34 5.11746Z" fill="#E7694E"/>
<path d="M222.664 5.18661C222.664 5.11746 222.817 4.97915 222.817 4.90999C222.971 4.63337 223.432 4.56422 223.892 4.63337C224.2 4.77168 224.2 4.90999 224.046 5.0483C223.892 5.18661 223.585 5.25576 223.432 5.39407C223.432 5.39407 223.124 5.46323 223.124 5.39407C222.817 5.32492 222.664 5.25576 222.664 5.18661Z" fill="#E7694E"/>
<path d="M213.448 1.10648C212.987 1.24479 212.373 1.31394 211.912 1.24479C211.912 1.24479 211.759 1.17563 211.759 1.10648C211.759 1.03732 211.759 0.968167 211.912 0.968167C212.373 0.760702 212.834 0.899012 213.448 1.10648Z" fill="#E7694E"/>
<path d="M259.372 1.03732C259.525 1.03732 259.679 1.03732 259.679 1.10648C259.986 1.17563 260.14 1.31394 259.833 1.3831C259.679 1.45225 259.372 1.52141 259.218 1.45225C259.065 1.45225 258.757 1.3831 258.604 1.31394C258.757 1.24479 258.911 1.17563 259.065 1.10648C259.065 1.03732 259.218 1.03732 259.372 1.03732Z" fill="#E7694E"/>
<path d="M257.682 4.49506C257.375 4.49506 257.222 4.49506 257.222 4.35675C257.222 4.2876 257.375 4.2876 257.375 4.21844C257.682 4.21844 257.836 4.21844 257.989 4.14929C258.297 4.14929 258.45 4.14929 258.45 4.2876C258.45 4.35675 258.45 4.42591 258.297 4.42591C258.143 4.49506 257.989 4.49506 257.682 4.49506Z" fill="#E7694E"/>
<path d="M235.258 1.3831C235.412 1.3831 235.565 1.24479 235.719 1.31394C235.872 1.31394 236.18 1.45225 236.18 1.52141C236.333 1.65972 235.719 1.79802 235.412 1.65972C235.258 1.59056 235.258 1.45225 235.258 1.3831Z" fill="#E7694E"/>
<path d="M219.745 3.04281C219.438 3.25027 219.285 3.52689 218.977 3.73436C218.977 3.73436 218.824 3.80351 218.67 3.80351C218.363 3.80351 218.21 3.6652 218.517 3.59605C218.824 3.38858 219.285 3.25027 219.745 3.04281Z" fill="#E7694E"/>
<path d="M212.834 5.67069V5.60154H212.987L212.834 5.67069Z" fill="#E7694E"/>
<path d="M244.32 1.24479C244.166 1.24479 244.166 1.31394 244.013 1.31394L243.859 1.24479C243.859 1.10648 244.013 1.10648 244.32 1.17563C244.473 1.17563 244.32 1.24479 244.32 1.24479Z" fill="#E7694E"/>
<path d="M245.088 0.899012C245.549 0.760703 246.009 0.553238 246.624 0.553238C246.777 0.553238 246.777 0.622393 246.931 0.622393C246.931 0.691548 246.931 0.760703 246.931 0.760703C246.163 0.829858 245.549 0.899012 245.088 0.899012Z" fill="#E7694E"/>
<path d="M186.877 0.0691537L187.184 0.138308L186.877 0.207463V0.0691537Z" fill="#E7694E"/>
<path d="M209.455 0.414928C209.455 0.484083 209.608 0.484083 209.608 0.553238C209.608 0.553238 209.455 0.622392 209.301 0.622392C208.994 0.622392 208.994 0.553238 209.148 0.414928C209.148 0.345773 209.301 0.414928 209.455 0.414928Z" fill="#E7694E"/>
<path d="M253.689 4.56422C253.689 4.49506 253.535 4.42591 253.535 4.42591C253.843 4.35675 253.996 4.42591 253.996 4.56422H253.689Z" fill="#E7694E"/>
<path d="M168.6 8.43688C168.6 8.36773 168.753 8.29857 168.753 8.22942C168.753 8.29857 168.753 8.29857 168.753 8.36773C168.753 8.36773 168.6 8.36773 168.6 8.43688Z" fill="#E7694E"/>
<path d="M222.356 3.80351C222.356 3.73436 222.356 3.6652 222.356 3.52689L222.51 3.59605C222.356 3.6652 222.356 3.73436 222.356 3.80351Z" fill="#E7694E"/>
<path d="M222.356 3.73436C222.203 3.73436 222.049 3.6652 221.742 3.6652C221.896 3.73436 222.203 3.73436 222.356 3.73436Z" fill="#E7694E"/>
<path d="M168.6 8.43688C168.446 8.43688 168.293 8.36773 168.139 8.36773C168.293 8.36773 168.446 8.36773 168.6 8.43688Z" fill="#E7694E"/>
<path d="M173.668 4.56422H173.361C173.361 4.56422 173.668 4.49506 173.668 4.56422Z" fill="#E7694E"/>
</svg>
