<svg width="492" height="400" viewBox="0 0 492 400" fill="none" xmlns="http://www.w3.org/2000/svg">
<g clip-path="url(#clip0_470_1026)">
<path d="M55.6092 107.505L47.571 34.5869L134.268 46.1454L136.565 85.1881L55.6092 107.505Z" fill="#6F7EB1"></path>
<path d="M55.3689 42.916L78.2436 44.5898M55.3689 49.611L67.9221 49.89" stroke="white" stroke-width="1.11584"></path>
<path fill-rule="evenodd" clip-rule="evenodd" d="M101.347 74.3886C106.249 69.4863 106.249 61.538 101.347 56.6357C96.4449 51.7334 88.4967 51.7334 83.5944 56.6357C78.6922 61.538 78.6922 69.4863 83.5944 74.3886C88.4967 79.2909 96.4449 79.2909 101.347 74.3886ZM99.6832 72.7242C103.666 68.7411 103.666 62.2831 99.6832 58.3C95.7001 54.3169 89.2422 54.3169 85.2591 58.3C81.276 62.2831 81.276 68.7411 85.2591 72.7242C89.2422 76.7073 95.7001 76.7073 99.6832 72.7242Z" fill="white"></path>
<path d="M100.515 75.221L102.18 73.5566L108.005 79.3818C108.464 79.8414 108.464 80.5865 108.005 81.0461V81.0461C107.545 81.5057 106.8 81.5057 106.34 81.0461L100.515 75.221Z" fill="white"></path>
<path d="M182.628 171.723L205.594 110.862L156.217 114.307L125.787 171.723H182.628Z" fill="#82B5E1"></path>
<path d="M175.017 119.817C173.613 118.095 171.74 116.817 169.624 116.139L142.436 107.418L129.23 109.715L94.781 130.958L108.561 173.446L176.311 179.927L190.4 138.687L175.017 119.817Z" fill="#D9D9D9"></path>
<path d="M190.403 138.688L205.906 157.705C211.599 164.689 211.083 174.848 204.712 181.219C199.128 186.804 190.503 187.973 183.633 184.078L176.313 179.928L176.25 179.727L138.993 161.389L129.233 165.982L124.82 152.14L138.993 149.906L177.462 160.815L173.183 155.907L190.403 138.688Z" fill="#6F7EB1"></path>
<path d="M185.921 163.515L176.81 160.668" stroke="#122C7F" stroke-width="1.11584" stroke-linecap="round"></path>
<path d="M130.002 71.6147C137.266 73.1563 142.695 78.3903 144.336 84.6125C145.631 84.6788 146.811 85.1101 147.736 85.9421C150.565 88.4873 149.935 93.7997 146.33 97.807C143.71 100.718 140.24 102.138 137.454 101.722C133.48 104.269 128.331 105.302 123.089 104.19C113.163 102.084 106.664 93.084 108.573 84.0885C110.482 75.093 120.076 69.5083 130.002 71.6147Z" fill="#122C7F"></path>
<path d="M147.027 111.438L138.415 95.3613H132.099L129.228 114.309C137.955 118.902 144.73 114.309 147.027 111.438Z" fill="#8C98C1"></path>
<path d="M131.431 115.295L137.841 101.103L130.914 103.18L129.228 114.308C129.977 114.702 130.712 115.029 131.431 115.295Z" fill="#122C7F"></path>
<ellipse cx="2.87078" cy="5.1674" rx="2.87078" ry="5.1674" transform="matrix(0.74337 0.66888 -0.668878 0.743372 140.467 91.4434)" fill="#8C98C1"></ellipse>
<path d="M122.465 86.9452C120.984 89.1949 119.806 91.9987 119.141 95.1353C117.298 103.821 120.078 111.769 125.352 112.888C130.625 114.007 136.394 107.873 138.237 99.1876C138.644 97.2665 138.826 95.3814 138.804 93.5984L122.465 86.9452Z" fill="#8C98C1"></path>
<path d="M121.767 129.235L68.3708 117.178L93.6337 172.297L134.973 175.742L121.767 129.235Z" fill="#DA6053"></path>
<path d="M85.2011 167.859L82.8753 158.556C82.7751 158.155 82.7848 157.734 82.9035 157.339L84.4446 152.202L86.1671 155.073L93.6311 148.757L95.9277 150.479L96.5019 156.795L91.969 168.379C91.5938 169.338 90.6263 169.93 89.6018 169.827L87.2006 169.587C86.2362 169.491 85.4362 168.799 85.2011 167.859Z" fill="#6F7EB1"></path>
<path d="M87.8901 159.092L94.78 149.905" stroke="#122C7F" stroke-width="1.11584" stroke-linecap="round"></path>
<path d="M89.0369 163.111L95.9267 153.925" stroke="#122C7F" stroke-width="1.11584" stroke-linecap="round"></path>
<path d="M18.5479 126.918L53.038 112.098L62.2796 152.167L27.7895 161.408L18.5479 126.918Z" fill="#122C7F"></path>
<path d="M32.3217 130.906L47.7245 123.721L52.8209 142.741C53.4589 145.122 52.0459 147.569 49.6649 148.207C47.2838 148.845 44.8364 147.432 44.1984 145.051C43.5604 142.67 44.9734 140.223 47.3545 139.585C48.6421 139.24 49.9492 139.495 50.979 140.178L48.4304 130.667L35.0813 136.894L38.3091 148.94C38.9471 151.321 37.5341 153.768 35.153 154.406C32.772 155.044 30.3246 153.631 29.6866 151.25C29.0486 148.869 30.4616 146.422 32.8426 145.784C34.1303 145.439 35.4374 145.693 36.4672 146.377L32.3217 130.906Z" fill="#DA6053"></path>
<rect x="199.628" y="87.5498" width="35.7068" height="35.7068" transform="rotate(15 199.628 87.5498)" fill="white"></rect>
<rect x="199.628" y="87.5498" width="35.7068" height="26.7801" transform="rotate(15 199.628 87.5498)" fill="#D9D9D9"></rect>
<path d="M228.053 119.426L227.186 122.659L206.708 117.172L221.876 107.374L228.053 119.426Z" fill="#82B5E1"></path>
<path d="M218.564 120.349L192.696 113.418L193.852 109.107L208.404 99.1435L218.564 120.349Z" fill="#8C98C1"></path>
<path d="M220.779 101.304C220.301 103.09 218.465 104.15 216.679 103.671C214.893 103.193 213.834 101.357 214.312 99.5713C214.791 97.7856 216.626 96.7258 218.412 97.2043C220.198 97.6828 221.258 99.5184 220.779 101.304Z" fill="#DA6053"></path>
<path d="M137.941 11.9873L178.011 8.32489L187.252 42.815L152.762 52.0566L137.941 11.9873Z" fill="#DA6053"></path>
<path d="M158.765 22.7236L174.01 27.8806L163.386 39.9687L158.765 22.7236Z" fill="white"></path>
<ellipse cx="246.36" cy="200.794" rx="182.686" ry="182.686" stroke="#82B5E1" stroke-width="1.11584"></ellipse>
<path d="M246.836 18.1074V148.505M246.836 383.48V195.214" stroke="#82B5E1" stroke-width="1.11584"></path>
<path d="M429.521 200.793L368.921 200.793M64.1487 200.793L344.372 200.793" stroke="#82B5E1" stroke-width="1.11584"></path>
<path d="M168.815 106.519C184.806 53.5346 213.87 18.1074 247.071 18.1074C271.222 18.1074 293.184 36.8524 309.517 67.4646M156.081 184.627C155.847 189.954 155.728 195.346 155.728 200.794C155.728 210.477 156.105 219.985 156.831 229.261M194.849 350.698C209.649 371.361 227.653 383.48 247.071 383.48C297.519 383.48 338.415 301.689 338.415 200.794C338.415 184.767 337.383 169.222 335.445 154.41" stroke="#82B5E1" stroke-width="1.11584"></path>
<path d="M51.6735 281.153L38.6318 201.436L125.697 215.671L132.585 257.902L51.6735 281.153Z" fill="white"></path>
<path d="M76.2332 308.301L62.0126 242.818L147.784 244.731L157.749 300.723L76.2332 308.301Z" fill="#D9D9D9"></path>
<path d="M105.597 257.713L107.147 266.504L98.3559 268.054L105.597 257.713Z" fill="#82B5E1"></path>
<path d="M123.179 254.612L105.597 257.713L107.147 266.504L98.3559 268.054L103.006 294.427L129.379 289.777L123.179 254.612Z" fill="white"></path>
<path d="M250.017 225.171L246.829 229.776L240.186 225.98L243.033 215.066L251.484 206.615C251.796 206.303 252.301 206.303 252.612 206.615C252.845 206.847 252.911 207.198 252.779 207.499L249.676 214.592L250.803 221.73C250.993 222.935 250.712 224.167 250.017 225.171Z" fill="white"></path>
<path d="M182.768 261.215C188.902 258.695 193.207 252.791 193.207 245.91C193.207 236.737 185.559 229.302 176.125 229.302C166.691 229.302 159.043 236.737 159.043 245.91C159.043 247.442 159.256 248.927 159.656 250.336C156.39 252.857 154.297 256.739 154.297 261.094C154.297 264.712 155.742 268.003 158.103 270.459C151.964 272.977 147.654 278.883 147.654 285.768C147.654 294.941 155.302 302.376 164.737 302.376C174.171 302.376 181.819 294.941 181.819 285.768C181.819 280.638 179.426 276.051 175.667 273.005C179.879 270.642 182.723 266.251 182.768 261.215Z" fill="#122C7F"></path>
<path d="M146.347 361.699L194.631 334.168L201.275 296.208L218.871 283.918C226.874 278.329 232.959 270.406 236.295 261.232L248.251 228.353L240.184 225.031L218.832 258.721L160.109 287.267C153.915 290.278 149.023 295.432 146.338 301.773L127.906 345.311C125.162 351.792 128.065 359.281 134.461 362.22C138.275 363.972 142.7 363.778 146.347 361.699Z" fill="#82B5E1"></path>
<path d="M172.33 284.345L170.906 265.364L178.024 265.839L185.616 281.498L185.291 282.206C182.951 287.312 176.187 288.429 172.33 284.345Z" fill="white"></path>
<path d="M185.241 280.722L178.025 265.839L171.412 265.398L185.241 280.722Z" fill="#122C7F"></path>
<path d="M186.567 318.036L175.179 310.444L198.43 303.326L212.665 307.597L186.567 318.036Z" fill="white"></path>
<path d="M186.565 318.035L197.953 293.835L219.306 288.141L212.663 307.596L186.565 318.035Z" fill="#122C7F"></path>
<path d="M219.782 326.576L193.683 343.659L197.954 293.835L227.848 280.549L219.782 326.576Z" fill="#6F7EB1"></path>
<path d="M188.463 337.965L187.988 328L196.055 319.459L195.58 324.204L207.443 327.051V330.373H204.596L188.463 337.965Z" fill="white"></path>
<path d="M196.531 330.372H205.547" stroke="black" stroke-width="1.11584"></path>
<path d="M164.263 315.663L155.722 336.067M149.553 337.491L183.244 329.424" stroke="black" stroke-width="1.11584"></path>
<path d="M168.45 257.012C171.601 255.75 174.582 253.187 176.634 249.633C177.154 248.731 177.59 247.81 177.942 246.881C181.425 247.931 185.063 250.965 187.581 255.328C191.643 262.363 191.257 270.191 186.718 272.812C182.179 275.432 175.206 271.853 171.144 264.818C169.646 262.223 168.753 259.521 168.45 257.012Z" fill="white"></path>
<ellipse cx="169.55" cy="261.636" rx="3.79608" ry="5.69412" transform="rotate(-45 169.55 261.636)" fill="white"></ellipse>
<path fill-rule="evenodd" clip-rule="evenodd" d="M246.916 184.813C246.916 184.813 260.203 173.17 260.203 161.087C260.203 153.749 254.254 147.801 246.916 147.801C239.579 147.801 233.63 153.749 233.63 161.087C233.63 173.17 246.916 184.813 246.916 184.813ZM246.916 165.832C249.537 165.832 251.662 163.708 251.662 161.087C251.662 158.466 249.537 156.342 246.916 156.342C244.296 156.342 242.171 158.466 242.171 161.087C242.171 163.708 244.296 165.832 246.916 165.832Z" fill="#DA6053"></path>
<path d="M254.51 187.159L321.416 218.721L300.293 277.791L227.938 334.257" stroke="#D9D9D9" stroke-width="1.11584" stroke-dasharray="2.85 2.85"></path>
<path d="M326.161 218.722C326.161 221.342 324.037 223.467 321.416 223.467C318.796 223.467 316.671 221.342 316.671 218.722C316.671 216.101 318.796 213.977 321.416 213.977C324.037 213.977 326.161 216.101 326.161 218.722Z" fill="#82B5E1"></path>
<path d="M305.036 277.79C305.036 280.411 302.912 282.535 300.291 282.535C297.67 282.535 295.546 280.411 295.546 277.79C295.546 275.169 297.67 273.045 300.291 273.045C302.912 273.045 305.036 275.169 305.036 277.79Z" fill="#D9D9D9"></path>
<path d="M232.681 334.257C232.681 336.877 230.557 339.002 227.936 339.002C225.315 339.002 223.191 336.877 223.191 334.257C223.191 331.636 225.315 329.512 227.936 329.512C230.557 329.512 232.681 331.636 232.681 334.257Z" fill="#DA6053"></path>
<path d="M92.5071 291.748L126.997 306.569L116.64 342.175L79.918 332.933L92.5071 291.748Z" fill="#DA6053"></path>
<ellipse cx="105.118" cy="319.188" rx="12.2583" ry="12.2742" transform="rotate(15 105.118 319.188)" stroke="white" stroke-width="1.11584" stroke-linejoin="round"></ellipse>
<path d="M108.324 307.34L101.97 331.052" stroke="white" stroke-width="1.11584" stroke-linejoin="round"></path>
<path d="M116.987 322.369L93.3061 316.024" stroke="white" stroke-width="1.11584" stroke-linejoin="round"></path>
<ellipse cx="105.162" cy="319.2" rx="6.12914" ry="12.2742" transform="rotate(15 105.162 319.2)" stroke="white" stroke-width="1.11584" stroke-linejoin="round"></ellipse>
<path d="M280.407 151.166L281.511 71.8799L408.081 74.3544L387.817 149.981L280.407 151.166Z" fill="#82B5E1"></path>
<path d="M290.812 81.9697L313.686 82.5276M290.812 88.6647L302.249 88.9437" stroke="white" stroke-width="1.11584"></path>
<path d="M348.836 138.878L381.195 139.414M348.836 145.305L365.016 145.573" stroke="#D9D9D9" stroke-width="1.11584"></path>
<path d="M300.729 144.257L313.067 123.493L326.635 136.049L347.038 101.217L360.992 113.773L388.706 83.0449" stroke="#122C7F" stroke-width="1.11584"></path>
<ellipse cx="436.909" cy="149.976" rx="28.4706" ry="28.4706" transform="rotate(10 436.909 149.976)" fill="white"></ellipse>
<path d="M434.678 144.405C434.984 142.671 436.638 141.512 438.373 141.818V141.818C440.108 142.124 441.266 143.778 440.96 145.513L438.08 161.846C437.774 163.581 436.12 164.739 434.385 164.433V164.433C432.651 164.128 431.492 162.473 431.798 160.739L434.678 144.405Z" fill="#0B354C"></path>
<path d="M422.263 148.694C422.569 146.959 424.223 145.8 425.958 146.106V146.106C427.693 146.412 428.851 148.066 428.545 149.801L426.773 159.852C426.467 161.587 424.813 162.745 423.078 162.44V162.44C421.343 162.134 420.185 160.479 420.491 158.745L422.263 148.694Z" fill="#0B354C"></path>
<path d="M453.375 141.225C453.681 139.491 452.523 137.836 450.788 137.53V137.53C449.053 137.225 447.399 138.383 447.093 140.118L443.106 162.733C442.8 164.468 443.958 166.122 445.693 166.428V166.428C447.428 166.734 449.082 165.575 449.388 163.84L453.375 141.225Z" fill="#DA6053"></path>
<path d="M349.243 166.34L348.751 158.149C348.74 157.968 348.801 157.791 348.921 157.655C349.275 157.257 349.929 157.399 350.085 157.909L356.054 177.497L347.513 182.242L343.791 174.203C343.474 173.519 343.593 172.711 344.093 172.147L349.243 166.34Z" fill="#DA6053"></path>
<path d="M420.113 203.752C420.113 203.7 420.113 203.647 420.113 203.595C420.113 195.995 413.952 189.834 406.353 189.834C398.753 189.834 392.592 195.995 392.592 203.595C392.592 206.75 393.654 209.657 395.44 211.979C395.439 212.031 395.439 212.083 395.439 212.136C395.439 219.736 401.6 225.897 409.2 225.897C416.8 225.897 422.96 219.736 422.96 212.136C422.96 208.981 421.899 206.073 420.113 203.752Z" fill="white"></path>
<path d="M356.053 177.022L368.864 219.254L442.793 241.478C444.995 242.14 446.882 243.579 448.103 245.528L465.544 273.366C468.442 277.991 466.85 284.101 462.065 286.725L426.755 306.089H391.641L385.472 253.419L361.41 239.053C356.518 236.132 353.197 231.168 352.363 225.532L345.613 179.87L356.053 177.022Z" fill="#D9D9D9"></path>
<path d="M424.855 256.74L445.259 272.874L419.161 299.446" stroke="#0B354C" stroke-width="1.11584"></path>
<path d="M412.045 254.624L339.92 255.343L370.289 306.564H423.434L412.045 254.624Z" fill="#6F7EB1"></path>
<path d="M413.468 234.914L409.672 223.051L402.079 224L399.232 234.914C402.844 241.233 409.672 239.659 413.468 234.914Z" fill="#DA6053"></path>
<path d="M408.097 223.247L402.079 223.999L399.261 234.802L408.097 223.247Z" fill="#122C7F"></path>
<path d="M411.484 220.031C413.277 219.473 414.959 219.765 415.603 220.88C416.424 222.302 415.245 224.52 412.969 225.834C410.694 227.148 408.184 227.06 407.363 225.638C407.288 225.508 407.229 225.372 407.187 225.23C402.567 228.932 396.894 229.617 393.884 226.607C390.549 223.272 391.751 216.662 396.569 211.844C399.17 209.243 402.293 207.696 405.142 207.348L411.484 220.031Z" fill="#DA6053"></path>
<path d="M384.522 245.353L384.997 253.419" stroke="#0B354C" stroke-width="1.11584"></path>
<path d="M350.174 80.4267L349.987 81.3164C349.908 81.1088 348.879 76.7493 347.07 75.5828C346.575 75.2664 346.486 75.1379 346.773 75.1379C347.693 75.1379 349.126 72.6962 349.561 70.3434C349.769 69.2659 349.799 69.2263 350.056 69.8986C350.59 71.332 351.47 72.6863 352.676 73.9418L353.467 74.7723C353.358 74.9008 351.134 75.7706 350.174 80.4267Z" fill="white"></path>
<path d="M360.267 86.289C359.921 86.4076 358.981 87.228 358.764 87.5839C358.467 88.0881 358.477 88.0881 358.131 87.5345C357.834 87.06 357.132 86.536 356.667 86.447C356.311 86.368 356.321 86.3483 356.895 85.7848C357.172 85.5179 357.557 84.9741 357.755 84.5787C358.2 83.7186 358.141 83.7286 358.566 84.4107C358.892 84.9248 359.426 85.4881 360.099 86.022C360.286 86.1505 360.346 86.2593 360.267 86.289Z" fill="white"></path>
<path d="M285.323 132.773L285.511 131.884C285.59 132.091 286.618 136.451 288.428 137.617C288.922 137.934 289.011 138.062 288.724 138.062C287.805 138.062 286.371 140.504 285.936 142.857C285.728 143.934 285.699 143.974 285.442 143.302C284.908 141.868 284.028 140.514 282.821 139.258L282.03 138.428C282.139 138.299 284.364 137.43 285.323 132.773Z" fill="white"></path>
<path d="M275.231 126.911C275.577 126.793 276.516 125.972 276.734 125.616C277.03 125.112 277.021 125.112 277.367 125.666C277.663 126.14 278.365 126.664 278.83 126.753C279.186 126.832 279.176 126.852 278.603 127.415C278.326 127.682 277.94 128.226 277.742 128.622C277.297 129.482 277.357 129.472 276.932 128.789C276.605 128.275 276.071 127.712 275.399 127.178C275.211 127.05 275.152 126.941 275.231 126.911Z" fill="white"></path>
</g>
<defs>
<clipPath id="clip0_470_1026">
<rect width="492" height="400" fill="white"></rect>
</clipPath>
</defs>
</svg>