<svg width="616" height="464" viewBox="0 0 616 464" fill="none" xmlns="http://www.w3.org/2000/svg">
<rect width="616" height="464" fill="#0E2C50"></rect>
<g clip-path="url(#clip0_328_1117)">
<path d="M117.609 139.504L109.571 66.5864L196.269 78.1449L198.565 117.188L117.609 139.504Z" fill="#6F7EB1"></path>
<path d="M117.369 74.9155L140.244 76.5893M117.369 81.6105L129.922 81.8895" stroke="white" stroke-width="1.11584"></path>
<path fill-rule="evenodd" clip-rule="evenodd" d="M163.347 106.388C168.25 101.485 168.25 93.5371 163.347 88.6347C158.445 83.7324 150.497 83.7324 145.595 88.6347C140.692 93.5371 140.692 101.485 145.595 106.388C150.497 111.29 158.445 111.29 163.347 106.388ZM161.683 104.723C165.667 100.74 165.667 94.2822 161.683 90.299C157.7 86.3159 151.242 86.3159 147.259 90.299C143.276 94.2822 143.276 100.74 147.259 104.723C151.242 108.706 157.7 108.706 161.683 104.723Z" fill="white"></path>
<path d="M162.516 107.22L164.18 105.556L170.005 111.381C170.465 111.84 170.465 112.586 170.005 113.045V113.045C169.545 113.505 168.8 113.505 168.341 113.045L162.516 107.22Z" fill="white"></path>
<path d="M244.628 203.723L267.595 142.862L218.217 146.307L187.787 203.723H244.628Z" fill="#82B5E1"></path>
<path d="M237.017 151.817C235.614 150.095 233.74 148.817 231.624 148.138L204.436 139.417L191.231 141.714L156.781 162.958L170.561 205.446L238.311 211.927L252.4 170.687L237.017 151.817Z" fill="#D9D9D9"></path>
<path d="M252.403 170.687L267.906 189.704C273.6 196.688 273.084 206.847 266.713 213.218C261.128 218.803 252.503 219.972 245.633 216.077L238.314 211.927L238.25 211.726L200.994 193.388L191.233 197.981L186.82 184.139L200.994 181.905L239.462 192.814L235.183 187.906L252.403 170.687Z" fill="#6F7EB1"></path>
<path d="M247.921 195.514L238.811 192.667" stroke="#122C7F" stroke-width="1.11584" stroke-linecap="round"></path>
<path d="M192.002 103.615C199.267 105.156 204.695 110.39 206.336 116.613C207.632 116.679 208.812 117.11 209.737 117.942C212.565 120.487 211.936 125.8 208.33 129.807C205.71 132.718 202.241 134.138 199.454 133.722C195.48 136.269 190.332 137.302 185.09 136.19C175.163 134.084 168.664 125.084 170.573 116.088C172.482 107.093 182.076 101.508 192.002 103.615Z" fill="#122C7F"></path>
<path d="M209.027 143.437L200.415 127.36H194.099L191.229 146.308C199.956 150.901 206.731 146.308 209.027 143.437Z" fill="#8C98C1"></path>
<path d="M193.431 147.294L199.841 133.102L192.915 135.18L191.229 146.308C191.978 146.702 192.713 147.029 193.431 147.294Z" fill="#122C7F"></path>
<ellipse cx="2.87078" cy="5.1674" rx="2.87078" ry="5.1674" transform="matrix(0.74337 0.66888 -0.668878 0.743372 202.467 123.443)" fill="#8C98C1"></ellipse>
<path d="M184.466 118.945C182.984 121.195 181.807 123.999 181.141 127.135C179.298 135.821 182.079 143.769 187.352 144.888C192.625 146.007 198.394 139.873 200.237 131.188C200.645 129.266 200.826 127.381 200.804 125.598L184.466 118.945Z" fill="#8C98C1"></path>
<path d="M183.767 161.235L130.371 149.178L155.634 204.297L196.973 207.742L183.767 161.235Z" fill="#DA6053"></path>
<path d="M147.202 199.859L144.876 190.555C144.776 190.154 144.785 189.734 144.904 189.338L146.445 184.201L148.168 187.072L155.632 180.756L157.928 182.479L158.502 188.795L153.97 200.379C153.594 201.337 152.627 201.929 151.602 201.827L149.201 201.587C148.237 201.49 147.437 200.799 147.202 199.859Z" fill="#6F7EB1"></path>
<path d="M149.891 191.092L156.78 181.905" stroke="#122C7F" stroke-width="1.11584" stroke-linecap="round"></path>
<path d="M151.037 195.111L157.927 185.924" stroke="#122C7F" stroke-width="1.11584" stroke-linecap="round"></path>
<path d="M80.5481 158.918L115.038 144.098L124.28 184.167L89.7897 193.408L80.5481 158.918Z" fill="#122C7F"></path>
<path d="M94.3219 162.906L109.725 155.721L114.821 174.741C115.459 177.122 114.046 179.57 111.665 180.208C109.284 180.846 106.837 179.433 106.199 177.052C105.561 174.671 106.974 172.223 109.355 171.585C110.642 171.24 111.949 171.495 112.979 172.178L110.431 162.667L97.0815 168.894L100.309 180.94C100.947 183.321 99.5343 185.769 97.1532 186.407C94.7722 187.045 92.3248 185.632 91.6868 183.251C91.0488 180.87 92.4618 178.422 94.8428 177.784C96.1305 177.439 97.4376 177.694 98.4674 178.377L94.3219 162.906Z" fill="#DA6053"></path>
<rect x="261.628" y="119.549" width="35.7068" height="35.7068" transform="rotate(15 261.628 119.549)" fill="white"></rect>
<rect x="261.628" y="119.549" width="35.7068" height="26.7801" transform="rotate(15 261.628 119.549)" fill="#D9D9D9"></rect>
<path d="M290.053 151.425L289.187 154.658L268.708 149.171L283.876 139.373L290.053 151.425Z" fill="#82B5E1"></path>
<path d="M280.565 152.348L254.697 145.417L255.852 141.106L270.404 131.142L280.565 152.348Z" fill="#8C98C1"></path>
<path d="M282.779 133.304C282.301 135.089 280.465 136.149 278.679 135.671C276.894 135.192 275.834 133.357 276.312 131.571C276.791 129.785 278.626 128.725 280.412 129.204C282.198 129.682 283.258 131.518 282.779 133.304Z" fill="#DA6053"></path>
<path d="M199.941 43.9873L240.011 40.3249L249.252 74.815L214.762 84.0566L199.941 43.9873Z" fill="#DA6053"></path>
<path d="M220.766 54.7236L236.01 59.8806L225.386 71.9687L220.766 54.7236Z" fill="white"></path>
<ellipse cx="308.36" cy="232.794" rx="182.686" ry="182.686" stroke="#82B5E1" stroke-width="1.11584"></ellipse>
<path d="M308.836 50.1074V180.505M308.836 415.48V227.214" stroke="#82B5E1" stroke-width="1.11584"></path>
<path d="M491.521 232.793L430.921 232.793M126.149 232.793L406.372 232.793" stroke="#82B5E1" stroke-width="1.11584"></path>
<path d="M230.815 138.519C246.807 85.5346 275.871 50.1074 309.072 50.1074C333.222 50.1074 355.184 68.8524 371.517 99.4646M218.081 216.627C217.848 221.954 217.729 227.346 217.729 232.794C217.729 242.477 218.105 251.985 218.831 261.261M256.849 382.698C271.65 403.361 289.653 415.48 309.072 415.48C359.519 415.48 400.415 333.689 400.415 232.794C400.415 216.767 399.383 201.222 397.445 186.41" stroke="#82B5E1" stroke-width="1.11584"></path>
<path d="M113.673 313.153L100.632 233.436L187.697 247.671L194.585 289.902L113.673 313.153Z" fill="white"></path>
<path d="M138.233 340.301L124.013 274.818L209.784 276.731L219.749 332.723L138.233 340.301Z" fill="#D9D9D9"></path>
<path d="M167.597 289.713L169.147 298.504L160.356 300.054L167.597 289.713Z" fill="#82B5E1"></path>
<path d="M185.179 286.612L167.597 289.713L169.147 298.504L160.356 300.054L165.006 326.427L191.379 321.777L185.179 286.612Z" fill="white"></path>
<path d="M312.017 257.171L308.829 261.776L302.186 257.98L305.033 247.066L313.484 238.615C313.796 238.303 314.301 238.303 314.612 238.615C314.845 238.847 314.911 239.198 314.779 239.499L311.676 246.592L312.803 253.73C312.993 254.935 312.712 256.167 312.017 257.171Z" fill="white"></path>
<path d="M244.768 293.215C250.902 290.695 255.207 284.791 255.207 277.91C255.207 268.737 247.559 261.302 238.125 261.302C228.691 261.302 221.043 268.737 221.043 277.91C221.043 279.442 221.256 280.927 221.656 282.336C218.39 284.857 216.297 288.739 216.297 293.094C216.297 296.712 217.742 300.003 220.103 302.459C213.964 304.977 209.654 310.883 209.654 317.768C209.654 326.941 217.302 334.376 226.737 334.376C236.171 334.376 243.819 326.941 243.819 317.768C243.819 312.638 241.426 308.051 237.667 305.005C241.879 302.642 244.723 298.251 244.768 293.215Z" fill="#122C7F"></path>
<path d="M208.347 393.699L256.631 366.168L263.275 328.208L280.871 315.918C288.874 310.329 294.959 302.406 298.295 293.232L310.251 260.353L302.184 257.031L280.832 290.721L222.109 319.267C215.915 322.278 211.023 327.432 208.338 333.773L189.906 377.311C187.162 383.792 190.065 391.281 196.461 394.22C200.275 395.972 204.7 395.778 208.347 393.699Z" fill="#82B5E1"></path>
<path d="M234.33 316.345L232.906 297.365L240.024 297.839L247.616 313.498L247.291 314.206C244.951 319.313 238.187 320.429 234.33 316.345Z" fill="white"></path>
<path d="M247.241 312.722L240.025 297.839L233.412 297.398L247.241 312.722Z" fill="#122C7F"></path>
<path d="M248.567 350.035L237.179 342.443L260.43 335.326L274.665 339.596L248.567 350.035Z" fill="white"></path>
<path d="M248.565 350.035L259.954 325.835L281.307 320.141L274.663 339.596L248.565 350.035Z" fill="#122C7F"></path>
<path d="M281.782 358.576L255.684 375.659L259.954 325.835L289.848 312.549L281.782 358.576Z" fill="#6F7EB1"></path>
<path d="M250.463 369.964L249.988 360L258.055 351.458L257.58 356.204L269.443 359.051V362.372H266.596L250.463 369.964Z" fill="white"></path>
<path d="M258.531 362.373H267.547" stroke="black" stroke-width="1.11584"></path>
<path d="M226.264 347.663L217.722 368.067M211.554 369.49L245.244 361.423" stroke="black" stroke-width="1.11584"></path>
<path d="M230.45 289.012C233.601 287.75 236.582 285.187 238.634 281.633C239.154 280.731 239.59 279.81 239.942 278.881C243.425 279.931 247.063 282.965 249.581 287.328C253.643 294.363 253.257 302.191 248.718 304.812C244.179 307.432 237.206 303.853 233.144 296.818C231.646 294.223 230.753 291.521 230.45 289.012Z" fill="white"></path>
<ellipse cx="231.55" cy="293.636" rx="3.79608" ry="5.69412" transform="rotate(-45 231.55 293.636)" fill="white"></ellipse>
<path fill-rule="evenodd" clip-rule="evenodd" d="M308.916 216.813C308.916 216.813 322.202 205.17 322.202 193.088C322.202 185.75 316.254 179.801 308.916 179.801C301.578 179.801 295.63 185.75 295.63 193.088C295.63 205.17 308.916 216.813 308.916 216.813ZM308.916 197.833C311.537 197.833 313.661 195.708 313.661 193.088C313.661 190.467 311.537 188.342 308.916 188.342C306.296 188.342 304.171 190.467 304.171 193.088C304.171 195.708 306.296 197.833 308.916 197.833Z" fill="#DA6053"></path>
<path d="M316.51 219.16L383.416 250.722L362.293 309.791L289.938 366.258" stroke="#D9D9D9" stroke-width="1.11584" stroke-dasharray="2.85 2.85"></path>
<path d="M388.161 250.722C388.161 253.342 386.037 255.467 383.416 255.467C380.795 255.467 378.671 253.342 378.671 250.722C378.671 248.101 380.795 245.977 383.416 245.977C386.037 245.977 388.161 248.101 388.161 250.722Z" fill="#82B5E1"></path>
<path d="M367.036 309.791C367.036 312.411 364.912 314.536 362.291 314.536C359.67 314.536 357.546 312.411 357.546 309.791C357.546 307.17 359.67 305.046 362.291 305.046C364.912 305.046 367.036 307.17 367.036 309.791Z" fill="#D9D9D9"></path>
<path d="M294.681 366.257C294.681 368.878 292.556 371.002 289.936 371.002C287.315 371.002 285.19 368.878 285.19 366.257C285.19 363.637 287.315 361.512 289.936 361.512C292.556 361.512 294.681 363.637 294.681 366.257Z" fill="#DA6053"></path>
<path d="M154.507 323.748L188.997 338.568L178.64 374.174L141.918 364.933L154.507 323.748Z" fill="#DA6053"></path>
<ellipse cx="167.118" cy="351.188" rx="12.2583" ry="12.2742" transform="rotate(15 167.118 351.188)" stroke="white" stroke-width="1.11584" stroke-linejoin="round"></ellipse>
<path d="M170.324 339.34L163.971 363.052" stroke="white" stroke-width="1.11584" stroke-linejoin="round"></path>
<path d="M178.987 354.369L155.306 348.024" stroke="white" stroke-width="1.11584" stroke-linejoin="round"></path>
<ellipse cx="167.162" cy="351.2" rx="6.12914" ry="12.2742" transform="rotate(15 167.162 351.2)" stroke="white" stroke-width="1.11584" stroke-linejoin="round"></ellipse>
<path d="M342.407 183.166L343.511 103.88L470.081 106.354L449.817 181.981L342.407 183.166Z" fill="#82B5E1"></path>
<path d="M352.812 113.97L375.686 114.528M352.812 120.665L364.249 120.944" stroke="white" stroke-width="1.11584"></path>
<path d="M410.836 170.877L443.195 171.413M410.836 177.305L427.016 177.572" stroke="#D9D9D9" stroke-width="1.11584"></path>
<path d="M362.729 176.257L375.067 155.494L388.635 168.05L409.039 133.218L422.992 145.774L450.707 115.045" stroke="#122C7F" stroke-width="1.11584"></path>
<ellipse cx="498.91" cy="181.976" rx="28.4706" ry="28.4706" transform="rotate(10 498.91 181.976)" fill="white"></ellipse>
<path d="M496.679 176.405C496.984 174.67 498.639 173.512 500.373 173.818V173.818C502.108 174.124 503.266 175.778 502.961 177.513L500.081 193.846C499.775 195.58 498.12 196.739 496.386 196.433V196.433C494.651 196.127 493.493 194.473 493.799 192.738L496.679 176.405Z" fill="#0B354C"></path>
<path d="M484.263 180.693C484.569 178.958 486.223 177.8 487.958 178.106V178.106C489.693 178.412 490.851 180.066 490.545 181.801L488.773 191.852C488.467 193.587 486.813 194.745 485.078 194.439V194.439C483.343 194.133 482.185 192.479 482.491 190.744L484.263 180.693Z" fill="#0B354C"></path>
<path d="M515.376 173.224C515.681 171.49 514.523 169.835 512.788 169.529V169.529C511.054 169.224 509.399 170.382 509.094 172.117L505.106 194.732C504.8 196.467 505.958 198.121 507.693 198.427V198.427C509.428 198.733 511.082 197.574 511.388 195.84L515.376 173.224Z" fill="#DA6053"></path>
<path d="M411.243 198.34L410.751 190.149C410.74 189.968 410.801 189.791 410.921 189.655C411.275 189.257 411.929 189.399 412.085 189.909L418.054 209.497L409.513 214.242L405.791 206.203C405.474 205.519 405.593 204.711 406.093 204.147L411.243 198.34Z" fill="#DA6053"></path>
<path d="M482.113 235.753C482.113 235.7 482.113 235.648 482.113 235.595C482.113 227.995 475.952 221.834 468.353 221.834C460.753 221.834 454.592 227.995 454.592 235.595C454.592 238.751 455.654 241.658 457.44 243.979C457.439 244.031 457.439 244.084 457.439 244.136C457.439 251.736 463.6 257.897 471.2 257.897C478.8 257.897 484.96 251.736 484.96 244.136C484.96 240.981 483.899 238.074 482.113 235.753Z" fill="white"></path>
<path d="M418.053 209.022L430.864 251.254L504.793 273.478C506.995 274.14 508.882 275.579 510.103 277.528L527.544 305.366C530.442 309.991 528.85 316.101 524.065 318.725L488.755 338.089H453.641L447.472 285.419L423.41 271.053C418.518 268.132 415.197 263.168 414.363 257.532L407.613 211.87L418.053 209.022Z" fill="#D9D9D9"></path>
<path d="M486.855 288.74L507.259 304.874L481.161 331.446" stroke="#0B354C" stroke-width="1.11584"></path>
<path d="M474.045 286.624L401.92 287.343L432.289 338.564H485.434L474.045 286.624Z" fill="#6F7EB1"></path>
<path d="M475.468 266.913L471.672 255.05L464.079 255.999L461.232 266.913C464.844 273.233 471.672 271.658 475.468 266.913Z" fill="#DA6053"></path>
<path d="M470.097 255.247L464.079 255.999L461.261 266.802L470.097 255.247Z" fill="#122C7F"></path>
<path d="M473.483 252.032C475.277 251.473 476.958 251.765 477.602 252.88C478.423 254.303 477.245 256.521 474.969 257.834C472.694 259.148 470.183 259.06 469.362 257.638C469.287 257.508 469.23 257.372 469.187 257.23C464.568 260.932 458.893 261.618 455.884 258.608C452.548 255.272 453.75 248.662 458.568 243.844C461.169 241.243 464.293 239.696 467.141 239.348L473.483 252.032Z" fill="#DA6053"></path>
<path d="M446.522 277.353L446.997 285.419" stroke="#0B354C" stroke-width="1.11584"></path>
<path d="M412.174 112.427L411.986 113.316C411.907 113.109 410.879 108.749 409.07 107.583C408.575 107.266 408.486 107.138 408.773 107.138C409.692 107.138 411.126 104.696 411.561 102.343C411.769 101.266 411.799 101.226 412.056 101.899C412.59 103.332 413.47 104.686 414.676 105.942L415.467 106.772C415.358 106.901 413.134 107.771 412.174 112.427Z" fill="white"></path>
<path d="M422.267 118.289C421.92 118.408 420.981 119.228 420.764 119.584C420.467 120.088 420.477 120.088 420.131 119.534C419.834 119.06 419.132 118.536 418.667 118.447C418.311 118.368 418.321 118.348 418.895 117.785C419.172 117.518 419.557 116.974 419.755 116.579C420.2 115.719 420.141 115.729 420.566 116.411C420.892 116.925 421.426 117.488 422.098 118.022C422.286 118.15 422.346 118.259 422.267 118.289Z" fill="white"></path>
<path d="M347.323 164.773L347.511 163.884C347.59 164.091 348.618 168.451 350.428 169.617C350.922 169.934 351.011 170.062 350.724 170.062C349.805 170.062 348.371 172.504 347.936 174.857C347.728 175.934 347.698 175.974 347.441 175.302C346.907 173.868 346.027 172.514 344.821 171.258L344.03 170.428C344.139 170.299 346.364 169.43 347.323 164.773Z" fill="white"></path>
<path d="M337.231 158.911C337.577 158.793 338.516 157.972 338.734 157.616C339.03 157.112 339.02 157.112 339.366 157.666C339.663 158.14 340.365 158.664 340.83 158.753C341.186 158.832 341.176 158.852 340.602 159.415C340.326 159.682 339.94 160.226 339.742 160.622C339.297 161.482 339.356 161.472 338.931 160.789C338.605 160.275 338.071 159.712 337.399 159.178C337.211 159.05 337.151 158.941 337.231 158.911Z" fill="white"></path>
</g>
<defs>
<clipPath id="clip0_328_1117">
<rect width="552" height="400" fill="white" transform="translate(32 32)"></rect>
</clipPath>
</defs>
</svg>