<?xml version="1.0" encoding="UTF-8"?>  <svg xmlns="http://www.w3.org/2000/svg" xmlns:xlink="http://www.w3.org/1999/xlink" version="1.1" id="Layer_1" x="0px" y="0px" width="701px" height="351px" viewBox="0 0 701 351" xml:space="preserve"> <g> <g> <defs> <rect id="SVGID_1_" width="701" height="351"></rect> </defs> <clipPath id="SVGID_2_"> <use xlink:href="#SVGID_1_" overflow="visible"></use> </clipPath> </g> <g> <defs> <rect id="SVGID_4_" width="701" height="351"></rect> </defs> <clipPath id="SVGID_6_"> <use xlink:href="#SVGID_4_" overflow="visible"></use> </clipPath> </g> <g> <defs> <rect id="SVGID_8_" width="701" height="351"></rect> </defs> <clipPath id="SVGID_10_"> <use xlink:href="#SVGID_8_" overflow="visible"></use> </clipPath> <g clip-path="url(#SVGID_10_)"> <g> <g> <g> <circle id="SVGID_3_" fill="#3572B6" cx="484.444" cy="91.681" r="68.314"></circle> </g> <g> <defs> <circle id="SVGID_11_" cx="484.444" cy="91.681" r="68.314"></circle> </defs> <defs> <circle id="SVGID_12_" cx="484.444" cy="91.681" r="68.314"></circle> </defs> <clipPath id="SVGID_13_"> <use xlink:href="#SVGID_11_" overflow="visible"></use> </clipPath> <clipPath id="SVGID_14_" clip-path="url(#SVGID_13_)"> <use xlink:href="#SVGID_12_" overflow="visible"></use> </clipPath> <circle clip-path="url(#SVGID_14_)" fill="#80B3E0" cx="485.027" cy="91.587" r="68.314"></circle> <circle clip-path="url(#SVGID_14_)" fill="none" cx="484.456" cy="91.751" r="68.314"></circle> </g> </g> <g> <rect x="453.444" y="47.111" fill="#FDE7DF" width="64.545" height="81.756"></rect> <rect x="458.358" y="85.44" fill="#26282F" width="56.026" height="3.134"></rect> <rect x="458.358" y="61.15" fill="#26282F" width="56.026" height="3.134"></rect> <rect x="458.358" y="55.253" fill="#26282F" width="56.026" height="3.134"></rect> <rect x="458.358" y="66.847" fill="#3572B6" width="56.026" height="16.062"></rect> <rect x="458.358" y="96.771" fill="#26282F" width="56.026" height="3.134"></rect> <rect x="458.358" y="91.26" fill="#26282F" width="56.026" height="3.134"></rect> <rect x="498.33" y="106.444" fill="#26282F" width="16.054" height="3.134"></rect> <rect x="498.33" y="117.774" fill="#26282F" width="16.054" height="3.134"></rect> <rect x="498.33" y="112.263" fill="#26282F" width="16.054" height="3.134"></rect> <circle fill="#3572B6" cx="466.997" cy="113.676" r="8.639"></circle> <circle fill="#D95F55" cx="486.371" cy="113.676" r="8.639"></circle> </g> </g> <g> <defs> <rect id="SVGID_15_" width="701" height="351"></rect> </defs> <clipPath id="SVGID_16_"> <use xlink:href="#SVGID_15_" overflow="visible"></use> </clipPath> <g clip-path="url(#SVGID_16_)"> <g> <g> <g> <circle id="SVGID_5_" fill="#3572B6" cx="205.62" cy="85.44" r="66.926"></circle> </g> <g> <defs> <circle id="SVGID_17_" cx="205.62" cy="85.44" r="66.926"></circle> </defs> <defs> <circle id="SVGID_18_" cx="205.62" cy="85.44" r="66.926"></circle> </defs> <clipPath id="SVGID_19_"> <use xlink:href="#SVGID_17_" overflow="visible"></use> </clipPath> <clipPath id="SVGID_20_" clip-path="url(#SVGID_19_)"> <use xlink:href="#SVGID_18_" overflow="visible"></use> </clipPath> <circle clip-path="url(#SVGID_20_)" fill="#80B3E0" cx="206.191" cy="85.348" r="66.926"></circle> <circle clip-path="url(#SVGID_20_)" fill="none" cx="205.631" cy="85.51" r="66.926"></circle> </g> </g> <g> <rect x="175.249" y="44.344" fill="#FDE7DF" width="63.234" height="80.096"></rect> <rect x="180.064" y="98.782" fill="#26282F" width="54.888" height="3.07"></rect> <rect x="201.891" y="65.958" fill="#26282F" width="33.061" height="3.07"></rect> <rect x="201.891" y="57.752" fill="#26282F" width="33.061" height="3.07"></rect> <rect x="180.064" y="115.195" fill="#26282F" width="54.888" height="3.07"></rect> <rect x="180.064" y="106.988" fill="#26282F" width="54.888" height="3.07"></rect> <rect x="180.064" y="74.164" fill="#26282F" width="54.888" height="3.07"></rect> <rect x="180.064" y="90.576" fill="#26282F" width="54.888" height="3.07"></rect> <rect x="180.064" y="82.37" fill="#26282F" width="54.888" height="3.07"></rect> <g> <path fill="#D95F55" d="M182.096,49.825c1.233-0.247,3.726-0.431,6.067-0.431c2.864,0,4.619,0.277,6.129,1.17 c1.447,0.77,2.494,2.187,2.494,4.066c0,1.847-1.077,3.572-3.418,4.435v0.061c2.371,0.647,4.126,2.432,4.126,5.112 c0,1.878-0.861,3.358-2.155,4.405c-1.51,1.201-4.035,1.878-8.161,1.878c-2.31,0-4.035-0.154-5.082-0.308L182.096,49.825 L182.096,49.825z M186.746,57.771h1.54c2.464,0,3.788-1.016,3.788-2.557c0-1.57-1.201-2.401-3.325-2.401 c-1.017,0-1.602,0.061-2.002,0.123L186.746,57.771L186.746,57.771z M186.746,66.979c0.463,0.061,1.017,0.061,1.817,0.061 c2.125,0,4.004-0.8,4.004-2.987c0-2.094-1.878-2.926-4.219-2.926h-1.601v5.852H186.746z"></path> </g> </g> <polygon fill="#FDE7DF" points="219.277,121.872 194.455,121.872 206.866,134.179 "></polygon> </g> <g> <defs> <rect id="SVGID_21_" width="701" height="351"></rect> </defs> <clipPath id="SVGID_22_"> <use xlink:href="#SVGID_21_" overflow="visible"></use> </clipPath> <g clip-path="url(#SVGID_22_)"> <g> <g> <g> <circle id="SVGID_7_" fill="#3572B6" cx="86.681" cy="218.628" r="60.738"></circle> </g> <g> <defs> <circle id="SVGID_23_" cx="86.681" cy="218.628" r="60.738"></circle> </defs> <defs> <circle id="SVGID_24_" cx="86.681" cy="218.628" r="60.738"></circle> </defs> <clipPath id="SVGID_25_"> <use xlink:href="#SVGID_23_" overflow="visible"></use> </clipPath> <clipPath id="SVGID_26_" clip-path="url(#SVGID_25_)"> <use xlink:href="#SVGID_24_" overflow="visible"></use> </clipPath> <circle clip-path="url(#SVGID_26_)" fill="#80B3E0" cx="87.199" cy="218.544" r="60.738"></circle> <circle clip-path="url(#SVGID_26_)" fill="none" cx="86.691" cy="218.691" r="60.738"></circle> </g> </g> <rect x="55.581" y="182.118" transform="matrix(-0.9824 0.1868 -0.1868 -0.9824 213.0362 420.8475)" fill="#26282F" width="62.218" height="76.686"></rect> <rect x="58.128" y="184.041" transform="matrix(-0.9824 0.1868 -0.1868 -0.9824 212.9326 420.4903)" fill="#FDE7DF" width="57.054" height="72.473"></rect> <g> <path fill="#D95F55" d="M94.445,175.22l-29.607,5.628c-4.606,0.876-7.63,5.32-6.755,9.926l46.287-8.799 C103.495,177.369,99.051,174.345,94.445,175.22z"></path> <circle fill="#D95F55" cx="78.651" cy="178.223" r="4.911"></circle> <circle fill="#3572B6" cx="78.651" cy="178.223" r="2.275"></circle> </g> <g> <line fill="none" stroke="#26282F" stroke-width="1.799" stroke-miterlimit="10" x1="59.804" y1="199.823" x2="67.593" y2="204.442"></line> <line fill="none" stroke="#26282F" stroke-width="1.799" stroke-miterlimit="10" x1="61.389" y1="206.027" x2="66.008" y2="198.238"></line> </g> <g> <line fill="none" stroke="#26282F" stroke-width="1.799" stroke-miterlimit="10" x1="103.699" y1="242.073" x2="111.487" y2="246.692"></line> <line fill="none" stroke="#26282F" stroke-width="1.799" stroke-miterlimit="10" x1="105.284" y1="248.277" x2="109.902" y2="240.488"></line> </g> <g> <g> <line fill="none" stroke="#26282F" stroke-width="1.1703" stroke-miterlimit="10" x1="63.08" y1="202.541" x2="65.417" y2="202.681"></line> <line fill="none" stroke="#26282F" stroke-width="1.1703" stroke-miterlimit="10" stroke-dasharray="4.9817,4.9817" x1="70.39" y1="202.978" x2="97.74" y2="204.613"></line> <polyline fill="none" stroke="#26282F" stroke-width="1.1703" stroke-miterlimit="10" points="100.227,204.761 102.563,204.901 100.876,206.523 "></polyline> <line fill="none" stroke="#26282F" stroke-width="1.1703" stroke-miterlimit="10" stroke-dasharray="4.7023,4.7023" x1="97.486" y1="209.782" x2="78.84" y2="227.704"></line> <polyline fill="none" stroke="#26282F" stroke-width="1.1703" stroke-miterlimit="10" points="77.145,229.334 75.457,230.956 77.623,231.843 "></polyline> <line fill="none" stroke="#26282F" stroke-width="1.1703" stroke-miterlimit="10" stroke-dasharray="4.2557,4.2557" x1="81.561" y1="233.456" x2="103.221" y2="242.328"></line> <line fill="none" stroke="#26282F" stroke-width="1.1703" stroke-miterlimit="10" x1="105.19" y1="243.135" x2="107.356" y2="244.022"></line> </g> </g> <circle fill="#FDE7DF" stroke="#D95F55" stroke-width="2.3406" stroke-miterlimit="10" cx="102.563" cy="204.901" r="4.039"></circle> <circle fill="#FDE7DF" stroke="#D95F55" stroke-width="2.3406" stroke-miterlimit="10" cx="73.358" cy="231.318" r="4.039"></circle> </g> <g> <defs> <rect id="SVGID_27_" width="701" height="351"></rect> </defs> <clipPath id="SVGID_28_"> <use xlink:href="#SVGID_27_" overflow="visible"></use> </clipPath> <g clip-path="url(#SVGID_28_)"> <g> <g> <g> <circle id="SVGID_9_" fill="#3572B6" cx="617.396" cy="199.611" r="61.164"></circle> </g> <g> <defs> <circle id="SVGID_29_" cx="617.396" cy="199.611" r="61.164"></circle> </defs> <defs> <circle id="SVGID_30_" cx="617.396" cy="199.611" r="61.164"></circle> </defs> <clipPath id="SVGID_31_"> <use xlink:href="#SVGID_29_" overflow="visible"></use> </clipPath> <clipPath id="SVGID_32_" clip-path="url(#SVGID_31_)"> <use xlink:href="#SVGID_30_" overflow="visible"></use> </clipPath> <circle clip-path="url(#SVGID_32_)" fill="#80B3E0" cx="617.918" cy="199.526" r="61.164"></circle> <circle clip-path="url(#SVGID_32_)" fill="none" cx="617.406" cy="199.674" r="61.164"></circle> </g> </g> <circle fill="#FFFFFF" stroke="#D95F55" stroke-width="9.3871" stroke-miterlimit="10" cx="619.046" cy="199.611" r="42.621"></circle> <circle fill="#FFFFFF" stroke="#D95F55" stroke-width="9.3871" stroke-miterlimit="10" cx="619.046" cy="199.611" r="24.174"></circle> <circle fill="#D95F55" cx="619.046" cy="199.611" r="8.593"></circle> </g> <g> <defs> <rect id="SVGID_33_" width="701" height="351"></rect> </defs> <clipPath id="SVGID_34_"> <use xlink:href="#SVGID_33_" overflow="visible"></use> </clipPath> <path clip-path="url(#SVGID_34_)" fill="#26282F" d="M388.311,200.096c5.747-4.744,4.102-35.197,2.577-43.447 c-4.344-23.49-16.768-46.241-36.24-52.717c-17.601-5.854-37.796,0.523-50.029,17.673 c-13.844,19.407-16.285,79.719-10.18,80.502C361.966,210.762,387.638,200.652,388.311,200.096z"></path> </g> <g> <defs> <rect id="SVGID_35_" width="701" height="351"></rect> </defs> <clipPath id="SVGID_36_"> <use xlink:href="#SVGID_35_" overflow="visible"></use> </clipPath> <linearGradient id="XMLID_4_" gradientUnits="userSpaceOnUse" x1="101.6001" y1="979.5218" x2="118.7991" y2="1011.5061" gradientTransform="matrix(0.9908 -0.1351 -0.1351 -0.9908 368.9571 1195.8214)"> <stop offset="0.3103" style="stop-color:#A87C4F"></stop> <stop offset="0.8292" style="stop-color:#82603C"></stop> </linearGradient> <path id="XMLID_35_" clip-path="url(#SVGID_36_)" fill="url(#XMLID_4_)" d="M353.002,192.205l-26.848-18.519 c0,0-0.736,24.851-6.466,45.662l9.944,10.512l25.25,2.355l0.817-14.31C355.698,217.905,345.841,198.151,353.002,192.205z"></path> </g> <g> <defs> <rect id="SVGID_37_" width="701" height="351"></rect> </defs> <clipPath id="SVGID_38_"> <use xlink:href="#SVGID_37_" overflow="visible"></use> </clipPath> <path id="XMLID_18_" clip-path="url(#SVGID_38_)" fill="#A87C4F" d="M377.89,172.275 c-2.035,6.214-4.755,12.545-9.075,17.743c-3.791,4.562-9.116,9.38-15.608,10.261c-5.864,0.795-10.051-0.219-14.829-3.826 c-8.786-6.632-13.886-17.253-14.904-27.316c-0.478-4.721-0.052-9.482,1.405-13.933 c5.971-18.235,23.561-28.842,39.289-23.692C379.895,136.662,383.861,154.04,377.89,172.275z"></path> </g> <g> <defs> <rect id="SVGID_39_" x="0.762" y="-3.997" transform="matrix(-0.9908 0.1351 -0.1351 -0.9908 722.4515 293.9676)" width="700.978" height="350.989"></rect> </defs> <clipPath id="SVGID_40_"> <use xlink:href="#SVGID_39_" overflow="visible"></use> </clipPath> <ellipse id="XMLID_17_" transform="matrix(-0.1351 -0.9908 0.9908 -0.1351 198.5148 509.0503)" clip-path="url(#SVGID_40_)" fill="#A87C4F" cx="321.432" cy="167.883" rx="10.395" ry="7.697"></ellipse> </g> <g> <defs> <rect id="SVGID_41_" width="701" height="351"></rect> </defs> <clipPath id="SVGID_42_"> <use xlink:href="#SVGID_41_" overflow="visible"></use> </clipPath> <g id="XMLID_1_" clip-path="url(#SVGID_42_)"> <g id="XMLID_14_"> <path fill="#26282F" d="M351.947,169.861L351.947,169.861c-0.47,0-0.943-0.044-1.407-0.131 c-2.119-0.396-3.944-1.641-5.141-3.507c-1.187-1.851-1.612-4.092-1.197-6.313c0.758-4.056,4.142-7,8.048-7 c0.47,0,0.943,0.044,1.407,0.131c2.119,0.396,3.944,1.641,5.141,3.507c1.187,1.851,1.612,4.093,1.197,6.313 C359.238,166.917,355.852,169.861,351.947,169.861z M352.249,154.503c-3.139,0-5.866,2.397-6.483,5.7 c-0.34,1.82,0.006,3.652,0.973,5.16c0.957,1.492,2.411,2.487,4.093,2.802c0.368,0.069,0.743,0.104,1.115,0.104 c3.139,0,5.866-2.397,6.483-5.701c0.34-1.819-0.006-3.652-0.973-5.16c-0.957-1.493-2.411-2.487-4.093-2.802 C352.996,154.538,352.621,154.503,352.249,154.503z"></path> </g> <g id="XMLID_13_"> <path fill="#26282F" d="M371.497,172.396L371.497,172.396c-0.481,0-0.965-0.045-1.439-0.133 c-2.141-0.4-3.988-1.648-5.202-3.515c-1.206-1.855-1.641-4.1-1.226-6.322c0.756-4.048,4.165-6.986,8.106-6.986 c0.48,0,0.964,0.045,1.439,0.134c2.141,0.4,3.988,1.648,5.202,3.515c1.206,1.855,1.642,4.1,1.227,6.322 C378.847,169.458,375.438,172.396,371.497,172.396z M371.736,157.032c-3.175,0-5.926,2.392-6.541,5.686 c-0.34,1.818,0.014,3.651,0.996,5.161c0.975,1.498,2.451,2.499,4.159,2.818c0.378,0.071,0.764,0.106,1.146,0.106h0.001 c3.175,0,5.925-2.391,6.541-5.687c0.34-1.818-0.014-3.651-0.996-5.161c-0.974-1.498-2.451-2.499-4.159-2.817 C372.504,157.068,372.119,157.032,371.736,157.032z"></path> </g> <g id="XMLID_2_"> <path fill="#26282F" d="M363.957,162.16c-1.474-2.276-3.964-0.905-4.244-0.742l-0.814-1.369 c1.394-0.833,4.522-1.643,6.394,1.244L363.957,162.16z"></path> </g> </g> </g> <g> <defs> <rect id="SVGID_43_" width="701" height="351"></rect> </defs> <clipPath id="SVGID_44_"> <use xlink:href="#SVGID_43_" overflow="visible"></use> </clipPath> <path clip-path="url(#SVGID_44_)" fill="#26282F" d="M301.158,140.639c2.532,4.066,3.705,8.995,2.936,14.011 c-0.521,3.396-1.881,6.487-3.83,9.099c40.261,5.495,80.385-29.991,80.385-29.991 C352.565,98.545,320.006,121.22,301.158,140.639z"></path> </g> <g> <defs> <rect id="SVGID_45_" width="701" height="351"></rect> </defs> <clipPath id="SVGID_46_"> <use xlink:href="#SVGID_45_" overflow="visible"></use> </clipPath> <g id="XMLID_15_" clip-path="url(#SVGID_46_)"> <path id="XMLID_16_" fill="#D95F55" d="M320.843,213.491c0,0,21.662,16.22,33.736,0.511c0,0,45.973,5.758,60.246,38.748 c0,0,10.861,56.691,4.25,72.207l-171.038-3.924C248.038,321.032,252.477,213.392,320.843,213.491z"></path> </g> </g> <g> <defs> <rect id="SVGID_47_" width="701" height="351"></rect> </defs> <clipPath id="SVGID_48_"> <use xlink:href="#SVGID_47_" overflow="visible"></use> </clipPath> <path clip-path="url(#SVGID_48_)" fill="#D0D2D3" d="M407.53,309.809c0,2.834-2.298,5.132-5.132,5.132H297.526 c-2.834,0-5.132-2.298-5.132-5.132l0,0c0-2.834,2.298-5.132,5.132-5.132h104.872 C405.233,304.678,407.53,306.975,407.53,309.809L407.53,309.809z"></path> </g> <g> <defs> <rect id="SVGID_49_" width="701" height="351"></rect> </defs> <clipPath id="SVGID_50_"> <use xlink:href="#SVGID_49_" overflow="visible"></use> </clipPath> <path clip-path="url(#SVGID_50_)" fill="#FDE7DF" d="M479.544,310.905c0,3.269-2.65,5.919-5.919,5.919H343.067 c-3.269,0-5.919-2.65-5.919-5.919l10.356-82.735c0-3.269,2.65-5.919,5.919-5.919h130.558c3.269,0,5.919,2.65,5.919,5.919 L479.544,310.905z"></path> </g> <g> <defs> <rect id="SVGID_51_" width="701" height="351"></rect> </defs> <clipPath id="SVGID_52_"> <use xlink:href="#SVGID_51_" overflow="visible"></use> </clipPath> <g clip-path="url(#SVGID_52_)"> <path fill="#26282F" d="M497.196,321.032c0,3.194-2.869,5.807-6.375,5.807h-252.8c-3.506,0-6.375-2.613-6.375-5.807 s2.869-5.807,6.375-5.807h252.8C494.328,315.225,497.196,317.838,497.196,321.032z"></path> </g> </g> <g> <defs> <rect id="SVGID_53_" width="701" height="351"></rect> </defs> <clipPath id="SVGID_54_"> <use xlink:href="#SVGID_53_" overflow="visible"></use> </clipPath> <g clip-path="url(#SVGID_54_)"> <path fill="#26282F" d="M199.798,321.006c0-3.208,2.869-5.833,6.375-5.833h15.854c3.506,0,6.375,2.625,6.375,5.833 s-2.869,5.833-6.375,5.833h-15.854C202.667,326.839,199.798,324.214,199.798,321.006z"></path> </g> </g> <g> <defs> <rect id="SVGID_55_" width="701" height="351"></rect> </defs> <clipPath id="SVGID_56_"> <use xlink:href="#SVGID_55_" overflow="visible"></use> </clipPath> <g clip-path="url(#SVGID_56_)"> <path fill="#26282F" d="M500.082,321.006c0-3.208,2.869-5.833,6.375-5.833h15.854c3.506,0,6.375,2.625,6.375,5.833 s-2.869,5.833-6.375,5.833h-15.854C502.951,326.839,500.082,324.214,500.082,321.006z"></path> </g> </g> <g> <defs> <rect id="SVGID_57_" width="701" height="351"></rect> </defs> <clipPath id="SVGID_58_"> <use xlink:href="#SVGID_57_" overflow="visible"></use> </clipPath> <path clip-path="url(#SVGID_58_)" fill="#D0D2D3" d="M427.887,273.512c-6.469,0-11.714-5.244-11.714-11.714 c0-1.432,0.294-2.788,0.764-4.057c-5.364,1.072-9.408,5.802-9.408,11.481c0,6.469,5.244,11.714,11.714,11.714 c5.037,0,9.294-3.196,10.949-7.657C429.447,273.429,428.677,273.512,427.887,273.512z"></path> </g> <g> <defs> <rect id="SVGID_59_" width="701" height="351"></rect> </defs> <clipPath id="SVGID_60_"> <use xlink:href="#SVGID_59_" overflow="visible"></use> </clipPath> <polyline clip-path="url(#SVGID_60_)" fill="none" stroke="#FDE7DF" stroke-width="2.1249" stroke-miterlimit="10" stroke-dasharray="4.2499,4.2499" points=" 238.483,280.937 238.483,243.917 147.404,243.917 "></polyline> </g> <g> <defs> <rect id="SVGID_61_" width="701" height="351"></rect> </defs> <clipPath id="SVGID_62_"> <use xlink:href="#SVGID_61_" overflow="visible"></use> </clipPath> <polyline clip-path="url(#SVGID_62_)" fill="none" stroke="#FDE7DF" stroke-width="2.1249" stroke-miterlimit="10" stroke-dasharray="4.2499,4.2499" points=" 263.259,220.678 263.259,173.686 205.62,173.686 205.62,159.272 "></polyline> </g> <g> <defs> <rect id="SVGID_63_" width="701" height="351"></rect> </defs> <clipPath id="SVGID_64_"> <use xlink:href="#SVGID_63_" overflow="visible"></use> </clipPath> <polyline clip-path="url(#SVGID_64_)" fill="none" stroke="#FDE7DF" stroke-width="2.1249" stroke-miterlimit="10" stroke-dasharray="4.2499,4.2499" points=" 402.235,209.317 495.01,209.317 495.01,169.861 "></polyline> </g> <g> <defs> <rect id="SVGID_65_" width="701" height="351"></rect> </defs> <clipPath id="SVGID_66_"> <use xlink:href="#SVGID_65_" overflow="visible"></use> </clipPath> <polyline clip-path="url(#SVGID_66_)" fill="none" stroke="#FDE7DF" stroke-width="2.1249" stroke-miterlimit="10" stroke-dasharray="4.2499,4.2499" points=" 498.33,292.478 615.556,292.478 615.556,276.744 "></polyline> </g> <g> <defs> <rect id="SVGID_67_" width="701" height="351"></rect> </defs> <clipPath id="SVGID_68_"> <use xlink:href="#SVGID_67_" overflow="visible"></use> </clipPath> <polygon id="XMLID_66_" opacity="0.2" clip-path="url(#SVGID_68_)" fill="#FFFFFF" points=" 632.597,54.336 636.603,66.515 648.782,70.521 636.603,74.527 632.597,86.706 628.592,74.527 616.412,70.521 628.592,66.515 "></polygon> </g> <g> <defs> <rect id="SVGID_69_" width="701" height="351"></rect> </defs> <clipPath id="SVGID_70_"> <use xlink:href="#SVGID_69_" overflow="visible"></use> </clipPath> <polygon id="XMLID_65_" opacity="0.2" clip-path="url(#SVGID_70_)" fill="#FFFFFF" points=" 182.215,261.756 186.22,273.935 198.4,277.941 186.22,281.946 182.215,294.126 178.209,281.946 166.03,277.941 178.209,273.935 "></polygon> </g> <g> <defs> <rect id="SVGID_71_" width="701" height="351"></rect> </defs> <clipPath id="SVGID_72_"> <use xlink:href="#SVGID_71_" overflow="visible"></use> </clipPath> <polygon id="XMLID_64_" opacity="0.2" clip-path="url(#SVGID_72_)" fill="#FFFFFF" points=" 536.1,248.322 538.432,255.411 545.52,257.742 538.432,260.073 536.1,267.162 533.769,260.073 526.68,257.742 533.769,255.411 "></polygon> </g> <g> <defs> <rect id="SVGID_73_" width="701" height="351"></rect> </defs> <clipPath id="SVGID_74_"> <use xlink:href="#SVGID_73_" overflow="visible"></use> </clipPath> <polygon id="XMLID_63_" opacity="0.2" clip-path="url(#SVGID_74_)" fill="#FFFFFF" points=" 353.639,34.924 355.971,42.013 363.059,44.344 355.971,46.676 353.639,53.764 351.308,46.676 344.219,44.344 351.308,42.013 "></polygon> </g> <g> <defs> <rect id="SVGID_75_" width="701" height="351"></rect> </defs> <clipPath id="SVGID_76_"> <use xlink:href="#SVGID_75_" overflow="visible"></use> </clipPath> <polygon id="XMLID_62_" opacity="0.2" clip-path="url(#SVGID_76_)" fill="#FFFFFF" points=" 80.938,75.479 83.269,82.568 90.358,84.899 83.269,87.231 80.938,94.319 78.607,87.231 71.518,84.899 78.607,82.568 "></polygon> </g> <g> <defs> <rect id="SVGID_77_" width="701" height="351"></rect> </defs> <clipPath id="SVGID_78_"> <use xlink:href="#SVGID_77_" overflow="visible"></use> </clipPath> <path opacity="0.2" clip-path="url(#SVGID_78_)" fill="#FDE7DF" d="M141.053,216.567 c0-30.048-24.359-54.407-54.407-54.407s-54.407,24.359-54.407,54.407s24.359-23.092,54.407-23.092 S141.053,246.615,141.053,216.567z"></path> </g> <g> <defs> <rect id="SVGID_79_" width="701" height="351"></rect> </defs> <clipPath id="SVGID_80_"> <use xlink:href="#SVGID_79_" overflow="visible"></use> </clipPath> <path opacity="0.2" clip-path="url(#SVGID_80_)" fill="#FDE7DF" d="M268.054,84.966 c0-34.277-27.787-62.063-62.063-62.063s-62.063,27.787-62.063,62.063s27.787-26.342,62.063-26.342 S268.054,119.243,268.054,84.966z"></path> </g> <g> <defs> <rect id="SVGID_81_" width="701" height="351"></rect> </defs> <clipPath id="SVGID_82_"> <use xlink:href="#SVGID_81_" overflow="visible"></use> </clipPath> <path opacity="0.2" clip-path="url(#SVGID_82_)" fill="#FDE7DF" d="M547.749,90.896 c0-35.213-28.546-63.758-63.758-63.758s-63.758,28.546-63.758,63.758s28.546-27.062,63.758-27.062 S547.749,126.109,547.749,90.896z"></path> </g> <g> <defs> <rect id="SVGID_83_" width="701" height="351"></rect> </defs> <clipPath id="SVGID_84_"> <use xlink:href="#SVGID_83_" overflow="visible"></use> </clipPath> <path opacity="0.2" clip-path="url(#SVGID_84_)" fill="#FDE7DF" d="M674.029,199.862 c0-31.371-25.431-56.802-56.802-56.802c-31.371,0-56.802,25.431-56.802,56.802s25.431-24.109,56.802-24.109 S674.029,231.233,674.029,199.862z"></path> </g> </g> </g> </g> </g> </g> </g> </g> </g> </g> </svg>