<?xml version="1.0" encoding="UTF-8"?>  <svg xmlns="http://www.w3.org/2000/svg" xmlns:xlink="http://www.w3.org/1999/xlink" version="1.1" id="Layer_1" x="0px" y="0px" width="701px" height="351px" viewBox="0 0 701 351" xml:space="preserve"> <g> <rect x="1.242" y="0" fill="none" width="699.758" height="351.965"></rect> <rect x="1.242" y="0" fill="none" width="699.758" height="351.965"></rect> <rect x="1.242" y="0" fill="none" width="699.758" height="351.965"></rect> <g> <g> <polygon fill="#FDE7DF" points="152.079,298.895 50.929,313.653 31.668,180.441 132.819,165.684 "></polygon> <g> <polygon fill="#3572B6" points="132.594,197.357 98.084,202.392 97.22,196.415 131.73,191.38 "></polygon> <polygon fill="#3572B6" points="134.02,207.219 99.51,212.254 98.646,206.277 133.156,201.242 "></polygon> <polygon fill="#3572B6" points="135.576,217.978 101.066,223.013 100.201,217.036 134.711,212.001 "></polygon> <polygon fill="#3572B6" points="137.691,249.805 54.391,261.958 53.526,255.981 136.826,243.828 "></polygon> <polygon fill="#3572B6" points="139.473,262.133 56.173,274.286 55.309,268.309 138.609,256.156 "></polygon> <polygon fill="#3572B6" points="141.268,274.55 57.968,286.703 57.104,280.726 140.404,268.573 "></polygon> <polygon fill="#3572B6" points="143.051,286.877 59.751,299.031 58.886,293.054 142.186,280.9 "></polygon> </g> </g> <g> <g> <defs> <path id="SVGID_1_" d="M93.059,214.013c-1.674-13.857-14.214-23.726-28.008-22.044c-13.794,1.682-23.619,14.279-21.945,28.135 s14.214,23.726,28.008,22.044C84.909,240.466,94.734,227.869,93.059,214.013z"></path> </defs> <defs> <path id="SVGID_2_" d="M93.059,214.013c-1.674-13.857-14.214-23.726-28.008-22.044c-13.794,1.682-23.619,14.279-21.945,28.135 s14.214,23.726,28.008,22.044C84.909,240.466,94.734,227.869,93.059,214.013z"></path> </defs> <defs> <path id="SVGID_3_" d="M93.059,214.013c-1.674-13.857-14.214-23.726-28.008-22.044c-13.794,1.682-23.619,14.279-21.945,28.135 s14.214,23.726,28.008,22.044C84.909,240.466,94.734,227.869,93.059,214.013z"></path> </defs> <defs> <path id="SVGID_4_" d="M93.059,214.013c-1.674-13.857-14.214-23.726-28.008-22.044c-13.794,1.682-23.619,14.279-21.945,28.135 s14.214,23.726,28.008,22.044C84.909,240.466,94.734,227.869,93.059,214.013z"></path> </defs> <defs> <path id="SVGID_5_" d="M93.059,214.013c-1.674-13.857-14.214-23.726-28.008-22.044c-13.794,1.682-23.619,14.279-21.945,28.135 s14.214,23.726,28.008,22.044C84.909,240.466,94.734,227.869,93.059,214.013z"></path> </defs> <defs> <path id="SVGID_6_" d="M93.059,214.013c-1.674-13.857-14.214-23.726-28.008-22.044c-13.794,1.682-23.619,14.279-21.945,28.135 s14.214,23.726,28.008,22.044C84.909,240.466,94.734,227.869,93.059,214.013z"></path> </defs> <defs> <path id="SVGID_7_" d="M93.059,214.013c-1.674-13.857-14.214-23.726-28.008-22.044c-13.794,1.682-23.619,14.279-21.945,28.135 s14.214,23.726,28.008,22.044C84.909,240.466,94.734,227.869,93.059,214.013z"></path> </defs> <defs> <path id="SVGID_8_" d="M93.059,214.013c-1.674-13.857-14.214-23.726-28.008-22.044c-13.794,1.682-23.619,14.279-21.945,28.135 s14.214,23.726,28.008,22.044C84.909,240.466,94.734,227.869,93.059,214.013z"></path> </defs> <defs> <path id="SVGID_10_" d="M90.726,211.409c-3.338-13.552-16.98-21.831-30.468-18.492S38.542,209.949,41.88,223.5 c3.338,13.551,16.98,21.831,30.468,18.492C85.837,238.653,94.065,224.96,90.726,211.409z"></path> </defs> <defs> <path id="SVGID_12_" d="M93.059,214.013c-1.674-13.857-14.214-23.726-28.008-22.044c-13.794,1.682-23.619,14.279-21.945,28.135 s14.214,23.726,28.008,22.044C84.909,240.466,94.734,227.869,93.059,214.013z"></path> </defs> <clipPath id="SVGID_13_"> <use xlink:href="#SVGID_1_" overflow="visible"></use> </clipPath> <clipPath id="SVGID_14_" clip-path="url(#SVGID_13_)"> <use xlink:href="#SVGID_2_" overflow="visible"></use> </clipPath> <clipPath id="SVGID_15_" clip-path="url(#SVGID_14_)"> <use xlink:href="#SVGID_3_" overflow="visible"></use> </clipPath> <clipPath id="SVGID_16_" clip-path="url(#SVGID_15_)"> <use xlink:href="#SVGID_4_" overflow="visible"></use> </clipPath> <clipPath id="SVGID_17_" clip-path="url(#SVGID_16_)"> <use xlink:href="#SVGID_5_" overflow="visible"></use> </clipPath> <clipPath id="SVGID_18_" clip-path="url(#SVGID_17_)"> <use xlink:href="#SVGID_6_" overflow="visible"></use> </clipPath> <clipPath id="SVGID_19_" clip-path="url(#SVGID_18_)"> <use xlink:href="#SVGID_7_" overflow="visible"></use> </clipPath> <clipPath id="SVGID_20_" clip-path="url(#SVGID_19_)"> <use xlink:href="#SVGID_8_" overflow="visible"></use> </clipPath> <clipPath id="SVGID_21_" clip-path="url(#SVGID_20_)"> <use xlink:href="#SVGID_10_" overflow="visible"></use> </clipPath> <clipPath id="SVGID_22_" clip-path="url(#SVGID_21_)"> <use xlink:href="#SVGID_12_" overflow="visible"></use> </clipPath> <path clip-path="url(#SVGID_22_)" fill="#3572B6" d="M93.277,213.986c-1.674-13.857-14.214-23.726-28.008-22.044 c-13.794,1.682-23.619,14.279-21.945,28.135s14.214,23.726,28.008,22.044C85.126,240.44,94.951,227.843,93.277,213.986z"></path> <path clip-path="url(#SVGID_22_)" fill="#F0B783" d="M73.579,230.792c0.21,1.74-1.198,1.874-2.931,2.086l0,0 c-1.733,0.211-3.133,0.42-3.343-1.321l-1.531-12.673c-0.21-1.74,1.024-3.322,2.756-3.534l0,0 c1.733-0.211,3.307,1.028,3.518,2.769L73.579,230.792z"></path> <path clip-path="url(#SVGID_22_)" fill="#E16C33" d="M57.413,202.65c-0.741,0.09-1.444,0.102-2.111,0.05 c-0.594,7.598,3.679,13.019,3.679,13.019s-1.667-9.038,1.282-11.998l-1.995-1.219C57.989,202.559,57.709,202.614,57.413,202.65z "></path> <path clip-path="url(#SVGID_22_)" fill="#F0B783" d="M77.667,212.395c-0.238-0.754-0.48-1.507-0.681-2.274 c-0.525-2.004-0.911-4.047-1.249-6.094c-0.462-2.792-2.467-6.761-9.702-5.879c-7.235,0.882-8.304,5.228-8.02,8.041 c0.207,2.05,0.212,4.124,0.186,6.178c-0.013,0.977-0.004,1.937-0.112,2.904c-0.231,2.068-0.054,4.295,0.835,6.212 c0.961,2.072,2.719,3.552,4.663,4.371c1.877,0.791,3.919,1.024,5.891,0.783c4.064-0.496,8.499-3.259,9.102-8.092 c0.192-1.542-0.028-3.121-0.446-4.612C77.988,213.418,77.828,212.907,77.667,212.395z"></path> <path clip-path="url(#SVGID_22_)" fill="#E16C33" d="M72.203,197.204c0,0-1.842-1.196-4.616-2.028 c0.218,1.112-0.267,2.291-1.633,2.287c-0.361-0.001-0.718,0.013-1.074,0.029c-0.078,0.773-0.503,1.507-1.327,1.792 c-0.152,0.485-0.517,0.895-1.16,1.087c-2.52,0.752-5.027,1.517-7.413,2.663c-0.145,0.07-0.287,0.12-0.426,0.153 c3.405,3.128,9.646,6.404,18.611,1.406c0,0-0.647,2.629,4.378,7.312C77.542,211.904,82.172,197.592,72.203,197.204z"></path> <path clip-path="url(#SVGID_22_)" fill="#F37A3D" d="M73.35,197.32c0,0-9.826-8.814-20.747,5.531c0,0,6.837,10.053,20.561,1.742 "></path> <path clip-path="url(#SVGID_22_)" fill="#FDE7DF" d="M83.722,241.895l-0.848-7.015c-0.454-3.755-3.72-6.446-7.295-6.01 l-10.673,1.302c-3.575,0.436-6.106,3.834-5.652,7.589l0.848,7.015L83.722,241.895z"></path> <g clip-path="url(#SVGID_22_)"> <path fill="#FFFFFF" d="M63.82,220.857c0,0,0.623,0.012,1.558,0.03c0.223,0.001,0.464,0.003,0.72,0.004 c0.251,0.011,0.518-0.022,0.787-0.012c0.54-0.029,1.107-0.042,1.666-0.117c0.562-0.048,1.114-0.148,1.636-0.254 c0.266-0.04,0.513-0.115,0.757-0.169c0.245-0.054,0.473-0.119,0.686-0.184c0.209-0.071,0.422-0.106,0.597-0.168 c0.172-0.065,0.333-0.11,0.466-0.151c0.267-0.078,0.434-0.115,0.434-0.115s-0.086,0.137-0.261,0.363 c-0.174,0.227-0.436,0.548-0.828,0.842c-0.188,0.16-0.399,0.329-0.651,0.457c-0.246,0.137-0.501,0.309-0.794,0.409 c-0.289,0.112-0.588,0.241-0.909,0.304c-0.316,0.085-0.643,0.146-0.973,0.176c-1.325,0.158-2.642-0.134-3.526-0.539 C64.286,221.349,63.82,220.857,63.82,220.857z"></path> </g> <rect x="68.942" y="230.711" transform="matrix(-0.9927 0.121 -0.121 -0.9927 168.5387 453.3548)" clip-path="url(#SVGID_22_)" fill="#26282F" width="3.125" height="2.167"></rect> <polygon clip-path="url(#SVGID_22_)" fill="#26282F" points="74.394,243.033 69.43,243.638 69.197,233.898 72.3,233.52 "></polygon> </g> </g> <g> <defs> <rect id="SVGID_23_" x="1.242" y="0" width="699.758" height="351.965"></rect> </defs> <clipPath id="SVGID_24_"> <use xlink:href="#SVGID_23_" overflow="visible"></use> </clipPath> <g clip-path="url(#SVGID_24_)"> <polygon fill="#FDE7DF" points="503.618,166.23 406.527,173.281 397.325,45.415 494.416,38.365 "></polygon> <g> <polygon fill="#E16C33" points="492.041,68.436 458.915,70.842 458.503,65.105 491.628,62.699 "></polygon> <polygon fill="#E16C33" points="492.722,77.902 459.597,80.308 459.184,74.571 492.309,72.165 "></polygon> <polygon fill="#E16C33" points="493.465,88.229 460.34,90.635 459.927,84.898 493.052,82.492 "></polygon> <polygon fill="#E16C33" points="493.301,118.608 413.344,124.414 412.931,118.677 492.888,112.871 "></polygon> <polygon fill="#E16C33" points="494.153,130.441 414.196,136.247 413.783,130.51 493.74,124.704 "></polygon> <polygon fill="#E16C33" points="495.011,142.36 415.053,148.166 414.641,142.429 494.598,136.623 "></polygon> <polygon fill="#E16C33" points="495.862,154.193 415.905,159.999 415.492,154.262 495.449,148.455 "></polygon> </g> </g> </g> <g> <defs> <rect id="SVGID_25_" x="1.242" y="0" width="699.758" height="351.965"></rect> </defs> <clipPath id="SVGID_26_"> <use xlink:href="#SVGID_25_" overflow="visible"></use> </clipPath> <g clip-path="url(#SVGID_26_)"> <g> <defs> <path id="SVGID_27_" d="M453.349,81.534c-0.645-13.278-11.883-23.517-25.101-22.869s-23.411,11.936-22.766,25.214 c0.645,13.278,11.883,23.517,25.101,22.869C443.801,106.101,453.994,94.812,453.349,81.534z"></path> </defs> <defs> <path id="SVGID_28_" d="M453.349,81.534c-0.645-13.278-11.883-23.517-25.101-22.869s-23.411,11.936-22.766,25.214 c0.645,13.278,11.883,23.517,25.101,22.869C443.801,106.101,453.994,94.812,453.349,81.534z"></path> </defs> <defs> <path id="SVGID_29_" d="M453.349,81.534c-0.645-13.278-11.883-23.517-25.101-22.869s-23.411,11.936-22.766,25.214 c0.645,13.278,11.883,23.517,25.101,22.869C443.801,106.101,453.994,94.812,453.349,81.534z"></path> </defs> <defs> <path id="SVGID_30_" d="M453.349,81.534c-0.645-13.278-11.883-23.517-25.101-22.869s-23.411,11.936-22.766,25.214 c0.645,13.278,11.883,23.517,25.101,22.869C443.801,106.101,453.994,94.812,453.349,81.534z"></path> </defs> <defs> <path id="SVGID_31_" d="M453.349,81.534c-0.645-13.278-11.883-23.517-25.101-22.869s-23.411,11.936-22.766,25.214 c0.645,13.278,11.883,23.517,25.101,22.869C443.801,106.101,453.994,94.812,453.349,81.534z"></path> </defs> <defs> <path id="SVGID_32_" d="M453.349,81.534c-0.645-13.278-11.883-23.517-25.101-22.869s-23.411,11.936-22.766,25.214 c0.645,13.278,11.883,23.517,25.101,22.869C443.801,106.101,453.994,94.812,453.349,81.534z"></path> </defs> <defs> <path id="SVGID_33_" d="M453.349,81.534c-0.645-13.278-11.883-23.517-25.101-22.869s-23.411,11.936-22.766,25.214 c0.645,13.278,11.883,23.517,25.101,22.869C443.801,106.101,453.994,94.812,453.349,81.534z"></path> </defs> <defs> <path id="SVGID_34_" d="M453.349,81.534c-0.645-13.278-11.883-23.517-25.101-22.869s-23.411,11.936-22.766,25.214 c0.645,13.278,11.883,23.517,25.101,22.869C443.801,106.101,453.994,94.812,453.349,81.534z"></path> </defs> <defs> <path id="SVGID_35_" d="M452.567,80.46c-1.294-13.231-13.019-22.908-26.189-21.614c-13.17,1.294-22.799,13.066-21.506,26.297 c1.293,13.231,13.019,22.908,26.189,21.614C444.232,105.465,453.861,93.691,452.567,80.46z"></path> </defs> <defs> <path id="SVGID_36_" d="M453.349,81.534c-0.645-13.278-11.883-23.517-25.101-22.869s-23.411,11.936-22.766,25.214 c0.645,13.278,11.883,23.517,25.101,22.869C443.801,106.101,453.994,94.812,453.349,81.534z"></path> </defs> <clipPath id="SVGID_37_"> <use xlink:href="#SVGID_27_" overflow="visible"></use> </clipPath> <clipPath id="SVGID_38_" clip-path="url(#SVGID_37_)"> <use xlink:href="#SVGID_28_" overflow="visible"></use> </clipPath> <clipPath id="SVGID_39_" clip-path="url(#SVGID_38_)"> <use xlink:href="#SVGID_29_" overflow="visible"></use> </clipPath> <clipPath id="SVGID_40_" clip-path="url(#SVGID_39_)"> <use xlink:href="#SVGID_30_" overflow="visible"></use> </clipPath> <clipPath id="SVGID_41_" clip-path="url(#SVGID_40_)"> <use xlink:href="#SVGID_31_" overflow="visible"></use> </clipPath> <clipPath id="SVGID_42_" clip-path="url(#SVGID_41_)"> <use xlink:href="#SVGID_32_" overflow="visible"></use> </clipPath> <clipPath id="SVGID_43_" clip-path="url(#SVGID_42_)"> <use xlink:href="#SVGID_33_" overflow="visible"></use> </clipPath> <clipPath id="SVGID_44_" clip-path="url(#SVGID_43_)"> <use xlink:href="#SVGID_34_" overflow="visible"></use> </clipPath> <clipPath id="SVGID_45_" clip-path="url(#SVGID_44_)"> <use xlink:href="#SVGID_35_" overflow="visible"></use> </clipPath> <clipPath id="SVGID_46_" clip-path="url(#SVGID_45_)"> <use xlink:href="#SVGID_36_" overflow="visible"></use> </clipPath> <path clip-path="url(#SVGID_46_)" fill="#E16C33" d="M453.557,81.524c-0.645-13.278-11.883-23.517-25.101-22.869 s-23.411,11.936-22.766,25.214c0.645,13.278,11.883,23.517,25.101,22.869C444.009,106.091,454.202,94.802,453.557,81.524z"></path> <path clip-path="url(#SVGID_46_)" fill="#F0B783" d="M433.699,96.131c0.081,1.668-1.266,1.698-2.927,1.779l0,0 c-1.66,0.081-3.004,0.183-3.085-1.485l-0.59-12.143c-0.081-1.668,1.199-3.086,2.859-3.167l0,0 c1.66-0.081,3.072,1.205,3.152,2.872L433.699,96.131z"></path> <path clip-path="url(#SVGID_46_)" fill="#18191D" d="M420.264,68.285c-0.71,0.035-1.379-0.002-2.009-0.098 c-1.083,7.176,2.606,12.62,2.606,12.62s-0.967-8.7,2.036-11.308l-1.812-1.295C420.817,68.238,420.547,68.271,420.264,68.285z"></path> <path clip-path="url(#SVGID_46_)" fill="#F0B783" d="M438.838,78.937c-0.175-0.733-0.353-1.465-0.491-2.207 c-0.362-1.94-0.589-3.907-0.771-5.874c-0.248-2.684-1.882-6.593-8.815-6.253c-6.933,0.34-8.245,4.394-8.167,7.085 c0.057,1.962-0.08,3.932-0.245,5.881c-0.079,0.928-0.136,1.84-0.305,2.751c-0.361,1.949-0.345,4.077,0.37,5.959 c0.772,2.034,2.34,3.562,4.131,4.473c1.729,0.881,3.653,1.242,5.543,1.15c3.894-0.191,8.296-2.51,9.198-7.059 c0.288-1.451,0.187-2.966-0.109-4.412C439.074,79.931,438.957,79.434,438.838,78.937z"></path> <path clip-path="url(#SVGID_46_)" fill="#18191D" d="M434.685,64.131c0,0-1.668-1.263-4.246-2.244 c0.132,1.071-0.41,2.158-1.707,2.06c-0.343-0.026-0.683-0.038-1.022-0.046c-0.127,0.729-0.581,1.397-1.383,1.611 c-0.178,0.451-0.552,0.814-1.176,0.952c-2.445,0.541-4.879,1.095-7.224,2.019c-0.143,0.056-0.281,0.094-0.415,0.116 c3.021,3.206,8.726,6.748,17.582,2.617c0,0-0.794,2.453,3.659,7.247C438.753,78.462,444.128,65.186,434.685,64.131z"></path> <path clip-path="url(#SVGID_46_)" fill="#26282F" d="M435.766,64.319c0,0-8.732-9.05-20.085,3.824 c0,0,5.808,10.02,19.412,3.072"></path> <path clip-path="url(#SVGID_46_)" fill="#FDE7DF" d="M442.576,107.377l-0.326-6.722c-0.175-3.598-3.094-6.379-6.52-6.211 l-10.228,0.501c-3.426,0.168-6.062,3.221-5.887,6.819l0.326,6.722L442.576,107.377z"></path> <g clip-path="url(#SVGID_46_)"> <path fill="#FFFFFF" d="M425.107,86.022c0,0,0.591,0.054,1.478,0.136c0.212,0.017,0.441,0.035,0.683,0.054 c0.238,0.028,0.494,0.013,0.747,0.047c0.516,0.008,1.055,0.03,1.591,0c0.537-0.009,1.069-0.062,1.573-0.124 c0.5-0.073,0.982-0.143,1.394-0.24c0.421-0.078,0.775-0.169,1.032-0.23c0.259-0.056,0.42-0.079,0.42-0.079 s-0.091,0.124-0.273,0.326c-0.18,0.204-0.452,0.491-0.845,0.743c-0.19,0.14-0.402,0.285-0.65,0.389 c-0.243,0.114-0.497,0.261-0.784,0.33c-0.283,0.08-0.573,0.197-0.883,0.23c-0.306,0.059-0.621,0.094-0.937,0.1 c-1.269,0.056-2.5-0.312-3.312-0.755C425.516,86.521,425.107,86.022,425.107,86.022z"></path> </g> <rect x="429.23" y="95.863" transform="matrix(-0.9988 0.0489 -0.0489 -0.9988 865.6585 172.61)" clip-path="url(#SVGID_46_)" fill="#26282F" width="2.976" height="2.063"></rect> <polygon clip-path="url(#SVGID_46_)" fill="#26282F" points="433.637,107.815 428.881,108.048 429.325,98.779 432.298,98.634 "></polygon> </g> <g> <defs> <rect id="SVGID_47_" x="1.242" y="0" width="699.758" height="351.965"></rect> </defs> <clipPath id="SVGID_48_"> <use xlink:href="#SVGID_47_" overflow="visible"></use> </clipPath> <g clip-path="url(#SVGID_48_)"> <g> <polygon fill="#FDE7DF" points="258.674,169.232 153.844,184.526 133.883,46.468 238.713,31.173 "></polygon> <g> <polygon fill="#D95F55" points="238.481,63.999 202.715,69.217 201.819,63.023 237.585,57.805 "></polygon> <polygon fill="#D95F55" points="239.958,74.22 204.193,79.438 203.297,73.244 239.063,68.026 "></polygon> <polygon fill="#D95F55" points="241.571,85.37 205.805,90.588 204.909,84.394 240.675,79.176 "></polygon> <polygon fill="#D95F55" points="243.762,118.355 157.432,130.951 156.536,124.757 242.867,112.161 "></polygon> <polygon fill="#D95F55" points="245.61,131.132 159.279,143.727 158.383,137.533 244.714,124.937 "></polygon> <polygon fill="#D95F55" points="247.47,144.001 161.139,156.596 160.244,150.402 246.575,137.806 "></polygon> <polygon fill="#D95F55" points="249.318,156.777 162.987,169.372 162.091,163.178 248.422,150.582 "></polygon> </g> </g> <g> <g> <defs> <path id="SVGID_49_" d="M197.507,81.261c-1.735-14.361-14.731-24.589-29.027-22.846 c-14.296,1.743-24.478,14.798-22.743,29.159s14.731,24.589,29.027,22.846S199.243,95.622,197.507,81.261z"></path> </defs> <defs> <path id="SVGID_50_" d="M197.507,81.261c-1.735-14.361-14.731-24.589-29.027-22.846 c-14.296,1.743-24.478,14.798-22.743,29.159s14.731,24.589,29.027,22.846S199.243,95.622,197.507,81.261z"></path> </defs> <defs> <path id="SVGID_51_" d="M197.507,81.261c-1.735-14.361-14.731-24.589-29.027-22.846 c-14.296,1.743-24.478,14.798-22.743,29.159s14.731,24.589,29.027,22.846S199.243,95.622,197.507,81.261z"></path> </defs> <defs> <path id="SVGID_52_" d="M197.507,81.261c-1.735-14.361-14.731-24.589-29.027-22.846 c-14.296,1.743-24.478,14.798-22.743,29.159s14.731,24.589,29.027,22.846S199.243,95.622,197.507,81.261z"></path> </defs> <defs> <path id="SVGID_53_" d="M197.507,81.261c-1.735-14.361-14.731-24.589-29.027-22.846 c-14.296,1.743-24.478,14.798-22.743,29.159s14.731,24.589,29.027,22.846S199.243,95.622,197.507,81.261z"></path> </defs> <defs> <path id="SVGID_54_" d="M197.507,81.261c-1.735-14.361-14.731-24.589-29.027-22.846 c-14.296,1.743-24.478,14.798-22.743,29.159s14.731,24.589,29.027,22.846S199.243,95.622,197.507,81.261z"></path> </defs> <defs> <path id="SVGID_55_" d="M197.507,81.261c-1.735-14.361-14.731-24.589-29.027-22.846 c-14.296,1.743-24.478,14.798-22.743,29.159s14.731,24.589,29.027,22.846S199.243,95.622,197.507,81.261z"></path> </defs> <defs> <path id="SVGID_56_" d="M197.507,81.261c-1.735-14.361-14.731-24.589-29.027-22.846 c-14.296,1.743-24.478,14.798-22.743,29.159s14.731,24.589,29.027,22.846S199.243,95.622,197.507,81.261z"></path> </defs> <defs> <path id="SVGID_57_" d="M195.091,78.574c-3.46-14.045-17.597-22.625-31.577-19.165 c-13.979,3.46-22.506,17.65-19.046,31.695c3.46,14.045,17.597,22.625,31.577,19.165 C190.024,106.809,198.552,92.618,195.091,78.574z"></path> </defs> <defs> <path id="SVGID_58_" d="M197.507,81.261c-1.735-14.361-14.731-24.589-29.027-22.846 c-14.296,1.743-24.478,14.798-22.743,29.159s14.731,24.589,29.027,22.846S199.243,95.622,197.507,81.261z"></path> </defs> <clipPath id="SVGID_59_"> <use xlink:href="#SVGID_49_" overflow="visible"></use> </clipPath> <clipPath id="SVGID_60_" clip-path="url(#SVGID_59_)"> <use xlink:href="#SVGID_50_" overflow="visible"></use> </clipPath> <clipPath id="SVGID_61_" clip-path="url(#SVGID_60_)"> <use xlink:href="#SVGID_51_" overflow="visible"></use> </clipPath> <clipPath id="SVGID_62_" clip-path="url(#SVGID_61_)"> <use xlink:href="#SVGID_52_" overflow="visible"></use> </clipPath> <clipPath id="SVGID_63_" clip-path="url(#SVGID_62_)"> <use xlink:href="#SVGID_53_" overflow="visible"></use> </clipPath> <clipPath id="SVGID_64_" clip-path="url(#SVGID_63_)"> <use xlink:href="#SVGID_54_" overflow="visible"></use> </clipPath> <clipPath id="SVGID_65_" clip-path="url(#SVGID_64_)"> <use xlink:href="#SVGID_55_" overflow="visible"></use> </clipPath> <clipPath id="SVGID_66_" clip-path="url(#SVGID_65_)"> <use xlink:href="#SVGID_56_" overflow="visible"></use> </clipPath> <clipPath id="SVGID_67_" clip-path="url(#SVGID_66_)"> <use xlink:href="#SVGID_57_" overflow="visible"></use> </clipPath> <clipPath id="SVGID_68_" clip-path="url(#SVGID_67_)"> <use xlink:href="#SVGID_58_" overflow="visible"></use> </clipPath> <path clip-path="url(#SVGID_68_)" fill="#26282F" d="M197.733,81.233c-1.735-14.361-14.731-24.589-29.027-22.846 s-24.478,14.798-22.743,29.159s14.731,24.589,29.027,22.846S199.468,95.594,197.733,81.233z"></path> <path clip-path="url(#SVGID_68_)" fill="#F0B783" d="M177.318,98.651c0.218,1.804-1.242,1.943-3.038,2.162l0,0 c-1.796,0.219-3.247,0.435-3.464-1.369l-1.587-13.134c-0.218-1.804,1.061-3.443,2.857-3.662l0,0 c1.796-0.219,3.428,1.066,3.646,2.869L177.318,98.651z"></path> <path clip-path="url(#SVGID_68_)" fill="#E8E0DC" d="M160.564,69.485c-0.768,0.094-1.497,0.106-2.188,0.052 c-0.616,7.874,3.813,13.493,3.813,13.493s-1.728-9.367,1.328-12.434l-2.068-1.263 C161.161,69.39,160.871,69.447,160.564,69.485z"></path> <path clip-path="url(#SVGID_68_)" fill="#F0B783" d="M181.555,79.585c-0.247-0.782-0.497-1.562-0.705-2.357 c-0.544-2.077-0.944-4.194-1.295-6.315c-0.479-2.893-2.557-7.007-10.055-6.093c-7.498,0.914-8.606,5.418-8.312,8.333 c0.215,2.125,0.22,4.274,0.193,6.403c-0.013,1.013-0.004,2.007-0.116,3.01c-0.239,2.144-0.056,4.452,0.866,6.439 c0.996,2.147,2.818,3.681,4.833,4.53c1.946,0.82,4.062,1.061,6.105,0.812c4.212-0.514,8.808-3.378,9.433-8.386 c0.199-1.598-0.029-3.234-0.462-4.78C181.888,80.645,181.722,80.114,181.555,79.585z"></path> <path clip-path="url(#SVGID_68_)" fill="#E8E0DC" d="M175.892,63.841c0,0-1.909-1.239-4.784-2.102 c0.226,1.152-0.277,2.374-1.692,2.37c-0.375-0.001-0.744,0.013-1.113,0.03c-0.081,0.801-0.522,1.562-1.376,1.858 c-0.158,0.503-0.536,0.927-1.202,1.126c-2.612,0.78-5.21,1.573-7.683,2.76c-0.151,0.072-0.298,0.124-0.441,0.158 c3.529,3.242,9.997,6.637,19.288,1.457c0,0-0.671,2.725,4.537,7.578C181.426,79.076,186.224,64.242,175.892,63.841z"></path> <path clip-path="url(#SVGID_68_)" fill="#FDE7DF" d="M177.081,63.96c0,0-10.183-9.135-21.501,5.732 c0,0,7.085,10.418,21.309,1.806"></path> <path clip-path="url(#SVGID_68_)" fill="#FDE7DF" d="M187.83,110.158l-0.879-7.27c-0.47-3.892-3.855-6.68-7.561-6.229 l-11.062,1.349c-3.705,0.452-6.328,3.973-5.858,7.865l0.879,7.27L187.83,110.158z"></path> <g clip-path="url(#SVGID_68_)"> <path fill="#FFFFFF" d="M167.204,88.355c0,0,0.646,0.013,1.615,0.031c0.231,0.001,0.481,0.003,0.746,0.004 c0.26,0.011,0.537-0.023,0.815-0.013c0.56-0.031,1.148-0.043,1.726-0.121c0.582-0.05,1.155-0.154,1.696-0.263 c0.276-0.041,0.531-0.119,0.785-0.175s0.49-0.124,0.711-0.191c0.217-0.073,0.438-0.11,0.619-0.174 c0.178-0.068,0.346-0.114,0.483-0.157c0.277-0.081,0.45-0.119,0.45-0.119s-0.089,0.142-0.27,0.376 c-0.18,0.235-0.452,0.568-0.858,0.873c-0.195,0.166-0.414,0.341-0.674,0.473c-0.255,0.142-0.519,0.321-0.823,0.424 c-0.299,0.116-0.609,0.25-0.942,0.315c-0.328,0.088-0.667,0.151-1.009,0.183c-1.373,0.164-2.738-0.139-3.654-0.558 C167.687,88.865,167.204,88.355,167.204,88.355z"></path> </g> <rect x="172.514" y="98.578" transform="matrix(-0.9927 0.121 -0.121 -0.9927 359.0506 177.5971)" clip-path="url(#SVGID_68_)" fill="#D95F55" width="3.239" height="2.245"></rect> <polygon clip-path="url(#SVGID_68_)" fill="#D95F55" points="178.162,111.337 173.018,111.964 172.777,101.87 175.992,101.477 "></polygon> </g> </g> <g> <defs> <rect id="SVGID_69_" x="1.242" y="0" width="699.758" height="351.965"></rect> </defs> <clipPath id="SVGID_70_"> <use xlink:href="#SVGID_69_" overflow="visible"></use> </clipPath> <g clip-path="url(#SVGID_70_)"> <polygon fill="#FDE7DF" points="414.791,291.927 313.008,317.499 279.634,183.454 381.417,157.882 "></polygon> <g> <polygon fill="#26282F" points="384.446,190.253 349.72,198.977 348.223,192.963 382.948,184.238 "></polygon> <polygon fill="#26282F" points="386.917,200.176 352.191,208.901 350.693,202.887 385.419,194.162 "></polygon> <polygon fill="#26282F" points="389.612,211.002 354.886,219.727 353.389,213.712 388.115,204.988 "></polygon> <polygon fill="#26282F" points="395.046,243.287 311.225,264.346 309.728,258.332 393.549,237.272 "></polygon> <polygon fill="#26282F" points="398.135,255.691 314.314,276.751 312.816,270.736 396.638,249.677 "></polygon> <polygon fill="#26282F" points="401.246,268.186 317.425,289.246 315.927,283.231 399.749,262.172 "></polygon> <polygon fill="#26282F" points="404.335,280.591 320.513,301.65 319.016,295.636 402.837,274.577 "></polygon> </g> </g> </g> <g> <defs> <rect id="SVGID_71_" x="1.242" y="0" width="699.758" height="351.965"></rect> </defs> <clipPath id="SVGID_72_"> <use xlink:href="#SVGID_71_" overflow="visible"></use> </clipPath> <g clip-path="url(#SVGID_72_)"> <g> <path id="SVGID_9_" fill="#3572B6" d="M346.964,212.787c-3.136-13.977-16.957-22.755-30.872-19.605 c-13.914,3.15-22.652,17.034-19.517,31.012c3.136,13.977,16.957,22.755,30.872,19.605 C341.362,240.649,350.1,226.765,346.964,212.787z"></path> </g> <g> <defs> <path id="SVGID_73_" d="M346.964,212.787c-3.136-13.977-16.957-22.755-30.872-19.605 c-13.914,3.15-22.652,17.034-19.517,31.012c3.136,13.977,16.957,22.755,30.872,19.605 C341.362,240.649,350.1,226.765,346.964,212.787z"></path> </defs> <defs> <path id="SVGID_74_" d="M346.964,212.787c-3.136-13.977-16.957-22.755-30.872-19.605 c-13.914,3.15-22.652,17.034-19.517,31.012c3.136,13.977,16.957,22.755,30.872,19.605 C341.362,240.649,350.1,226.765,346.964,212.787z"></path> </defs> <defs> <path id="SVGID_75_" d="M346.964,212.787c-3.136-13.977-16.957-22.755-30.872-19.605 c-13.914,3.15-22.652,17.034-19.517,31.012c3.136,13.977,16.957,22.755,30.872,19.605 C341.362,240.649,350.1,226.765,346.964,212.787z"></path> </defs> <defs> <path id="SVGID_76_" d="M346.964,212.787c-3.136-13.977-16.957-22.755-30.872-19.605 c-13.914,3.15-22.652,17.034-19.517,31.012c3.136,13.977,16.957,22.755,30.872,19.605 C341.362,240.649,350.1,226.765,346.964,212.787z"></path> </defs> <defs> <path id="SVGID_77_" d="M346.964,212.787c-3.136-13.977-16.957-22.755-30.872-19.605 c-13.914,3.15-22.652,17.034-19.517,31.012c3.136,13.977,16.957,22.755,30.872,19.605 C341.362,240.649,350.1,226.765,346.964,212.787z"></path> </defs> <defs> <path id="SVGID_78_" d="M346.964,212.787c-3.136-13.977-16.957-22.755-30.872-19.605 c-13.914,3.15-22.652,17.034-19.517,31.012c3.136,13.977,16.957,22.755,30.872,19.605 C341.362,240.649,350.1,226.765,346.964,212.787z"></path> </defs> <defs> <path id="SVGID_79_" d="M346.964,212.787c-3.136-13.977-16.957-22.755-30.872-19.605 c-13.914,3.15-22.652,17.034-19.517,31.012c3.136,13.977,16.957,22.755,30.872,19.605 C341.362,240.649,350.1,226.765,346.964,212.787z"></path> </defs> <defs> <path id="SVGID_80_" d="M346.964,212.787c-3.136-13.977-16.957-22.755-30.872-19.605 c-13.914,3.15-22.652,17.034-19.517,31.012c3.136,13.977,16.957,22.755,30.872,19.605 C341.362,240.649,350.1,226.765,346.964,212.787z"></path> </defs> <clipPath id="SVGID_81_"> <use xlink:href="#SVGID_73_" overflow="visible"></use> </clipPath> <clipPath id="SVGID_82_" clip-path="url(#SVGID_81_)"> <use xlink:href="#SVGID_74_" overflow="visible"></use> </clipPath> <clipPath id="SVGID_83_" clip-path="url(#SVGID_82_)"> <use xlink:href="#SVGID_75_" overflow="visible"></use> </clipPath> <clipPath id="SVGID_84_" clip-path="url(#SVGID_83_)"> <use xlink:href="#SVGID_76_" overflow="visible"></use> </clipPath> <clipPath id="SVGID_85_" clip-path="url(#SVGID_84_)"> <use xlink:href="#SVGID_77_" overflow="visible"></use> </clipPath> <clipPath id="SVGID_86_" clip-path="url(#SVGID_85_)"> <use xlink:href="#SVGID_78_" overflow="visible"></use> </clipPath> <clipPath id="SVGID_87_" clip-path="url(#SVGID_86_)"> <use xlink:href="#SVGID_79_" overflow="visible"></use> </clipPath> <clipPath id="SVGID_88_" clip-path="url(#SVGID_87_)"> <use xlink:href="#SVGID_80_" overflow="visible"></use> </clipPath> <path clip-path="url(#SVGID_88_)" fill="#26282F" d="M347.186,212.765c-3.136-13.977-16.957-22.755-30.872-19.605 c-13.914,3.15-22.652,17.034-19.517,31.012c3.136,13.977,16.957,22.755,30.872,19.605 C341.584,240.627,350.322,226.742,347.186,212.765z"></path> <path clip-path="url(#SVGID_88_)" fill="#D95F55" d="M336.418,213.981c1.077,10.695-1.192,23.926-10.088,24.83 c-8.896,0.904-21.049-10.86-22.127-21.556s5.261-20.099,14.156-21.003C327.255,195.349,335.34,203.286,336.418,213.981z"></path> <path clip-path="url(#SVGID_88_)" fill="#F0B783" d="M328.799,231.973c0.394,1.755-1.031,2.039-2.779,2.434l0,0 c-1.748,0.396-3.156,0.754-3.55-1.002l-2.868-12.783c-0.394-1.755,0.704-3.499,2.451-3.895l0,0 c1.748-0.396,3.484,0.707,3.877,2.462L328.799,231.973z"></path> <path clip-path="url(#SVGID_88_)" fill="#F0B783" d="M331.081,212.761c-0.321-0.745-0.645-1.49-0.929-2.252 c-0.743-1.992-1.346-4.038-1.903-6.094c-0.759-2.803-3.215-6.649-10.513-4.997c-7.298,1.652-7.943,6.201-7.364,9.044 c0.423,2.072,0.641,4.189,0.825,6.29c0.088,1,0.195,1.979,0.184,2.978c-0.023,2.136,0.387,4.392,1.492,6.258 c1.195,2.016,3.142,3.345,5.212,3.98c1.999,0.613,4.108,0.638,6.097,0.188c4.099-0.928,8.345-4.211,8.463-9.208 c0.038-1.595-0.349-3.184-0.93-4.664C331.515,213.772,331.299,213.266,331.081,212.761z"></path> <path clip-path="url(#SVGID_88_)" fill="#FDE7DF" d="M340.3,242.259l-1.587-7.076c-0.85-3.788-4.462-6.197-8.069-5.38 l-10.766,2.437c-3.606,0.816-5.841,4.549-4.992,8.337l1.587,7.076L340.3,242.259z"></path> <g clip-path="url(#SVGID_88_)"> <path fill="#FFFFFF" d="M317.81,222.84c0,0,0.638-0.052,1.595-0.131c0.228-0.022,0.474-0.045,0.735-0.07 c0.258-0.015,0.527-0.076,0.802-0.094c0.548-0.086,1.127-0.157,1.689-0.292c0.569-0.108,1.123-0.267,1.645-0.429 c0.268-0.068,0.512-0.171,0.756-0.251c0.244-0.08,0.471-0.171,0.682-0.259c0.207-0.094,0.42-0.152,0.593-0.233 c0.169-0.084,0.329-0.147,0.46-0.203c0.265-0.108,0.431-0.162,0.431-0.162s-0.074,0.149-0.229,0.397 c-0.154,0.25-0.388,0.605-0.759,0.946c-0.176,0.183-0.374,0.377-0.617,0.534c-0.237,0.166-0.479,0.368-0.768,0.5 c-0.283,0.144-0.575,0.307-0.896,0.404c-0.314,0.12-0.642,0.216-0.976,0.281c-1.337,0.299-2.713,0.138-3.657-0.184 C318.338,223.294,317.81,222.84,317.81,222.84z"></path> </g> <path clip-path="url(#SVGID_88_)" fill="none" d="M346.967,212.814c-3.136-13.977-16.957-22.755-30.872-19.605 c-13.914,3.15-22.652,17.034-19.517,31.012c3.136,13.977,16.957,22.755,30.872,19.605S350.103,226.792,346.967,212.814z"></path> <path clip-path="url(#SVGID_88_)" fill="#D95F55" d="M323.12,197.288c0,0-19.516-0.576-14.878,24.062 c0,0,14.541-4.532,22.086-17.213"></path> </g> <g> <defs> <rect id="SVGID_89_" x="1.242" y="0" width="699.758" height="351.965"></rect> </defs> <clipPath id="SVGID_90_"> <use xlink:href="#SVGID_89_" overflow="visible"></use> </clipPath> <g clip-path="url(#SVGID_90_)"> <path fill="#FDE7DF" d="M56.876,154.227h-3.132v-6.292h3.132V154.227z M56.876,139.546h-3.132v-6.292h3.132V139.546z M56.876,124.865h-3.132v-6.292h3.132V124.865z M117.89,81.881h-4.632v-3.146h4.632V81.881z M104.906,81.881h-6.263 v-3.146h6.263V81.881z"></path> </g> </g> <g> <defs> <rect id="SVGID_91_" x="1.242" y="0" width="699.758" height="351.965"></rect> </defs> <clipPath id="SVGID_92_"> <use xlink:href="#SVGID_91_" overflow="visible"></use> </clipPath> <g clip-path="url(#SVGID_92_)"> <path fill="#FDE7DF" d="M284.818,263.531h-6.263v-3.146h6.263V263.531z M270.203,263.531h-6.263v-3.146h6.263V263.531z M182.514,263.531h-6.263v-3.146h6.263V263.531z M167.9,263.531h-6.263v-3.146h6.263V263.531z"></path> </g> </g> <g> <defs> <rect id="SVGID_93_" x="1.242" y="0" width="699.758" height="351.965"></rect> </defs> <clipPath id="SVGID_94_"> <use xlink:href="#SVGID_93_" overflow="visible"></use> </clipPath> <polyline clip-path="url(#SVGID_94_)" fill="none" stroke="#FDE7DF" stroke-width="3.1388" stroke-miterlimit="10" stroke-dasharray="6.2777,8.3702" points=" 475.272,186.379 475.272,324.373 384.246,324.373 384.246,312.145 "></polyline> </g> <g> <defs> <rect id="SVGID_95_" x="1.242" y="0" width="699.758" height="351.965"></rect> </defs> <clipPath id="SVGID_96_"> <use xlink:href="#SVGID_95_" overflow="visible"></use> </clipPath> <g clip-path="url(#SVGID_96_)"> <path fill="#FDE7DF" d="M326.291,156.01h-3.132v-6.292h3.132V156.01z M326.291,141.329h-3.132v-6.292h3.132V141.329z M326.291,126.648h-3.132v-6.292h3.132V126.648z M326.291,111.967h-3.132v-6.292h3.132V111.967z M384.247,64.272h-6.263 v-3.146h6.263V64.272z M369.632,64.272h-6.263v-3.146h6.263V64.272z"></path> </g> </g> <g> <defs> <rect id="SVGID_97_" x="1.242" y="0" width="699.758" height="351.965"></rect> </defs> <clipPath id="SVGID_98_"> <use xlink:href="#SVGID_97_" overflow="visible"></use> </clipPath> <g clip-path="url(#SVGID_98_)"> <path fill="#FDE7DF" d="M670.452,273.717h-2.504v-1.573h-0.628v-5.35h3.132V273.717z M659.597,273.717h-6.263v-3.146 h6.263V273.717z M670.452,258.406h-3.132v-6.292h3.132V258.406z M670.452,243.725h-3.132v-6.292h3.132V243.725z M670.452,229.044h-3.132v-6.292h3.132V229.044z M670.452,214.362h-3.132v-6.292h3.132V214.362z M670.452,199.681h-3.132 v-6.292h3.132V199.681z M670.452,185h-3.132v-6.292h3.132V185z M670.452,170.319h-3.132v-6.292h3.132V170.319z M670.452,155.638h-3.132v-6.292h3.132V155.638z M670.452,140.957h-3.132v-6.292h3.132V140.957z M670.452,126.276h-3.132 v-6.292h3.132V126.276z M670.452,111.595h-3.132v-6.292h3.132V111.595z M670.452,96.914h-3.132v-6.292h3.132V96.914z M660.535,92.195h-6.263V89.05h6.263V92.195z M645.92,92.195h-6.263V89.05h6.263V92.195z M616.691,92.195h-6.263V89.05 h6.263V92.195z M572.846,92.195h-6.263V89.05h6.263V92.195z M543.617,92.195h-6.263V89.05h6.263V92.195z M529.002,92.195 h-6.263V89.05h6.263V92.195z M514.387,92.195h-6.263V89.05h6.263V92.195z"></path> </g> </g> <g> <defs> <rect id="SVGID_99_" x="1.242" y="0" width="699.758" height="351.965"></rect> </defs> <clipPath id="SVGID_100_"> <use xlink:href="#SVGID_99_" overflow="visible"></use> </clipPath> <g clip-path="url(#SVGID_100_)"> <rect x="557.532" y="76.127" fill="#D95F55" width="18.607" height="31.492"></rect> <rect x="583.117" y="61.737" fill="#80B3E0" width="18.607" height="45.882"></rect> <rect x="608.702" y="46.729" fill="#26282F" width="18.607" height="60.89"></rect> <rect x="552.904" y="110.344" fill="#26282F" width="79.033" height="3.543"></rect> </g> </g> <g> <defs> <rect id="SVGID_101_" x="1.242" y="0" width="699.758" height="351.965"></rect> </defs> <clipPath id="SVGID_102_"> <use xlink:href="#SVGID_101_" overflow="visible"></use> </clipPath> <g clip-path="url(#SVGID_102_)"> <g> <path fill="#26282F" d="M192.478,251.008L192.478,251.008c0.608-5.309,2.532-10.456,5.565-14.883 c4.964-7.247,12.44-12.117,21.052-13.716c8.611-1.598,17.327,0.268,24.541,5.255 c10.017,6.925,15.377,18.771,13.988,30.916c-0.608,5.309-2.532,10.456-5.565,14.883 c-4.964,7.247-12.44,12.118-21.052,13.716c-8.611,1.598-17.326-0.268-24.541-5.255 C196.448,274.999,191.088,263.151,192.478,251.008z M248.938,257.577c1.02-8.91-2.911-17.599-10.258-22.678 c-5.29-3.657-11.682-5.026-17.997-3.854c-6.315,1.172-11.797,4.744-15.438,10.058c-2.226,3.248-3.637,7.021-4.082,10.908 c-1.02,8.91,2.911,17.6,10.258,22.679c5.29,3.656,11.682,5.026,17.997,3.853c6.315-1.172,11.797-4.744,15.438-10.058 C247.082,265.235,248.494,261.464,248.938,257.577z"></path> </g> <path fill="#26282F" d="M185.984,323.765c-1.703,2.485-5.568,2.782-8.634,0.662l0,0c-3.066-2.119-4.171-5.852-2.469-8.338 l29.715-38.6c1.702-2.485,4.574-3.469,6.414-2.197l0,0c1.84,1.272,1.951,4.317,0.248,6.803L185.984,323.765z"></path> <path fill="#FDE7DF" d="M209.683,244.17c6.014-8.779,17.716-11.275,26.716-5.942c-0.368-0.294-0.744-0.582-1.137-0.854 c-9.133-6.313-21.631-3.994-27.916,5.18s-3.976,21.729,5.157,28.043c0.393,0.272,0.795,0.522,1.2,0.762 C205.529,264.821,203.669,252.95,209.683,244.17z"></path> </g> </g> <g> <defs> <rect id="SVGID_103_" x="1.242" y="0" width="699.758" height="351.965"></rect> </defs> <clipPath id="SVGID_104_"> <use xlink:href="#SVGID_103_" overflow="visible"></use> </clipPath> <g clip-path="url(#SVGID_104_)"> <path fill="#26282F" d="M290.726,58.636c0-13.547,10.932-24.528,24.418-24.528V19.742 c-21.384,0-38.718,17.413-38.718,38.894c0,16.63,10.409,30.781,25.023,36.343l5.614-13.219 C297.555,78.406,290.726,69.333,290.726,58.636z"></path> <g> <path fill="#D95F55" d="M324.974,79.894l1.073-0.572c7.648-4.079,12.4-12.006,12.4-20.687 c0-3.523-0.786-6.942-2.336-10.164l-0.419-0.871l13.799-9.259l0.585,1.071c3.206,5.864,4.9,12.511,4.9,19.223 c0,14.254-7.67,27.542-20.018,34.675l-0.916,0.529L324.974,79.894z"></path> <path fill="#3572B6" d="M349.098,39.947c3.032,5.547,4.764,11.913,4.764,18.689c0,14.431-7.842,26.998-19.461,33.71 l-7.829-12.04c7.724-4.119,12.99-12.273,12.99-21.67c0-3.821-0.895-7.423-2.446-10.647L349.098,39.947 M349.883,36.736 l-2.027,1.36l-11.983,8.041l-1.604,1.077l0.838,1.741c1.477,3.069,2.226,6.326,2.226,9.681 c0,8.269-4.525,15.818-11.81,19.703l-2.145,1.144l1.325,2.038l7.829,12.04l1.153,1.773l1.831-1.058 c12.691-7.333,20.575-20.989,20.575-35.641c0-6.898-1.742-13.73-5.037-19.758L349.883,36.736L349.883,36.736z"></path> </g> <g> <path fill="#FDE7DF" d="M336.111,48.472c-3.933-8.173-11.967-13.25-20.967-13.25h-1.115V18.627h1.115 c14.539,0,27.924,7.964,34.933,20.785l0.488,0.893l-13.896,9.325L336.111,48.472z"></path> <path fill="#3572B6" d="M315.144,19.742c14.639,0,27.373,8.165,33.955,20.205l-11.983,8.041 c-3.949-8.206-12.29-13.881-21.971-13.881L315.144,19.742 M315.144,17.513h-2.229v2.229v14.365v2.229h2.229 c8.568,0,16.217,4.835,19.963,12.618l1.115,2.317l2.135-1.433l11.983-8.041l1.69-1.134l-0.976-1.786 C343.851,25.7,330.09,17.513,315.144,17.513L315.144,17.513z"></path> </g> <g> <path fill="#80B3E0" d="M315.144,98.644c-4.775,0-9.516-0.883-14.092-2.624l-1.082-0.412l6.476-15.249l0.987,0.348 c2.522,0.89,5.116,1.341,7.71,1.341c3.788,0,7.558-0.943,10.903-2.727l0.902-0.481l9.027,13.882l-1.017,0.587 C328.92,96.8,322.068,98.644,315.144,98.644z"></path> <path fill="#3572B6" d="M326.571,80.306l7.829,12.04c-5.676,3.279-12.239,5.183-19.257,5.183 c-4.829,0-9.432-0.928-13.695-2.551l5.614-13.219c2.533,0.893,5.245,1.404,8.081,1.404 C319.275,83.164,323.161,82.125,326.571,80.306 M327.326,77.377l-1.803,0.962c-3.23,1.723-6.722,2.596-10.379,2.596 c-2.468,0-4.937-0.43-7.34-1.277l-1.975-0.697l-0.819,1.927l-5.614,13.219l-0.905,2.131l2.164,0.824 c4.702,1.789,9.576,2.696,14.488,2.696c7.12,0,14.164-1.896,20.372-5.482l2.034-1.175l-1.281-1.97l-7.829-12.04 L327.326,77.377L327.326,77.377z"></path> </g> </g> </g> <g> <defs> <rect id="SVGID_105_" x="1.242" y="0" width="699.758" height="351.965"></rect> </defs> <clipPath id="SVGID_106_"> <use xlink:href="#SVGID_105_" overflow="visible"></use> </clipPath> <g clip-path="url(#SVGID_106_)"> <g> <path fill="#26282F" d="M54.06,75.684c0,5.269-1.104,9.174-3.312,11.713c-2.208,2.54-5.424,3.81-9.648,3.81 c-4.359,0-7.637-1.286-9.835-3.857s-3.298-6.417-3.298-11.539c0-5.227,1.123-9.105,3.369-11.634 c2.247-2.529,5.501-3.793,9.763-3.793c4.301,0,7.536,1.265,9.706,3.793C52.975,66.706,54.06,70.541,54.06,75.684z M45.564,75.763c0-3.392-0.355-5.681-1.065-6.869c-0.711-1.188-1.872-1.781-3.485-1.781s-2.775,0.594-3.485,1.781 c-0.711,1.188-1.065,3.487-1.065,6.9c0,3.414,0.355,5.714,1.065,6.901c0.71,1.188,1.872,1.78,3.485,1.78 s2.775-0.593,3.485-1.78S45.564,79.198,45.564,75.763z M76.524,61.304L54.051,108.57h-7.738l22.473-47.266H76.524z M94.755,94.031c0,5.27-1.104,9.174-3.312,11.713c-2.208,2.54-5.424,3.809-9.648,3.809c-4.359,0-7.637-1.286-9.835-3.856 c-2.199-2.571-3.298-6.417-3.298-11.539c0-5.227,1.123-9.105,3.369-11.634c2.247-2.528,5.501-3.793,9.763-3.793 c4.301,0,7.536,1.265,9.706,3.793C93.67,85.053,94.755,88.889,94.755,94.031z M86.259,94.11 c0-3.392-0.355-5.682-1.065-6.869c-0.711-1.187-1.872-1.781-3.485-1.781s-2.775,0.594-3.485,1.781 c-0.711,1.188-1.065,3.487-1.065,6.901s0.355,5.714,1.065,6.901c0.71,1.187,1.872,1.78,3.485,1.78 s2.774-0.593,3.485-1.78C85.904,99.856,86.259,97.545,86.259,94.11z"></path> </g> </g> </g> <g> <defs> <rect id="SVGID_107_" x="1.242" y="0" width="699.758" height="351.965"></rect> </defs> <clipPath id="SVGID_108_"> <use xlink:href="#SVGID_107_" overflow="visible"></use> </clipPath> <g clip-path="url(#SVGID_108_)"> <g> <polygon fill="#FDE7DF" points="618.951,323.819 517.947,303.114 544.97,170.095 645.974,190.8 "></polygon> <g> <polygon fill="#80B3E0" points="634.99,220.78 600.53,213.715 601.742,207.747 636.203,214.811 "></polygon> <polygon fill="#80B3E0" points="632.989,230.627 598.529,223.563 599.742,217.595 634.202,224.659 "></polygon> <polygon fill="#80B3E0" points="630.807,241.37 596.347,234.306 597.559,228.338 632.019,235.402 "></polygon> <polygon fill="#80B3E0" points="621.991,272.298 538.811,255.247 540.023,249.279 623.203,266.33 "></polygon> <polygon fill="#80B3E0" points="619.49,284.608 536.31,267.557 537.523,261.588 620.703,278.64 "></polygon> <polygon fill="#80B3E0" points="616.971,297.008 533.791,279.956 535.004,273.988 618.184,291.039 "></polygon> <polygon fill="#80B3E0" points="614.47,309.317 531.291,292.266 532.503,286.297 615.683,303.349 "></polygon> </g> </g> <g> <g> <path id="SVGID_11_" fill="#3572B6" d="M592.256,224.781c3.123-13.724-5.42-27.392-19.082-30.53 c-13.662-3.137-27.269,5.445-30.392,19.168s5.42,27.392,19.082,30.53C575.526,247.086,589.133,238.504,592.256,224.781z "></path> </g> <g> <defs> <path id="SVGID_109_" d="M592.256,224.781c3.123-13.724-5.42-27.392-19.082-30.53 c-13.662-3.137-27.269,5.445-30.392,19.168s5.42,27.392,19.082,30.53C575.526,247.086,589.133,238.504,592.256,224.781 z"></path> </defs> <defs> <path id="SVGID_110_" d="M592.256,224.781c3.123-13.724-5.42-27.392-19.082-30.53 c-13.662-3.137-27.269,5.445-30.392,19.168s5.42,27.392,19.082,30.53C575.526,247.086,589.133,238.504,592.256,224.781 z"></path> </defs> <defs> <path id="SVGID_111_" d="M592.256,224.781c3.123-13.724-5.42-27.392-19.082-30.53 c-13.662-3.137-27.269,5.445-30.392,19.168s5.42,27.392,19.082,30.53C575.526,247.086,589.133,238.504,592.256,224.781 z"></path> </defs> <defs> <path id="SVGID_112_" d="M592.256,224.781c3.123-13.724-5.42-27.392-19.082-30.53 c-13.662-3.137-27.269,5.445-30.392,19.168s5.42,27.392,19.082,30.53C575.526,247.086,589.133,238.504,592.256,224.781 z"></path> </defs> <defs> <path id="SVGID_113_" d="M592.256,224.781c3.123-13.724-5.42-27.392-19.082-30.53 c-13.662-3.137-27.269,5.445-30.392,19.168s5.42,27.392,19.082,30.53C575.526,247.086,589.133,238.504,592.256,224.781 z"></path> </defs> <defs> <path id="SVGID_114_" d="M592.256,224.781c3.123-13.724-5.42-27.392-19.082-30.53 c-13.662-3.137-27.269,5.445-30.392,19.168s5.42,27.392,19.082,30.53C575.526,247.086,589.133,238.504,592.256,224.781 z"></path> </defs> <defs> <path id="SVGID_115_" d="M592.256,224.781c3.123-13.724-5.42-27.392-19.082-30.53 c-13.662-3.137-27.269,5.445-30.392,19.168s5.42,27.392,19.082,30.53C575.526,247.086,589.133,238.504,592.256,224.781 z"></path> </defs> <defs> <path id="SVGID_116_" d="M592.256,224.781c3.123-13.724-5.42-27.392-19.082-30.53 c-13.662-3.137-27.269,5.445-30.392,19.168s5.42,27.392,19.082,30.53C575.526,247.086,589.133,238.504,592.256,224.781 z"></path> </defs> <clipPath id="SVGID_117_"> <use xlink:href="#SVGID_109_" overflow="visible"></use> </clipPath> <clipPath id="SVGID_118_" clip-path="url(#SVGID_117_)"> <use xlink:href="#SVGID_110_" overflow="visible"></use> </clipPath> <clipPath id="SVGID_119_" clip-path="url(#SVGID_118_)"> <use xlink:href="#SVGID_111_" overflow="visible"></use> </clipPath> <clipPath id="SVGID_120_" clip-path="url(#SVGID_119_)"> <use xlink:href="#SVGID_112_" overflow="visible"></use> </clipPath> <clipPath id="SVGID_121_" clip-path="url(#SVGID_120_)"> <use xlink:href="#SVGID_113_" overflow="visible"></use> </clipPath> <clipPath id="SVGID_122_" clip-path="url(#SVGID_121_)"> <use xlink:href="#SVGID_114_" overflow="visible"></use> </clipPath> <clipPath id="SVGID_123_" clip-path="url(#SVGID_122_)"> <use xlink:href="#SVGID_115_" overflow="visible"></use> </clipPath> <clipPath id="SVGID_124_" clip-path="url(#SVGID_123_)"> <use xlink:href="#SVGID_116_" overflow="visible"></use> </clipPath> <path clip-path="url(#SVGID_124_)" fill="#80B3E0" d="M592.463,224.855c3.123-13.724-5.42-27.392-19.082-30.53 c-13.662-3.137-27.269,5.445-30.392,19.168c-3.123,13.724,5.42,27.392,19.082,30.53 C575.733,247.161,589.339,238.579,592.463,224.855z"></path> <path clip-path="url(#SVGID_124_)" fill="#26282F" d="M582.405,221.345c-3.561,9.938-7.48,10.429-15.746,7.44 s-17.749-8.326-14.188-18.264c3.561-9.938,13.149-15.571,21.415-12.582 C582.152,200.928,585.966,211.407,582.405,221.345z"></path> <path clip-path="url(#SVGID_124_)" fill="#F0B783" d="M568.056,234.044c-0.392,1.723-1.775,1.367-3.491,0.973l0,0 c-1.716-0.394-3.115-0.677-2.723-2.4l2.856-12.551c0.392-1.724,2.101-2.802,3.817-2.408l0,0 c1.716,0.394,2.789,2.111,2.397,3.834L568.056,234.044z"></path> <path clip-path="url(#SVGID_124_)" fill="#F0B783" d="M578.191,217.989c0.03-0.797,0.057-1.595,0.127-2.391 c0.183-2.082,0.512-4.152,0.887-6.211c0.511-2.808-0.042-7.263-7.208-8.908c-7.165-1.645-9.658,2.111-10.345,4.878 c-0.501,2.017-1.201,3.986-1.925,5.926c-0.344,0.923-0.663,1.837-1.094,2.717c-0.923,1.884-1.512,4.058-1.32,6.182 c0.208,2.296,1.372,4.304,2.938,5.748c1.512,1.395,3.371,2.316,5.324,2.765c4.025,0.924,9.173-0.176,11.389-4.555 c0.707-1.397,1.035-2.971,1.145-4.53C578.148,219.07,578.17,218.53,578.191,217.989z"></path> <path clip-path="url(#SVGID_124_)" fill="#D95F55" d="M573.905,248.061l1.581-6.948 c0.846-3.719-1.338-7.393-4.879-8.206l-10.571-2.427c-3.541-0.813-7.098,1.543-7.944,5.262l-1.581,6.948 L573.905,248.061z"></path> <g clip-path="url(#SVGID_124_)"> <path fill="#FFFFFF" d="M562.173,221.267c0,0,0.587,0.225,1.468,0.563c0.211,0.078,0.44,0.162,0.681,0.251 c0.235,0.097,0.499,0.157,0.751,0.258c0.522,0.158,1.065,0.341,1.62,0.462c0.549,0.147,1.108,0.242,1.639,0.321 c0.266,0.054,0.526,0.068,0.776,0.1c0.251,0.033,0.49,0.049,0.714,0.061c0.223,0.005,0.437,0.044,0.624,0.046 c0.186-0.003,0.354,0.01,0.494,0.016c0.281,0.017,0.451,0.039,0.451,0.039s-0.129,0.1-0.372,0.255 c-0.242,0.156-0.601,0.371-1.074,0.515c-0.234,0.088-0.492,0.175-0.774,0.21c-0.281,0.046-0.581,0.121-0.894,0.115 c-0.312,0.007-0.641,0.027-0.966-0.024c-0.329-0.028-0.66-0.082-0.983-0.167c-1.311-0.305-2.46-1.034-3.159-1.721 C562.447,221.894,562.173,221.267,562.173,221.267z"></path> </g> <path clip-path="url(#SVGID_124_)" fill="none" d="M592.247,224.806c3.123-13.724-5.42-27.392-19.082-30.53 c-13.662-3.137-27.269,5.445-30.392,19.168c-3.123,13.724,5.42,27.392,19.082,30.53 C575.517,247.111,589.124,238.529,592.247,224.806z"></path> <path clip-path="url(#SVGID_124_)" fill="#26282F" d="M577.669,200.885c0,0-17.053-8.827-23.346,14.986 c0,0,14.801,2.18,26.842-5.844"></path> </g> </g> <g> <defs> <rect id="SVGID_125_" x="1.242" y="0" width="699.758" height="351.965"></rect> </defs> <clipPath id="SVGID_126_"> <use xlink:href="#SVGID_125_" overflow="visible"></use> </clipPath> <polygon id="XMLID_72_" opacity="0.2" clip-path="url(#SVGID_126_)" fill="#FFFFFF" points=" 109.924,126.801 112.251,133.909 119.328,136.247 112.251,138.585 109.924,145.693 107.597,138.585 100.521,136.247 107.597,133.909 "></polygon> </g> <g> <defs> <rect id="SVGID_127_" x="1.242" y="0" width="699.758" height="351.965"></rect> </defs> <clipPath id="SVGID_128_"> <use xlink:href="#SVGID_127_" overflow="visible"></use> </clipPath> <polygon id="XMLID_73_" opacity="0.2" clip-path="url(#SVGID_128_)" fill="#FFFFFF" points=" 538.811,28.919 541.138,36.027 548.214,38.365 541.138,40.702 538.811,47.81 536.484,40.702 529.408,38.365 536.484,36.027 "></polygon> </g> <g> <defs> <rect id="SVGID_129_" x="1.242" y="0" width="699.758" height="351.965"></rect> </defs> <clipPath id="SVGID_130_"> <use xlink:href="#SVGID_129_" overflow="visible"></use> </clipPath> <polygon id="XMLID_74_" opacity="0.2" clip-path="url(#SVGID_130_)" fill="#FFFFFF" points=" 287.151,137.126 290.466,147.252 300.546,150.582 290.466,153.913 287.151,164.039 283.835,153.913 273.755,150.582 283.835,147.252 "></polygon> </g> <g> <defs> <rect id="SVGID_131_" x="1.242" y="0" width="699.758" height="351.965"></rect> </defs> <clipPath id="SVGID_132_"> <use xlink:href="#SVGID_131_" overflow="visible"></use> </clipPath> <polygon id="XMLID_76_" opacity="0.2" clip-path="url(#SVGID_132_)" fill="#FFFFFF" points=" 611.329,137.126 614.644,147.252 624.724,150.582 614.644,153.913 611.329,164.039 608.013,153.913 597.933,150.582 608.013,147.252 "></polygon> </g> <g> <defs> <rect id="SVGID_133_" x="1.242" y="0" width="699.758" height="351.965"></rect> </defs> <clipPath id="SVGID_134_"> <use xlink:href="#SVGID_133_" overflow="visible"></use> </clipPath> <polygon id="XMLID_75_" opacity="0.2" clip-path="url(#SVGID_134_)" fill="#FFFFFF" points=" 438.419,245.108 441.141,253.421 449.417,256.156 441.141,258.89 438.419,267.203 435.698,258.89 427.422,256.156 435.698,253.421 "></polygon> </g> </g> </g> </g> </g> </g> </g> </g> </g> </g> </g> </svg>