<?xml version="1.0" encoding="UTF-8"?>  <svg xmlns="http://www.w3.org/2000/svg" xmlns:xlink="http://www.w3.org/1999/xlink" version="1.1" id="Layer_1" x="0px" y="0px" width="701px" height="351px" viewBox="0 0 701 351" xml:space="preserve"> <g> <g> <defs> <rect id="SVGID_1_" y="0" width="701" height="351.046"></rect> </defs> <clipPath id="SVGID_2_"> <use xlink:href="#SVGID_1_" overflow="visible"></use> </clipPath> <g clip-path="url(#SVGID_2_)"> <g opacity="0.7"> <path fill="#26282F" d="M479.335,45.683c-0.421,0.53-1.06,0.894-1.732,1.004c0.108,0.136,0.254,0.251,0.434,0.325 c2.178,0.915,3.927,3.078,4.091,6.29c-0.042,0.59-0.164,1.173-0.368,1.727c-0.549,1.263-1.327,2.215-2.23,2.878 c-0.922,0.637-2.076,1.064-3.449,1.169c-0.588,0.015-1.177-0.057-1.752-0.211c-2.983-1.204-4.457-3.563-4.609-5.92 c-0.018-0.272-0.131-0.503-0.295-0.677c-0.053,0.13-0.129,0.253-0.236,0.354l-7.444,4.912l-0.236,0.229 c-0.434,0.316-0.541,0.928-0.231,1.393l5.473,8.235c-0.049,0.441-0.369,0.826-0.857,0.876c-2.171,0.226-4.261,1.622-5.348,4.432 c-0.112,0.288-0.172,0.605-0.173,0.916c-0.024,6.151,5.898,8.801,9.837,6.201c0.834-0.55,1.485-1.276,1.938-2.098 c0.245-0.444,0.763-0.567,1.199-0.401l5.506,8.282c0.319,0.481,0.952,0.616,1.412,0.307l7.807-5.19l0.109-0.098l0.047-0.031 c0.665-0.44,0.534-1.441-0.209-1.779c-2.145-0.99-3.819-3.212-3.871-6.428c0.062-0.588,0.205-1.166,0.427-1.713 c0.592-1.243,1.402-2.168,2.328-2.8c0.943-0.605,2.111-0.992,3.487-1.049c0.588,0.006,1.175,0.098,1.743,0.271 c2.94,1.306,4.332,3.714,4.403,6.075c0.027,0.815,0.896,1.327,1.559,0.885l0.047-0.031l0.135-0.062l7.822-5.162 c0.465-0.306,0.586-0.943,0.269-1.422l-5.481-8.301c0.018-0.467,0.337-0.895,0.84-0.948c0.937-0.098,1.858-0.413,2.69-0.967 c3.93-2.613,3.799-9.096-1.871-11.476c-0.289-0.121-0.604-0.19-0.911-0.197c-3.012-0.096-5.115,1.285-6.168,3.193 c-0.237,0.429-0.718,0.578-1.14,0.447l-5.446-8.251c-0.307-0.466-0.912-0.604-1.374-0.331l-0.302,0.13l-7.423,4.938 C479.637,45.674,479.485,45.69,479.335,45.683z"></path> <path fill="#80B3E0" d="M555.706,64.955c-2.168,0.239-4.55-0.721-6.124-3.24c-0.231-0.495-0.394-1.02-0.478-1.559 c-0.124-1.265,0.077-2.383,0.508-3.324c0.458-0.928,1.198-1.79,2.259-2.491c0.468-0.276,0.976-0.482,1.508-0.616 c2.947-0.367,5.196,0.875,6.376,2.708c0.23,0.355,0.622,0.5,0.978,0.445c0.104-0.172,0.226-0.332,0.366-0.474 c-0.008-0.024-0.021-0.045-0.027-0.07l3.932-8.239c0.116-0.242,0.121-0.504,0.04-0.734c-0.077-0.076-0.165-0.144-0.269-0.193 l-8.289-3.956c-0.016-0.03-0.027-0.061-0.04-0.092c-0.167-0.03-0.338-0.081-0.513-0.154c-0.488,0.055-0.892,0.512-0.827,1.079 c0.239,2.168-0.721,4.551-3.24,6.124c-0.495,0.231-1.02,0.394-1.558,0.478c-1.265,0.124-2.383-0.077-3.323-0.508 c-0.928-0.458-1.79-1.198-2.491-2.259c-0.276-0.468-0.482-0.976-0.616-1.508c-0.367-2.948,0.875-5.196,2.708-6.377 c0.439-0.284,0.56-0.816,0.374-1.221c-0.016-0.007-0.031-0.012-0.047-0.02c-0.24-0.114-0.441-0.253-0.609-0.407l-7.553-3.605 c-0.228-0.033-0.464-0.103-0.706-0.218c-0.032-0.015-0.06-0.033-0.091-0.049c-0.235,0.08-0.442,0.247-0.558,0.494l-3.906,8.252 c-0.358,0.164-0.792,0.104-1.067-0.223c-0.209-0.04-0.407-0.15-0.553-0.339c-0.388-0.502-0.867-0.943-1.419-1.311 c-1.118-0.561-2.505-0.789-4.115-0.507c-0.281,0.048-0.56,0.152-0.807,0.299c-4.367,2.607-4.24,7.648-1.34,10.021 c0.168,0.101,0.342,0.195,0.522,0.28c0.878,0.416,1.805,0.599,2.709,0.575c0.354-0.009,0.641,0.181,0.806,0.448 c0.293,0.113,0.498,0.387,0.555,0.702l-3.928,8.301c-0.045,0.094-0.069,0.192-0.082,0.289c0.095,0.164,0.237,0.304,0.424,0.392 l8.251,3.907c0.003,0.007,0.003,0.015,0.007,0.022c0.167,0.039,0.338,0.099,0.511,0.181c0.086,0.041,0.167,0.085,0.244,0.132 c0.259-0.198,0.426-0.528,0.383-0.906c-0.239-2.168,0.721-4.551,3.24-6.124c0.495-0.231,1.02-0.394,1.558-0.478 c1.265-0.124,2.383,0.077,3.323,0.508c0.928,0.458,1.79,1.198,2.491,2.259c0.276,0.468,0.482,0.976,0.616,1.508 c0.367,2.948-0.875,5.196-2.708,6.377c-0.295,0.191-0.447,0.495-0.46,0.796c0.071,0.027,0.142,0.055,0.214,0.09 c0.212,0.101,0.391,0.222,0.547,0.355l0.112,0.053c0.047,0.019,0.093,0.036,0.14,0.059c0.042,0.02,0.078,0.042,0.118,0.063 l7.91,3.744c0.172,0.082,0.354,0.107,0.528,0.088c0.06-0.068,0.115-0.141,0.155-0.227l3.955-8.29 c0.017-0.009,0.035-0.013,0.053-0.021c0.042-0.29,0.136-0.574,0.273-0.836C556.47,65.107,556.118,64.907,555.706,64.955z"></path> </g> <g opacity="0.7"> <path fill="#26282F" d="M555.68,215.331"></path> <polygon fill="#AE463E" points="575.407,224.052 556.332,224.052 556.332,212.905 575.407,212.905 569.145,218.32 "></polygon> <polyline fill="#26282F" points="555.68,235.804 605.065,308.814 506.295,308.814 "></polyline> <polygon fill="#FDE7DF" stroke="#FDE7DF" stroke-width="1.0737" stroke-linecap="round" stroke-linejoin="round" stroke-miterlimit="10" points=" 570.78,258.591 570.71,258.586 555.564,236.195 540.415,258.591 545.365,269.365 550.464,258.651 555.531,269.365 560.609,258.6 565.697,269.365 "></polygon> <path fill="#FDE7DF" d="M519.092,271.006h-0.126c0.124-0.303,0.195-0.634,0.195-0.982c0-1.437-1.164-2.601-2.601-2.601 c-0.745,0-1.412,0.317-1.886,0.818c-0.427-1.384-1.701-2.397-3.225-2.397c-1.872,0-3.39,1.518-3.39,3.391 c0,0.674,0.202,1.298,0.541,1.826c-1.312,0.251-2.305,1.401-2.305,2.787c0,1.569,1.272,2.841,2.84,2.841h9.957 c1.569,0,2.84-1.272,2.84-2.841C521.932,272.278,520.661,271.006,519.092,271.006z"></path> <path fill="#FDE7DF" d="M539.041,234.035h-0.126c0.124-0.303,0.195-0.634,0.195-0.982c0-1.437-1.164-2.601-2.601-2.601 c-0.745,0-1.412,0.317-1.886,0.818c-0.427-1.384-1.701-2.397-3.225-2.397c-1.872,0-3.39,1.518-3.39,3.391 c0,0.674,0.202,1.298,0.541,1.826c-1.312,0.251-2.305,1.401-2.305,2.787c0,1.569,1.272,2.841,2.84,2.841h9.957 c1.569,0,2.84-1.272,2.84-2.841C541.881,235.307,540.61,234.035,539.041,234.035z"></path> <path fill="#FDE7DF" d="M602.959,262.294h-0.157c0.154-0.378,0.243-0.789,0.243-1.222c0-1.788-1.449-3.237-3.237-3.237 c-0.927,0-1.757,0.394-2.347,1.019c-0.531-1.723-2.117-2.984-4.014-2.984c-2.33,0-4.219,1.889-4.219,4.22 c0,0.838,0.252,1.615,0.673,2.272c-1.633,0.312-2.869,1.744-2.869,3.468c0,1.953,1.583,3.535,3.535,3.535h12.392 c1.952,0,3.535-1.583,3.535-3.535C606.494,263.877,604.911,262.294,602.959,262.294z"></path> <line fill="none" stroke="#26282F" stroke-width="1.7841" stroke-miterlimit="10" x1="555.68" y1="212.905" x2="555.68" y2="236.909"></line> </g> <g opacity="0.7"> <path fill="#26282F" d="M163.924,265.451c0-14.723,11.933-26.657,26.654-26.657v-15.612c-23.342,0-42.265,18.925-42.265,42.27 c0,18.073,11.362,33.453,27.315,39.498l6.128-14.366C171.378,286.937,163.924,277.076,163.924,265.451z"></path> <g> <path fill="#D95F55" d="M201.31,288.553l1.174-0.624c8.349-4.433,13.535-13.046,13.535-22.479 c0-3.828-0.858-7.544-2.549-11.043l-0.46-0.951l15.06-10.062l0.637,1.161c3.5,6.375,5.35,13.601,5.35,20.896 c0,15.494-8.373,29.936-21.852,37.689l-0.995,0.572L201.31,288.553z"></path> <path fill="#3572B6" d="M227.643,245.14c3.31,6.029,5.2,12.948,5.2,20.311c0,15.683-8.561,29.341-21.244,36.637l-8.546-13.086 c8.432-4.477,14.18-13.338,14.18-23.551c0-4.153-0.977-8.068-2.67-11.572L227.643,245.14 M228.496,241.649l-2.202,1.471 l-13.081,8.739l-1.756,1.173l0.919,1.902c1.611,3.334,2.428,6.872,2.428,10.515c0,8.983-4.939,17.185-12.89,21.407 l-2.348,1.247l1.453,2.226l8.546,13.086l1.255,1.921l1.989-1.144c13.854-7.969,22.461-22.814,22.461-38.741 c0-7.499-1.902-14.927-5.5-21.48L228.496,241.649L228.496,241.649z"></path> </g> <g> <path fill="#FDE7DF" d="M222.306,238.439c-4.293-8.882-13.064-14.4-22.891-14.4h-1.214v-18.041h1.214 c15.869,0,30.479,8.655,38.128,22.588l0.536,0.976l-15.167,10.133L222.306,238.439z"></path> <path fill="#3572B6" d="M199.415,207.213c15.979,0,29.88,8.874,37.065,21.959l-13.081,8.739 c-4.311-8.918-13.415-15.086-23.984-15.086L199.415,207.213 M199.415,204.785h-2.428v2.428v15.612v2.428h2.428 c9.356,0,17.709,5.255,21.798,13.714l1.214,2.512l2.32-1.55l13.081-8.739l1.851-1.236l-1.071-1.951 C230.745,213.681,215.727,204.785,199.415,204.785L199.415,204.785z"></path> </g> <g> <path fill="#80B3E0" d="M190.578,308.935c-5.213,0-10.388-0.959-15.38-2.851l-1.183-0.448l7.071-16.575l1.073,0.376 c2.753,0.967,5.586,1.458,8.419,1.458c4.135,0,8.252-1.025,11.905-2.965l0.979-0.52l9.855,15.089l-1.113,0.641 C205.613,306.931,198.135,308.935,190.578,308.935z"></path> <path fill="#3572B6" d="M203.053,289.002l8.546,13.086c-6.196,3.564-13.36,5.633-21.021,5.633 c-5.271,0-10.296-1.009-14.95-2.772l6.128-14.366c2.765,0.971,5.725,1.526,8.821,1.526 C195.087,292.108,199.329,290.979,203.053,289.002 M203.873,285.817l-1.959,1.04c-3.528,1.873-7.342,2.823-11.336,2.823 c-2.695,0-5.393-0.467-8.017-1.389l-2.145-0.753l-0.892,2.092l-6.128,14.366l-0.993,2.327l2.365,0.896 c5.131,1.944,10.45,2.93,15.81,2.93c7.77,0,15.457-2.06,22.231-5.957l2.227-1.281l-1.405-2.151l-8.546-13.086L203.873,285.817 L203.873,285.817z"></path> </g> </g> <g opacity="0.7"> <rect x="31.883" y="75.726" transform="matrix(-0.9849 0.1733 -0.1733 -0.9849 97.1715 173.7025)" fill="#D95F55" width="18.24" height="30.734"></rect> <rect x="55.366" y="57.442" transform="matrix(-0.9849 0.1733 -0.1733 -0.9849 141.8307 147.2793)" fill="#80B3E0" width="18.24" height="44.778"></rect> <rect x="78.797" y="38.56" transform="matrix(-0.9849 0.1733 -0.1733 -0.9849 186.3352 120.2753)" fill="#26282F" width="18.24" height="59.425"></rect> <rect x="30.39" y="104.475" transform="matrix(-0.9849 0.1733 -0.1733 -0.9849 155.6102 198.8221)" fill="#26282F" width="77.472" height="3.458"></rect> </g> <g opacity="0.7"> <path fill="#D95F55" d="M90.555,242.259c-8.71-15.106-28.014-20.289-43.118-11.578S27.15,258.698,35.86,273.804 s28.014,20.289,43.118,11.578S99.265,257.364,90.555,242.259z"></path> <rect x="64.375" y="274.01" transform="matrix(-0.8663 0.4996 -0.4996 -0.8663 287.601 490.7922)" fill="#D95F55" width="27.471" height="19.76"></rect> <g> <g> <g> <rect x="71.578" y="294.207" transform="matrix(-0.8663 0.4996 -0.4996 -0.8663 307.2843 510.5059)" fill="#26282F" width="27.471" height="4.349"></rect> </g> <g> <rect x="74.665" y="299.562" transform="matrix(-0.8663 0.4996 -0.4996 -0.8663 315.7219 518.958)" fill="#26282F" width="27.471" height="4.349"></rect> </g> <g> <rect x="77.901" y="305.173" transform="matrix(-0.8663 0.4996 -0.4996 -0.8663 324.5638 527.8135)" fill="#26282F" width="27.471" height="4.349"></rect> </g> <g> <path fill="#26282F" d="M94.807,312.835c3.923-2.263,6.069-5.892,4.792-8.106l-14.207,8.194 C86.669,315.137,90.884,315.097,94.807,312.835z"></path> </g> </g> </g> <path fill="#FDE7DF" d="M65.434,280.535c-12.001,2.461-23.724-5.274-26.185-17.276c-1.975-9.632,2.62-19.081,10.713-23.711 c-10.339,3.598-16.675,14.377-14.416,25.395c2.461,12.002,14.184,19.737,26.185,17.276c2.37-0.486,4.57-1.338,6.561-2.477 C67.369,280.064,66.418,280.334,65.434,280.535z"></path> </g> <path opacity="0.7" fill="none" stroke="#26282F" stroke-width="3.2117" stroke-miterlimit="10" stroke-dasharray="6.4234,6.4234" d=" M422.536,84.12c9.398,8.399,11.2,31.595,14.573,43.752c2.85,10.274,5.269,15.811,11.495,24.357 c13.613,18.686,24.83,37.21,48.838,31.952c29.086-6.37,67.052-38.674,40.314-67.225c-31.819-33.976-47.585,31.882-27.186,50.887 c27.853,25.951,54.558-2.76,76.494-20.464"></path> <g opacity="0.7"> <polygon fill="#26282F" points="630.008,97.67 605.015,128.484 618.901,139.75 628.534,127.872 "></polygon> <polygon fill="#26282F" points="621.001,90.363 596.008,121.177 582.122,109.911 591.756,98.034 "></polygon> <rect x="591.274" y="124.771" transform="matrix(-0.7766 -0.63 0.63 -0.7766 983.663 602.052)" fill="#3572B6" width="14.608" height="3.695"></rect> <path fill="#D95F55" d="M650.515,83.773c0.274-0.757,0.491-1.483,0.719-2.215l-9.469-7.682l-9.469-7.682 c-0.669,0.374-1.335,0.737-2.019,1.161c-6.742,4.185-14.108,10.753-20.834,19.046c-9.639,11.884-15.557,24.323-16.552,33.26 l7.08,5.744l7.08,5.744c8.538-2.817,19.488-11.174,29.127-23.058C642.904,99.797,647.812,91.235,650.515,83.773z"></path> <g> <circle fill="#FDE7DF" stroke="#26282F" stroke-width="2.3537" stroke-miterlimit="10" cx="634.618" cy="82.171" r="6.146"></circle> <circle fill="#FDE7DF" stroke="#26282F" stroke-width="2.3537" stroke-miterlimit="10" cx="622.935" cy="96.574" r="6.146"></circle> </g> <g> <polygon fill="#26282F" points="646.723,64.44 660.614,50.638 649.975,67.078 "></polygon> <circle fill="#D95F55" cx="660.614" cy="50.638" r="2.283"></circle> <path fill="#26282F" d="M650,64.242c-0.082-0.073-0.142-0.168-0.227-0.238c-3.71-3.01-10.131-1.917-17.476,2.19l9.722,7.888 l9.215,7.476C653.68,73.708,653.469,67.339,650,64.242z"></path> </g> <rect x="607.081" y="101.549" transform="matrix(-0.7766 -0.63 0.63 -0.7766 1008.5375 587.5703)" fill="#26282F" width="2.733" height="26.836"></rect> <path fill="#80B3E0" d="M600.849,134.693c-3.864,2.129-7.288,2.646-9.302,1.013s-2.214-5.092-0.927-9.312 c-3.636,2.004-7.66,5.434-11.274,9.891c-2.972,3.665-5.202,7.455-6.579,10.896c4.651-3.104,8.922-4.125,11.272-2.218 s2.232,6.297,0.155,11.489c3.083-2.057,6.332-5.021,9.304-8.685C597.112,143.31,599.638,138.664,600.849,134.693z"></path> </g> <g opacity="0.6"> <g> <path fill="none" stroke="#26282F" stroke-width="2.1251" stroke-miterlimit="10" d="M209.069,176.434 c0,0,11.624,6.697,13.694,21.26"></path> <g> <polygon fill="#26282F" points="215.594,195.787 222.655,207.614 229.368,195.587 "></polygon> </g> </g> </g> <g opacity="0.7"> <g> <path fill="#26282F" d="M619.627,226.843L619.627,226.843c-3.887-2.001-7.267-4.968-9.775-8.579 c-4.105-5.91-5.663-13.065-4.387-20.148c1.276-7.082,5.233-13.244,11.143-17.35c8.206-5.701,18.827-6.4,27.718-1.822 c3.887,2.001,7.267,4.967,9.775,8.579c4.105,5.91,5.664,13.066,4.387,20.148c-1.276,7.082-5.233,13.244-11.143,17.35 C639.139,230.722,628.517,231.42,619.627,226.843z M641.038,185.332c-6.522-3.358-14.313-2.846-20.332,1.335 c-4.334,3.011-7.236,7.529-8.172,12.723s0.207,10.441,3.218,14.775c1.84,2.65,4.317,4.825,7.163,6.29 c6.522,3.358,14.313,2.846,20.332-1.335c4.333-3.011,7.236-7.529,8.171-12.724c0.936-5.194-0.207-10.441-3.218-14.775 C646.36,188.972,643.884,186.797,641.038,185.332z"></path> </g> <path fill="#26282F" d="M673.422,252.857c1.408,2.027,0.513,5.085-1.999,6.83l0,0c-2.512,1.745-5.689,1.516-7.097-0.511 l-20.917-33.998c-1.408-2.027-1.328-4.519,0.179-5.566l0,0c1.507-1.047,3.87-0.253,5.278,1.774L673.422,252.857z"></path> <path fill="#FDE7DF" d="M619.387,211.641c-4.973-7.16-3.488-16.879,3.205-22.257c-0.332,0.198-0.661,0.404-0.983,0.628 c-7.482,5.198-9.333,15.477-4.136,22.96s15.475,9.335,22.957,4.137c0.322-0.224,0.63-0.46,0.931-0.702 C633.985,220.8,624.36,218.801,619.387,211.641z"></path> </g> <g> <polygon fill="#26282F" points="472.445,292.494 274.852,330.061 228.555,86.491 426.148,48.924 "></polygon> <polygon fill="#FDE7DF" points="462.86,286.768 281.668,321.218 237.914,91.028 419.106,56.579 "></polygon> <g> <path fill="#D95F55" d="M375.599,43.209L279.89,61.406c-14.89,2.831-24.666,17.198-21.835,32.091l149.631-28.449 C404.855,50.155,390.489,40.378,375.599,43.209z"></path> <circle fill="#D95F55" cx="324.54" cy="52.917" r="15.874"></circle> <circle fill="#3572B6" cx="324.54" cy="52.917" r="7.355"></circle> </g> <g> <line fill="none" stroke="#26282F" stroke-width="5.8161" stroke-miterlimit="10" x1="263.616" y1="122.753" x2="288.794" y2="137.686"></line> <line fill="none" stroke="#26282F" stroke-width="5.8161" stroke-miterlimit="10" x1="268.739" y1="142.81" x2="283.67" y2="117.629"></line> </g> <g> <line fill="none" stroke="#26282F" stroke-width="5.8161" stroke-miterlimit="10" x1="405.512" y1="259.349" x2="430.691" y2="274.282"></line> <line fill="none" stroke="#26282F" stroke-width="5.8161" stroke-miterlimit="10" x1="410.636" y1="279.406" x2="425.567" y2="254.225"></line> </g> <g> <line fill="none" stroke="#D95F55" stroke-width="4.2245" stroke-miterlimit="10" x1="307.286" y1="278.311" x2="327.081" y2="290.051"></line> <line fill="none" stroke="#D95F55" stroke-width="4.2245" stroke-miterlimit="10" x1="311.314" y1="294.08" x2="323.053" y2="274.282"></line> </g> <g> <g> <line fill="none" stroke="#26282F" stroke-width="3.7834" stroke-miterlimit="10" x1="274.207" y1="131.539" x2="281.76" y2="131.991"></line> <line fill="none" stroke="#26282F" stroke-width="3.7834" stroke-miterlimit="10" stroke-dasharray="16.1042,16.1042" x1="297.835" y1="132.952" x2="386.25" y2="138.237"></line> <polyline fill="none" stroke="#26282F" stroke-width="3.7834" stroke-miterlimit="10" points="394.288,138.718 401.842,139.17 396.387,144.414 "></polyline> <line fill="none" stroke="#26282F" stroke-width="3.7834" stroke-miterlimit="10" stroke-dasharray="15.2019,15.2019" x1="385.427" y1="154.949" x2="325.152" y2="212.894"></line> <polyline fill="none" stroke="#26282F" stroke-width="3.7834" stroke-miterlimit="10" points="319.673,218.162 314.218,223.406 321.22,226.275 "></polyline> <line fill="none" stroke="#26282F" stroke-width="3.7834" stroke-miterlimit="10" stroke-dasharray="13.7573,13.7573" x1="333.95" y1="231.49" x2="403.968" y2="260.174"></line> <line fill="none" stroke="#26282F" stroke-width="3.7834" stroke-miterlimit="10" x1="410.333" y1="262.781" x2="417.335" y2="265.65"></line> </g> </g> <circle fill="#FDE7DF" stroke="#D95F55" stroke-width="7.5669" stroke-miterlimit="10" cx="401.842" cy="139.17" r="13.058"></circle> <circle fill="#FDE7DF" stroke="#D95F55" stroke-width="7.5669" stroke-miterlimit="10" cx="307.432" cy="224.578" r="13.058"></circle> <g> <g> <path fill="none" stroke="#D95F55" stroke-width="3.7829" stroke-miterlimit="10" d="M291.158,145.575 c0,0,88.681,0,132.381,87.156"></path> <g> <polygon fill="#D95F55" points="410.767,234.573 430.691,248.863 433.108,224.464 "></polygon> </g> </g> </g> <line fill="none" stroke="#D95F55" stroke-width="2.6867" stroke-miterlimit="10" stroke-dasharray="2.6867,2.6867" x1="294.534" y1="119.672" x2="339.833" y2="99.195"></line> <line fill="none" stroke="#D95F55" stroke-width="2.6867" stroke-miterlimit="10" stroke-dasharray="2.6867,2.6867" x1="363.854" y1="97.706" x2="388.781" y2="122.753"></line> <circle fill="none" stroke="#26282F" stroke-width="4.03" stroke-miterlimit="10" cx="350.5" cy="93.497" r="8.955"></circle> <line fill="none" stroke="#26282F" stroke-width="2.6867" stroke-miterlimit="10" stroke-dasharray="2.6867,2.6867" x1="308.663" y1="246.973" x2="314.751" y2="276.091"></line> <g> <g> <line fill="none" stroke="#26282F" stroke-width="2.6867" stroke-miterlimit="10" x1="290.304" y1="184.798" x2="284.827" y2="162.31"></line> <g> <polygon fill="#26282F" points="289.376,183.606 286.254,193.554 288.823,204.105 293.238,196.848 300.496,201.262 297.927,190.711 290.581,183.313 "></polygon> </g> <g> <path fill="#26282F" d="M276.326,165.871c3.157-3.083,5.229-7.19,6.603-11.356c3.11,3.111,6.909,5.638,11.085,7.049 l0.532,2.183c-4.064-1.436-7.781-3.451-10.902-6.296c-1.497,3.97-3.881,7.583-6.777,10.639L276.326,165.871z"></path> <path fill="#26282F" d="M277.607,171.133c3.157-3.083,5.229-7.19,6.603-11.355c3.11,3.111,6.909,5.636,11.085,7.047 l0.532,2.183c-4.064-1.436-7.781-3.451-10.901-6.294c-1.498,3.967-3.882,7.582-6.778,10.637L277.607,171.133z"></path> </g> </g> </g> <g> <path fill="#FDE7DF" d="M357.881,295.906c0.56,0.297,0.748,1.039,0.42,1.658l-20.16,37.997 c-0.328,0.618-1.048,0.879-1.608,0.582l-11.911-6.321c-0.56-0.297-0.748-1.039-0.42-1.658l20.16-37.997 c0.328-0.618,1.048-0.879,1.608-0.582L357.881,295.906z"></path> <rect x="299.446" y="269.861" transform="matrix(-0.4687 0.8834 -0.8834 -0.4687 764.5882 85.3038)" fill="#D95F55" width="114.389" height="5.458"></rect> <rect x="308.786" y="274.818" transform="matrix(-0.4687 0.8834 -0.8834 -0.4687 782.6852 84.3332)" fill="#D95F55" width="114.389" height="5.458"></rect> <rect x="304.267" y="272.419" transform="matrix(-0.4687 0.8834 -0.8834 -0.4687 773.9297 84.8024)" fill="#26282F" width="114.389" height="5.458"></rect> <polygon fill="#F37A3D" points="381.023,220.801 395.184,228.317 397.809,206.267 "></polygon> <polygon fill="#26282F" points="389.53,213.595 396.382,217.232 397.652,206.563 "></polygon> <rect x="332.138" y="317.984" transform="matrix(-0.4687 0.8834 -0.8834 -0.4687 778.9432 183.4904)" fill="#80B3E0" width="4.304" height="16.033"></rect> </g> </g> <g opacity="0.7"> <path fill="#26282F" d="M122.989,166.245c0.614-2.651,2.289-4.774,4.432-6.244c0.093-0.166,0.225-0.307,0.329-0.466 c-11.61-5.087-24.749-5.413-36.559-0.975c3.209,2.701,5.731,5.975,6.846,10.2c1.071,4.061,1.038,8.153,0,12.216 c-0.466,1.822-1.427,3.385-2.654,4.686c0.255,0.363,0.511,0.727,0.766,1.09c7.266-5.108,16.955-5.108,24.221,0l0.046-0.065 C119.431,179.721,121.414,173.05,122.989,166.245z"></path> <ellipse fill="#26282F" cx="109.47" cy="158.276" rx="11.502" ry="7.938"></ellipse> <circle fill="#3572B6" cx="109.47" cy="158.276" r="3.341"></circle> <circle fill="#3572B6" cx="77.189" cy="176.34" r="19.067"></circle> <circle fill="#3572B6" cx="142.35" cy="176.34" r="19.067"></circle> <circle fill="none" stroke="#26282F" stroke-width="7.7778" stroke-miterlimit="10" cx="77.189" cy="177.345" r="22.407"></circle> <path fill="#80B3E0" d="M63.886,178.008c0-7.433,6.025-13.459,13.457-13.459c3.284,0,6.29,1.179,8.626,3.133 c-2.468-2.952-6.175-4.832-10.324-4.832c-7.432,0-13.457,6.026-13.457,13.459c0,4.149,1.88,7.856,4.831,10.325 C65.065,184.298,63.886,181.292,63.886,178.008z"></path> <circle fill="none" stroke="#26282F" stroke-width="7.7778" stroke-miterlimit="10" cx="142.35" cy="177.345" r="22.407"></circle> <path fill="#80B3E0" d="M129.448,178.008c0-7.433,6.025-13.459,13.457-13.459c3.284,0,6.29,1.179,8.626,3.133 c-2.468-2.952-6.175-4.832-10.324-4.832c-7.432,0-13.457,6.026-13.457,13.459c0,4.149,1.88,7.856,4.831,10.325 C130.627,184.298,129.448,181.292,129.448,178.008z"></path> </g> <path opacity="0.7" fill="#D95F55" d="M173.782,43.154c-8.293,0-16.114,2.707-22.617,7.829 C142.291,57.974,137.2,68.455,137.2,79.74c0,20.174,16.412,36.586,36.582,36.586s36.582-16.412,36.582-36.586 S193.953,43.154,173.782,43.154z M173.782,108.225c-15.705,0-28.48-12.779-28.48-28.485c0-6.668,2.293-12.97,6.416-18.004 l35.375,43.169C183.117,107.017,178.59,108.225,173.782,108.225z M193.644,100.116l-35.947-43.867 c4.742-3.263,10.259-4.994,16.086-4.994c15.705,0,28.48,12.779,28.48,28.485C202.263,87.723,198.952,94.939,193.644,100.116z"></path> <polygon id="XMLID_77_" opacity="0.2" fill="#FFFFFF" points="195.965,130.328 198.296,137.418 205.385,139.75 198.296,142.081 195.965,149.171 193.633,142.081 186.545,139.75 193.633,137.418 "></polygon> <polygon id="XMLID_78_" opacity="0.2" fill="#FFFFFF" points="653.669,306.658 656,313.747 663.089,316.079 656,318.411 653.669,325.5 651.337,318.411 644.249,316.079 651.337,313.747 "></polygon> <polygon id="XMLID_79_" opacity="0.2" fill="#FFFFFF" points="462.86,113.332 465.191,120.421 472.28,122.753 465.191,125.084 462.86,132.174 460.528,125.084 453.44,122.753 460.528,120.421 "></polygon> <polygon id="XMLID_81_" opacity="0.2" fill="#FFFFFF" points="285.972,30.982 288.303,38.072 295.392,40.404 288.303,42.735 285.972,49.825 283.641,42.735 276.552,40.404 283.641,38.072 "></polygon> <polygon id="XMLID_80_" opacity="0.2" fill="#FFFFFF" points="27.734,306.658 30.066,313.747 37.154,316.079 30.066,318.411 27.734,325.5 25.403,318.411 18.314,316.079 25.403,313.747 "></polygon> </g> </g> </g> </svg>