<?xml version="1.0" encoding="UTF-8"?> <svg xmlns="http://www.w3.org/2000/svg" width="122" height="24" viewBox="0 0 122 24" fill="none"><g clip-path="url(#clip0_805_1834)"><mask id="mask0_805_1834" style="mask-type:luminance" maskUnits="userSpaceOnUse" x="9" y="14" width="6" height="5"><path d="M9.75781 14.3102H14.1587V18.7111H9.75781V14.3102Z" fill="white"></path></mask><g mask="url(#mask0_805_1834)"><path d="M9.75781 14.3024V18.709H14.1644V14.3024H9.75781Z" fill="#D7D6D5"></path><path d="M9.75781 14.3024H14.1644V18.709H9.75781V14.3024Z" fill="#D7D6D5"></path></g><mask id="mask1_805_1834" style="mask-type:luminance" maskUnits="userSpaceOnUse" x="5" y="9" width="5" height="6"><path d="M9.48874 14.0536H5.08789V9.65271H9.48874V14.0536Z" fill="white"></path></mask><g mask="url(#mask1_805_1834)"><path d="M9.4867 9.64484H5.08008V14.0515H9.4867V9.64484Z" fill="url(#paint0_linear_805_1834)"></path><path d="M9.4867 14.0515H5.08008V9.64484H9.4867V14.0515Z" fill="#D7D6D5"></path></g><mask id="mask2_805_1834" style="mask-type:luminance" maskUnits="userSpaceOnUse" x="9" y="9" width="6" height="6"><path d="M14.1587 14.0528H9.75781V9.65195L14.1587 14.0528Z" fill="white"></path></mask><g mask="url(#mask2_805_1834)"><path d="M14.1644 14.0534H9.75781V9.64682L14.1644 14.0534Z" fill="#D7D6D5"></path></g><mask id="mask3_805_1834" style="mask-type:luminance" maskUnits="userSpaceOnUse" x="0" y="4" width="5" height="15"><path d="M0.419922 4.99323H4.82077V18.7134H0.419922V4.99323Z" fill="white"></path></mask><g mask="url(#mask3_805_1834)"><path d="M4.81121 18.7095V4.98932H0.423828V18.7095H4.81121Z" fill="url(#paint1_linear_805_1834)"></path><path d="M0.423828 4.98932H4.81121V18.7095H0.423828V4.98932Z" fill="#D7D6D5"></path></g><mask id="mask4_805_1834" style="mask-type:luminance" maskUnits="userSpaceOnUse" x="5" y="18" width="5" height="6"><path d="M5.08789 18.969H9.48874V23.3698H5.08789V18.969Z" fill="white"></path></mask><g mask="url(#mask4_805_1834)"><path d="M5.08008 23.3666H9.4867V18.9599H5.08008V23.3666Z" fill="url(#paint2_linear_805_1834)"></path><path d="M5.08008 18.9599H9.4867V23.3666H5.08008V18.9599Z" fill="#D7D6D5"></path></g><mask id="mask5_805_1834" style="mask-type:luminance" maskUnits="userSpaceOnUse" x="0" y="18" width="5" height="6"><path d="M0.419922 18.969H4.82077V23.3698L0.419922 18.969Z" fill="white"></path></mask><g mask="url(#mask5_805_1834)"><path d="M0.423828 18.9599H4.81121V23.3666L0.423828 18.9599Z" fill="#D7D6D5"></path></g><path d="M4.81316 4.73902H0.425781V0.332397L4.81316 4.73902Z" fill="#D7D6D5"></path><path d="M9.75781 23.3665V18.9599H14.1644L9.75781 23.3665Z" fill="#D7D6D5"></path><path fill-rule="evenodd" clip-rule="evenodd" d="M115.959 12.0899H113.034C112.822 12.0899 112.668 11.9167 112.668 11.7243V10.1463C112.668 9.95392 112.822 9.78073 113.034 9.78073H121.385C121.597 9.78073 121.751 9.95392 121.751 10.1463V11.7243C121.751 11.9167 121.597 12.0899 121.385 12.0899H118.46V22.8082C118.46 23.0006 118.287 23.1738 118.095 23.1738H116.324C116.132 23.1738 115.959 23.0006 115.959 22.8082V12.0899ZM105.49 9.60754C107.415 9.60754 108.819 10.2233 110.128 11.3971C110.282 11.5511 110.282 11.7627 110.147 11.9167L108.973 13.129C108.839 13.2829 108.646 13.2829 108.492 13.129C107.684 12.417 106.626 11.9937 105.548 11.9937C103.104 11.9937 101.276 14.0527 101.276 16.458C101.276 18.8441 103.124 20.8839 105.567 20.8839C106.722 20.8839 107.684 20.4413 108.492 19.787C108.646 19.6523 108.858 19.6716 108.973 19.787L110.167 21.0186C110.301 21.1533 110.263 21.4034 110.147 21.5189C108.839 22.7889 107.184 23.3855 105.49 23.3855C101.661 23.3855 98.5823 20.3451 98.5823 16.5157C98.5823 12.6864 101.661 9.60754 105.49 9.60754ZM85.6126 22.6927L91.5586 9.81922C91.6163 9.70376 91.7126 9.60754 91.8857 9.60754H92.0782C92.2706 9.60754 92.3476 9.70376 92.4053 9.81922L98.2936 22.6927C98.4091 22.9429 98.2552 23.193 97.9665 23.193H96.3116C96.023 23.193 95.8883 23.0776 95.7536 22.8082L94.8107 20.7492H89.0955L88.1526 22.8082C88.0757 23.0006 87.9025 23.193 87.5946 23.193H85.9397C85.6511 23.193 85.4971 22.9429 85.6126 22.6927ZM93.8678 18.6132L91.9627 14.4183H91.905L90.0192 18.6132H93.8678ZM76.934 16.3233L73.1239 10.3388C72.97 10.0886 73.1239 9.79997 73.451 9.79997H75.664C75.8179 9.79997 75.9141 9.89619 75.9719 9.97316L78.4157 14.0334H78.435L80.9173 9.97316C80.9558 9.89619 81.0712 9.79997 81.2252 9.79997H83.4574C83.7652 9.79997 83.9192 10.0886 83.7652 10.3388L79.9359 16.3233L83.8999 22.6542C84.0539 22.9236 83.8999 23.193 83.5728 23.193H81.5138C81.3599 23.193 81.2252 23.0968 81.1867 23.0198L78.4542 18.6325H78.3965L75.7025 23.0198C75.6447 23.0968 75.5293 23.193 75.3753 23.193H73.3163C72.97 23.193 72.816 22.9044 72.97 22.6542L76.934 16.3233ZM60.9816 10.1656C60.9816 9.97316 61.1356 9.79997 61.328 9.79997H65.6192C69.3138 9.79997 72.335 12.8019 72.335 16.4773C72.335 20.1911 69.3138 23.193 65.6192 23.193H61.328C61.1356 23.193 60.9816 23.0198 60.9816 22.8274V10.1656ZM65.3113 21.8845C68.4479 21.8845 70.7186 19.6331 70.7186 16.4773C70.7186 13.3407 68.4479 11.1085 65.3113 11.1085H62.4441V21.8845H65.3113ZM50.8406 10.1656C50.8406 9.97316 50.9946 9.79997 51.2063 9.79997H51.9567C52.1492 9.79997 52.3223 9.97316 52.3223 10.1656V21.923H57.8258C58.0375 21.923 58.1914 22.0962 58.1914 22.2886V22.8274C58.1914 23.0198 58.0375 23.193 57.8258 23.193H51.2063C50.9946 23.193 50.8406 23.0198 50.8406 22.8274V10.1656ZM45.087 10.1656C45.087 9.97316 45.2602 9.79997 45.4526 9.79997H46.2223C46.3955 9.79997 46.5687 9.97316 46.5687 10.1656V22.8467C46.5687 23.0198 46.3955 23.193 46.2223 23.193H45.4526C45.2602 23.193 45.087 23.0198 45.087 22.8467V10.1656ZM30.8473 10.1656C30.8473 9.97316 31.0204 9.79997 31.2129 9.79997H31.9441C32.1558 9.79997 32.3097 9.97316 32.3097 10.1656V18.1321C32.3097 20.3066 33.6567 22.0192 35.9081 22.0192C38.1596 22.0192 39.5258 20.3451 39.5258 18.1706V10.1656C39.5258 9.97316 39.6798 9.79997 39.8914 9.79997H40.6227C40.8151 9.79997 40.9883 9.97316 40.9883 10.1656V18.2476C40.9883 21.1533 38.9293 23.3855 35.9081 23.3855C32.887 23.3855 30.8473 21.1533 30.8473 18.2476V10.1656ZM19.0898 10.1656C19.0898 9.97316 19.2245 9.79997 19.4362 9.79997H23.6312C25.9596 9.79997 27.5567 11.3202 27.5567 13.3214C27.5567 14.8031 26.5753 15.8615 25.6709 16.381C26.6908 16.8044 27.9801 17.7473 27.9801 19.4984C27.9801 21.6536 26.2674 23.193 23.8044 23.193H19.4362C19.2245 23.193 19.0898 23.0198 19.0898 22.8274V10.1656ZM23.6312 15.823C25.1129 15.823 25.9211 14.7646 25.9211 13.4176C25.9211 12.0514 25.1129 11.1277 23.6312 11.1277H20.5138V15.823H23.6312ZM23.9583 21.923C25.363 21.923 26.3637 20.8646 26.3637 19.4792C26.3637 18.1321 25.1321 17.1315 23.6312 17.1315H20.4753V21.923H23.9583Z" fill="#D7D6D5"></path></g><defs><linearGradient id="paint0_linear_805_1834" x1="9.48863" y1="14.0528" x2="5.08778" y2="14.0528" gradientUnits="userSpaceOnUse"><stop stop-color="#EC5A61"></stop><stop offset="1" stop-color="#F69222"></stop></linearGradient><linearGradient id="paint1_linear_805_1834" x1="0.419787" y1="18.7139" x2="0.419787" y2="4.99278" gradientUnits="userSpaceOnUse"><stop stop-color="#EC5A61"></stop><stop offset="1" stop-color="#F69222"></stop></linearGradient><linearGradient id="paint2_linear_805_1834" x1="5.08778" y1="18.9686" x2="9.48863" y2="18.9686" gradientUnits="userSpaceOnUse"><stop stop-color="#EC5A61"></stop><stop offset="1" stop-color="#F69222"></stop></linearGradient><clipPath id="clip0_805_1834"><rect width="122" height="23.912" fill="white"></rect></clipPath></defs></svg>