<?xml version="1.0" encoding="UTF-8"?> <svg xmlns="http://www.w3.org/2000/svg" width="126" height="41" viewBox="0 0 126 41" fill="none"><path fill-rule="evenodd" clip-rule="evenodd" d="M82.3324 18.8444C82.1028 18.3251 81.9183 17.8528 81.6886 17.3335C81.0447 15.9158 80.126 14.7351 79.068 13.6485C79.0219 13.6014 78.9758 13.5535 78.8835 13.5064C78.7461 13.4114 78.6077 13.3173 78.4694 13.5064C78.3771 13.6955 78.5155 13.7896 78.6068 13.8846C79.342 14.546 79.8945 15.3485 80.4461 16.1989C81.5954 17.9469 82.147 20.3092 82.5151 22.3874C83.0667 25.5992 83.7566 30.654 82.7909 33.5356C82.7448 33.9609 81.1361 33.8188 81.2283 33.4406C81.5502 31.7397 81.826 29.2363 81.8722 27.4883C81.9644 25.2681 81.826 23.0478 81.3205 20.8746C81.2283 20.5435 81.0448 20.4494 80.7689 20.4494C79.4813 20.3553 78.2397 20.1662 77.0904 19.5519C74.9753 18.4653 73.8721 16.4812 73.9643 13.8837C74.0566 11.4273 74.7917 9.20708 75.7575 7.03388C75.8949 6.7507 75.9872 6.70366 76.2169 6.93979C77.2287 8.30957 78.4694 9.34913 79.8032 10.2466C81.7338 11.5223 82.6073 13.3644 82.6534 15.7737C82.7457 16.8123 82.6534 17.8049 82.3315 18.8435L82.3324 18.8444Z" fill="#D7D6D5"></path><path d="M111.892 19.5559C109.563 19.5559 107.434 20.7689 106.198 22.6948V6.80173H105.035V33.4843H106.105V26.5911C106.105 23.3332 108.681 20.6831 111.845 20.6831C115.01 20.6831 117.585 23.3332 117.585 26.5911V33.4843H118.749V26.5911C118.749 22.7124 115.673 19.5568 111.892 19.5568V19.5559Z" fill="#D7D6D5"></path><path d="M99.0958 20.4059C97.7971 19.7353 96.0565 19.3664 94.1951 19.3664C92.3336 19.3664 90.5921 19.7353 89.2934 20.4059C87.9134 21.118 87.1543 22.1068 87.1543 23.1888C87.1543 24.2708 87.9144 25.2596 89.2934 25.9717C90.5921 26.6423 92.3327 27.0113 94.1951 27.0113C97.3266 27.0113 100.074 28.2492 100.074 29.6605C100.074 31.0717 97.3266 32.3096 94.1951 32.3096C91.0635 32.3096 88.3165 31.0717 88.3165 29.6605V29.286H87.1543V29.6605C87.1543 30.7434 87.9144 31.7313 89.2934 32.4434C90.5921 33.114 92.3327 33.4829 94.1951 33.4829C96.0574 33.4829 97.7971 33.114 99.0958 32.4434C100.475 31.7313 101.235 30.7424 101.235 29.6605C101.235 28.5785 100.475 27.5896 99.0958 26.8775C97.7971 26.207 96.0565 25.838 94.1951 25.838C91.0635 25.838 88.3165 24.6001 88.3165 23.1888C88.3165 21.7775 91.0635 20.5397 94.1951 20.5397C97.3266 20.5397 100.074 21.7775 100.074 23.1888V23.5633H101.236V23.1888C101.236 22.1059 100.476 21.118 99.0967 20.4059H99.0958Z" fill="#D7D6D5"></path><path d="M69.9649 19.6029C67.6377 19.6029 65.4866 20.8315 64.2247 22.7787V19.792H63.0625V33.4833H64.2247V26.6381C64.2247 23.3801 66.8001 20.7291 69.9649 20.7291C73.1297 20.7291 75.705 23.3801 75.705 26.6381V27.0126H76.8212V26.6381C76.8212 22.7594 73.7458 19.6029 69.9649 19.6029Z" fill="#D7D6D5"></path><path d="M58.1894 26.4016C58.1894 29.6595 55.6141 32.3106 52.4493 32.3106C49.2845 32.3106 46.7091 29.6595 46.7091 26.4016V19.5564H45.5469V26.4016C45.5469 28.3387 46.2931 30.142 47.6472 31.4795C48.9284 32.7441 50.6164 33.4368 52.4059 33.4368C52.4354 33.4368 52.4659 33.4368 52.4954 33.4368C56.2763 33.4368 59.3517 30.2813 59.3517 26.4016V19.5564H58.1894V26.4016Z" fill="#D7D6D5"></path><path d="M34.9324 19.4621C31.1515 19.4621 28.0762 22.6176 28.0762 26.4973C28.0762 28.415 28.8464 30.2746 30.1885 31.5991C31.454 32.8481 33.1061 33.5325 34.8439 33.5325C34.8734 33.5325 34.9029 33.5325 34.9324 33.5325C38.7134 33.5325 41.7887 30.3769 41.7887 26.4982C41.7887 22.6195 38.7125 19.463 34.9324 19.463V19.4621ZM34.9324 20.5883C38.0972 20.5883 40.6726 23.2384 40.6726 26.4964C40.6726 29.7543 38.0972 32.4053 34.9324 32.4053C31.7677 32.4053 29.1923 29.7543 29.1923 26.4964C29.1923 23.2384 31.7695 20.6326 34.9324 20.5883Z" fill="#D7D6D5"></path><path d="M24.1817 6.80173H23.0186V33.4843H24.1817V6.80173Z" fill="#D7D6D5"></path><path d="M14.1063 6.61237C10.3253 6.61237 7.25 9.76793 7.25 13.6476V33.484H8.41224V20.7298H20.6877V19.5565H8.32V13.6476C8.32 10.3896 10.8954 7.73955 14.0602 7.73955C17.2249 7.73955 19.8012 10.3896 19.8012 13.6476V14.0221H20.9635V13.6476C20.9635 9.76885 17.8872 6.61237 14.1063 6.61237Z" fill="#D7D6D5"></path></svg>