<?xml version="1.0" encoding="UTF-8"?>  <svg xmlns="http://www.w3.org/2000/svg" xmlns:xlink="http://www.w3.org/1999/xlink" version="1.1" id="Layer_1" x="0px" y="0px" width="701px" height="351px" viewBox="0 0 701 351" xml:space="preserve"> <g> <g> <defs> <rect id="SVGID_1_" y="0" width="701" height="350.674"></rect> </defs> <clipPath id="SVGID_2_"> <use xlink:href="#SVGID_1_" overflow="visible"></use> </clipPath> </g> <g> <defs> <rect id="SVGID_4_" y="0" width="701" height="350.674"></rect> </defs> <clipPath id="SVGID_6_"> <use xlink:href="#SVGID_4_" overflow="visible"></use> </clipPath> </g> <g> <defs> <rect id="SVGID_8_" y="0" width="701" height="350.674"></rect> </defs> <clipPath id="SVGID_10_"> <use xlink:href="#SVGID_8_" overflow="visible"></use> </clipPath> <ellipse clip-path="url(#SVGID_10_)" fill="#3572B6" cx="349.146" cy="319.588" rx="157.293" ry="7.765"></ellipse> </g> <g> <defs> <rect id="SVGID_12_" y="0" width="701" height="350.674"></rect> </defs> <clipPath id="SVGID_14_"> <use xlink:href="#SVGID_12_" overflow="visible"></use> </clipPath> <path clip-path="url(#SVGID_14_)" fill="#26282F" d="M482.955,282.865c0,8.071-6.549,14.613-14.627,14.613H232.672 c-8.078,0-14.627-6.543-14.627-14.613V136.207c0-8.071,6.549-14.613,14.627-14.613h235.656c8.078,0,14.627,6.543,14.627,14.613 L482.955,282.865L482.955,282.865z"></path> </g> <g> <defs> <rect id="SVGID_15_" y="0" width="701" height="350.674"></rect> </defs> <clipPath id="SVGID_16_"> <use xlink:href="#SVGID_15_" overflow="visible"></use> </clipPath> <rect x="229.963" y="131.912" clip-path="url(#SVGID_16_)" fill="#FDE7DF" width="241.074" height="155.247"></rect> </g> <g> <defs> <rect id="SVGID_17_" y="0" width="701" height="350.674"></rect> </defs> <clipPath id="SVGID_18_"> <use xlink:href="#SVGID_17_" overflow="visible"></use> </clipPath> <g clip-path="url(#SVGID_18_)"> <g> <g> <g> <path id="SVGID_3_" fill="#3572B6" d="M664.476,248.914c-8.474-29.362-39.168-46.302-68.558-37.836 c-29.39,8.466-46.345,39.132-37.871,68.494c8.474,29.362,39.168,46.302,68.558,37.836S672.95,278.276,664.476,248.914z"></path> </g> <g> <defs> <path id="SVGID_19_" d="M664.476,248.914c-8.474-29.362-39.168-46.302-68.558-37.836 c-29.39,8.466-46.345,39.132-37.871,68.494c8.474,29.362,39.168,46.302,68.558,37.836S672.95,278.276,664.476,248.914z"></path> </defs> <defs> <path id="SVGID_20_" d="M664.476,248.914c-8.474-29.362-39.168-46.302-68.558-37.836 c-29.39,8.466-46.345,39.132-37.871,68.494c8.474,29.362,39.168,46.302,68.558,37.836S672.95,278.276,664.476,248.914z"></path> </defs> <clipPath id="SVGID_21_"> <use xlink:href="#SVGID_19_" overflow="visible"></use> </clipPath> <clipPath id="SVGID_22_" clip-path="url(#SVGID_21_)"> <use xlink:href="#SVGID_20_" overflow="visible"></use> </clipPath> <path clip-path="url(#SVGID_22_)" fill="#80B3E0" d="M664.948,248.838c-8.474-29.362-39.168-46.302-68.558-37.836 s-46.345,39.132-37.871,68.494s39.168,46.302,68.558,37.836C656.467,308.866,673.422,278.2,664.948,248.838z"></path> <path clip-path="url(#SVGID_22_)" fill="none" d="M664.485,248.971c-8.474-29.362-39.168-46.302-68.558-37.836 s-46.345,39.132-37.871,68.494s39.168,46.302,68.558,37.836S672.959,278.333,664.485,248.971z"></path> </g> </g> <rect x="574.013" y="238.759" fill="#FDE7DF" width="71.901" height="47.767"></rect> <rect x="574.013" y="282.014" fill="#26282F" width="71.901" height="7.165"></rect> <polyline fill="#26282F" points="602.035,246.853 602.035,271.267 623.55,259.06 "></polyline> <line fill="none" stroke="#FDE7DF" stroke-width="2.124" stroke-miterlimit="10" x1="576.934" y1="285.597" x2="642.542" y2="285.597"></line> <circle fill="#D95F55" cx="585.877" cy="285.597" r="2.523"></circle> </g> <g> <defs> <rect id="SVGID_23_" y="0" width="701" height="350.674"></rect> </defs> <clipPath id="SVGID_24_"> <use xlink:href="#SVGID_23_" overflow="visible"></use> </clipPath> <g clip-path="url(#SVGID_24_)"> <g> <g> <g> <path id="SVGID_5_" fill="#3572B6" d="M621.368,81.136C612.894,51.774,582.2,34.834,552.81,43.3 s-46.345,39.132-37.871,68.494c8.474,29.362,39.168,46.302,68.558,37.836C612.887,141.164,629.842,110.498,621.368,81.136z"></path> </g> <g> <defs> <path id="SVGID_25_" d="M621.368,81.136C612.894,51.774,582.2,34.834,552.81,43.3s-46.345,39.132-37.871,68.494 c8.474,29.362,39.168,46.302,68.558,37.836C612.887,141.164,629.842,110.498,621.368,81.136z"></path> </defs> <defs> <path id="SVGID_26_" d="M621.368,81.136C612.894,51.774,582.2,34.834,552.81,43.3s-46.345,39.132-37.871,68.494 c8.474,29.362,39.168,46.302,68.558,37.836C612.887,141.164,629.842,110.498,621.368,81.136z"></path> </defs> <clipPath id="SVGID_27_"> <use xlink:href="#SVGID_25_" overflow="visible"></use> </clipPath> <clipPath id="SVGID_28_" clip-path="url(#SVGID_27_)"> <use xlink:href="#SVGID_26_" overflow="visible"></use> </clipPath> <path clip-path="url(#SVGID_28_)" fill="#80B3E0" d="M621.841,81.06c-8.474-29.362-39.168-46.302-68.558-37.836 s-46.345,39.132-37.871,68.494c8.474,29.362,39.168,46.302,68.558,37.836C613.359,141.088,630.315,110.422,621.841,81.06z"></path> <path clip-path="url(#SVGID_28_)" fill="none" d="M621.377,81.193c-8.474-29.362-39.168-46.302-68.558-37.836 c-29.39,8.466-46.345,39.132-37.871,68.494c8.474,29.362,39.168,46.302,68.558,37.836 C612.896,141.222,629.851,110.556,621.377,81.193z"></path> </g> </g> <g> <g> <path fill="#D95F55" d="M552.201,78.944L552.201,78.944c0.469-4.073,1.953-8.021,4.293-11.418 c3.829-5.559,9.596-9.296,16.239-10.522c6.642-1.226,13.365,0.206,18.93,4.032c7.727,5.313,11.862,14.4,10.789,23.717 c-0.469,4.073-1.953,8.021-4.293,11.418c-3.829,5.559-9.596,9.297-16.238,10.522c-6.642,1.226-13.365-0.206-18.93-4.031 C555.263,97.349,551.128,88.26,552.201,78.944z M595.752,83.984c0.787-6.835-2.246-13.501-7.913-17.398 c-4.081-2.806-9.011-3.855-13.882-2.957c-4.871,0.899-9.1,3.639-11.908,7.716c-1.717,2.492-2.806,5.386-3.149,8.368 c-0.787,6.835,2.246,13.502,7.913,17.398c4.081,2.805,9.011,3.855,13.882,2.956c4.871-0.899,9.1-3.639,11.908-7.716 C594.32,89.859,595.409,86.966,595.752,83.984z"></path> </g> <path fill="#D95F55" d="M547.191,134.761c-1.313,1.907-4.295,2.134-6.66,0.508l0,0c-2.365-1.626-3.218-4.49-1.904-6.396 l22.921-29.613c1.313-1.907,3.528-2.661,4.947-1.686l0,0c1.419,0.976,1.505,3.312,0.191,5.219L547.191,134.761z"></path> <path fill="#FDE7DF" d="M565.471,73.699c4.639-6.735,13.666-8.65,20.608-4.559c-0.284-0.226-0.574-0.446-0.877-0.655 c-7.045-4.843-16.686-3.064-21.533,3.974c-4.848,7.038-3.067,16.67,3.978,21.513c0.303,0.209,0.613,0.4,0.925,0.584 C562.267,89.541,560.832,80.434,565.471,73.699z"></path> </g> </g> <g> <defs> <rect id="SVGID_29_" y="0" width="701" height="350.674"></rect> </defs> <clipPath id="SVGID_30_"> <use xlink:href="#SVGID_29_" overflow="visible"></use> </clipPath> <g clip-path="url(#SVGID_30_)"> <g> <g> <path id="SVGID_7_" fill="#3572B6" d="M196.363,59.739c-8.474-29.362-39.168-46.302-68.558-37.836 S81.46,61.035,89.934,90.397s39.168,46.302,68.558,37.836C187.881,119.767,204.837,89.101,196.363,59.739z"></path> </g> <g> <defs> <path id="SVGID_31_" d="M196.363,59.739c-8.474-29.362-39.168-46.302-68.558-37.836S81.46,61.035,89.934,90.397 s39.168,46.302,68.558,37.836C187.881,119.767,204.837,89.101,196.363,59.739z"></path> </defs> <defs> <path id="SVGID_32_" d="M196.363,59.739c-8.474-29.362-39.168-46.302-68.558-37.836S81.46,61.035,89.934,90.397 s39.168,46.302,68.558,37.836C187.881,119.767,204.837,89.101,196.363,59.739z"></path> </defs> <clipPath id="SVGID_33_"> <use xlink:href="#SVGID_31_" overflow="visible"></use> </clipPath> <clipPath id="SVGID_34_" clip-path="url(#SVGID_33_)"> <use xlink:href="#SVGID_32_" overflow="visible"></use> </clipPath> <path clip-path="url(#SVGID_34_)" fill="#80B3E0" d="M196.836,59.662c-8.474-29.362-39.168-46.302-68.558-37.836 S81.933,60.958,90.406,90.321s39.168,46.302,68.558,37.836C188.354,119.691,205.309,89.025,196.836,59.662z"></path> <path clip-path="url(#SVGID_34_)" fill="none" d="M196.372,59.796c-8.474-29.362-39.168-46.302-68.558-37.836 S81.469,61.092,89.943,90.454s39.168,46.302,68.558,37.836C187.891,119.824,204.846,89.158,196.372,59.796z"></path> </g> </g> <g> <defs> <rect id="SVGID_35_" y="0" width="701" height="350.674"></rect> </defs> <clipPath id="SVGID_36_"> <use xlink:href="#SVGID_35_" overflow="visible"></use> </clipPath> <g clip-path="url(#SVGID_36_)"> <g> <path fill="none" stroke="#26282F" stroke-width="6.0668" stroke-linecap="round" stroke-miterlimit="10" d=" M137.493,83.007c1.765,5.222-1.041,10.885-6.268,12.649l-12.22,4.123c-5.227,1.763-10.895-1.04-12.661-6.263l0,0 c-1.765-5.222,1.041-10.885,6.268-12.649l12.22-4.123C130.059,74.981,135.728,77.785,137.493,83.007L137.493,83.007z"></path> <path fill="none" stroke="#26282F" stroke-width="6.0668" stroke-linecap="round" stroke-miterlimit="10" d=" M186.126,66.6c1.765,5.222-1.041,10.885-6.268,12.649l-12.22,4.123c-5.227,1.763-10.895-1.04-12.661-6.263l0,0 c-1.765-5.222,1.041-10.885,6.268-12.649l12.22-4.123C178.692,58.574,184.361,61.377,186.126,66.6L186.126,66.6z"></path> </g> <line fill="none" stroke="#26282F" stroke-width="6.0668" stroke-linecap="round" stroke-miterlimit="10" x1="130.421" y1="85.393" x2="162.049" y2="74.723"></line> </g> </g> <g> <defs> <rect id="SVGID_37_" y="0" width="701" height="350.674"></rect> </defs> <clipPath id="SVGID_38_"> <use xlink:href="#SVGID_37_" overflow="visible"></use> </clipPath> <g clip-path="url(#SVGID_38_)"> <g> <g> <g> <path id="SVGID_9_" fill="#3572B6" d="M143.28,221.975c-8.474-29.362-39.168-46.302-68.558-37.836 s-46.345,39.132-37.871,68.494s39.168,46.302,68.558,37.836C134.798,282.003,151.754,251.337,143.28,221.975z"></path> </g> <g> <defs> <path id="SVGID_39_" d="M143.28,221.975c-8.474-29.362-39.168-46.302-68.558-37.836s-46.345,39.132-37.871,68.494 s39.168,46.302,68.558,37.836C134.798,282.003,151.754,251.337,143.28,221.975z"></path> </defs> <defs> <path id="SVGID_40_" d="M143.28,221.975c-8.474-29.362-39.168-46.302-68.558-37.836s-46.345,39.132-37.871,68.494 s39.168,46.302,68.558,37.836C134.798,282.003,151.754,251.337,143.28,221.975z"></path> </defs> <clipPath id="SVGID_41_"> <use xlink:href="#SVGID_39_" overflow="visible"></use> </clipPath> <clipPath id="SVGID_42_" clip-path="url(#SVGID_41_)"> <use xlink:href="#SVGID_40_" overflow="visible"></use> </clipPath> <path clip-path="url(#SVGID_42_)" fill="#80B3E0" d="M143.753,221.899c-8.474-29.362-39.168-46.302-68.558-37.836 s-46.345,39.132-37.871,68.494s39.168,46.302,68.558,37.836C135.271,281.927,152.227,251.261,143.753,221.899z"></path> <path clip-path="url(#SVGID_42_)" fill="none" d="M143.289,222.032c-8.474-29.362-39.168-46.302-68.558-37.836 S28.386,223.328,36.86,252.69s39.168,46.302,68.558,37.836S151.763,251.394,143.289,222.032z"></path> </g> </g> <g> <g> <g> <path id="SVGID_11_" fill="#3572B6" d="M91.251,242.579c-3.528-12.224-16.306-19.276-28.541-15.751 c-12.235,3.524-19.293,16.291-15.766,28.514c3.528,12.224,16.306,19.276,28.541,15.751S94.779,254.803,91.251,242.579z "></path> </g> <g> <defs> <path id="SVGID_43_" d="M91.251,242.579c-3.528-12.224-16.306-19.276-28.541-15.751 c-12.235,3.524-19.293,16.291-15.766,28.514c3.528,12.224,16.306,19.276,28.541,15.751S94.779,254.803,91.251,242.579 z"></path> </defs> <defs> <path id="SVGID_44_" d="M91.251,242.579c-3.528-12.224-16.306-19.276-28.541-15.751 c-12.235,3.524-19.293,16.291-15.766,28.514c3.528,12.224,16.306,19.276,28.541,15.751S94.779,254.803,91.251,242.579 z"></path> </defs> <defs> <path id="SVGID_45_" d="M91.251,242.579c-3.528-12.224-16.306-19.276-28.541-15.751 c-12.235,3.524-19.293,16.291-15.766,28.514c3.528,12.224,16.306,19.276,28.541,15.751S94.779,254.803,91.251,242.579 z"></path> </defs> <defs> <path id="SVGID_46_" d="M91.251,242.579c-3.528-12.224-16.306-19.276-28.541-15.751 c-12.235,3.524-19.293,16.291-15.766,28.514c3.528,12.224,16.306,19.276,28.541,15.751S94.779,254.803,91.251,242.579 z"></path> </defs> <defs> <path id="SVGID_47_" d="M91.251,242.579c-3.528-12.224-16.306-19.276-28.541-15.751 c-12.235,3.524-19.293,16.291-15.766,28.514c3.528,12.224,16.306,19.276,28.541,15.751S94.779,254.803,91.251,242.579 z"></path> </defs> <defs> <path id="SVGID_48_" d="M91.251,242.579c-3.528-12.224-16.306-19.276-28.541-15.751 c-12.235,3.524-19.293,16.291-15.766,28.514c3.528,12.224,16.306,19.276,28.541,15.751S94.779,254.803,91.251,242.579 z"></path> </defs> <defs> <path id="SVGID_49_" d="M91.251,242.579c-3.528-12.224-16.306-19.276-28.541-15.751 c-12.235,3.524-19.293,16.291-15.766,28.514c3.528,12.224,16.306,19.276,28.541,15.751S94.779,254.803,91.251,242.579 z"></path> </defs> <defs> <path id="SVGID_50_" d="M91.251,242.579c-3.528-12.224-16.306-19.276-28.541-15.751 c-12.235,3.524-19.293,16.291-15.766,28.514c3.528,12.224,16.306,19.276,28.541,15.751S94.779,254.803,91.251,242.579 z"></path> </defs> <clipPath id="SVGID_51_"> <use xlink:href="#SVGID_43_" overflow="visible"></use> </clipPath> <clipPath id="SVGID_52_" clip-path="url(#SVGID_51_)"> <use xlink:href="#SVGID_44_" overflow="visible"></use> </clipPath> <clipPath id="SVGID_53_" clip-path="url(#SVGID_52_)"> <use xlink:href="#SVGID_45_" overflow="visible"></use> </clipPath> <clipPath id="SVGID_54_" clip-path="url(#SVGID_53_)"> <use xlink:href="#SVGID_46_" overflow="visible"></use> </clipPath> <clipPath id="SVGID_55_" clip-path="url(#SVGID_54_)"> <use xlink:href="#SVGID_47_" overflow="visible"></use> </clipPath> <clipPath id="SVGID_56_" clip-path="url(#SVGID_55_)"> <use xlink:href="#SVGID_48_" overflow="visible"></use> </clipPath> <clipPath id="SVGID_57_" clip-path="url(#SVGID_56_)"> <use xlink:href="#SVGID_49_" overflow="visible"></use> </clipPath> <clipPath id="SVGID_58_" clip-path="url(#SVGID_57_)"> <use xlink:href="#SVGID_50_" overflow="visible"></use> </clipPath> <path clip-path="url(#SVGID_58_)" fill="#3572B6" d="M91.448,242.548c-3.528-12.224-16.306-19.276-28.541-15.751 s-19.293,16.291-15.766,28.514c3.528,12.224,16.306,19.276,28.541,15.751S94.976,254.771,91.448,242.548z"></path> <path clip-path="url(#SVGID_58_)" fill="#26282F" d="M81.915,244.193c1.521,9.423-1.379,11.533-9.259,12.803 c-7.88,1.27-17.756,1.218-19.278-8.205s3.634-18.091,11.514-19.361C72.772,228.161,80.394,234.77,81.915,244.193z"></path> <path clip-path="url(#SVGID_58_)" fill="#F0B783" d="M76.069,260.54c0.443,1.535-0.812,1.861-2.349,2.304l0,0 c-1.537,0.443-2.773,0.834-3.216-0.701l-3.226-11.179c-0.443-1.535,0.443-3.139,1.98-3.581l0,0 c1.537-0.443,3.142,0.443,3.585,1.978L76.069,260.54z"></path> <path clip-path="url(#SVGID_58_)" fill="#F0B783" d="M77.095,243.392c-0.325-0.644-0.653-1.286-0.946-1.947 c-0.766-1.727-1.412-3.508-2.015-5.301c-0.824-2.445-3.214-5.724-9.631-3.875c-6.417,1.848-6.753,5.914-6.088,8.404 c0.485,1.815,0.791,3.679,1.065,5.532c0.13,0.881,0.278,1.743,0.32,2.629c0.091,1.895,0.575,3.873,1.658,5.468 c1.171,1.724,2.976,2.8,4.853,3.253c1.813,0.438,3.694,0.35,5.443-0.154c3.604-1.038,7.216-4.171,7.059-8.607 c-0.05-1.415-0.478-2.804-1.074-4.085C77.535,244.265,77.315,243.828,77.095,243.392z"></path> <path clip-path="url(#SVGID_58_)" fill="#D95F55" d="M86.858,269.052l-1.786-6.188 c-0.956-3.313-4.302-5.257-7.473-4.344l-9.467,2.727c-3.171,0.914-4.967,4.34-4.011,7.652l1.786,6.188L86.858,269.052z "></path> <g clip-path="url(#SVGID_58_)"> <path fill="#FFFFFF" d="M65.797,253.024c0,0,0.565-0.08,1.413-0.201c0.202-0.031,0.42-0.065,0.651-0.101 c0.229-0.027,0.465-0.097,0.71-0.122c0.484-0.106,0.995-0.205,1.49-0.352c0.501-0.127,0.987-0.294,1.446-0.463 c0.453-0.178,0.888-0.35,1.253-0.531c0.377-0.166,0.688-0.328,0.916-0.442c0.231-0.109,0.376-0.167,0.376-0.167 s-0.058,0.136-0.184,0.365c-0.124,0.23-0.316,0.558-0.629,0.88c-0.147,0.172-0.314,0.355-0.523,0.506 c-0.203,0.16-0.408,0.352-0.661,0.48c-0.247,0.137-0.493,0.31-0.776,0.409c-0.274,0.123-0.56,0.225-0.854,0.3 c-1.175,0.332-2.407,0.261-3.265,0.028C66.292,253.4,65.797,253.024,65.797,253.024z"></path> </g> <path clip-path="url(#SVGID_58_)" fill="none" d="M91.255,242.603c-3.528-12.224-16.306-19.276-28.541-15.751 c-12.235,3.524-19.293,16.291-15.766,28.514c3.528,12.224,16.306,19.276,28.541,15.751S94.783,254.827,91.255,242.603z "></path> <path clip-path="url(#SVGID_58_)" fill="#26282F" d="M69.189,230.098c0,0-17.423,0.517-11.996,22.11 c0,0,12.721-4.782,18.78-16.419"></path> </g> </g> <g> <g> <path id="SVGID_13_" fill="#3572B6" d="M132.944,260.816c3.971-12.151-2.67-25.217-14.831-29.184 c-12.162-3.967-25.24,2.667-29.211,14.818s2.67,25.217,14.831,29.184S128.973,272.967,132.944,260.816z"></path> </g> <g> <defs> <path id="SVGID_59_" d="M132.944,260.816c3.971-12.151-2.67-25.217-14.831-29.184 c-12.162-3.967-25.24,2.667-29.211,14.818s2.67,25.217,14.831,29.184S128.973,272.967,132.944,260.816z"></path> </defs> <defs> <path id="SVGID_60_" d="M132.944,260.816c3.971-12.151-2.67-25.217-14.831-29.184 c-12.162-3.967-25.24,2.667-29.211,14.818s2.67,25.217,14.831,29.184S128.973,272.967,132.944,260.816z"></path> </defs> <defs> <path id="SVGID_61_" d="M132.944,260.816c3.971-12.151-2.67-25.217-14.831-29.184 c-12.162-3.967-25.24,2.667-29.211,14.818s2.67,25.217,14.831,29.184S128.973,272.967,132.944,260.816z"></path> </defs> <defs> <path id="SVGID_62_" d="M132.944,260.816c3.971-12.151-2.67-25.217-14.831-29.184 c-12.162-3.967-25.24,2.667-29.211,14.818s2.67,25.217,14.831,29.184S128.973,272.967,132.944,260.816z"></path> </defs> <defs> <path id="SVGID_63_" d="M132.944,260.816c3.971-12.151-2.67-25.217-14.831-29.184 c-12.162-3.967-25.24,2.667-29.211,14.818s2.67,25.217,14.831,29.184S128.973,272.967,132.944,260.816z"></path> </defs> <defs> <path id="SVGID_64_" d="M132.944,260.816c3.971-12.151-2.67-25.217-14.831-29.184 c-12.162-3.967-25.24,2.667-29.211,14.818s2.67,25.217,14.831,29.184S128.973,272.967,132.944,260.816z"></path> </defs> <defs> <path id="SVGID_65_" d="M132.944,260.816c3.971-12.151-2.67-25.217-14.831-29.184 c-12.162-3.967-25.24,2.667-29.211,14.818s2.67,25.217,14.831,29.184S128.973,272.967,132.944,260.816z"></path> </defs> <defs> <path id="SVGID_66_" d="M132.944,260.816c3.971-12.151-2.67-25.217-14.831-29.184 c-12.162-3.967-25.24,2.667-29.211,14.818s2.67,25.217,14.831,29.184S128.973,272.967,132.944,260.816z"></path> </defs> <clipPath id="SVGID_67_"> <use xlink:href="#SVGID_59_" overflow="visible"></use> </clipPath> <clipPath id="SVGID_68_" clip-path="url(#SVGID_67_)"> <use xlink:href="#SVGID_60_" overflow="visible"></use> </clipPath> <clipPath id="SVGID_69_" clip-path="url(#SVGID_68_)"> <use xlink:href="#SVGID_61_" overflow="visible"></use> </clipPath> <clipPath id="SVGID_70_" clip-path="url(#SVGID_69_)"> <use xlink:href="#SVGID_62_" overflow="visible"></use> </clipPath> <clipPath id="SVGID_71_" clip-path="url(#SVGID_70_)"> <use xlink:href="#SVGID_63_" overflow="visible"></use> </clipPath> <clipPath id="SVGID_72_" clip-path="url(#SVGID_71_)"> <use xlink:href="#SVGID_64_" overflow="visible"></use> </clipPath> <clipPath id="SVGID_73_" clip-path="url(#SVGID_72_)"> <use xlink:href="#SVGID_65_" overflow="visible"></use> </clipPath> <clipPath id="SVGID_74_" clip-path="url(#SVGID_73_)"> <use xlink:href="#SVGID_66_" overflow="visible"></use> </clipPath> <path clip-path="url(#SVGID_74_)" fill="#26282F" d="M133.126,260.901c3.971-12.151-2.67-25.217-14.831-29.184 s-25.24,2.667-29.211,14.818s2.67,25.217,14.831,29.184C116.077,279.686,129.155,273.052,133.126,260.901z"></path> <path clip-path="url(#SVGID_74_)" fill="#D95F55" d="M124.271,256.895c-4.057,8.691-11.852,17.791-19.12,14.404 c-7.268-3.387-11.258-17.977-7.201-26.668s13.238-12.992,20.507-9.605 C125.725,238.412,128.328,248.203,124.271,256.895z"></path> <path clip-path="url(#SVGID_74_)" fill="#F0B783" d="M110.179,267.19c-0.499,1.526-1.726,1.09-3.254,0.591l0,0 c-1.528-0.498-2.776-0.87-2.278-2.396l3.632-11.113c0.499-1.526,2.141-2.359,3.669-1.861l0,0 c1.528,0.498,2.361,2.139,1.863,3.665L110.179,267.19z"></path> <path clip-path="url(#SVGID_74_)" fill="#F0B783" d="M120.717,253.512c0.093-0.719,0.184-1.437,0.313-2.152 c0.338-1.868,0.808-3.712,1.318-5.543c0.696-2.497,0.56-6.571-5.818-8.651c-6.379-2.081-8.954,1.11-9.807,3.555 c-0.621,1.782-1.42,3.505-2.238,5.199c-0.389,0.806-0.754,1.606-1.219,2.367c-0.994,1.627-1.709,3.544-1.71,5.481 c0,2.093,0.893,4.005,2.198,5.441c1.26,1.386,2.874,2.373,4.612,2.94c3.583,1.169,8.354,0.6,10.73-3.176 c0.758-1.205,1.186-2.601,1.414-4.001C120.589,254.486,120.653,253.999,120.717,253.512z"></path> <path clip-path="url(#SVGID_74_)" fill="#FDE7DF" d="M114.341,280.348l2.01-6.151c1.076-3.293-0.607-6.796-3.759-7.824 l-9.41-3.07c-3.152-1.028-6.58,0.808-7.656,4.1l-2.01,6.151L114.341,280.348z"></path> <g clip-path="url(#SVGID_74_)"> <path fill="#FFFFFF" d="M105.884,255.151c0,0,0.515,0.252,1.288,0.63c0.185,0.088,0.386,0.183,0.599,0.283 c0.206,0.107,0.442,0.182,0.659,0.299c0.463,0.185,0.943,0.39,1.437,0.547c0.488,0.177,0.987,0.312,1.463,0.43 c0.477,0.107,0.936,0.21,1.342,0.265c0.407,0.075,0.757,0.115,1.01,0.149c0.253,0.039,0.406,0.073,0.406,0.073 s-0.125,0.08-0.359,0.2c-0.233,0.121-0.577,0.286-1.019,0.377c-0.219,0.06-0.461,0.118-0.72,0.126 c-0.258,0.019-0.538,0.063-0.82,0.027c-0.283-0.025-0.585-0.02-0.876-0.097c-0.297-0.052-0.593-0.129-0.879-0.232 c-1.164-0.386-2.149-1.14-2.731-1.818C106.083,255.742,105.884,255.151,105.884,255.151z"></path> </g> <path clip-path="url(#SVGID_74_)" fill="none" d="M132.934,260.838c3.971-12.151-2.67-25.217-14.831-29.184 c-12.162-3.967-25.24,2.667-29.211,14.818s2.67,25.217,14.831,29.184C115.885,279.623,128.963,272.989,132.934,260.838 z"></path> <path clip-path="url(#SVGID_74_)" fill="#D95F55" d="M121.652,238.003c0,0-14.776-9.392-22.46,11.619 c0,0,13.277,3.196,24.885-3.064"></path> </g> <g> <g> <defs> <ellipse id="SVGID_75_" transform="matrix(-0.0973 -0.9953 0.9953 -0.0973 -114.0522 331.0639)" cx="93.114" cy="217.256" rx="23.981" ry="24.003"></ellipse> </defs> <defs> <ellipse id="SVGID_76_" transform="matrix(-0.0487 -0.9988 0.9988 -0.0487 -119.3513 320.83)" cx="93.108" cy="217.252" rx="23.982" ry="24.004"></ellipse> </defs> <defs> <ellipse id="SVGID_77_" transform="matrix(-0.0487 -0.9988 0.9988 -0.0487 -119.3513 320.83)" cx="93.108" cy="217.252" rx="23.982" ry="24.004"></ellipse> </defs> <defs> <ellipse id="SVGID_78_" transform="matrix(-0.0487 -0.9988 0.9988 -0.0487 -119.3513 320.83)" cx="93.108" cy="217.252" rx="23.982" ry="24.004"></ellipse> </defs> <defs> <ellipse id="SVGID_79_" transform="matrix(-0.0487 -0.9988 0.9988 -0.0487 -119.3513 320.83)" cx="93.108" cy="217.252" rx="23.982" ry="24.004"></ellipse> </defs> <defs> <ellipse id="SVGID_80_" transform="matrix(-0.0487 -0.9988 0.9988 -0.0487 -119.3513 320.83)" cx="93.108" cy="217.252" rx="23.982" ry="24.004"></ellipse> </defs> <defs> <ellipse id="SVGID_81_" transform="matrix(-0.0487 -0.9988 0.9988 -0.0487 -119.3513 320.83)" cx="93.108" cy="217.252" rx="23.982" ry="24.004"></ellipse> </defs> <defs> <ellipse id="SVGID_82_" transform="matrix(-0.0487 -0.9988 0.9988 -0.0487 -119.3513 320.83)" cx="93.108" cy="217.252" rx="23.982" ry="24.004"></ellipse> </defs> <defs> <ellipse id="SVGID_83_" transform="matrix(-0.0973 -0.9953 0.9953 -0.0973 -114.8755 330.4578)" cx="92.428" cy="217.326" rx="23.981" ry="24.003"></ellipse> </defs> <defs> <ellipse id="SVGID_84_" transform="matrix(-0.0487 -0.9988 0.9988 -0.0487 -119.3513 320.83)" cx="93.108" cy="217.252" rx="23.982" ry="24.004"></ellipse> </defs> <clipPath id="SVGID_85_"> <use xlink:href="#SVGID_75_" overflow="visible"></use> </clipPath> <clipPath id="SVGID_86_" clip-path="url(#SVGID_85_)"> <use xlink:href="#SVGID_76_" overflow="visible"></use> </clipPath> <clipPath id="SVGID_87_" clip-path="url(#SVGID_86_)"> <use xlink:href="#SVGID_77_" overflow="visible"></use> </clipPath> <clipPath id="SVGID_88_" clip-path="url(#SVGID_87_)"> <use xlink:href="#SVGID_78_" overflow="visible"></use> </clipPath> <clipPath id="SVGID_89_" clip-path="url(#SVGID_88_)"> <use xlink:href="#SVGID_79_" overflow="visible"></use> </clipPath> <clipPath id="SVGID_90_" clip-path="url(#SVGID_89_)"> <use xlink:href="#SVGID_80_" overflow="visible"></use> </clipPath> <clipPath id="SVGID_91_" clip-path="url(#SVGID_90_)"> <use xlink:href="#SVGID_81_" overflow="visible"></use> </clipPath> <clipPath id="SVGID_92_" clip-path="url(#SVGID_91_)"> <use xlink:href="#SVGID_82_" overflow="visible"></use> </clipPath> <clipPath id="SVGID_93_" clip-path="url(#SVGID_92_)"> <use xlink:href="#SVGID_83_" overflow="visible"></use> </clipPath> <clipPath id="SVGID_94_" clip-path="url(#SVGID_93_)"> <use xlink:href="#SVGID_84_" overflow="visible"></use> </clipPath> <ellipse transform="matrix(-0.0487 -0.9988 0.9988 -0.0487 -119.122 321.0283)" clip-path="url(#SVGID_94_)" fill="#E16C33" cx="93.317" cy="217.242" rx="23.982" ry="24.004"></ellipse> <path clip-path="url(#SVGID_94_)" fill="#F0B783" d="M97.394,230.633c0.081,1.661-1.269,1.692-2.932,1.773l0,0 c-1.663,0.081-3.01,0.182-3.091-1.479l-0.591-12.099c-0.081-1.661,1.201-3.074,2.864-3.155l0,0 c1.663-0.081,3.077,1.2,3.158,2.862L97.394,230.633z"></path> <path clip-path="url(#SVGID_94_)" fill="#18191D" d="M83.935,202.889c-0.711,0.035-1.381-0.002-2.012-0.097 c-1.085,7.15,2.611,12.574,2.611,12.574s-0.969-8.669,2.04-11.267l-1.815-1.29 C84.489,202.842,84.219,202.875,83.935,202.889z"></path> <path clip-path="url(#SVGID_94_)" fill="#F0B783" d="M102.542,213.503c-0.175-0.73-0.353-1.459-0.492-2.199 c-0.363-1.933-0.59-3.892-0.772-5.853c-0.249-2.674-1.886-6.568-8.831-6.23s-8.26,4.378-8.182,7.059 c0.057,1.955-0.08,3.917-0.246,5.86c-0.079,0.924-0.136,1.833-0.305,2.741c-0.361,1.942-0.345,4.062,0.37,5.937 c0.773,2.027,2.345,3.548,4.138,4.457c1.732,0.878,3.66,1.238,5.552,1.146c3.901-0.19,8.311-2.501,9.215-7.033 c0.289-1.446,0.187-2.956-0.109-4.396C102.778,214.493,102.661,213.998,102.542,213.503z"></path> <path clip-path="url(#SVGID_94_)" fill="#18191D" d="M98.381,198.75c0,0-1.671-1.258-4.254-2.236 c0.132,1.067-0.411,2.15-1.71,2.052c-0.344-0.026-0.684-0.037-1.024-0.046c-0.127,0.726-0.582,1.391-1.386,1.605 c-0.178,0.449-0.553,0.811-1.178,0.949c-2.45,0.539-4.888,1.091-7.236,2.012c-0.143,0.056-0.282,0.094-0.416,0.115 c3.026,3.194,8.742,6.723,17.614,2.607c0,0-0.795,2.444,3.666,7.221C102.457,213.029,107.842,199.801,98.381,198.75z"></path> <path clip-path="url(#SVGID_94_)" fill="#26282F" d="M99.465,198.938c0,0-8.748-9.016-20.121,3.81 c0,0,5.818,9.983,19.447,3.06"></path> <path clip-path="url(#SVGID_94_)" fill="#FDE7DF" d="M106.287,241.838l-0.327-6.697 c-0.175-3.585-3.099-6.356-6.531-6.189l-10.246,0.499c-3.432,0.167-6.072,3.209-5.897,6.794l0.327,6.697 L106.287,241.838z"></path> <g clip-path="url(#SVGID_94_)"> <path fill="#FFFFFF" d="M88.786,220.561c0,0,0.592,0.054,1.48,0.134c0.212,0.016,0.442,0.034,0.684,0.053 c0.238,0.028,0.495,0.013,0.749,0.046c0.516,0.008,1.057,0.03,1.594,0c0.538-0.009,1.071-0.061,1.576-0.123 c0.502-0.072,0.984-0.142,1.397-0.238c0.421-0.078,0.776-0.168,1.033-0.228c0.26-0.055,0.421-0.079,0.421-0.079 s-0.092,0.124-0.274,0.326c-0.181,0.203-0.454,0.49-0.847,0.741c-0.19,0.139-0.403,0.284-0.651,0.388 c-0.243,0.113-0.498,0.26-0.785,0.328c-0.283,0.08-0.574,0.196-0.884,0.229c-0.307,0.059-0.621,0.094-0.937,0.1 c-1.27,0.056-2.502-0.311-3.316-0.753C89.198,221.06,88.786,220.561,88.786,220.561z"></path> </g> <rect x="92.927" y="230.345" transform="matrix(-0.9988 0.0487 -0.0487 -0.9988 199.9915 457.8724)" clip-path="url(#SVGID_94_)" fill="#26282F" width="2.982" height="2.056"></rect> <polygon clip-path="url(#SVGID_94_)" fill="#26282F" points="97.332,242.274 92.567,242.506 93.012,233.272 95.99,233.127 "></polygon> </g> </g> <g> <defs> <rect id="SVGID_95_" y="0" width="701" height="350.674"></rect> </defs> <clipPath id="SVGID_96_"> <use xlink:href="#SVGID_95_" overflow="visible"></use> </clipPath> <polyline clip-path="url(#SVGID_96_)" fill="none" stroke="#FDE7DF" stroke-width="2.124" stroke-miterlimit="10" stroke-dasharray="4.2479,4.2479" points=" 315.016,115.238 315.016,55.969 215.321,55.969 "></polyline> </g> <g> <defs> <rect id="SVGID_97_" y="0" width="701" height="350.674"></rect> </defs> <clipPath id="SVGID_98_"> <use xlink:href="#SVGID_97_" overflow="visible"></use> </clipPath> <polyline clip-path="url(#SVGID_98_)" fill="none" stroke="#FDE7DF" stroke-width="2.124" stroke-miterlimit="10" stroke-dasharray="4.2479,4.2479" points=" 207.53,151.811 90.065,151.811 90.065,172.395 "></polyline> </g> <g> <defs> <rect id="SVGID_99_" y="0" width="701" height="350.674"></rect> </defs> <clipPath id="SVGID_100_"> <use xlink:href="#SVGID_99_" overflow="visible"></use> </clipPath> <polyline clip-path="url(#SVGID_100_)" fill="none" stroke="#FDE7DF" stroke-width="2.124" stroke-miterlimit="10" stroke-dasharray="4.2479,4.2479" points=" 385.984,112.244 385.984,81.553 500.772,81.553 "></polyline> </g> <g> <defs> <rect id="SVGID_101_" y="0" width="701" height="350.674"></rect> </defs> <clipPath id="SVGID_102_"> <use xlink:href="#SVGID_101_" overflow="visible"></use> </clipPath> <line clip-path="url(#SVGID_102_)" fill="none" stroke="#FDE7DF" stroke-width="2.124" stroke-miterlimit="10" stroke-dasharray="4.2479,4.2479" x1="492.272" y1="262.642" x2="548.229" y2="262.642"></line> </g> <g> <defs> <rect id="SVGID_103_" y="0" width="701" height="350.674"></rect> </defs> <clipPath id="SVGID_104_"> <use xlink:href="#SVGID_103_" overflow="visible"></use> </clipPath> <path clip-path="url(#SVGID_104_)" fill="#26282F" d="M210.163,300.481c1.196,9.552,10.349,16.984,21.473,16.984 h242.963c11.125,0,20.278-7.432,21.474-16.984H210.163z"></path> </g> <g> <defs> <rect id="SVGID_105_" y="0" width="701" height="350.674"></rect> </defs> <clipPath id="SVGID_106_"> <use xlink:href="#SVGID_105_" overflow="visible"></use> </clipPath> <path clip-path="url(#SVGID_106_)" fill="#D0D2D3" d="M451.511,176.037c0,5.276-4.281,9.553-9.562,9.553H259.051 c-5.281,0-9.562-4.277-9.562-9.553l0,0c0-5.276,4.281-9.553,9.562-9.553h182.897 C447.23,166.483,451.511,170.761,451.511,176.037L451.511,176.037z"></path> </g> <g> <defs> <rect id="SVGID_107_" y="0" width="701" height="350.674"></rect> </defs> <clipPath id="SVGID_108_"> <use xlink:href="#SVGID_107_" overflow="visible"></use> </clipPath> <polygon clip-path="url(#SVGID_108_)" fill="#FDE7DF" points="151.153,42.427 149.313,48.803 147.474,42.427 141.092,40.589 147.474,38.751 149.313,32.375 151.153,38.751 157.535,40.589 "></polygon> </g> <g> <defs> <rect id="SVGID_109_" y="0" width="701" height="350.674"></rect> </defs> <clipPath id="SVGID_110_"> <use xlink:href="#SVGID_109_" overflow="visible"></use> </clipPath> <polygon clip-path="url(#SVGID_110_)" fill="#FDE7DF" points="132.602,54.688 130.022,63.631 127.441,54.688 118.49,52.11 127.441,49.532 130.022,40.589 132.602,49.532 141.553,52.11 "></polygon> </g> <g> <defs> <rect id="SVGID_111_" y="0" width="701" height="350.674"></rect> </defs> <clipPath id="SVGID_112_"> <use xlink:href="#SVGID_111_" overflow="visible"></use> </clipPath> <polygon id="XMLID_71_" opacity="0.2" clip-path="url(#SVGID_112_)" fill="#FFFFFF" points=" 663.577,96.074 667.582,108.242 679.762,112.244 667.582,116.246 663.577,128.414 659.571,116.246 647.391,112.244 659.571,108.242 "></polygon> </g> <g> <defs> <rect id="SVGID_113_" y="0" width="701" height="350.674"></rect> </defs> <clipPath id="SVGID_114_"> <use xlink:href="#SVGID_113_" overflow="visible"></use> </clipPath> <polygon id="XMLID_70_" opacity="0.2" clip-path="url(#SVGID_114_)" fill="#FFFFFF" points=" 178.57,222.589 182.576,234.757 194.755,238.759 182.576,242.761 178.57,254.929 174.565,242.761 162.385,238.759 174.565,234.757 "></polygon> </g> <g> <defs> <rect id="SVGID_115_" y="0" width="701" height="350.674"></rect> </defs> <clipPath id="SVGID_116_"> <use xlink:href="#SVGID_115_" overflow="visible"></use> </clipPath> <polygon id="XMLID_69_" opacity="0.2" clip-path="url(#SVGID_116_)" fill="#FFFFFF" points=" 506.439,216.509 508.77,223.591 515.859,225.921 508.77,228.25 506.439,235.332 504.107,228.25 497.019,225.921 504.107,223.591 "></polygon> </g> <g> <defs> <rect id="SVGID_117_" y="0" width="701" height="350.674"></rect> </defs> <clipPath id="SVGID_118_"> <use xlink:href="#SVGID_117_" overflow="visible"></use> </clipPath> <polygon id="XMLID_68_" opacity="0.2" clip-path="url(#SVGID_118_)" fill="#FFFFFF" points=" 352.409,48.514 354.741,55.596 361.829,57.925 354.741,60.254 352.409,67.336 350.078,60.254 342.989,57.925 350.078,55.596 "></polygon> </g> <g> <defs> <rect id="SVGID_119_" y="0" width="701" height="350.674"></rect> </defs> <clipPath id="SVGID_120_"> <use xlink:href="#SVGID_119_" overflow="visible"></use> </clipPath> <polygon id="XMLID_67_" opacity="0.2" clip-path="url(#SVGID_120_)" fill="#FFFFFF" points=" 43.323,122.501 45.654,129.583 52.743,131.912 45.654,134.241 43.323,141.324 40.991,134.241 33.903,131.912 40.991,129.583 "></polygon> </g> <g> <defs> <rect id="SVGID_121_" y="0" width="701" height="350.674"></rect> </defs> <clipPath id="SVGID_122_"> <use xlink:href="#SVGID_121_" overflow="visible"></use> </clipPath> <path opacity="0.2" clip-path="url(#SVGID_122_)" fill="#FDE7DF" d="M617.243,96.813 c0-27.382-22.218-49.58-49.626-49.58c-27.408,0-49.626,22.198-49.626,49.58S540.21,75.77,567.617,75.77 C595.025,75.77,617.243,124.195,617.243,96.813z"></path> </g> <g> <defs> <rect id="SVGID_123_" y="0" width="701" height="350.674"></rect> </defs> <clipPath id="SVGID_124_"> <use xlink:href="#SVGID_123_" overflow="visible"></use> </clipPath> <path opacity="0.2" clip-path="url(#SVGID_124_)" fill="#FDE7DF" d="M192.774,72.706 c0-27.382-22.218-49.58-49.626-49.58s-49.626,22.198-49.626,49.58s22.218-21.044,49.626-21.044 S192.774,100.088,192.774,72.706z"></path> </g> <g> <defs> <rect id="SVGID_125_" y="0" width="701" height="350.674"></rect> </defs> <clipPath id="SVGID_126_"> <use xlink:href="#SVGID_125_" overflow="visible"></use> </clipPath> <path opacity="0.2" clip-path="url(#SVGID_126_)" fill="#FDE7DF" d="M659.589,264.154 c0-27.382-22.218-49.58-49.626-49.58c-27.408,0-49.626,22.198-49.626,49.58s22.218-21.044,49.626-21.044 C637.37,243.11,659.589,291.536,659.589,264.154z"></path> </g> <g> <defs> <rect id="SVGID_127_" y="0" width="701" height="350.674"></rect> </defs> <clipPath id="SVGID_128_"> <use xlink:href="#SVGID_127_" overflow="visible"></use> </clipPath> <path opacity="0.2" clip-path="url(#SVGID_128_)" fill="#FDE7DF" d="M139.691,235.17 c0-27.382-22.218-49.58-49.626-49.58s-49.626,22.198-49.626,49.58s22.218-21.044,49.626-21.044 S139.691,262.552,139.691,235.17z"></path> </g> <g> <defs> <rect id="SVGID_129_" y="0" width="701" height="350.674"></rect> </defs> <clipPath id="SVGID_130_"> <use xlink:href="#SVGID_129_" overflow="visible"></use> </clipPath> <g clip-path="url(#SVGID_130_)"> <g> <line fill="none" stroke="#26282F" stroke-width="12.7438" stroke-miterlimit="10" x1="333.467" y1="250.051" x2="296.917" y2="210.73"></line> <g> <polygon fill="#26282F" points="267.512,179.096 327.162,206.741 299.115,213.095 290.737,240.599 "></polygon> </g> </g> </g> </g> </g> </g> </g> </g> </g> </g> </g> </g> </g> </g> </g> </g> </svg>