<?xml version="1.0" encoding="UTF-8"?> <svg xmlns="http://www.w3.org/2000/svg" width="119" height="19" viewBox="0 0 119 19" fill="none"><g clip-path="url(#clip0_805_1879)"><path d="M8.33005 5.19211H10.2157C11.4058 5.19211 12.6324 5.42894 12.6324 6.79526C12.6324 7.97941 11.8818 8.81742 9.64821 8.81742H7.57943L8.33005 5.19211ZM0 18.5274H5.49234L6.62742 13.0986H10.3622C15.1039 13.0986 18.1796 9.98335 18.1796 6.35804C18.1796 2.4048 16.0559 0.564819 12.7239 0.564819H3.78971L0 18.5274Z" fill="#D7D6D5"></path><path d="M24.954 6.74061L25.6131 12.1148H22.1529L24.954 6.74061ZM13.0723 18.5274H18.7477L20.1208 15.977H25.9976L26.2905 18.5274H31.7462L29 0.564819H23.5077L13.0723 18.5274Z" fill="#D7D6D5"></path><path d="M34.0512 11.9326L30.1699 0.564819H35.7538L37.4564 7.2507L41.8686 0.564819H48.4045L39.5984 11.878L38.2254 18.5274H32.6781L34.0512 11.9326Z" fill="#D7D6D5"></path><path d="M61.6617 11.6955C61.3322 13.5355 59.9042 18.9461 52.3797 18.9461C47.1254 18.9461 44.6172 15.5576 44.6172 10.7482C44.6172 4.95494 48.2604 0.0908203 54.4302 0.0908203C58.4579 0.0908203 62.0645 1.83972 62.1561 7.21393H56.9017C56.9566 5.51968 56.1511 4.57236 54.4302 4.57236C51.3545 4.57236 50.2194 8.10659 50.2194 10.6571C50.2194 12.1691 50.6038 14.4281 53.1486 14.4281C54.9062 14.4281 55.8948 13.244 56.2243 11.6408L61.6617 11.6955Z" fill="#D7D6D5"></path><path d="M64.8813 0.564819H70.4835L69.147 6.79526H74.2182L75.5364 0.564819H81.1386L77.3489 18.5274H71.8016L73.2662 11.4043H68.195L66.6937 18.5274H61.1465L64.8813 0.564819Z" fill="#D7D6D5"></path><path d="M82.6042 0.564819H97.525L96.573 5.19211H87.1994L86.7234 7.39644H95.4379L94.5408 11.6958H85.8263L85.3503 13.9001H94.907L93.9733 18.5274H78.8145L82.6042 0.564819Z" fill="#D7D6D5"></path><path d="M101.353 8.9996L97.1973 0.564819H103.257L105.015 5.22854L108.603 0.564819H115.194L107.651 8.9996L112.063 18.5274H105.82L103.825 13.5176L99.614 18.5274H92.7852L101.353 8.9996Z" fill="#D7D6D5"></path><path d="M115.906 1.36632C115.906 0.710489 116.382 0.182177 117.041 0.182177C117.664 0.182177 118.176 0.692271 118.176 1.36632C118.176 2.04038 117.7 2.55047 117.041 2.55047C116.419 2.55047 115.906 2.02216 115.906 1.36632ZM115.668 1.36632C115.668 2.1679 116.29 2.73265 117.041 2.73265C117.792 2.73265 118.414 2.1679 118.414 1.36632C118.414 0.619401 117.792 0 117.041 0C116.29 0 115.668 0.619401 115.668 1.36632ZM116.51 2.1679H116.748V1.51207H116.986L117.407 2.22255H117.7L117.224 1.51207C117.462 1.51207 117.645 1.36632 117.645 1.09306C117.645 0.765142 117.462 0.619401 117.078 0.619401H116.51V2.1679ZM116.748 0.801577H117.078C117.261 0.801577 117.407 0.85623 117.407 1.03841C117.407 1.27524 117.224 1.32989 116.986 1.32989H116.748V0.801577Z" fill="#D7D6D5"></path></g><defs><clipPath id="clip0_805_1879"><rect width="118.415" height="18.9464" fill="white"></rect></clipPath></defs></svg>