<?xml version="1.0" encoding="UTF-8"?> <svg xmlns="http://www.w3.org/2000/svg" xmlns:xlink="http://www.w3.org/1999/xlink" width="114.117" height="31.413" viewBox="0 0 114.117 31.413"><defs><clipPath id="clip-path"><path id="Path_4240" data-name="Path 4240" d="M223.081,18.037a6.43,6.43,0,0,0-2.266,1.9l-2.873,7.688a6.388,6.388,0,0,1-.2.85c-.041.162-.081.283-.122.445a22.817,22.817,0,0,1-.849,2.347c-.243.445-.607.971-1.255.849l-.243-.12a2.946,2.946,0,0,1-.931-1.174,15.6,15.6,0,0,1-1.295-3.2,24.766,24.766,0,0,1-.849-4.249,3.7,3.7,0,0,0-.526-1.862,2.855,2.855,0,0,0-2.185-1.133,3.227,3.227,0,0,0-1.5.324,2.639,2.639,0,0,0-1.052,1.053,2.509,2.509,0,0,0-.4,1.416,2.911,2.911,0,0,0,.081.566,27.247,27.247,0,0,0,3.157,10.441,6.607,6.607,0,0,0,8.821,2.913,6.188,6.188,0,0,0,2.266-1.82l1.66-3.683,1.214-3.885c.041-.2.081-.4.122-.607a18.279,18.279,0,0,1,.971-2.994,2.251,2.251,0,0,1,.687-1.012l.041-.04a.812.812,0,0,1,.89.121,1.143,1.143,0,0,1,.365.4c.121.162.2.324.324.486a8.107,8.107,0,0,1,.525,1.012,5.243,5.243,0,0,0,.446.809.039.039,0,0,1,.04.04,3.367,3.367,0,0,0,.971.728,2.389,2.389,0,0,0,1.174.284,3.26,3.26,0,0,0,1.092-.2,2.475,2.475,0,0,0,.931-.606,4.634,4.634,0,0,0,.607-.931,3.482,3.482,0,0,0,.2-1.092,2.9,2.9,0,0,0-.243-1.174,11.067,11.067,0,0,0-2.994-4.249,6.467,6.467,0,0,0-3.966-1.376,5.692,5.692,0,0,0-2.833.728" fill="none"></path></clipPath><linearGradient id="linear-gradient" x1="-6.294" y1="6.054" x2="-6.264" y2="6.054" gradientUnits="objectBoundingBox"><stop offset="0" stop-color="#d9d8d8"></stop><stop offset="0.13" stop-color="#d9d8d8"></stop><stop offset="0.34" stop-color="#d1d0cf"></stop><stop offset="0.45" stop-color="#d2d1d0"></stop><stop offset="0.51" stop-color="#d3d2d2"></stop><stop offset="0.57" stop-color="#d6d5d4"></stop><stop offset="0.6" stop-color="#d9d7d7"></stop><stop offset="0.79" stop-color="#d7d6d5"></stop><stop offset="1" stop-color="#dbdad9"></stop></linearGradient><clipPath id="clip-path-21"><path id="Path_4260" data-name="Path 4260" d="M223.041,17.956a6.421,6.421,0,0,0-2.266,1.9l-1.821,4.9,3.561,6.839,1.214-3.885c.041-.2.081-.4.122-.607a18.279,18.279,0,0,1,.971-2.994,2.251,2.251,0,0,1,.687-1.012l.041-.04a.812.812,0,0,1,.89.121,1.143,1.143,0,0,1,.365.4c.121.162.2.324.324.486a8.107,8.107,0,0,1,.525,1.012,5.243,5.243,0,0,0,.446.809.039.039,0,0,1,.04.04,3.367,3.367,0,0,0,.971.728,2.389,2.389,0,0,0,1.174.284,3.26,3.26,0,0,0,1.092-.2,2.475,2.475,0,0,0,.931-.606,4.634,4.634,0,0,0,.607-.931,3.482,3.482,0,0,0,.2-1.092,2.9,2.9,0,0,0-.243-1.174,11.067,11.067,0,0,0-2.994-4.249,6.467,6.467,0,0,0-3.966-1.376,6.954,6.954,0,0,0-2.873.647" fill="none"></path></clipPath><clipPath id="clip-path-22"><path id="Path_4261" data-name="Path 4261" d="M214.543,17.39a6.86,6.86,0,0,0-4.451,3.075,2.574,2.574,0,0,1,.768.324,2.827,2.827,0,0,1,.81.728,3.7,3.7,0,0,1,.526,1.862,29.26,29.26,0,0,0,.809,4.169,13.486,13.486,0,0,1,1.9-4.21,1.158,1.158,0,0,1,.4-.363.58.58,0,0,1,.283-.081.96.96,0,0,1,.486.121c.041,0,.041.041.081.041a3.591,3.591,0,0,1,.364.4,11.265,11.265,0,0,1,.567,1.214c.323.89.606,2.023.606,2.023l.809,3.237a23.479,23.479,0,0,0,1.093,3.278,6.969,6.969,0,0,0,3.157,3.683,7.218,7.218,0,0,0,3.035.809,6,6,0,0,0,2.913-.607,7.889,7.889,0,0,0,2.55-2.063,14.55,14.55,0,0,0,1.133-1.822,21.8,21.8,0,0,0,1.74-4.693,26.028,26.028,0,0,0,.648-3.076c.081-.526.161-1.012.2-1.538a3.545,3.545,0,0,0-.04-1.457c-.04-.081-.04-.162-.08-.243a2.859,2.859,0,0,0-1.255-1.416,2.387,2.387,0,0,0-1.376-.4,3.6,3.6,0,0,0-.688.081,14.114,14.114,0,0,1,1.335,2.429,2.9,2.9,0,0,1,.243,1.173,3.488,3.488,0,0,1-.2,1.093,4.6,4.6,0,0,1-.607.93,2.07,2.07,0,0,1-.931.607,3.284,3.284,0,0,1-1.092.2,2.514,2.514,0,0,1-1.417-.4l-.283,1.093a13.354,13.354,0,0,1-.89,2.427,9.046,9.046,0,0,1-.728,1.376,1.8,1.8,0,0,1-.77.688,1.129,1.129,0,0,1-.364.04.657.657,0,0,1-.364-.12,2.046,2.046,0,0,1-.526-.648,8.193,8.193,0,0,1-.4-.85c-.243-.607-.647-2.1-.647-2.1l-.405-1.579-.4-1.577-.282-1.052a12.068,12.068,0,0,0-1.781-4.048,6.823,6.823,0,0,0-3.319-2.508,5.957,5.957,0,0,0-2.033-.335,6.32,6.32,0,0,0-1.123.092" fill="none"></path></clipPath><linearGradient id="linear-gradient-2" x1="-7.666" y1="5.853" x2="-7.629" y2="5.853" gradientUnits="objectBoundingBox"><stop offset="0" stop-color="#cbcaca"></stop><stop offset="0.38" stop-color="#cbcaca"></stop><stop offset="0.74" stop-color="#cac9c8"></stop><stop offset="1" stop-color="#cecdcc"></stop></linearGradient><image id="image" width="32" height="29"></image></defs><g id="Group_4698" data-name="Group 4698" transform="translate(-381.53 -2380.298)"><path id="Path_4229" data-name="Path 4229" d="M260.8,22.974h3.035l-4.411,13.273h-3.48l-3.278-9.995-3.278,10.036h-3.4l-4.411-13.314h3.076l3.156,10.117,3.237-10.117h3.278l3.319,10.157Z" transform="translate(175 2363)" fill="#a9a9a9"></path><path id="Path_4230" data-name="Path 4230" d="M276.781,30.7h-9.793a4.553,4.553,0,0,0,.728,1.9,3.708,3.708,0,0,0,1.376,1.133,4.531,4.531,0,0,0,1.78.364,5.794,5.794,0,0,0,2.024-.364,6.306,6.306,0,0,0,1.821-1.052l1.457,2.063a6.734,6.734,0,0,1-2.509,1.417,10.468,10.468,0,0,1-2.954.445,7.187,7.187,0,0,1-3.521-.85,5.861,5.861,0,0,1-2.388-2.468,7.625,7.625,0,0,1-.849-3.683,7.651,7.651,0,0,1,.849-3.642A6.252,6.252,0,0,1,267.15,23.5a6.814,6.814,0,0,1,3.439-.891,5.96,5.96,0,0,1,5.5,3.359,8.125,8.125,0,0,1,.809,3.642,6.816,6.816,0,0,0-.121,1.093m-2.914-2.226a4.143,4.143,0,0,0-1.133-2.428,3.051,3.051,0,0,0-2.226-.85,3.235,3.235,0,0,0-2.387.89,4.144,4.144,0,0,0-1.133,2.388Z" transform="translate(175 2363)" fill="#a9a9a9"></path><path id="Path_4231" data-name="Path 4231" d="M289.163,23.541a6.475,6.475,0,0,1,2.388,2.509,7.732,7.732,0,0,1,0,7.2,6.475,6.475,0,0,1-2.388,2.509,6.149,6.149,0,0,1-3.359.89,6.007,6.007,0,0,1-2.387-.485,5.038,5.038,0,0,1-1.781-1.417v1.579h-2.913V17.35h2.913v7.243a5.035,5.035,0,0,1,1.781-1.416,4.973,4.973,0,0,1,2.387-.486,6.123,6.123,0,0,1,3.359.85m-1.578,9.793A3.705,3.705,0,0,0,289,31.8a5.02,5.02,0,0,0,.486-2.144A4.888,4.888,0,0,0,289,27.507a3.706,3.706,0,0,0-1.416-1.538,4.2,4.2,0,0,0-4.209,0,3.712,3.712,0,0,0-1.416,1.538,4.536,4.536,0,0,0-.485,2.185,5.064,5.064,0,0,0,.485,2.185,3.712,3.712,0,0,0,1.416,1.538,4.207,4.207,0,0,0,2.1.566,5.525,5.525,0,0,0,2.1-.647" transform="translate(175 2363)" fill="#a9a9a9"></path><path id="Path_4232" data-name="Path 4232" d="M306.807,30.7h-9.793a4.553,4.553,0,0,0,.728,1.9,3.716,3.716,0,0,0,1.376,1.133,4.535,4.535,0,0,0,1.78.364,5.79,5.79,0,0,0,2.024-.364,6.306,6.306,0,0,0,1.821-1.052L306.2,34.75a6.746,6.746,0,0,1-2.51,1.417,10.462,10.462,0,0,1-2.954.445,7.187,7.187,0,0,1-3.521-.85,5.861,5.861,0,0,1-2.388-2.468,7.625,7.625,0,0,1-.849-3.683,7.663,7.663,0,0,1,.849-3.642,6.252,6.252,0,0,1,2.348-2.468,6.814,6.814,0,0,1,3.439-.891,5.963,5.963,0,0,1,5.505,3.359,8.137,8.137,0,0,1,.808,3.642q-.06.424-.121,1.093m-2.914-2.226a4.137,4.137,0,0,0-1.133-2.428,3.08,3.08,0,0,0-2.265-.85,3.236,3.236,0,0,0-2.388.89,4.021,4.021,0,0,0-1.134,2.388Z" transform="translate(175 2363)" fill="#a9a9a9"></path><path id="Path_4233" data-name="Path 4233" d="M320.647,36.288h-3.561l-3.359-4.613-3.318,4.613h-3.4l5.018-6.8-4.978-6.516h3.561l3.238,4.452,3.237-4.452h3.44l-4.9,6.475Z" transform="translate(175 2363)" fill="#a9a9a9"></path><path id="Path_4234" data-name="Path 4234" d="M285.724,47.255h-.607V41.913h.729v2.023a1.658,1.658,0,0,1,.565-.485,1.59,1.59,0,0,1,.73-.163,2.252,2.252,0,0,1,.727.123,1.524,1.524,0,0,1,.568.444,2.259,2.259,0,0,1,.4,1.416,2.314,2.314,0,0,1-.567,1.62,1.694,1.694,0,0,1-.566.364,1.851,1.851,0,0,1-.647.121,1.592,1.592,0,0,1-.729-.162,2.168,2.168,0,0,1-.566-.485Zm2.388-1.984a1.481,1.481,0,0,0-.365-1.093,1.455,1.455,0,0,0-.363-.242,1.428,1.428,0,0,0-.4-.081,2,2,0,0,0-.486.081.892.892,0,0,0-.364.283,1.489,1.489,0,0,0-.283,1.013,1.589,1.589,0,0,0,.364,1.133.73.73,0,0,0,.364.242,1.446,1.446,0,0,0,.445.081,2.016,2.016,0,0,0,.486-.081.712.712,0,0,0,.363-.324,1.525,1.525,0,0,0,.244-1.012" transform="translate(175 2363)" fill="#a9a9a9"></path><path id="Path_4235" data-name="Path 4235" d="M292.684,43.41l-1.335,3.925a2.75,2.75,0,0,1-.526,1.052.626.626,0,0,1-.324.243,1.153,1.153,0,0,1-.85,0v-.566a1.132,1.132,0,0,0,.364.04.371.371,0,0,0,.2-.04.56.56,0,0,0,.161-.122,3.543,3.543,0,0,0,.324-.688h-.243l-1.416-3.884h.769l1.092,3.277L292,43.37Z" transform="translate(175 2363)" fill="#a9a9a9"></path><rect id="Rectangle_6025" data-name="Rectangle 6025" width="1.335" height="5.382" transform="translate(476.142 2404.913)" fill="#a9a9a9"></rect><path id="Path_4236" data-name="Path 4236" d="M313.4,43.451a2.247,2.247,0,0,0-1.133-.284,1.4,1.4,0,0,0-1.5,1.416A1.381,1.381,0,0,0,312.27,46a2.245,2.245,0,0,0,1.133-.282v1.457a4.287,4.287,0,0,1-1.214.2,2.793,2.793,0,1,1,0-5.584,4.027,4.027,0,0,1,1.214.2Z" transform="translate(175 2363)" fill="#a9a9a9"></path><path id="Path_4237" data-name="Path 4237" d="M299.28,43.451a2.247,2.247,0,0,0-1.133-.284,1.4,1.4,0,0,0-1.5,1.416,1.381,1.381,0,0,0,1.5,1.416,2.245,2.245,0,0,0,1.133-.282v1.457a4.331,4.331,0,0,1-1.254.2,2.793,2.793,0,1,1,0-5.584,4.528,4.528,0,0,1,1.254.2Z" transform="translate(175 2363)" fill="#a9a9a9"></path><path id="Path_4238" data-name="Path 4238" d="M317.652,43.208a1.121,1.121,0,0,0-.526.122,1.138,1.138,0,0,0-.445.323,1.055,1.055,0,0,0-.283.445.806.806,0,0,0-.081.526,2.03,2.03,0,0,0,.081.527,1.7,1.7,0,0,0,.283.445,1.814,1.814,0,0,0,.445.323,1.246,1.246,0,0,0,.526.122,1.115,1.115,0,0,0,.526-.122,1.151,1.151,0,0,0,.446-.323,1.065,1.065,0,0,0,.283-.445.814.814,0,0,0,.081-.527,2.074,2.074,0,0,0-.081-.526,1.706,1.706,0,0,0-.283-.445,1.794,1.794,0,0,0-.446-.323.781.781,0,0,0-.526-.122m2.833,1.376a2.833,2.833,0,1,1-2.833-2.792,2.806,2.806,0,0,1,2.833,2.792" transform="translate(175 2363)" fill="#a9a9a9"></path><path id="Path_4239" data-name="Path 4239" d="M307.616,43.127a4.732,4.732,0,0,0-1.052-.162c-.526,0-.85.162-.85.445,0,.324.4.445.607.526l.364.122a1.628,1.628,0,0,1,1.3,1.537c0,1.336-1.173,1.781-2.225,1.781a5.93,5.93,0,0,1-1.457-.162V45.96a4.566,4.566,0,0,0,1.295.2c.688,0,.971-.2.971-.486s-.283-.445-.607-.526l-.283-.081a1.681,1.681,0,0,1-1.376-1.578c0-1.011.728-1.659,1.983-1.659a7.511,7.511,0,0,1,1.335.162Z" transform="translate(175 2363)" fill="#a9a9a9"></path><g id="Group_4628" data-name="Group 4628" transform="translate(175 2363)" clip-path="url(#clip-path)"><rect id="Rectangle_6027" data-name="Rectangle 6027" width="32.353" height="29.022" transform="translate(199.388 20.196) rotate(-22.009)" fill="url(#linear-gradient)"></rect></g><g id="Group_4630" data-name="Group 4630" transform="translate(175 2363)" clip-path="url(#clip-path)"><image id="Rectangle_6028" data-name="Rectangle 6028" width="38" height="35" transform="translate(201 9.823)"></image></g><g id="Group_4632" data-name="Group 4632" transform="translate(175 2363)" clip-path="url(#clip-path)"><image id="Rectangle_6029" data-name="Rectangle 6029" width="28" height="23" transform="translate(206 15.823)"></image></g><g id="Group_4634" data-name="Group 4634" transform="translate(175 2363)" clip-path="url(#clip-path)"><image id="Rectangle_6030" data-name="Rectangle 6030" width="28" height="23" transform="translate(206 15.823)"></image></g><g id="Group_4636" data-name="Group 4636" transform="translate(175 2363)" clip-path="url(#clip-path)"><image id="Rectangle_6031" data-name="Rectangle 6031" width="28" height="23" transform="translate(206 15.823)"></image></g><g id="Group_4638" data-name="Group 4638" transform="translate(175 2363)" clip-path="url(#clip-path)"><image id="Rectangle_6032" data-name="Rectangle 6032" width="28" height="23" transform="translate(206 15.823)"></image></g><g id="Group_4640" data-name="Group 4640" transform="translate(175 2363)" clip-path="url(#clip-path)"><image id="Rectangle_6033" data-name="Rectangle 6033" width="43" height="41" transform="translate(198 6.823)"></image></g><g id="Group_4642" data-name="Group 4642" transform="translate(175 2363)" clip-path="url(#clip-path)"><image id="Rectangle_6034" data-name="Rectangle 6034" width="47" height="47" transform="translate(196 3.823)"></image></g><g id="Group_4644" data-name="Group 4644" transform="translate(175 2363)" clip-path="url(#clip-path)"><image id="Rectangle_6035" data-name="Rectangle 6035" width="47" height="47" transform="translate(196 3.823)"></image></g><g id="Group_4646" data-name="Group 4646" transform="translate(175 2363)" clip-path="url(#clip-path)"><image id="Rectangle_6036" data-name="Rectangle 6036" width="35" height="32" transform="translate(202 11.823)"></image></g><g id="Group_4648" data-name="Group 4648" transform="translate(175 2363)" clip-path="url(#clip-path)"><image id="Rectangle_6037" data-name="Rectangle 6037" width="48" height="48" transform="translate(196 3.823)"></image></g><g id="Group_4650" data-name="Group 4650" transform="translate(175 2363)" clip-path="url(#clip-path)"><image id="Rectangle_6038" data-name="Rectangle 6038" width="46" height="45" transform="translate(197 4.823)"></image></g><g id="Group_4652" data-name="Group 4652" transform="translate(175 2363)" clip-path="url(#clip-path)"><image id="Rectangle_6039" data-name="Rectangle 6039" width="48" height="48" transform="translate(196 3.823)"></image></g><g id="Group_4654" data-name="Group 4654" transform="translate(175 2363)" clip-path="url(#clip-path)"><image id="Rectangle_6040" data-name="Rectangle 6040" width="32" height="28" transform="translate(204 13.823)"></image></g><g id="Group_4656" data-name="Group 4656" transform="translate(175 2363)" clip-path="url(#clip-path)"><image id="Rectangle_6041" data-name="Rectangle 6041" width="45" height="44" transform="translate(197 5.823)"></image></g><g id="Group_4658" data-name="Group 4658" transform="translate(175 2363)" clip-path="url(#clip-path)"><image id="Rectangle_6042" data-name="Rectangle 6042" width="47" height="46" transform="translate(196 4.823)"></image></g><g id="Group_4660" data-name="Group 4660" transform="translate(175 2363)" clip-path="url(#clip-path)"><image id="Rectangle_6043" data-name="Rectangle 6043" width="48" height="48" transform="translate(196 3.823)"></image></g><g id="Group_4662" data-name="Group 4662" transform="translate(175 2363)" clip-path="url(#clip-path)"><image id="Rectangle_6044" data-name="Rectangle 6044" width="38" height="36" transform="translate(201 9.823)"></image></g><g id="Group_4664" data-name="Group 4664" transform="translate(175 2363)" clip-path="url(#clip-path)"><image id="Rectangle_6045" data-name="Rectangle 6045" width="40" height="38" transform="translate(200 8.823)"></image></g><g id="Group_4666" data-name="Group 4666" transform="translate(175 2363)" clip-path="url(#clip-path)"><image id="Rectangle_6046" data-name="Rectangle 6046" width="46" height="45" transform="translate(197 4.823)"></image></g><g id="Group_4668" data-name="Group 4668" transform="translate(175 2363)" clip-path="url(#clip-path-21)"><image id="Rectangle_6047" data-name="Rectangle 6047" width="20" height="21" transform="translate(216 13.823)"></image></g><g id="Group_4670" data-name="Group 4670" transform="translate(175 2363)" clip-path="url(#clip-path-22)"><rect id="Rectangle_6048" data-name="Rectangle 6048" width="27.257" height="30.128" transform="translate(203.992 35.725) rotate(-71.683)" fill="url(#linear-gradient-2)"></rect></g><g id="Group_4672" data-name="Group 4672" transform="translate(175 2363)" clip-path="url(#clip-path-22)"><image id="Rectangle_6049" data-name="Rectangle 6049" width="32" height="29" transform="translate(207 12.823)"></image></g><g id="Group_4674" data-name="Group 4674" transform="translate(175 2363)" clip-path="url(#clip-path-22)"><use id="Rectangle_6050" data-name="Rectangle 6050" transform="translate(207 12.823)" xlink:href="#image"></use></g><g id="Group_4676" data-name="Group 4676" transform="translate(175 2363)" clip-path="url(#clip-path-22)"><use id="Rectangle_6051" data-name="Rectangle 6051" transform="translate(207 12.823)" xlink:href="#image"></use></g><g id="Group_4678" data-name="Group 4678" transform="translate(175 2363)" clip-path="url(#clip-path-22)"><image id="Rectangle_6052" data-name="Rectangle 6052" width="31" height="27" transform="translate(207 13.823)"></image></g><g id="Group_4680" data-name="Group 4680" transform="translate(175 2363)" clip-path="url(#clip-path-22)"><image id="Rectangle_6053" data-name="Rectangle 6053" width="37" height="34" transform="translate(204 10.823)"></image></g><g id="Group_4682" data-name="Group 4682" transform="translate(175 2363)" clip-path="url(#clip-path-22)"><image id="Rectangle_6054" data-name="Rectangle 6054" width="37" height="34" transform="translate(204 10.823)"></image></g><g id="Group_4684" data-name="Group 4684" transform="translate(175 2363)" clip-path="url(#clip-path-22)"><image id="Rectangle_6055" data-name="Rectangle 6055" width="37" height="34" transform="translate(204 10.823)"></image></g><g id="Group_4686" data-name="Group 4686" transform="translate(175 2363)" clip-path="url(#clip-path-22)"><image id="Rectangle_6056" data-name="Rectangle 6056" width="41" height="39" transform="translate(202 7.823)"></image></g><g id="Group_4688" data-name="Group 4688" transform="translate(175 2363)" clip-path="url(#clip-path-22)"><image id="Rectangle_6057" data-name="Rectangle 6057" width="35" height="33" transform="translate(205 10.823)"></image></g><g id="Group_4690" data-name="Group 4690" transform="translate(175 2363)" clip-path="url(#clip-path-22)"><image id="Rectangle_6058" data-name="Rectangle 6058" width="35" height="33" transform="translate(205 10.823)"></image></g><g id="Group_4692" data-name="Group 4692" transform="translate(175 2363)" clip-path="url(#clip-path-22)"><image id="Rectangle_6059" data-name="Rectangle 6059" width="35" height="33" transform="translate(205 10.823)"></image></g><g id="Group_4694" data-name="Group 4694" transform="translate(175 2363)" clip-path="url(#clip-path-22)"><image id="Rectangle_6060" data-name="Rectangle 6060" width="28" height="24" transform="translate(209 15.823)"></image></g><g id="Group_4696" data-name="Group 4696" transform="translate(175 2363)" clip-path="url(#clip-path-22)"><image id="Rectangle_6061" data-name="Rectangle 6061" width="41" height="39" transform="translate(202 7.823)"></image></g></g></svg>