<svg width="616" height="490" viewBox="0 0 616 490" fill="none" xmlns="http://www.w3.org/2000/svg" xmlns:xlink="http://www.w3.org/1999/xlink">
<rect width="616" height="489.799" fill="#DD6052"></rect>
<path d="M346.459 137.1L447.729 263.687L167.429 361.34L172.854 176.885L346.459 137.1Z" fill="#7EB3EC"></path>
<path d="M413.25 239.132L180.431 311.599L180.088 341.448L427.752 258.178L413.25 239.132Z" stroke="#FFE7DE" stroke-width="1.72388"></path>
<path d="M405.298 228.35L344.653 146.142L181.898 184.118L180.586 298.293L405.298 228.35Z" fill="#6F7EB1"></path>
<path d="M267.125 242.108L196.706 262.772L198.172 281.771L270.199 259.527L267.125 242.108Z" fill="#D8D5C8"></path>
<path d="M194.632 200.529L302.672 172.589" stroke="#FFE7DE" stroke-width="1.72388"></path>
<path d="M194.633 245.739L275.663 222.071M194.633 222.23L302.673 190.673" stroke="#7EB3EC" stroke-width="0.861941"></path>
<path d="M399.582 253.895L394.835 251.183L412.467 249.826L397.548 262.033L399.582 253.895Z" fill="#FFE7DE"></path>
<path d="M361.907 302.649L474.027 340.507L417.967 439.005L275.104 368.596L361.907 302.649Z" fill="#122C7F"></path>
<path d="M361.907 285.411L474.027 323.268L417.967 421.766L275.104 351.358L361.907 285.411Z" fill="#FFE7DE"></path>
<path fill-rule="evenodd" clip-rule="evenodd" d="M369.918 345.746C388.007 345.746 402.672 335.327 402.672 322.474C402.672 309.621 388.007 299.202 369.918 299.202C351.828 299.202 337.164 309.621 337.164 322.474C337.164 335.327 351.828 345.746 369.918 345.746ZM369.918 328.508C377.534 328.508 383.709 324.263 383.709 319.026C383.709 313.79 377.534 309.545 369.918 309.545C362.301 309.545 356.127 313.79 356.127 319.026C356.127 324.263 362.301 328.508 369.918 328.508Z" fill="#F0783B"></path>
<path d="M382.999 316.014C381.168 312.254 376.003 309.545 369.918 309.545C366.347 309.545 363.092 310.478 360.643 312.01L351.236 303.356C356.535 300.737 362.974 299.202 369.918 299.202C383.611 299.202 395.341 305.172 400.235 313.648L382.999 316.014Z" fill="#7EB3EC"></path>
<path d="M402.672 322.474C402.672 335.327 388.008 345.747 369.918 345.747C368.225 345.747 366.561 345.655 364.937 345.479L366.452 328.206C367.559 328.403 368.721 328.508 369.918 328.508C377.535 328.508 383.709 324.263 383.709 319.026C383.709 317.973 383.46 316.96 382.999 316.014L400.235 313.648C401.806 316.37 402.672 319.35 402.672 322.474Z" fill="#D8D5C8"></path>
<path d="M314.453 337.512L342.507 350.736M307.671 344.293L345.077 361.925M300.89 351.075L310.241 355.483" stroke="#6F7EB1" stroke-width="1.72388"></path>
<path d="M410.508 403.514L424.707 381.813L428.257 376.388M398.441 398.342L405.541 387.492M386.374 393.17L400.573 371.47" stroke="#6F7EB1" stroke-width="1.72388"></path>
<path d="M168.312 331.269L169.271 298.673L246.043 307.756C256.604 309.006 263.345 318.711 261.969 328.403L208.59 346.999L188.519 338.407C185.243 337.005 181.835 335.925 178.428 334.845C175.627 333.957 172.826 333.069 170.099 332.003C169.506 331.771 168.91 331.526 168.312 331.269Z" fill="#122C7F"></path>
<path d="M148.55 307.495C152.163 301.094 159.267 297.489 166.566 298.352L246.044 307.756C258.97 309.286 266.174 323.481 259.776 334.817C256.163 341.218 249.059 344.823 241.76 343.959L221.891 341.608L202.021 339.257L182.152 336.906L162.283 334.555C149.356 333.026 142.153 318.831 148.55 307.495Z" fill="#AD4537"></path>
<path d="M239.849 326.508L194.082 320.75" stroke="#FFE7DE" stroke-width="1.72388"></path>
<path d="M174.351 321.675C177.579 318.967 178 314.154 175.291 310.927C172.583 307.699 167.771 307.278 164.543 309.986C161.315 312.695 160.894 317.507 163.603 320.735C166.311 323.962 171.123 324.383 174.351 321.675ZM174.351 321.675L178.601 326.74" stroke="#FFE7DE" stroke-width="2.58582"></path>
<path d="M71.6865 138.881L518.172 240.59" stroke="#122C7F" stroke-width="0.861941" stroke-dasharray="5.17 5.17"></path>
<path d="M469.902 323.336L102.716 381.948L497.484 94.0598" stroke="#122C7F" stroke-width="0.861941" stroke-dasharray="5.17 5.17"></path>
<rect x="75.5645" y="354.797" width="54.3022" height="54.3023" rx="27.1511" fill="white"></rect>
<rect x="83.3223" y="362.554" width="38.7873" height="38.7873" fill="url(#pattern0_328_991)"></rect>
<rect x="435.425" y="288.858" width="68.9552" height="68.9553" rx="34.4776" fill="white"></rect>
<rect x="444.829" y="293.455" width="55.1642" height="55.1642" rx="27.5821" transform="rotate(5 444.829 293.455)" fill="url(#pattern1_328_991)"></rect>
<rect x="469.903" y="66.4778" width="54.3022" height="54.3023" rx="27.1511" fill="white"></rect>
<path d="M455.743 106.109C456.894 104.95 458.675 105.043 459.722 106.317C460.768 107.59 460.685 109.562 459.534 110.721C458.384 111.88 456.602 111.785 455.555 110.512C455.232 110.119 455.017 109.661 454.907 109.18H435.138C435.024 109.809 434.733 110.406 434.272 110.87C433.121 112.029 431.34 111.936 430.293 110.662C429.246 109.389 429.33 107.417 430.481 106.258C431.631 105.099 433.413 105.192 434.46 106.466C434.742 106.809 434.941 107.202 435.061 107.616H454.915C455.049 107.055 455.326 106.529 455.743 106.109ZM442.954 82.552C444.082 82.552 445.14 82.7837 446.129 83.2463C447.118 83.7093 448.032 84.403 448.873 85.3284V83.0764H453.589V103.494H448.873V101.336C447.952 102.287 447.029 102.972 446.103 103.391C445.178 103.81 444.173 104.02 443.093 104.02C440.665 104.02 438.565 102.997 436.794 100.951C435.022 98.9061 434.137 96.3628 434.137 93.3235C434.137 90.1713 434.994 87.5875 436.709 85.5725C438.423 83.5594 440.504 82.5521 442.954 82.552ZM443.915 87.2805C442.458 87.2805 441.246 87.8416 440.282 88.9612C439.318 90.0803 438.836 91.5166 438.836 93.2678C438.836 95.0315 439.327 96.4835 440.309 97.6213C441.29 98.7596 442.498 99.3284 443.933 99.3284C445.414 99.3283 446.641 98.7683 447.615 97.6487C448.592 96.5293 449.08 95.0623 449.08 93.2483C449.08 91.4725 448.592 90.0332 447.615 88.9319C446.641 87.832 445.408 87.2806 443.915 87.2805ZM443.855 73.3733C444.546 73.3733 445.133 73.6356 445.617 74.1614C446.101 74.687 446.342 75.3178 446.342 76.0559C446.342 76.8063 446.101 77.445 445.617 77.97C445.133 78.4954 444.546 78.759 443.855 78.759C443.175 78.759 442.594 78.495 442.11 77.97C441.628 77.4449 441.385 76.8068 441.385 76.0559C441.385 75.3176 441.628 74.6871 442.11 74.1614C442.594 73.6353 443.175 73.3733 443.855 73.3733Z" fill="black"></path>
<rect x="51" y="118.194" width="41.3731" height="41.3732" fill="url(#pattern2_328_991)"></rect>
<rect x="464.731" y="225.075" width="99.9851" height="29.306" rx="6.89552" fill="#FFE7DE"></rect>
<path fill-rule="evenodd" clip-rule="evenodd" d="M476.798 248.413H481.447C481.927 248.413 482.319 248.02 482.319 247.54V239.485L490.997 249.15L499.675 239.485V247.54C499.675 248.02 500.068 248.413 500.548 248.413H505.196V231.154H501.249C500.108 231.154 499.258 231.703 498.798 232.214L490.997 240.903L483.196 232.214C482.737 231.703 481.886 231.154 480.746 231.154H476.798V248.413Z" fill="#24ABE2"></path>
<path fill-rule="evenodd" clip-rule="evenodd" d="M529 248.413H551.998C552.478 248.413 552.871 248.02 552.871 247.54V242.944H541.688L552.838 231.169H529.854C529.374 231.169 528.981 231.563 528.981 232.042V236.639H540.15L529 248.413Z" fill="#24ABE2"></path>
<path fill-rule="evenodd" clip-rule="evenodd" d="M517.768 228.522C524.786 228.522 530.476 233.428 530.476 239.613C530.476 245.797 524.786 250.702 517.768 250.702C510.749 250.702 505.06 245.797 505.06 239.613C505.06 233.428 510.749 228.522 517.768 228.522ZM517.768 234.064C521.19 234.064 524.125 236.548 524.125 239.613C524.125 242.676 521.279 245.161 517.768 245.161C514.257 245.161 511.41 242.676 511.41 239.613C511.41 236.548 514.345 234.064 517.768 234.064Z" fill="#24ABE2"></path>
<path d="M207.961 398.794C207.961 402.539 204.925 405.576 201.179 405.576C197.434 405.576 194.398 402.539 194.398 398.794C194.398 395.049 197.434 392.013 201.179 392.013C204.925 392.013 207.961 395.049 207.961 398.794Z" fill="#D8D5C8"></path>
<path d="M201.179 405.576C195.187 405.576 190.329 410.433 190.329 416.426H212.03C212.03 410.433 207.172 405.576 201.179 405.576Z" fill="#D8D5C8"></path>
<path d="M229.661 398.794C229.661 402.539 226.625 405.576 222.88 405.576C219.134 405.576 216.098 402.539 216.098 398.794C216.098 395.049 219.134 392.013 222.88 392.013C226.625 392.013 229.661 395.049 229.661 398.794Z" fill="#D8D5C8"></path>
<path d="M222.88 405.576C216.887 405.576 212.03 410.433 212.03 416.426H233.73C233.73 410.433 228.872 405.576 222.88 405.576Z" fill="#D8D5C8"></path>
<path d="M255.771 394.386C255.771 399.068 251.976 402.863 247.294 402.863C242.613 402.863 238.818 399.068 238.818 394.386C238.818 389.704 242.613 385.909 247.294 385.909C251.976 385.909 255.771 389.704 255.771 394.386Z" fill="#122C7F"></path>
<path d="M247.294 402.863C239.804 402.863 233.731 408.935 233.731 416.426H260.858C260.858 408.935 254.785 402.863 247.294 402.863Z" fill="#122C7F"></path>
<path d="M313.585 56.1343L261.313 72.8007L261.629 80.3343L261.945 87.8678L262.576 102.935L263.839 133.069L314.932 102.598L314.259 79.3663L313.922 67.7503L313.754 61.9423L313.585 56.1343Z" fill="#FFE7DE"></path>
<path d="M269.533 115.343L284.056 93.5588L294.662 98.1042L307.511 75.6177" stroke="#6F7EB1" stroke-width="2.58582"></path>
<path d="M385.253 115.62L442.55 125.723L429.172 192.289L371.309 157.47L385.253 115.62Z" fill="#122C7F"></path>
<path d="M435.43 161.153L429.172 192.29L383.954 165.08L421.394 143.327L435.43 161.153Z" fill="#6F7EB1"></path>
<path d="M406.788 178.819L371.31 157.471L375.091 146.122L389.564 137.714L406.788 178.819Z" fill="#7EB3EC"></path>
<ellipse cx="403.137" cy="135.184" rx="6.46455" ry="6.46456" transform="rotate(10 403.137 135.184)" fill="#FFE7DE"></ellipse>
<path d="M203.908 169.768L170.434 259.189L172.854 176.885L203.908 169.768Z" fill="#122C7F"></path>
<path d="M159.199 125.09L217.067 157.641L166.432 235.401L94.0967 186.575L159.199 125.09Z" fill="#D8D5C8"></path>
<path d="M202.601 157.641L174.571 196.521L160.556 215.961" stroke="#FFE7DE" stroke-width="1.72388"></path>
<ellipse cx="161.006" cy="166.682" rx="19.8922" ry="18.0839" fill="#FFE7DE"></ellipse>
<path d="M165.528 173.916L151.965 163.97L167.336 160.353L165.528 173.916Z" fill="#F0783B"></path>
<defs>
<pattern id="pattern0_328_991" patternContentUnits="objectBoundingBox" width="1" height="1">
<use xlink:href="#image0_328_991" transform="scale(0.000657895)"></use>
</pattern>
<pattern id="pattern1_328_991" patternContentUnits="objectBoundingBox" width="1" height="1">
<use xlink:href="#image1_328_991" transform="scale(0.005)"></use>
</pattern>
<pattern id="pattern2_328_991" patternContentUnits="objectBoundingBox" width="1" height="1">
<use xlink:href="#image2_328_991" transform="scale(0.0025)"></use>
</pattern>
<image id="image0_328_991" width="1520" height="1520" preserveAspectRatio="none"></image>
<image id="image1_328_991" width="200" height="200" preserveAspectRatio="none"></image>
<image id="image2_328_991" width="400" height="400" preserveAspectRatio="none"></image>
</defs>
</svg>