<svg width="616" height="464" viewBox="0 0 616 464" fill="none" xmlns="http://www.w3.org/2000/svg">
<rect width="616" height="464" fill="#246EC9"></rect>
<path d="M94.3029 171.099C88.1162 151.741 102.56 131.961 122.883 131.961C135.935 131.961 147.489 140.399 151.463 152.832L178.464 237.32H115.466L94.3029 171.099Z" fill="#6F7EB1"></path>
<path d="M216.479 91.7728L249.064 80.9111L251.237 136.306L213.221 124.358L216.479 91.7728Z" fill="#FFE7DE"></path>
<path d="M232.773 146.082L264.272 148.254L251.238 188.442H226.256L232.773 146.082Z" fill="#6F7EB1"></path>
<path d="M228.428 165.632C225.821 166.936 220.825 173.055 218.652 175.951L220.282 184.64L227.342 181.925L229.006 172.355C229.322 170.535 230.546 169.004 232.25 168.294L233.864 167.622C235.208 167.062 236.157 165.835 236.363 164.394C236.465 163.68 235.824 163.088 235.126 163.272C233.21 163.777 230.433 164.63 228.428 165.632Z" fill="#F0783B"></path>
<path d="M97.3542 146.196C92.959 153.295 91.4702 162.242 94.3011 171.1L100.816 191.487C102.139 191.252 103.46 190.876 104.762 190.35L132.3 179.211L116.008 220.485L171.924 216.861L151.461 152.832C150.752 150.615 149.803 148.525 148.646 146.587C143.089 147.048 137.598 148.366 132.374 150.527L102.43 162.918L97.3542 146.196Z" fill="#122C7F"></path>
<path d="M82.3382 132.504L62.7871 128.16C63.5505 144.38 65.3924 160.751 68.3435 176.843C70.4829 188.508 82.9076 194.796 93.9022 190.349L121.44 179.21L105.148 220.484L163.801 216.683L174.12 185.184L185.305 191.975C187.87 193.532 190.966 193.959 193.858 193.153L222.454 185.184C222.454 185.184 223.669 181.695 223.269 179.481C222.803 176.904 219.739 173.779 219.739 173.779L196.929 174.865L181.359 160.987C175.167 155.468 167.793 151.441 159.803 149.214L156.859 148.394C145.17 145.136 132.727 145.887 121.515 150.527L91.5706 162.917L82.3382 132.504Z" fill="#7EB3EC"></path>
<path d="M174.662 185.184L176.834 177.581" stroke="black" stroke-width="1.08617"></path>
<path d="M94.2856 169.977L92.1133 162.374" stroke="black" stroke-width="1.08617"></path>
<path d="M181.103 113.5C181.103 116.587 184.125 118.781 182.126 124.818C176.504 141.794 164.574 142.823 155.04 142.823C139.197 142.823 143.797 127.39 146.352 123.275C148.907 119.159 147.885 115.044 151.973 108.356C156.062 101.668 164.75 99.0963 172.927 101.154C181.103 103.212 181.103 110.414 181.103 113.5Z" fill="#0B354C"></path>
<path d="M167.048 151.799L157.283 157.437L151.352 147.164C153.2 147.477 155.038 147.887 156.858 148.394L159.802 149.214C162.282 149.906 164.703 150.77 167.048 151.799Z" fill="#122C7F"></path>
<path d="M156.741 135.22H167.603L160.871 153.731C159.753 156.805 156.518 158.563 153.33 157.827C149.087 156.848 147.001 152.043 149.183 148.274L156.741 135.22Z" fill="#F0783B"></path>
<path d="M167.6 135.22H157.825L157.679 135.616C159.345 138.256 162.201 142.68 163.921 145.338L167.6 135.22Z" fill="black"></path>
<path d="M157.847 136.428C156.509 136.669 154.763 136.018 153.373 134.627C151.464 132.719 150.948 130.14 152.221 128.867C153.294 127.794 155.296 127.993 157.042 129.226C158.818 126.843 161.102 123.488 162.601 120.918C164.638 121.733 169.688 123.199 173.599 122.548C174.549 129.336 175.879 142.425 171.969 145.357C168.882 147.673 162.289 142.183 157.847 136.428Z" fill="#F0783B"></path>
<path d="M95.9155 212.338L257.755 206.907V236.234L89.3984 312.266L95.9155 212.338Z" fill="#AD4537"></path>
<path d="M140.447 232.975L204.531 214.51L239.289 238.406L175.205 263.388L140.447 232.975Z" fill="#7EB3EC"></path>
<path d="M200.187 185.184L281.65 166.719L251.237 240.578L175.205 263.388L200.187 185.184Z" fill="#122C7F"></path>
<path d="M107.573 211.946L126.328 223.199L119.811 291.628L91.4258 281.17L95.7752 214.479L97.3157 212.29L107.573 211.946Z" fill="#122C7F"></path>
<path d="M95.916 225.372L148.052 252.526L119.812 291.628L68.7617 257.957L95.916 225.372Z" fill="#7EB3EC"></path>
<path d="M141.927 249.336L119.811 285.111L79.623 251.44L80.2558 244.164L95.9156 225.372L141.927 249.336Z" fill="#122C7F"></path>
<path d="M83.9677 196.045L156.741 219.941L119.811 279.681L79.623 246.009L83.9677 196.045Z" fill="#D8D5C8"></path>
<path d="M65.502 201.476L95.3717 215.053L100.531 207.722L126.328 223.199L119.81 291.628L68.7605 257.957L65.502 201.476Z" fill="#6F7EB1"></path>
<path d="M62.7871 128.159C64.5974 131.78 71.042 137.718 82.3382 132.504L81.252 127.616C86.5018 124.72 98.0877 117.298 101.889 114.582C102.432 116.212 104.822 119.036 110.036 117.298C115.249 115.56 115.104 111.505 114.38 109.695C115.828 109.151 118.616 107.305 118.182 104.264C117.747 101.222 115.466 99.0138 114.38 98.2897L114.252 98.1459L116.553 98.2897L123.256 104.993C124.327 106.064 126.084 105.997 127.07 104.847C127.896 103.883 127.906 102.464 127.093 101.489L120.488 93.5625C119.499 92.3758 118.193 91.5409 116.76 91.1261C115.642 90.8027 114.447 90.7346 113.263 90.9538L108.623 91.813L105.691 88.5142C108.225 86.3418 113.077 81.0196 112.208 77.1094C111.529 74.0545 109.153 76.0911 104.55 80.037C101.787 82.4045 98.2234 85.4593 93.743 88.5142C81.7951 96.6605 69.8472 106.979 66.5887 113.496C63.9819 118.71 62.9681 125.444 62.7871 128.159Z" fill="#F0783B"></path>
<path d="M81.0548 77.1881C79.6643 76.6263 78.9925 75.0437 79.5543 73.6532C80.1161 72.2627 81.6988 71.5909 83.0892 72.1527L109.824 82.9542L124.45 88.8636L131.595 91.7502C131.706 91.7953 131.81 91.8586 131.9 91.9375L136.869 96.2558C137.258 96.5947 137 97.2351 136.484 97.208L129.91 96.8632C129.79 96.8569 129.672 96.8307 129.56 96.7856L122.416 93.899L107.79 87.9896L81.0548 77.1881Z" fill="#D9D9D9"></path>
<path d="M123.63 94.3895L106.839 87.6052L111.097 86.5064C112.815 86.063 114.627 86.5244 116.183 87.3772C117.779 88.2522 119.869 89.0574 121.985 89.0574C123.45 89.0574 124.421 89.0574 125.085 89.1198L126.437 89.6661C126.611 89.9025 126.721 90.2308 126.873 90.6866C127.136 91.4771 125.993 93.2902 123.63 94.3895Z" fill="#122C7F"></path>
<path d="M113.268 84.3342L106.221 86.1528L99.1738 87.9714L105.691 93.9453L114.38 91.2299C124.156 96.1177 129.587 90.1437 129.044 88.5145C128.5 86.8852 128.5 86.8852 124.156 86.8852C122.04 86.8852 119.95 86.0801 118.354 85.205C116.798 84.3523 114.986 83.8909 113.268 84.3342Z" fill="#F0783B"></path>
<path d="M110.035 104.264C111.302 104.988 114.054 107.088 114.923 109.695" stroke="black" stroke-width="1.08617"></path>
<path d="M106.233 111.867C105.69 112.41 105.147 114.583 106.776 115.669M101.889 114.583L105.578 113.588" stroke="black" stroke-width="1.08617"></path>
<path d="M120.487 93.5626C119.498 92.3759 118.193 91.5411 116.759 91.1262C115.641 90.8029 114.446 90.7347 113.262 90.954" stroke="black" stroke-width="1.08617"></path>
<path d="M208.878 232.975L284.91 209.08L265.358 268.819L196.93 295.973L208.878 232.975Z" fill="#FFE7DE"></path>
<path d="M231.684 86.7052L244 82.5999L243.702 99.4443L237.66 96.1179L231.618 100.395L231.684 86.7052Z" fill="#6F7EB1"></path>
<path d="M61.2997 103.443C61.5046 103.96 61.459 104.566 61.0641 104.958C59.5746 106.433 57.9269 107.384 55.9045 107.936C55.3683 108.083 54.8194 107.82 54.4812 107.379C54.2455 107.072 53.9872 106.784 53.7109 106.512L60.9596 102.327C61.0447 102.708 61.156 103.081 61.2997 103.443Z" fill="#122C7F"></path>
<path d="M59.3881 100.674C59.875 100.191 59.9312 99.4436 59.6786 98.8065C58.6068 96.1031 58.9975 92.9251 59.1676 89.9652C59.2777 88.0507 58.8489 86.0836 57.8185 84.2989C55.0065 79.4285 48.7788 77.7598 43.9084 80.5717C39.0381 83.3836 37.3694 89.6113 40.1813 94.4817C41.0224 95.9385 42.1691 97.1089 43.4938 97.9586C46.199 99.6939 49.3464 101.149 51.2713 103.659C51.6883 104.203 52.3651 104.527 53.0263 104.347C55.5199 103.666 57.5516 102.493 59.3881 100.674Z" stroke="#7EB3EC" stroke-width="1.08617"></path>
<path fill-rule="evenodd" clip-rule="evenodd" d="M51.4426 104.671C51.3728 104.416 51.5234 104.152 51.7788 104.082C54.9195 103.224 57.4705 101.752 59.7836 99.4606C59.9717 99.2742 60.2753 99.2757 60.4616 99.4638C60.648 99.6519 60.6465 99.9555 60.4584 100.142C58.0279 102.549 55.3314 104.106 52.0314 105.007C51.776 105.077 51.5123 104.926 51.4426 104.671Z" fill="#122C7F"></path>
<path fill-rule="evenodd" clip-rule="evenodd" d="M51.9191 105.497C51.8494 105.241 51.9999 104.978 52.2554 104.908C55.396 104.05 57.9471 102.578 60.2602 100.287C60.4483 100.1 60.7519 100.102 60.9382 100.29C61.1245 100.478 61.1231 100.781 60.935 100.968C58.5045 103.375 55.808 104.932 52.508 105.833C52.2525 105.903 51.9889 105.752 51.9191 105.497Z" fill="#122C7F"></path>
<path fill-rule="evenodd" clip-rule="evenodd" d="M52.3967 106.324C52.3269 106.068 52.4775 105.805 52.7329 105.735C55.8736 104.877 58.4246 103.404 60.7377 101.113C60.9258 100.927 61.2294 100.928 61.4158 101.116C61.6021 101.305 61.6006 101.608 61.4125 101.794C58.982 104.202 56.2855 105.759 52.9855 106.66C52.7301 106.73 52.4664 106.579 52.3967 106.324Z" fill="#122C7F"></path>
<path fill-rule="evenodd" clip-rule="evenodd" d="M52.8732 107.151C52.8035 106.895 52.954 106.632 53.2095 106.562C56.3501 105.704 58.9012 104.231 61.2143 101.94C61.4024 101.754 61.706 101.755 61.8923 101.944C62.0787 102.132 62.0772 102.435 61.8891 102.622C59.4586 105.029 56.7621 106.586 53.4621 107.487C53.2066 107.557 52.943 107.406 52.8732 107.151Z" fill="#122C7F"></path>
<path d="M46.7429 96.9394C46.1841 95.5473 45.7427 92.1522 48.4474 89.7088C51.8282 86.6546 50.9192 95.2631 49.1805 94.7972C47.8764 94.4477 49.5923 89.7826 52.1152 89.061C54.638 88.3393 54.2126 92.3566 53.3142 92.4106C52.6039 92.4532 52.084 90.9162 55.9421 88.6887" stroke="#FFE7DE" stroke-width="1.08617"></path>
<path d="M276.303 235.377L259.565 236.958L275.667 229.958L239.725 223.281L284.909 209.08L276.303 235.377Z" fill="#122C7F"></path>
<path d="M297.219 389.432H572.189L549.017 309.104H320.39L297.219 389.432Z" fill="#122C7F"></path>
<rect x="312.666" y="143.812" width="244.075" height="154.478" fill="#122C7F"></rect>
<path d="M324.252 159.26H545.155V298.29H324.252V159.26Z" fill="#6F7EB1"></path>
<path d="M373.684 174.708H467.916L483.363 298.29H339.699V208.693L373.684 174.708Z" fill="#D9D9D9"></path>
<path d="M289.494 378.619H579.912L556.74 298.29H312.666L289.494 378.619Z" fill="#7EB3EC"></path>
<path d="M322.024 306.014L303.309 370.895H566.099L547.383 306.014H322.024Z" fill="#6F7EB1"></path>
<path d="M373.684 174.708L376.774 208.693H339.699L373.684 174.708Z" fill="#7EB3EC"></path>
<path d="M355.148 221.051H460.193" stroke="#122C7F" stroke-width="0.772388"></path>
<path d="M355.148 236.499H406.126M355.148 251.947H444.745M355.148 267.395H444.745M355.148 282.842H413.85" stroke="#7EB3EC" stroke-width="0.772388"></path>
<path d="M483.365 239.589V284.387L437.021 278.208V239.589H483.365Z" fill="#122C7F"></path>
<path d="M429.297 216.417L529.707 208.693V278.208H429.297V216.417Z" fill="#7EB3EC"></path>
<path d="M529.708 243.88V278.208H454.676L514.26 231.865L529.708 243.88Z" fill="#D9D9D9"></path>
<path d="M429.297 278.208H529.707L460.192 224.141L429.297 248.171V278.208Z" fill="#FFE7DE"></path>
<path d="M494.951 350.812V298.29H322.554L312.51 298.83L294.405 361.594L494.951 350.812Z" fill="#122C7F"></path>
<rect x="240.062" y="289.021" width="318.331" height="61.791" rx="30.8955" fill="white"></rect>
<path d="M283.621 304.23C284.823 303.483 286.408 303.961 286.995 305.249L288.338 308.194C288.496 308.541 288.709 308.86 288.967 309.14L297.791 318.697C297.943 318.862 298.156 318.955 298.38 318.955H298.551C300.097 318.955 301.496 319.988 301.823 321.554C302.551 325.033 302.551 328.385 301.823 331.864C301.496 333.43 300.097 334.463 298.551 334.463H296.123C294.555 334.463 292.995 334.682 291.487 335.113L290.213 335.479C288.849 335.869 287.436 336.066 286.018 336.066H277.574C276.098 336.066 274.902 334.87 274.901 333.394C274.901 333.191 274.924 332.995 274.966 332.807C275.041 332.47 274.892 332.121 274.596 331.943C273.816 331.475 273.297 330.623 273.297 329.65C273.297 329.156 273.43 328.694 273.663 328.298C273.773 328.111 273.803 327.886 273.745 327.677C273.687 327.468 273.547 327.29 273.356 327.187C272.523 326.732 271.96 325.849 271.96 324.837C271.96 324.237 272.156 323.685 272.489 323.239C272.641 323.036 272.688 322.773 272.615 322.529C272.542 322.286 272.359 322.091 272.12 322.005C271.09 321.632 270.356 320.646 270.355 319.49C270.355 318.014 271.553 316.816 273.029 316.816H284.759C285.035 316.816 285.293 316.674 285.439 316.439C285.586 316.205 285.601 315.911 285.479 315.662L284.091 312.819C283.475 311.559 283.06 310.209 282.861 308.82L282.538 306.555C282.407 305.634 282.831 304.722 283.621 304.23Z" fill="#1486BD" stroke="#044978" stroke-width="1.60419" stroke-linejoin="round"></path>
<path d="M328.662 308.034C329.48 306.987 330.993 306.801 332.04 307.619L345.434 318.083L344.43 310.94C344.246 309.637 345.167 308.437 346.473 308.277L346.679 308.26C347.705 308.225 348.647 308.863 348.985 309.849L350.498 314.26C350.678 314.785 350.924 315.284 351.23 315.746L351.23 315.747L352.639 317.868C353.439 319.074 353.947 320.449 354.123 321.885L354.307 323.381C354.395 324.105 354.722 324.779 355.234 325.298L355.235 325.298C356.639 326.719 357.069 328.889 356.123 330.713C355.497 331.919 354.68 333.359 353.854 334.417C353.084 335.402 351.992 336.457 351.026 337.321C349.363 338.809 346.961 338.922 345.095 337.817L345.094 337.817C344.577 337.511 343.993 337.334 343.393 337.302L341.631 337.21C340.155 337.132 338.737 336.602 337.572 335.692L324.099 325.166C323.168 324.438 323.003 323.094 323.73 322.163C324.458 321.232 325.802 321.067 326.732 321.795L334.528 327.885L323.151 318.996C322.104 318.178 321.918 316.665 322.736 315.618C323.503 314.636 324.88 314.413 325.912 315.062L326.114 315.204L324.007 313.557C322.96 312.739 322.775 311.227 323.593 310.18C324.411 309.133 325.923 308.947 326.97 309.765L338.874 319.065L329.077 311.411C328.03 310.593 327.844 309.081 328.662 308.034Z" fill="#4B992F" stroke="#104F00" stroke-width="1.60419" stroke-linejoin="round"></path>
<path d="M335.271 309.127C336.09 308.08 337.602 307.894 338.649 308.712L352.043 319.176L351.039 312.033C350.856 310.731 351.776 309.531 353.082 309.37L353.288 309.354C354.314 309.318 355.257 309.956 355.595 310.943L357.107 315.354C357.287 315.878 357.533 316.377 357.84 316.839L357.84 316.84L359.248 318.961C360.048 320.167 360.556 321.543 360.732 322.979L360.916 324.474C361.005 325.198 361.331 325.872 361.844 326.391L361.845 326.391C363.249 327.812 363.678 329.983 362.732 331.806C362.106 333.013 361.289 334.452 360.463 335.51C359.693 336.495 358.602 337.55 357.636 338.414C355.972 339.902 353.57 340.016 351.704 338.91L351.703 338.91C351.186 338.604 350.602 338.428 350.002 338.396L348.24 338.303C346.764 338.225 345.347 337.696 344.182 336.785L330.708 326.259C329.777 325.532 329.613 324.187 330.34 323.256C331.067 322.325 332.411 322.161 333.342 322.888L341.138 328.978L329.761 320.089C328.714 319.271 328.528 317.758 329.346 316.711C330.113 315.73 331.49 315.506 332.521 316.156L332.724 316.297L330.616 314.651C329.569 313.832 329.384 312.321 330.202 311.274C331.02 310.227 332.532 310.041 333.579 310.859L345.483 320.158L335.687 312.504C334.639 311.686 334.454 310.174 335.271 309.127Z" fill="#6DAF50" stroke="#104F00" stroke-width="1.60419" stroke-linejoin="round"></path>
<path d="M335.426 304.188L337.601 299.303M338.658 305.144L340.821 303.572M332.272 299.766L332.552 302.425" stroke="#104F00" stroke-width="1.60419" stroke-linecap="round" stroke-linejoin="round"></path>
<path d="M400.664 310.816C404.214 307.266 409.97 307.266 413.52 310.816C417.069 314.366 417.069 320.122 413.52 323.672L399.677 337.514C399.387 337.804 398.916 337.804 398.626 337.514L384.783 323.672C381.233 320.122 381.233 314.366 384.783 310.816C388.333 307.266 394.089 307.266 397.639 310.816L398.584 311.761C398.734 311.912 398.939 311.996 399.151 311.996C399.364 311.996 399.568 311.912 399.719 311.761L400.664 310.816Z" fill="#E1704D" stroke="#6A2A0A" stroke-width="1.60419" stroke-linejoin="round"></path>
<path d="M455.729 308.006C461.487 308.006 466.156 312.674 466.156 318.433C466.156 321.378 464.933 324.04 462.97 325.936C461.453 327.4 460.273 329.047 460.273 330.849V336.613C460.273 337.795 459.316 338.753 458.135 338.753H453.055C451.874 338.753 450.916 337.794 450.916 336.613V330.614C450.916 328.862 449.799 327.251 448.352 325.802C446.468 323.916 445.302 321.31 445.302 318.433C445.302 312.674 449.97 308.006 455.729 308.006Z" fill="#F7BB5E" stroke="#5D3903" stroke-width="1.60419" stroke-linejoin="round"></path>
<path d="M459.47 331.534C459.913 331.534 460.271 331.893 460.271 332.336V336.614C460.271 337.795 459.314 338.753 458.133 338.753H453.053C451.871 338.753 450.914 337.795 450.914 336.614V332.336C450.914 331.893 451.273 331.534 451.716 331.534H459.47Z" fill="#C27701" stroke="#5D3903" stroke-width="1.60419" stroke-linejoin="round"></path>
<path d="M455.722 299.45V304.797M466.764 302.931L463.697 307.311M444.681 302.931L447.748 307.311" stroke="#5D3903" stroke-width="1.60419" stroke-linecap="round" stroke-linejoin="round"></path>
<circle cx="512.056" cy="319.89" r="15.5072" fill="#DFB9DA"></circle>
<path d="M500.827 309.195C498.176 311.978 496.549 315.744 496.549 319.89C496.549 328.454 503.492 335.397 512.056 335.397C520.62 335.397 527.563 328.454 527.563 319.89C527.563 311.326 520.62 304.383 512.056 304.383C511.33 304.383 510.616 304.433 509.917 304.529" stroke="#573955" stroke-width="1.60419" stroke-linecap="round"></path>
<circle cx="505.106" cy="314.008" r="1.87156" fill="#573955"></circle>
<circle cx="516.333" cy="315.077" r="1.87156" fill="#573955"></circle>
<path d="M520.879 311.917C519.896 310.286 518.108 309.196 516.066 309.196C515.509 309.196 514.97 309.277 514.462 309.428" stroke="#573955" stroke-width="1.60419" stroke-linecap="round"></path>
<path d="M507.243 305.221C506.52 304.856 505.703 304.65 504.837 304.65C503.51 304.65 502.296 305.134 501.361 305.934" stroke="#573955" stroke-width="1.60419" stroke-linecap="round"></path>
<path d="M508.849 320.157H512.324" stroke="#573955" stroke-width="1.60419" stroke-linecap="round" stroke-linejoin="round"></path>
<path d="M502.178 323.001C502.495 322.216 503.33 321.771 504.158 321.946C505.01 322.126 505.6 322.905 505.541 323.774L505.241 328.178L514.066 326.738C515.299 326.537 516.408 327.51 516.369 328.758C516.34 329.678 515.682 330.457 514.779 330.639L512.828 331.033C512.881 331.175 512.922 331.324 512.946 331.479C513.095 332.417 512.646 333.31 511.883 333.775C511.958 333.948 512.014 334.134 512.045 334.329C512.191 335.25 511.76 336.128 511.021 336.599C511.054 336.701 511.083 336.806 511.101 336.915C511.274 338.009 510.527 339.035 509.434 339.209L506.756 339.634C506.468 339.679 506.176 339.698 505.885 339.689V339.688C504.744 339.656 503.284 339.488 502.13 339.332C501.549 339.253 501.037 339.177 500.67 339.12C500.487 339.091 500.339 339.067 500.237 339.051C500.186 339.042 500.146 339.035 500.119 339.031C500.106 339.029 500.096 339.027 500.089 339.026C500.085 339.026 500.082 339.025 500.08 339.025L500.078 339.024C499.902 338.994 499.74 338.906 499.619 338.774L500.211 338.233C499.664 338.732 499.622 338.771 499.618 338.773L499.617 338.772L499.615 338.771C499.614 338.77 499.613 338.768 499.611 338.766C499.608 338.763 499.605 338.759 499.602 338.755C499.594 338.746 499.584 338.736 499.573 338.722C499.551 338.696 499.522 338.66 499.488 338.615C499.42 338.525 499.33 338.399 499.228 338.232C499.022 337.898 498.767 337.407 498.532 336.74C498.061 335.404 497.68 333.384 497.936 330.546L497.959 330.408C498.042 330.098 498.306 329.862 498.634 329.821C499.145 329.757 499.581 329.421 499.774 328.944L502.178 323.001Z" fill="#DFB9DC" stroke="#573955" stroke-width="1.60419" stroke-linejoin="round"></path>
<path d="M239.289 223.2L261.375 191.701L281.699 207.234L283.098 191.701L303.011 223.2L259.564 236.958L275.666 220.303L239.289 223.2Z" fill="#F0783B"></path>
</svg>