<?xml version="1.0" encoding="UTF-8"?> <svg xmlns="http://www.w3.org/2000/svg" width="517" height="517" viewBox="0 0 517 517" fill="none"><g clip-path="url(#clip0_3195_7579)"><path d="M258.502 516.728C401.117 516.728 516.73 401.116 516.73 258.5C516.73 115.885 401.117 0.271851 258.502 0.271851C115.886 0.271851 0.273438 115.885 0.273438 258.5C0.273438 401.116 115.886 516.728 258.502 516.728Z" stroke="#DD6052" stroke-width="1.175"></path><path d="M258.502 456.384C367.79 456.384 456.386 367.788 456.386 258.5C456.386 149.211 367.79 60.6156 258.502 60.6156C149.213 60.6156 60.6172 149.211 60.6172 258.5C60.6172 367.788 149.213 456.384 258.502 456.384Z" stroke="#DDD8CB" stroke-width="1.175"></path><path d="M73.8613 390.224C47.3234 353.092 31.707 307.62 31.707 258.5C31.707 166.662 86.295 87.5732 164.794 51.9105M352.794 52.179C430.977 87.9691 485.292 166.891 485.292 258.5C485.292 307.419 469.803 352.72 443.462 389.768" stroke="#6F7EB1" stroke-width="1.175"></path><path d="M296.729 105.515C312.037 109.326 326.46 115.376 339.627 123.297L360.753 113.196L403.809 156.247L393.708 177.373C401.629 190.545 407.68 204.963 411.491 220.271L433.557 228.062V288.949L411.491 296.734C407.68 312.043 401.629 326.466 393.708 339.633L403.809 360.753L360.753 403.809L339.627 393.708C326.46 401.629 312.037 407.68 296.729 411.491L288.944 433.557H228.056L220.266 411.491C204.957 407.68 190.534 401.629 177.367 393.708L156.242 403.809L113.185 360.753L123.286 339.627C115.365 326.46 109.315 312.038 105.504 296.729L83.4375 288.944V228.056L105.504 220.266C109.315 204.957 115.365 190.54 123.286 177.367L113.185 156.242L156.242 113.191L177.367 123.292C190.54 115.371 204.957 109.32 220.266 105.509L228.056 83.4431H288.944L296.729 105.509V105.515Z" fill="#246FC9"></path><path d="M258.498 401.448C337.446 401.448 401.446 337.448 401.446 258.5C401.446 179.552 337.446 115.552 258.498 115.552C179.551 115.552 115.551 179.552 115.551 258.5C115.551 337.448 179.551 401.448 258.498 401.448Z" fill="#DDD8CB"></path><path fill-rule="evenodd" clip-rule="evenodd" d="M258.5 122.047C333.861 122.047 394.953 183.139 394.953 258.5C394.953 333.861 333.861 394.953 258.5 394.953C183.139 394.953 122.047 333.861 122.047 258.5C122.047 183.139 183.139 122.047 258.5 122.047ZM258.498 172.062C210.76 172.062 172.06 210.761 172.06 258.5C172.06 306.239 210.76 344.938 258.498 344.938C306.237 344.938 344.937 306.239 344.937 258.5C344.937 210.761 306.237 172.062 258.498 172.062Z" fill="#122C7F"></path><path d="M258.499 349.26C308.624 349.26 349.259 308.626 349.259 258.5C349.259 208.374 308.624 167.74 258.499 167.74C208.373 167.74 167.738 208.374 167.738 258.5C167.738 308.626 208.373 349.26 258.499 349.26Z" fill="#246FC9"></path><path d="M258.501 337.915C302.361 337.915 337.917 302.36 337.917 258.5C337.917 214.64 302.361 179.085 258.501 179.085C214.641 179.085 179.086 214.64 179.086 258.5C179.086 302.36 214.641 337.915 258.501 337.915Z" fill="#122C7F"></path><path d="M258.501 322.032C293.589 322.032 322.033 293.588 322.033 258.5C322.033 223.412 293.589 194.968 258.501 194.968C223.413 194.968 194.969 223.412 194.969 258.5C194.969 293.588 223.413 322.032 258.501 322.032Z" fill="#DD6052"></path><path d="M28.3108 406.79C43.323 406.79 55.4927 394.62 55.4927 379.608C55.4927 364.596 43.323 352.426 28.3108 352.426C13.2987 352.426 1.12891 364.596 1.12891 379.608C1.12891 394.62 13.2987 406.79 28.3108 406.79Z" fill="#DD6052"></path><path fill-rule="evenodd" clip-rule="evenodd" d="M33.3159 373.682C31.9677 372.399 30.1683 371.698 28.309 371.725C24.9059 371.725 22.0137 374.019 20.9862 377.112C20.4372 378.732 20.4372 380.488 20.9862 382.108C22.0246 385.196 24.9059 387.491 28.3145 387.491C30.0704 387.491 31.5817 387.039 32.7506 386.246C34.126 385.332 35.0665 383.897 35.36 382.277H28.3145V377.254H40.6224C40.7747 378.124 40.8453 379.015 40.8453 379.907C40.8453 383.875 39.4264 387.23 36.9583 389.502C34.7946 391.497 31.8264 392.655 28.309 392.655C23.3782 392.655 18.866 389.877 16.648 385.468C14.7996 381.782 14.7996 377.439 16.648 373.753C18.8606 369.344 23.3728 366.56 28.309 366.56C31.5491 366.522 34.6805 367.74 37.0399 369.953L33.3159 373.677V373.682Z" fill="white"></path><path d="M488.69 406.79C503.702 406.79 515.872 394.62 515.872 379.608C515.872 364.596 503.702 352.426 488.69 352.426C473.678 352.426 461.508 364.596 461.508 379.608C461.508 394.62 473.678 406.79 488.69 406.79Z" fill="#DD6052"></path><path d="M495.568 368.632H499.237L491.224 377.792L500.651 390.252H493.268L487.489 382.696L480.873 390.252H477.203L485.777 380.456L476.73 368.632H484.298L489.522 375.541L495.568 368.632ZM494.279 388.056H496.312L483.194 370.708H481.014L494.285 388.056H494.279Z" fill="white"></path><path d="M488.69 164.574C503.702 164.574 515.872 152.404 515.872 137.392C515.872 122.38 503.702 110.21 488.69 110.21C473.678 110.21 461.508 122.38 461.508 137.392C461.508 152.404 473.678 164.574 488.69 164.574Z" fill="#DD6052"></path><path d="M492.478 127.732C492.804 129.102 494.032 130.124 495.5 130.124C497.218 130.124 498.604 128.732 498.604 127.02C498.604 125.307 497.213 123.915 495.5 123.915C494 123.915 492.749 124.981 492.461 126.394C489.95 126.666 487.987 128.792 487.987 131.374V131.39C485.253 131.505 482.763 132.282 480.779 133.511C480.045 132.94 479.12 132.603 478.12 132.603C475.717 132.603 473.766 134.549 473.766 136.957C473.766 138.702 474.793 140.203 476.272 140.899C476.419 145.949 481.92 150.015 488.694 150.015C495.468 150.015 500.98 145.949 501.116 140.893C502.584 140.192 503.6 138.697 503.6 136.963C503.6 134.56 501.654 132.608 499.246 132.608C498.246 132.608 497.327 132.945 496.598 133.511C494.603 132.277 492.081 131.499 489.319 131.396V131.385C489.319 129.537 490.695 128.004 492.478 127.748V127.732ZM480.61 139.708C480.681 138.132 481.73 136.919 482.948 136.919C484.165 136.919 485.1 138.197 485.024 139.779C484.948 141.361 484.04 141.932 482.823 141.932C481.605 141.932 480.534 141.29 480.61 139.714V139.708ZM494.451 136.919C495.669 136.919 496.718 138.132 496.789 139.708C496.859 141.285 495.794 141.926 494.576 141.926C493.358 141.926 492.445 141.355 492.374 139.773C492.304 138.197 493.233 136.914 494.451 136.914V136.919ZM493 143.361C493.228 143.383 493.375 143.622 493.282 143.834C492.532 145.628 490.76 146.884 488.694 146.884C486.628 146.884 484.861 145.623 484.106 143.834C484.019 143.622 484.16 143.383 484.394 143.361C485.731 143.225 487.183 143.149 488.694 143.149C490.205 143.149 491.651 143.225 492.994 143.361H493Z" fill="white"></path><path d="M28.3108 164.574C43.323 164.574 55.4927 152.404 55.4927 137.392C55.4927 122.38 43.323 110.21 28.3108 110.21C13.2987 110.21 1.12891 122.38 1.12891 137.392C1.12891 152.404 13.2987 164.574 28.3108 164.574Z" fill="#DD6052"></path><path d="M39.4288 124.345H17.194C16.1285 124.345 15.2695 125.187 15.2695 126.226V148.553C15.2695 149.591 16.1285 150.439 17.194 150.439H39.4288C40.4943 150.439 41.3587 149.591 41.3587 148.558V126.226C41.3587 125.187 40.4943 124.345 39.4288 124.345ZM23.0055 146.58H19.1348V134.125H23.0055V146.58ZM21.0702 132.429C19.8252 132.429 18.8249 131.423 18.8249 130.189C18.8249 128.955 19.8307 127.949 21.0702 127.949C22.3096 127.949 23.3099 128.955 23.3099 130.189C23.3099 131.423 22.3042 132.429 21.0702 132.429ZM37.4989 146.58H33.6282V140.524C33.6282 139.083 33.601 137.218 31.6167 137.218C29.6325 137.218 29.3008 138.795 29.3008 140.42V146.58H25.4356V134.125H29.1432V135.826H29.1921C29.7086 134.848 30.9698 133.815 32.8508 133.815C36.7704 133.815 37.4935 136.392 37.4935 139.746V146.58H37.4989Z" fill="white"></path><path d="M323.219 477.238L316.643 475.573L318.489 482.101L323.219 477.238ZM236.922 485.545L236.867 486.13C243.985 486.8 251.201 487.144 258.499 487.144V486.556V485.969C251.238 485.969 244.059 485.627 236.977 484.96L236.922 485.545ZM258.499 486.556V487.144C279.186 487.144 299.227 484.394 318.284 479.244L318.131 478.677L317.977 478.11C299.019 483.233 279.082 485.969 258.499 485.969V486.556Z" fill="#DD6052"></path><path d="M202.776 355.012L203.07 354.503L203.069 354.503L202.776 355.012ZM219.971 363.085L215.76 357.766L213.259 364.072L219.971 363.085ZM172.832 329.825L172.381 330.201C180.611 340.088 190.695 348.717 202.482 355.521L202.776 355.012L203.069 354.503C191.404 347.77 181.427 339.231 173.284 329.449L172.832 329.825ZM202.776 355.012L202.482 355.521C206.519 357.854 210.642 359.902 214.826 361.677L215.056 361.136L215.285 360.595C211.144 358.839 207.065 356.812 203.07 354.503L202.776 355.012Z" fill="#DD6052"></path><path d="M219.971 153.915C214.116 156.079 208.364 158.759 202.776 161.988C191.049 168.762 181.019 177.34 172.832 187.175M297.025 153.915C302.88 156.079 308.631 158.759 314.22 161.988C325.946 168.762 335.976 177.34 344.164 187.175" stroke="#DD6052" stroke-width="1.175"></path><path d="M297.027 363.085L303.739 364.072L301.238 357.766L297.027 363.085ZM314.223 355.012L313.929 354.503L313.929 354.503L314.223 355.012ZM301.942 361.136L302.172 361.677C306.357 359.902 310.479 357.854 314.517 355.521L314.223 355.012L313.929 354.503C309.933 356.812 305.854 358.839 301.713 360.595L301.942 361.136ZM314.223 355.012L314.516 355.521C326.304 348.712 336.387 340.088 344.618 330.201L344.166 329.825L343.715 329.449C335.571 339.231 325.594 347.765 313.929 354.503L314.223 355.012Z" fill="#DD6052"></path><path d="M185.347 39.6801C185.032 39.4899 184.69 39.3757 184.32 39.3431C183.95 39.3105 183.553 39.3703 183.129 39.5171C182.705 39.6638 182.346 39.8813 182.042 40.1694C181.738 40.4575 181.509 40.7946 181.346 41.1752C181.183 41.5611 181.102 41.9797 181.091 42.431C181.08 42.8876 181.161 43.3497 181.324 43.8172C181.493 44.2956 181.716 44.7088 182.004 45.0567C182.292 45.4047 182.613 45.6765 182.977 45.8776C183.341 46.0788 183.722 46.2038 184.13 46.2419C184.537 46.2799 184.94 46.231 185.342 46.0951C185.804 45.9374 186.174 45.6982 186.462 45.3829C186.75 45.0676 186.946 44.6979 187.06 44.2739L189.414 45.0187C189.191 45.7743 188.805 46.4104 188.24 46.9268C187.68 47.4433 187.049 47.8238 186.348 48.0685C185.554 48.3457 184.777 48.4762 184.015 48.4599C183.254 48.4436 182.553 48.2914 181.901 47.9978C181.248 47.7043 180.672 47.2748 180.172 46.704C179.666 46.1386 179.275 45.4481 178.992 44.6327C178.71 43.8172 178.59 43.0344 178.628 42.2787C178.671 41.5231 178.856 40.8272 179.182 40.1912C179.509 39.5551 179.965 38.9952 180.547 38.5168C181.129 38.0329 181.819 37.6524 182.618 37.3751C182.906 37.2773 183.216 37.1957 183.542 37.1414C183.869 37.087 184.206 37.0598 184.548 37.0707C184.891 37.0816 185.233 37.1305 185.576 37.2283C185.918 37.3262 186.25 37.473 186.571 37.6741L185.336 39.6856L185.347 39.6801Z" fill="#DDD8CB"></path><path d="M190.305 40.7348C190.072 39.903 189.995 39.1148 190.082 38.3591C190.169 37.6089 190.392 36.9239 190.757 36.3096C191.121 35.6953 191.605 35.1625 192.219 34.7167C192.828 34.2655 193.54 33.9285 194.35 33.7001C195.16 33.4718 195.943 33.3848 196.699 33.4446C197.454 33.5044 198.15 33.7001 198.781 34.0318C199.411 34.3634 199.966 34.8255 200.433 35.418C200.901 36.0106 201.254 36.7228 201.493 37.5545C201.733 38.3863 201.803 39.1746 201.716 39.9302C201.629 40.6804 201.406 41.3654 201.042 41.9797C200.678 42.5941 200.194 43.1268 199.58 43.5726C198.971 44.0184 198.259 44.3609 197.449 44.5892C196.639 44.8175 195.856 44.9045 195.1 44.8447C194.345 44.7849 193.649 44.5892 193.018 44.2576C192.388 43.926 191.833 43.4639 191.365 42.8713C190.893 42.2787 190.545 41.5666 190.305 40.7348ZM192.676 40.0607C192.817 40.55 193.018 40.974 193.285 41.3328C193.551 41.6971 193.866 41.9852 194.236 42.2026C194.606 42.4201 195.008 42.556 195.454 42.6104C195.894 42.6647 196.362 42.6212 196.851 42.4799C197.34 42.3385 197.759 42.132 198.107 41.8547C198.455 41.5774 198.726 41.2458 198.927 40.8707C199.123 40.4902 199.243 40.077 199.281 39.6312C199.319 39.1854 199.265 38.7125 199.123 38.2286C198.987 37.7502 198.786 37.3262 198.514 36.962C198.242 36.5977 197.927 36.3042 197.563 36.0867C197.199 35.8692 196.791 35.7333 196.345 35.679C195.905 35.6246 195.437 35.6681 194.948 35.8095C194.459 35.9508 194.04 36.1574 193.692 36.4346C193.344 36.7119 193.072 37.0435 192.871 37.4186C192.676 37.7992 192.556 38.2123 192.523 38.6636C192.491 39.1148 192.54 39.5823 192.676 40.0607Z" fill="#DDD8CB"></path><path d="M203.379 31.5419L206.533 30.8515L212.61 37.1903H212.638L211.039 29.8675L213.361 29.3619L215.666 39.8922L212.632 40.5554L206.397 34.0644H206.369L208.011 41.5666L205.69 42.0722L203.385 31.5419H203.379Z" fill="#DDD8CB"></path><path d="M219.705 30.3893L216.671 30.8841L216.334 28.8128L224.744 27.4374L225.082 29.5087L222.048 30.0034L223.451 38.5657L221.108 38.9516L219.705 30.3893Z" fill="#DDD8CB"></path><path d="M227.784 27.0297L235.058 26.187L235.308 28.3616L230.393 28.9324L230.622 30.9276L235.264 30.3894L235.515 32.5639L230.872 33.1021L231.122 35.2767L236.308 34.6787L236.558 36.8532L229.013 37.7285L227.773 27.0242L227.784 27.0297Z" fill="#DDD8CB"></path><path d="M239.043 25.8011L242.261 25.6054L247.29 32.8031H247.323L246.871 25.3281L249.242 25.1868L249.894 35.9454L246.795 36.1356L241.636 28.7639H241.604L242.066 36.4238L239.695 36.5651L239.043 25.8065V25.8011Z" fill="#DDD8CB"></path><path d="M255.303 27.1819L252.226 27.2308L252.193 25.1324L260.718 24.9965L260.75 27.0949L257.673 27.1438L257.815 35.8203L255.439 35.8584L255.297 27.1819H255.303Z" fill="#DDD8CB"></path><path d="M269.991 25.3063L277.298 25.7739L277.157 27.9593L272.22 27.644L272.09 29.65L276.754 29.949L276.613 32.1344L271.949 31.8354L271.807 34.0209L277.015 34.3525L276.874 36.5379L269.296 36.0541L269.981 25.3009L269.991 25.3063Z" fill="#DDD8CB"></path><path d="M281.278 26.0946L284.48 26.4752L288.144 34.4503H288.177L289.063 27.0188L291.422 27.3015L290.15 38.0057L287.068 37.6415L283.3 29.4652H283.273L282.365 37.0815L280.006 36.7989L281.278 26.0946Z" fill="#DDD8CB"></path><path d="M303.241 39.4953C302.485 39.7291 301.719 39.8595 300.941 39.8867C300.164 39.9085 299.387 39.8541 298.609 39.7127C297.777 39.566 297.038 39.2941 296.386 38.9082C295.733 38.5222 295.195 38.0438 294.776 37.4675C294.352 36.8913 294.064 36.2335 293.901 35.4941C293.744 34.7548 293.738 33.9611 293.89 33.113C294.043 32.2649 294.325 31.5201 294.733 30.8841C295.141 30.248 295.646 29.7315 296.239 29.3401C296.837 28.9487 297.506 28.6823 298.25 28.5519C298.995 28.4214 299.783 28.4268 300.61 28.5736C301.458 28.7258 302.219 28.9705 302.898 29.3021C303.578 29.6337 304.138 30.1012 304.589 30.6992L302.616 32.1997C302.355 31.8137 302.039 31.4984 301.67 31.2537C301.3 31.0091 300.816 30.8351 300.218 30.7318C299.718 30.6394 299.251 30.6449 298.816 30.7427C298.381 30.8406 297.989 31.0145 297.647 31.2646C297.304 31.5147 297.016 31.8409 296.782 32.2323C296.554 32.6237 296.391 33.064 296.304 33.5533C296.212 34.0535 296.212 34.521 296.288 34.9668C296.369 35.4071 296.527 35.8094 296.761 36.1682C296.995 36.527 297.299 36.826 297.674 37.0652C298.049 37.3044 298.484 37.473 298.984 37.5654C299.495 37.6578 299.941 37.6795 300.332 37.6306C300.724 37.5817 301.039 37.5164 301.278 37.4403L301.588 35.717L299.686 35.3745L300.077 33.2163L304.225 33.9665L303.225 39.5116L303.241 39.4953Z" fill="#DDD8CB"></path><path d="M308.732 30.4709L311.048 30.9928L308.688 41.5068L306.372 40.9849L308.737 30.4709H308.732Z" fill="#DDD8CB"></path><path d="M314.874 31.8518L317.989 32.6944L320.452 41.1208H320.479L322.442 33.9013L324.736 34.521L321.914 44.9208L318.919 44.1054L316.391 35.467H316.364L314.352 42.8659L312.058 42.2461L314.88 31.8463L314.874 31.8518Z" fill="#DDD8CB"></path><path d="M328.651 35.7496L335.598 38.0547L334.908 40.1368L330.211 38.5766L329.58 40.4847L334.016 41.958L333.326 44.0401L328.89 42.5669L328.2 44.649L333.158 46.2962L332.467 48.3784L325.258 45.9863L328.651 35.7605V35.7496Z" fill="#DDD8CB"></path><path d="M245.578 145.01C245.355 144.793 245.072 144.651 244.73 144.575C244.387 144.504 244.072 144.483 243.778 144.526C243.61 144.548 243.436 144.591 243.256 144.657C243.082 144.722 242.919 144.803 242.767 144.912C242.615 145.021 242.501 145.151 242.419 145.304C242.338 145.456 242.31 145.635 242.338 145.836C242.381 146.157 242.533 146.391 242.794 146.527C243.061 146.668 243.381 146.771 243.767 146.842C244.148 146.913 244.561 146.983 245.001 147.049C245.442 147.114 245.855 147.234 246.252 147.407C246.649 147.581 246.991 147.837 247.279 148.179C247.567 148.517 247.758 149 247.839 149.626C247.915 150.218 247.872 150.751 247.709 151.224C247.546 151.697 247.296 152.105 246.953 152.442C246.616 152.784 246.203 153.056 245.724 153.262C245.246 153.469 244.73 153.61 244.175 153.681C243.479 153.774 242.821 153.752 242.202 153.616C241.582 153.485 240.984 153.214 240.408 152.806L241.843 150.745C242.126 151.034 242.463 151.246 242.854 151.371C243.245 151.501 243.637 151.539 244.028 151.485C244.219 151.458 244.409 151.414 244.599 151.338C244.789 151.267 244.958 151.175 245.099 151.066C245.241 150.957 245.355 150.822 245.431 150.669C245.507 150.517 245.534 150.343 245.507 150.153C245.464 149.832 245.306 149.593 245.034 149.441C244.762 149.288 244.431 149.169 244.045 149.087C243.653 149.006 243.235 148.93 242.783 148.854C242.332 148.783 241.908 148.658 241.506 148.484C241.104 148.31 240.756 148.06 240.462 147.734C240.168 147.402 239.984 146.94 239.902 146.347C239.826 145.771 239.875 145.255 240.043 144.793C240.212 144.331 240.467 143.928 240.805 143.586C241.142 143.243 241.549 142.966 242.022 142.759C242.495 142.547 242.995 142.411 243.517 142.341C244.121 142.265 244.719 142.27 245.3 142.368C245.888 142.466 246.431 142.683 246.937 143.026L245.556 145.005L245.578 145.01Z" fill="#DDD8CB"></path><path d="M250.758 141.868L258.075 141.612L258.151 143.803L253.21 143.977L253.28 145.983L257.95 145.82L258.026 148.011L253.357 148.174L253.433 150.365L258.652 150.18L258.728 152.371L251.139 152.637L250.758 141.868Z" fill="#DDD8CB"></path><path d="M261.386 146.94C261.451 146.081 261.658 145.309 262 144.635C262.343 143.961 262.794 143.395 263.343 142.944C263.898 142.493 264.539 142.167 265.268 141.955C265.996 141.748 266.779 141.678 267.621 141.743C268.459 141.808 269.225 141.998 269.91 142.319C270.595 142.64 271.182 143.064 271.655 143.591C272.134 144.124 272.492 144.749 272.726 145.467C272.96 146.184 273.042 146.978 272.976 147.837C272.911 148.696 272.704 149.462 272.362 150.142C272.02 150.816 271.568 151.381 271.019 151.833C270.465 152.284 269.823 152.61 269.095 152.822C268.366 153.029 267.583 153.099 266.741 153.034C265.904 152.969 265.137 152.779 264.452 152.458C263.762 152.143 263.18 151.713 262.702 151.186C262.223 150.658 261.87 150.028 261.636 149.31C261.402 148.587 261.321 147.799 261.386 146.94ZM263.843 147.13C263.805 147.636 263.843 148.103 263.968 148.538C264.093 148.968 264.289 149.354 264.561 149.685C264.833 150.017 265.164 150.283 265.561 150.49C265.958 150.691 266.409 150.816 266.915 150.854C267.42 150.892 267.888 150.843 268.306 150.702C268.731 150.561 269.1 150.349 269.415 150.066C269.731 149.783 269.986 149.435 270.177 149.028C270.367 148.62 270.481 148.163 270.519 147.658C270.557 147.163 270.519 146.695 270.394 146.26C270.269 145.826 270.073 145.44 269.801 145.108C269.53 144.776 269.198 144.51 268.801 144.303C268.404 144.097 267.953 143.977 267.448 143.939C266.942 143.901 266.474 143.95 266.056 144.091C265.632 144.233 265.262 144.445 264.947 144.727C264.631 145.015 264.376 145.363 264.186 145.777C263.995 146.19 263.881 146.641 263.843 147.141V147.13Z" fill="#DDD8CB"></path><path d="M235.199 362.02L237.531 362.476L235.884 370.903L240.2 371.745L239.782 373.898L233.133 372.599L235.204 362.02H235.199Z" fill="#DDD8CB"></path><path d="M244.245 363.661L251.53 364.395L251.312 366.575L246.392 366.081L246.191 368.081L250.839 368.549L250.622 370.729L245.974 370.261L245.756 372.441L250.954 372.963L250.736 375.143L243.18 374.382L244.256 363.656L244.245 363.661Z" fill="#DDD8CB"></path><path d="M258.2 364.564L260.163 364.553L264.919 375.301L262.239 375.317L261.293 373.039L257.107 373.066L256.221 375.355L253.606 375.371L258.195 364.564H258.2ZM259.13 367.69L257.841 371.05L260.472 371.033L259.13 367.695V367.69Z" fill="#DDD8CB"></path><path d="M266.833 364.336L270.367 363.901C271.226 363.797 272.047 363.792 272.841 363.89C273.634 363.988 274.346 364.216 274.972 364.575C275.597 364.934 276.124 365.434 276.543 366.075C276.961 366.717 277.233 367.527 277.353 368.505C277.456 369.37 277.391 370.152 277.141 370.854C276.891 371.555 276.521 372.164 276.021 372.68C275.521 373.197 274.923 373.615 274.227 373.936C273.531 374.257 272.781 374.464 271.987 374.561L268.133 375.034L266.822 364.336H266.833ZM270.231 372.566L271.454 372.414C271.998 372.349 272.498 372.229 272.949 372.061C273.406 371.892 273.786 371.658 274.096 371.359C274.406 371.06 274.635 370.691 274.781 370.25C274.928 369.81 274.961 369.283 274.89 368.679C274.825 368.157 274.673 367.712 274.428 367.347C274.183 366.983 273.879 366.695 273.515 366.483C273.15 366.271 272.737 366.13 272.275 366.059C271.813 365.988 271.335 365.983 270.84 366.043L269.448 366.211L270.226 372.555L270.231 372.566Z" fill="#DDD8CB"></path><path d="M285.007 363.944C284.762 363.748 284.469 363.634 284.121 363.596C283.773 363.558 283.458 363.569 283.169 363.634C283.001 363.672 282.832 363.732 282.664 363.814C282.495 363.895 282.343 363.993 282.202 364.113C282.06 364.232 281.957 364.374 281.892 364.537C281.827 364.7 281.816 364.879 281.859 365.075C281.93 365.39 282.109 365.608 282.381 365.722C282.658 365.836 282.99 365.912 283.376 365.945C283.762 365.983 284.181 366.01 284.621 366.032C285.061 366.053 285.491 366.135 285.898 366.265C286.312 366.401 286.676 366.624 286.997 366.934C287.317 367.244 287.551 367.706 287.692 368.32C287.828 368.902 287.834 369.44 287.72 369.924C287.606 370.408 287.394 370.837 287.089 371.213C286.785 371.588 286.404 371.898 285.947 372.148C285.491 372.398 284.991 372.588 284.447 372.713C283.767 372.871 283.11 372.914 282.479 372.838C281.848 372.762 281.229 372.555 280.614 372.202L281.843 370.011C282.153 370.272 282.506 370.452 282.908 370.538C283.311 370.631 283.702 370.631 284.088 370.538C284.273 370.495 284.463 370.43 284.643 370.337C284.828 370.25 284.985 370.142 285.116 370.017C285.246 369.892 285.344 369.75 285.409 369.587C285.474 369.429 285.48 369.25 285.436 369.065C285.366 368.75 285.186 368.527 284.898 368.402C284.61 368.277 284.273 368.19 283.876 368.146C283.479 368.103 283.055 368.065 282.599 368.032C282.142 368 281.707 367.918 281.294 367.788C280.875 367.652 280.506 367.44 280.185 367.135C279.859 366.836 279.63 366.396 279.494 365.809C279.364 365.243 279.364 364.727 279.484 364.249C279.609 363.77 279.821 363.346 280.13 362.976C280.435 362.601 280.815 362.291 281.267 362.036C281.718 361.78 282.202 361.596 282.718 361.476C283.311 361.34 283.903 361.291 284.496 361.329C285.088 361.373 285.654 361.536 286.187 361.829L285.001 363.933L285.007 363.944Z" fill="#DDD8CB"></path><path d="M357.056 195.607L360.807 201.896L358.926 203.022L356.393 198.776L354.669 199.803L357.061 203.816L355.18 204.935L352.788 200.923L350.907 202.049L353.582 206.534L351.701 207.659L347.809 201.135L357.067 195.612L357.056 195.607Z" fill="#DDD8CB"></path><path d="M362.873 205.675L364.205 208.616L359.269 215.873L359.28 215.901L366.102 212.813L367.081 214.976L357.263 219.418L355.985 216.591L361.036 209.143L361.025 209.116L354.033 212.28L353.055 210.116L362.873 205.675Z" fill="#DDD8CB"></path><path d="M361.955 231.383C361.395 230.823 360.927 230.204 360.547 229.524C360.166 228.845 359.856 228.127 359.622 227.371C359.372 226.567 359.269 225.784 359.307 225.028C359.35 224.273 359.524 223.571 359.845 222.935C360.161 222.294 360.612 221.734 361.193 221.25C361.775 220.766 362.482 220.396 363.303 220.141C364.124 219.885 364.917 219.793 365.668 219.858C366.423 219.929 367.114 220.136 367.733 220.483C368.359 220.831 368.902 221.304 369.364 221.908C369.826 222.506 370.185 223.207 370.435 224.012C370.691 224.838 370.827 225.626 370.843 226.382C370.859 227.138 370.707 227.85 370.386 228.524L368.147 227.469C368.369 227.061 368.505 226.637 368.549 226.197C368.592 225.757 368.527 225.246 368.342 224.669C368.19 224.186 367.973 223.772 367.684 223.43C367.396 223.087 367.065 222.821 366.679 222.636C366.293 222.446 365.88 222.343 365.423 222.316C364.972 222.294 364.504 222.354 364.031 222.5C363.547 222.653 363.123 222.865 362.77 223.142C362.417 223.419 362.134 223.74 361.927 224.115C361.721 224.49 361.596 224.898 361.552 225.338C361.509 225.784 361.563 226.246 361.715 226.73C361.868 227.225 362.058 227.632 362.281 227.958C362.504 228.285 362.705 228.535 362.89 228.709L364.564 228.187L363.988 226.338L366.081 225.686L367.331 229.714L361.955 231.389V231.383Z" fill="#DDD8CB"></path><path d="M373.17 236.032L373.529 237.961L363.792 244.545L363.303 241.914L365.38 240.582L364.613 236.466L362.205 236.004L361.727 233.433L373.176 236.037L373.17 236.032ZM370.256 237.505L366.723 236.831L367.206 239.418L370.256 237.505Z" fill="#DDD8CB"></path><path d="M365.406 256.195C364.993 255.521 364.683 254.809 364.471 254.059C364.259 253.308 364.123 252.542 364.074 251.754C364.02 250.911 364.096 250.128 364.313 249.405C364.531 248.677 364.862 248.04 365.319 247.491C365.776 246.942 366.341 246.502 367.021 246.165C367.7 245.828 368.472 245.632 369.331 245.572C370.19 245.513 370.978 245.605 371.701 245.85C372.419 246.089 373.039 246.453 373.566 246.937C374.093 247.421 374.512 248.008 374.822 248.698C375.132 249.389 375.317 250.155 375.376 250.998C375.436 251.857 375.382 252.656 375.224 253.395C375.066 254.135 374.751 254.792 374.284 255.374L372.348 253.825C372.664 253.477 372.892 253.096 373.033 252.678C373.18 252.259 373.229 251.748 373.191 251.139C373.158 250.634 373.039 250.182 372.838 249.78C372.636 249.383 372.375 249.046 372.044 248.774C371.718 248.503 371.332 248.301 370.897 248.171C370.462 248.04 369.994 247.997 369.5 248.03C368.994 248.062 368.537 248.171 368.124 248.361C367.716 248.546 367.363 248.796 367.075 249.111C366.787 249.427 366.569 249.791 366.423 250.215C366.276 250.639 366.221 251.101 366.254 251.607C366.287 252.123 366.379 252.564 366.52 252.933C366.662 253.297 366.803 253.591 366.939 253.803L368.684 253.683L368.554 251.754L370.739 251.607L371.022 255.815L365.401 256.195H365.406Z" fill="#DDD8CB"></path><path d="M375.382 259.821L375.078 267.139L372.887 267.046L373.093 262.104L371.087 262.023L370.892 266.693L368.701 266.6L368.896 261.93L366.705 261.838L366.488 267.057L364.297 266.965L364.618 259.375L375.387 259.827L375.382 259.821Z" fill="#DDD8CB"></path><path d="M374.773 271.482L374.191 275.027L366.852 276.337V276.369L373.381 279.968L372.805 283.497L362.171 281.752L362.557 279.408L370.712 280.746V280.713L363.02 276.581L363.313 274.793L371.908 273.439V273.412L363.759 272.075L364.145 269.732L374.778 271.477L374.773 271.482Z" fill="#DDD8CB"></path><path d="M371.67 287.829L369.62 294.859L367.516 294.244L368.902 289.493L366.973 288.927L365.662 293.413L363.558 292.798L364.869 288.313L362.765 287.699L361.302 292.711L359.198 292.097L361.324 284.807L371.67 287.824V287.829Z" fill="#DDD8CB"></path><path d="M368.26 298.941L367.015 301.92L358.339 303.258L358.328 303.285L365.238 306.177L364.319 308.368L354.376 304.209L355.577 301.344L364.471 299.969L364.482 299.942L357.404 296.979L358.323 294.788L368.266 298.947L368.26 298.941Z" fill="#DDD8CB"></path><path d="M359.497 313.016L360.986 310.325L362.824 311.342L358.692 318.8L356.855 317.784L358.344 315.093L350.755 310.891L351.908 308.814L359.497 313.016Z" fill="#DDD8CB"></path><path d="M159.584 320.899L157.807 317.816C157.377 317.066 157.051 316.311 156.828 315.544C156.605 314.777 156.54 314.033 156.622 313.315C156.709 312.598 156.964 311.918 157.388 311.282C157.818 310.646 158.454 310.075 159.307 309.586C160.063 309.151 160.813 308.906 161.552 308.863C162.292 308.819 162.998 308.922 163.667 309.178C164.336 309.434 164.956 309.825 165.526 310.336C166.092 310.852 166.576 311.456 166.978 312.152L168.919 315.511L159.584 320.899ZM165.836 314.555L165.222 313.489C164.95 313.016 164.646 312.603 164.314 312.25C163.982 311.896 163.618 311.635 163.221 311.467C162.824 311.298 162.395 311.233 161.933 311.271C161.471 311.309 160.976 311.483 160.449 311.787C159.992 312.054 159.644 312.364 159.405 312.733C159.166 313.098 159.019 313.489 158.965 313.908C158.91 314.326 158.943 314.761 159.057 315.212C159.171 315.669 159.356 316.109 159.601 316.539L160.302 317.751L165.842 314.555H165.836Z" fill="#DDD8CB"></path><path d="M153.126 309.042L152.12 306.889L161.884 302.328L162.89 304.481L153.126 309.042Z" fill="#DDD8CB"></path><path d="M151.027 297.251C150.87 297.517 150.793 297.827 150.799 298.175C150.804 298.523 150.864 298.838 150.967 299.11C151.027 299.273 151.109 299.431 151.212 299.588C151.315 299.746 151.435 299.882 151.576 300.001C151.712 300.121 151.87 300.203 152.038 300.251C152.207 300.295 152.386 300.284 152.577 300.208C152.881 300.094 153.071 299.893 153.142 299.599C153.218 299.311 153.245 298.968 153.229 298.582C153.213 298.191 153.185 297.778 153.147 297.338C153.109 296.897 153.131 296.462 153.207 296.038C153.283 295.614 153.457 295.217 153.718 294.859C153.985 294.5 154.409 294.206 154.996 293.983C155.556 293.771 156.083 293.69 156.578 293.739C157.072 293.788 157.529 293.94 157.937 294.19C158.35 294.44 158.709 294.777 159.019 295.196C159.329 295.614 159.584 296.087 159.785 296.609C160.035 297.261 160.166 297.908 160.177 298.544C160.187 299.18 160.068 299.822 159.807 300.474L157.469 299.556C157.687 299.213 157.812 298.838 157.844 298.425C157.877 298.017 157.828 297.626 157.687 297.256C157.621 297.077 157.529 296.903 157.415 296.734C157.301 296.566 157.176 296.424 157.034 296.31C156.893 296.196 156.741 296.12 156.572 296.076C156.404 296.038 156.23 296.049 156.05 296.12C155.746 296.234 155.55 296.441 155.463 296.74C155.376 297.039 155.338 297.387 155.349 297.783C155.36 298.18 155.382 298.61 155.414 299.061C155.447 299.512 155.425 299.958 155.349 300.387C155.273 300.817 155.11 301.214 154.854 301.578C154.604 301.942 154.197 302.23 153.637 302.442C153.093 302.649 152.582 302.725 152.093 302.665C151.603 302.605 151.152 302.453 150.744 302.203C150.337 301.953 149.973 301.621 149.657 301.208C149.342 300.795 149.092 300.344 148.907 299.849C148.69 299.278 148.564 298.697 148.521 298.104C148.483 297.512 148.57 296.93 148.787 296.359L151.033 297.245L151.027 297.251Z" fill="#DDD8CB"></path><path d="M148.282 290.471L149.109 293.434L147.086 294L144.803 285.785L146.825 285.225L147.646 288.188L156.007 285.867L156.643 288.156L148.282 290.477V290.471Z" fill="#DDD8CB"></path><path d="M144.102 282.6L143.379 278.49C143.286 277.951 143.248 277.43 143.264 276.924C143.281 276.418 143.384 275.967 143.563 275.559C143.743 275.152 144.025 274.804 144.401 274.516C144.776 274.228 145.276 274.032 145.896 273.923C146.646 273.793 147.314 273.874 147.912 274.173C148.51 274.472 148.94 274.983 149.212 275.706L153.218 272.221L153.713 275.027L149.859 277.99L150.06 279.142L154.3 278.397L154.713 280.735L144.096 282.6H144.102ZM148.081 279.49L147.836 278.109C147.798 277.897 147.755 277.68 147.695 277.446C147.641 277.212 147.559 277.011 147.45 276.832C147.342 276.652 147.195 276.516 147.015 276.418C146.836 276.321 146.597 276.299 146.309 276.348C146.037 276.397 145.836 276.489 145.694 276.625C145.553 276.761 145.455 276.924 145.401 277.109C145.346 277.294 145.325 277.5 145.33 277.723C145.341 277.946 145.363 278.163 145.395 278.375L145.667 279.903L148.081 279.479V279.49Z" fill="#DDD8CB"></path><path d="M142.324 270.966L142.095 268.601L152.821 267.568L153.05 269.933L142.324 270.966Z" fill="#DDD8CB"></path><path d="M141.758 264.502L141.682 260.484C141.671 260.017 141.698 259.549 141.753 259.076C141.813 258.603 141.932 258.179 142.128 257.799C142.318 257.418 142.59 257.108 142.938 256.869C143.291 256.63 143.759 256.505 144.346 256.494C144.955 256.483 145.46 256.641 145.868 256.978C146.276 257.31 146.569 257.755 146.754 258.31H146.787C146.83 257.951 146.923 257.63 147.064 257.337C147.205 257.043 147.39 256.793 147.613 256.581C147.836 256.369 148.102 256.206 148.401 256.086C148.706 255.967 149.027 255.907 149.375 255.901C149.94 255.891 150.418 256.005 150.804 256.239C151.19 256.478 151.5 256.782 151.745 257.163C151.984 257.543 152.163 257.973 152.272 258.457C152.381 258.935 152.441 259.413 152.452 259.892L152.533 264.306L141.758 264.507V264.502ZM146.02 262.05L145.988 260.332C145.988 260.147 145.96 259.968 145.917 259.794C145.874 259.615 145.803 259.457 145.71 259.316C145.618 259.174 145.493 259.065 145.341 258.978C145.189 258.897 145.004 258.853 144.792 258.859C144.569 258.859 144.384 258.913 144.237 259.011C144.09 259.109 143.982 259.239 143.9 259.392C143.824 259.544 143.764 259.718 143.737 259.914C143.704 260.109 143.688 260.294 143.694 260.479L143.721 262.094L146.02 262.05ZM150.478 261.968L150.44 259.837C150.44 259.653 150.413 259.468 150.369 259.283C150.326 259.098 150.25 258.93 150.147 258.777C150.043 258.625 149.907 258.505 149.744 258.413C149.581 258.321 149.38 258.277 149.146 258.277C148.891 258.277 148.69 258.348 148.532 258.478C148.38 258.609 148.26 258.772 148.184 258.962C148.108 259.158 148.053 259.364 148.026 259.587C147.999 259.81 147.988 260.022 147.994 260.213L148.026 262.007L150.478 261.963V261.968Z" fill="#DDD8CB"></path><path d="M149.136 244.077C149.772 244.132 150.348 244.284 150.87 244.523C151.386 244.762 151.827 245.089 152.185 245.507C152.544 245.92 152.811 246.42 152.985 247.008C153.159 247.595 153.208 248.258 153.142 248.992C153.077 249.742 152.903 250.389 152.631 250.933C152.359 251.476 152.006 251.922 151.577 252.265C151.147 252.607 150.658 252.852 150.103 252.998C149.549 253.145 148.956 253.189 148.32 253.129L141.726 252.536L141.938 250.172L148.44 250.753C148.771 250.786 149.087 250.753 149.38 250.677C149.674 250.601 149.929 250.471 150.158 250.297C150.381 250.123 150.565 249.905 150.707 249.65C150.848 249.394 150.93 249.106 150.957 248.791C150.984 248.475 150.957 248.182 150.859 247.91C150.767 247.638 150.625 247.394 150.435 247.187C150.245 246.975 150.011 246.806 149.739 246.676C149.467 246.545 149.163 246.464 148.826 246.431L142.324 245.85L142.536 243.485L149.13 244.077H149.136Z" fill="#DDD8CB"></path><path d="M145.662 237.624L145.075 240.642L143.014 240.239L144.645 231.873L146.706 232.275L146.119 235.292L154.632 236.95L154.181 239.282L145.662 237.624Z" fill="#DDD8CB"></path><path d="M145.455 228.894L146.08 226.599L156.48 229.426L155.855 231.715L145.455 228.888V228.894Z" fill="#DDD8CB"></path><path d="M152.027 224.985C151.217 224.686 150.538 224.278 149.983 223.762C149.429 223.245 149.01 222.658 148.728 222.006C148.445 221.348 148.309 220.641 148.309 219.885C148.309 219.13 148.456 218.352 148.749 217.564C149.043 216.776 149.44 216.091 149.934 215.52C150.429 214.949 151 214.503 151.642 214.188C152.283 213.873 152.984 213.704 153.74 213.677C154.496 213.65 155.278 213.786 156.088 214.09C156.898 214.389 157.578 214.797 158.133 215.313C158.687 215.83 159.106 216.417 159.388 217.069C159.671 217.727 159.807 218.434 159.807 219.19C159.807 219.945 159.66 220.723 159.367 221.511C159.073 222.299 158.676 222.984 158.181 223.555C157.687 224.126 157.116 224.572 156.474 224.887C155.833 225.202 155.132 225.371 154.376 225.398C153.62 225.425 152.838 225.289 152.027 224.985ZM152.892 222.674C153.37 222.854 153.832 222.941 154.278 222.941C154.729 222.941 155.148 222.859 155.539 222.691C155.931 222.522 156.279 222.277 156.583 221.951C156.888 221.625 157.132 221.228 157.306 220.75C157.486 220.277 157.562 219.815 157.545 219.369C157.529 218.923 157.426 218.51 157.236 218.124C157.051 217.738 156.784 217.401 156.447 217.107C156.11 216.814 155.702 216.58 155.224 216.401C154.757 216.227 154.3 216.14 153.843 216.14C153.387 216.14 152.963 216.221 152.571 216.39C152.18 216.558 151.832 216.803 151.527 217.129C151.223 217.455 150.984 217.852 150.804 218.331C150.63 218.809 150.549 219.266 150.565 219.711C150.581 220.157 150.685 220.57 150.875 220.956C151.06 221.342 151.326 221.679 151.674 221.978C152.017 222.272 152.424 222.511 152.892 222.685V222.674Z" fill="#DDD8CB"></path><path d="M152.642 208.73L154.143 205.87L162.906 205.294L162.922 205.267L156.29 201.788L157.394 199.684L166.934 204.691L165.488 207.442L156.507 208.04L156.491 208.067L163.287 211.633L162.183 213.737L152.642 208.73Z" fill="#DDD8CB"></path><path d="M225.225 234.984H228.786C229.65 234.984 230.466 235.081 231.243 235.272C232.021 235.462 232.695 235.777 233.277 236.207C233.858 236.636 234.315 237.196 234.652 237.887C234.994 238.577 235.163 239.414 235.163 240.398C235.163 241.273 235 242.04 234.668 242.703C234.337 243.366 233.896 243.926 233.336 244.378C232.776 244.829 232.135 245.171 231.401 245.405C230.672 245.639 229.906 245.753 229.101 245.753H225.22V234.978L225.225 234.984ZM228.835 243.568C229.384 243.568 229.895 243.513 230.363 243.399C230.836 243.285 231.243 243.1 231.586 242.845C231.928 242.584 232.2 242.247 232.401 241.823C232.597 241.404 232.7 240.887 232.7 240.279C232.7 239.751 232.602 239.295 232.401 238.903C232.206 238.512 231.939 238.191 231.602 237.936C231.265 237.68 230.874 237.49 230.422 237.365C229.971 237.24 229.498 237.174 228.998 237.174H227.595V243.568H228.835Z" fill="#DDD8CB"></path><path d="M238.272 234.984H240.648V245.758H238.272V234.984Z" fill="#DDD8CB"></path><path d="M254.087 244.997C253.386 245.362 252.657 245.628 251.896 245.791C251.135 245.954 250.358 246.036 249.569 246.036C248.727 246.036 247.949 245.905 247.243 245.639C246.53 245.378 245.916 244.997 245.4 244.503C244.883 244.008 244.481 243.415 244.187 242.714C243.894 242.013 243.752 241.23 243.752 240.371C243.752 239.512 243.899 238.729 244.187 238.028C244.475 237.327 244.878 236.734 245.4 236.239C245.916 235.75 246.53 235.37 247.243 235.103C247.955 234.842 248.727 234.706 249.569 234.706C250.412 234.706 251.227 234.81 251.95 235.016C252.673 235.223 253.315 235.582 253.859 236.087L252.184 237.914C251.858 237.577 251.494 237.327 251.086 237.153C250.678 236.979 250.173 236.892 249.564 236.892C249.058 236.892 248.596 236.979 248.188 237.153C247.781 237.327 247.422 237.566 247.128 237.876C246.835 238.186 246.606 238.555 246.449 238.979C246.291 239.403 246.215 239.865 246.215 240.366C246.215 240.866 246.291 241.339 246.449 241.757C246.606 242.176 246.829 242.546 247.128 242.855C247.422 243.165 247.775 243.405 248.188 243.578C248.602 243.752 249.058 243.839 249.564 243.839C250.069 243.839 250.526 243.78 250.901 243.665C251.276 243.551 251.575 243.432 251.798 243.307V241.556H249.863V239.365H254.081V244.997H254.087Z" fill="#DDD8CB"></path><path d="M257.664 234.984H260.04V245.758H257.664V234.984Z" fill="#DDD8CB"></path><path d="M265.808 237.082H262.731V234.984H271.255V237.082H268.178V245.758H265.802V237.082H265.808Z" fill="#DDD8CB"></path><path d="M278.089 234.984L282.775 245.758H280.095L279.165 243.475H274.979L274.082 245.758H271.462L276.121 234.984H278.089ZM277.04 238.12L275.73 241.469H278.361L277.034 238.12H277.04Z" fill="#DDD8CB"></path><path d="M285.471 234.984H287.847V243.568H292.245V245.758H285.471V234.984Z" fill="#DDD8CB"></path><path d="M210.107 253.25L212.586 260.284H212.618L215.114 253.25H218.691V264.025H216.315V255.761H216.282L213.45 264.025H211.64L208.916 255.761H208.884V264.025H206.508V253.25H210.107Z" fill="#DDD8CB"></path><path d="M227.911 253.25L232.597 264.025H229.917L228.987 261.741H224.801L223.904 264.025H221.284L225.943 253.25H227.911ZM226.861 256.387L225.551 259.735H228.182L226.856 256.387H226.861Z" fill="#DDD8CB"></path><path d="M239.37 253.25C239.92 253.25 240.436 253.304 240.931 253.407C241.425 253.516 241.855 253.69 242.225 253.94C242.594 254.19 242.888 254.522 243.105 254.946C243.323 255.365 243.431 255.892 243.431 256.523C243.431 257.284 243.23 257.931 242.839 258.463C242.442 258.996 241.866 259.333 241.105 259.474L243.845 264.025H240.996L238.745 259.719H237.571V264.025H235.195V253.25H239.37ZM237.576 257.708H238.979C239.191 257.708 239.419 257.702 239.659 257.686C239.898 257.67 240.115 257.626 240.306 257.55C240.496 257.474 240.659 257.354 240.784 257.191C240.909 257.028 240.974 256.8 240.974 256.506C240.974 256.234 240.92 256.011 240.806 255.854C240.692 255.691 240.55 255.566 240.376 255.479C240.202 255.392 240.007 255.332 239.784 255.305C239.561 255.278 239.343 255.261 239.131 255.261H237.576V257.713V257.708Z" fill="#DDD8CB"></path><path d="M246.683 253.25H249.059V257.724L253.245 253.25H256.349L251.554 258.257L256.762 264.025H253.446L249.064 258.909V264.025H246.688V253.25H246.683Z" fill="#DDD8CB"></path><path d="M259.192 253.25H266.515V255.441H261.568V257.452H266.243V259.643H261.568V261.834H266.787V264.025H259.192V253.25Z" fill="#DDD8CB"></path><path d="M272.299 255.348H269.222V253.25H277.746V255.348H274.669V264.025H272.293V255.348H272.299Z" fill="#DDD8CB"></path><path d="M280.443 253.25H282.818V264.025H280.443V253.25Z" fill="#DDD8CB"></path><path d="M286.499 253.25H289.728L294.311 260.741H294.344V253.25H296.719V264.025H293.615L288.913 256.354H288.88V264.025H286.505V253.25H286.499Z" fill="#DDD8CB"></path><path d="M310.185 263.264C309.483 263.628 308.755 263.894 307.994 264.057C307.233 264.22 306.455 264.302 305.667 264.302C304.824 264.302 304.047 264.171 303.34 263.905C302.628 263.639 302.014 263.264 301.497 262.769C300.981 262.274 300.579 261.682 300.285 260.98C299.997 260.279 299.85 259.496 299.85 258.637C299.85 257.778 299.997 256.995 300.285 256.294C300.573 255.593 300.975 255 301.497 254.506C302.014 254.016 302.628 253.636 303.34 253.369C304.052 253.108 304.824 252.973 305.667 252.973C306.51 252.973 307.325 253.076 308.048 253.282C308.771 253.489 309.413 253.848 309.956 254.353L308.282 256.18C307.956 255.843 307.591 255.593 307.184 255.419C306.776 255.245 306.27 255.158 305.662 255.158C305.156 255.158 304.694 255.245 304.286 255.419C303.878 255.593 303.52 255.832 303.226 256.142C302.933 256.452 302.704 256.821 302.547 257.246C302.389 257.67 302.313 258.132 302.313 258.632C302.313 259.132 302.389 259.605 302.547 260.024C302.704 260.448 302.927 260.812 303.226 261.122C303.52 261.432 303.873 261.671 304.286 261.845C304.699 262.019 305.156 262.106 305.662 262.106C306.167 262.106 306.624 262.046 306.999 261.932C307.374 261.818 307.673 261.698 307.896 261.573V259.822H305.961V257.632H310.179V263.264H310.185Z" fill="#DDD8CB"></path><path d="M225.508 271.516H232.83V273.707H227.883V275.718H232.559V277.909H227.883V280.1H233.102V282.291H225.508V271.516Z" fill="#DDD8CB"></path><path d="M236.528 271.516H239.757L244.34 279.007H244.367V271.516H246.743V282.291H243.639L238.936 274.62H238.904V282.291H236.528V271.516Z" fill="#DDD8CB"></path><path d="M260.213 281.53C259.512 281.894 258.784 282.16 258.023 282.324C257.262 282.487 256.484 282.568 255.696 282.568C254.853 282.568 254.076 282.438 253.369 282.171C252.657 281.905 252.043 281.53 251.526 281.035C251.01 280.54 250.607 279.948 250.314 279.247C250.02 278.545 249.879 277.762 249.879 276.903C249.879 276.045 250.026 275.262 250.314 274.56C250.602 273.859 251.004 273.267 251.526 272.772C252.043 272.277 252.657 271.902 253.369 271.636C254.081 271.369 254.853 271.239 255.696 271.239C256.538 271.239 257.354 271.342 258.077 271.549C258.8 271.755 259.441 272.114 259.985 272.62L258.311 274.446C257.985 274.109 257.62 273.859 257.213 273.685C256.805 273.511 256.299 273.424 255.69 273.424C255.185 273.424 254.723 273.511 254.315 273.685C253.902 273.859 253.548 274.098 253.255 274.408C252.961 274.718 252.733 275.088 252.575 275.512C252.418 275.936 252.342 276.398 252.342 276.898C252.342 277.398 252.418 277.871 252.575 278.29C252.733 278.708 252.956 279.078 253.255 279.388C253.548 279.698 253.902 279.937 254.315 280.111C254.728 280.285 255.185 280.372 255.69 280.372C256.196 280.372 256.653 280.312 257.028 280.198C257.403 280.084 257.702 279.964 257.925 279.839V278.089H255.989V275.898H260.208V281.53H260.213Z" fill="#DDD8CB"></path><path d="M263.791 271.516H266.166V282.291H263.791V271.516Z" fill="#DDD8CB"></path><path d="M269.847 271.516H273.076L277.659 279.007H277.692V271.516H280.067V282.291H276.963L272.261 274.62H272.228V282.291H269.852V271.516H269.847Z" fill="#DDD8CB"></path><path d="M283.867 271.516H291.19V273.707H286.243V275.718H290.918V277.909H286.243V280.1H291.462V282.291H283.867V271.516Z" fill="#DDD8CB"></path><path d="M92.1559 410.827C92.2102 410.463 92.1831 410.104 92.0689 409.751C91.9547 409.398 91.7536 409.05 91.4546 408.718C91.1556 408.386 90.8185 408.136 90.4325 407.962C90.052 407.794 89.6497 407.707 89.2365 407.707C88.8179 407.707 88.3993 407.788 87.9753 407.951C87.5513 408.12 87.1544 408.365 86.7847 408.696C86.4042 409.033 86.1106 409.403 85.904 409.8C85.692 410.197 85.567 410.604 85.5181 411.012C85.4691 411.42 85.5017 411.822 85.6213 412.214C85.7409 412.605 85.9421 412.958 86.2248 413.279C86.551 413.643 86.9098 413.899 87.3121 414.04C87.7144 414.187 88.133 414.225 88.5679 414.165L88.7853 416.623C88.0025 416.709 87.2686 416.59 86.5727 416.269C85.8769 415.948 85.2843 415.513 84.795 414.959C84.2351 414.328 83.8165 413.665 83.5392 412.958C83.262 412.252 83.1369 411.545 83.1587 410.827C83.1804 410.11 83.3598 409.414 83.686 408.734C84.0176 408.055 84.5015 407.424 85.1484 406.848C85.7899 406.272 86.4694 405.864 87.187 405.608C87.9046 405.358 88.6168 405.26 89.329 405.32C90.0411 405.38 90.7315 405.587 91.4002 405.94C92.0689 406.293 92.6832 406.788 93.2486 407.413C93.4497 407.642 93.64 407.897 93.8194 408.18C93.9988 408.463 94.1456 408.767 94.2706 409.082C94.3902 409.403 94.4772 409.74 94.5207 410.093C94.5642 410.447 94.5533 410.811 94.4935 411.181L92.1667 410.811L92.1559 410.827Z" fill="#DDD8CB"></path><path d="M93.1451 415.753C93.7539 415.144 94.4063 414.693 95.1076 414.399C95.8089 414.105 96.5156 413.97 97.2278 413.986C97.94 414.002 98.6413 414.171 99.3317 414.486C100.022 414.801 100.664 415.258 101.262 415.851C101.86 416.443 102.316 417.09 102.632 417.775C102.947 418.465 103.115 419.167 103.132 419.879C103.148 420.591 103.012 421.298 102.724 421.999C102.436 422.7 101.985 423.353 101.376 423.967C100.767 424.581 100.115 425.027 99.4132 425.321C98.7119 425.614 98.0052 425.75 97.293 425.734C96.5809 425.718 95.8796 425.549 95.1891 425.234C94.4987 424.918 93.8572 424.462 93.2592 423.869C92.6612 423.277 92.2046 422.635 91.8893 421.945C91.574 421.254 91.4054 420.553 91.3891 419.841C91.3728 419.129 91.5087 418.422 91.7968 417.721C92.085 417.019 92.5362 416.367 93.1451 415.753ZM94.8901 417.498C94.5313 417.857 94.2595 418.243 94.0747 418.65C93.8899 419.058 93.792 419.477 93.7811 419.906C93.7702 420.336 93.8518 420.754 94.0203 421.167C94.1889 421.58 94.4552 421.966 94.814 422.325C95.1728 422.684 95.5588 422.945 95.972 423.114C96.3851 423.282 96.8038 423.358 97.2332 423.347C97.6573 423.336 98.0759 423.239 98.489 423.048C98.9022 422.858 99.2827 422.592 99.6415 422.227C99.9949 421.874 100.261 421.494 100.452 421.08C100.642 420.667 100.74 420.249 100.751 419.819C100.761 419.39 100.68 418.971 100.511 418.558C100.343 418.145 100.076 417.759 99.7176 417.4C99.3588 417.041 98.9729 416.78 98.5597 416.612C98.1465 416.443 97.7279 416.367 97.2985 416.378C96.869 416.389 96.4504 416.492 96.0372 416.682C95.6241 416.873 95.2435 417.144 94.8901 417.498Z" fill="#DDD8CB"></path><path d="M107.236 422.053L109.655 424.185L108.139 432.834L108.16 432.856L113.113 427.234L114.896 428.805L107.769 436.889L105.437 434.834L106.981 425.968L106.959 425.946L101.887 431.703L100.104 430.132L107.231 422.048L107.236 422.053Z" fill="#DDD8CB"></path><path d="M117.902 433.91L115.489 432.002L116.793 430.355L123.48 435.644L122.175 437.292L119.762 435.383L114.38 442.19L112.515 440.717L117.897 433.91H117.902Z" fill="#DDD8CB"></path><path d="M125.535 437.172L131.483 441.44L130.205 443.223L126.188 440.336L125.019 441.967L128.813 444.691L127.536 446.474L123.741 443.75L122.464 445.533L126.704 448.578L125.426 450.361L119.256 445.93L125.541 437.172H125.535Z" fill="#DDD8CB"></path><path d="M134.277 443.38L136.995 445.115L136.832 453.894L136.859 453.911L140.887 447.599L142.888 448.877L137.093 457.961L134.472 456.292L134.636 447.295L134.608 447.278L130.482 453.748L128.482 452.47L134.277 443.386V443.38Z" fill="#DDD8CB"></path><path d="M146.612 453.454L143.927 451.959L144.949 450.121L152.402 454.264L151.38 456.102L148.694 454.607L144.481 462.19L142.404 461.038L146.618 453.454H146.612Z" fill="#DDD8CB"></path><path d="M159.931 458.205L166.547 461.348L165.607 463.326L161.138 461.206L160.279 463.022L164.498 465.028L163.557 467.007L159.333 465.001L158.393 466.98L163.112 469.22L162.171 471.198L155.31 467.942L159.931 458.205Z" fill="#DDD8CB"></path><path d="M169.641 462.756L172.625 463.979L174.028 472.644L174.055 472.655L176.893 465.724L179.089 466.626L175.006 476.602L172.131 475.422L170.684 466.539L170.657 466.528L167.749 473.628L165.552 472.726L169.635 462.756H169.641Z" fill="#DDD8CB"></path><path d="M188.271 480.44C187.488 480.56 186.716 480.576 185.939 480.484C185.167 480.391 184.406 480.217 183.656 479.962C182.856 479.69 182.166 479.315 181.579 478.836C180.992 478.358 180.53 477.804 180.203 477.168C179.872 476.537 179.682 475.841 179.638 475.085C179.589 474.33 179.703 473.541 179.986 472.726C180.263 471.911 180.655 471.215 181.155 470.649C181.655 470.078 182.231 469.644 182.878 469.345C183.525 469.046 184.232 468.888 184.987 468.866C185.743 468.844 186.521 468.975 187.32 469.247C188.135 469.524 188.853 469.883 189.473 470.312C190.092 470.742 190.582 471.285 190.935 471.943L188.76 473.134C188.559 472.71 188.298 472.351 187.967 472.057C187.635 471.764 187.184 471.519 186.608 471.323C186.129 471.16 185.667 471.095 185.221 471.122C184.775 471.155 184.362 471.269 183.987 471.465C183.607 471.66 183.275 471.938 182.992 472.291C182.71 472.644 182.481 473.058 182.324 473.525C182.161 474.004 182.084 474.471 182.095 474.922C182.106 475.373 182.204 475.792 182.383 476.178C182.563 476.564 182.818 476.907 183.15 477.206C183.482 477.499 183.889 477.733 184.368 477.896C184.857 478.065 185.297 478.152 185.694 478.162C186.086 478.173 186.406 478.162 186.662 478.113L187.227 476.455L185.395 475.83L186.102 473.753L190.092 475.113L188.276 480.446L188.271 480.44Z" fill="#DDD8CB"></path><path d="M194.724 471.894L197.002 472.563L193.963 482.903L191.685 482.234L194.724 471.894Z" fill="#DDD8CB"></path><path d="M200.308 473.547L203.439 474.319L206.092 482.685H206.119L207.913 475.422L210.218 475.993L207.636 486.458L204.624 485.714L201.895 477.14H201.868L200.03 484.583L197.725 484.017L200.308 473.552V473.547Z" fill="#DDD8CB"></path><path d="M213.659 476.7L220.851 478.059L220.444 480.212L215.583 479.293L215.208 481.267L219.802 482.131L219.394 484.284L214.801 483.419L214.393 485.572L219.525 486.54L219.117 488.693L211.653 487.285L213.648 476.695L213.659 476.7Z" fill="#DDD8CB"></path><path d="M336.156 467.263L340.038 465.735C340.549 465.534 341.054 465.392 341.549 465.311C342.044 465.229 342.511 465.24 342.946 465.333C343.381 465.43 343.778 465.632 344.137 465.942C344.496 466.251 344.789 466.703 345.018 467.29C345.295 467.996 345.349 468.671 345.175 469.312C345.001 469.954 344.588 470.481 343.93 470.889L348.143 474.123L345.496 475.167L341.821 471.981L340.728 472.411L342.305 476.417L340.098 477.287L336.156 467.257V467.263ZM340 470.541L341.305 470.03C341.5 469.954 341.712 469.861 341.924 469.758C342.142 469.655 342.327 469.535 342.473 469.394C342.626 469.252 342.729 469.084 342.789 468.888C342.848 468.692 342.821 468.453 342.718 468.181C342.62 467.926 342.484 467.746 342.321 467.632C342.158 467.523 341.979 467.458 341.788 467.442C341.598 467.426 341.392 467.442 341.174 467.496C340.957 467.551 340.745 467.616 340.549 467.692L339.103 468.263L340 470.541Z" fill="#DDD8CB"></path><path d="M346.551 463.077L353.227 460.065L354.13 462.06L349.623 464.093L350.449 465.925L354.706 464.006L355.608 466.001L351.352 467.926L352.254 469.926L357.011 467.779L357.913 469.774L350.987 472.9L346.557 463.077H346.551Z" fill="#DDD8CB"></path><path d="M355.368 459.075L357.777 457.836L363.376 462.903L363.403 462.886L362.588 455.368L364.849 454.204L365.822 465.822L364.132 466.692L355.374 459.075H355.368Z" fill="#DDD8CB"></path><path d="M366.954 453.068L373.233 449.306L374.358 451.187L370.112 453.731L371.145 455.455L375.152 453.052L376.277 454.933L372.271 457.336L373.396 459.217L377.876 456.531L379.001 458.412L372.483 462.315L366.943 453.068H366.954Z" fill="#DDD8CB"></path><path d="M376.255 447.556L378.957 445.789L386.888 449.551L386.916 449.534L382.817 443.266L384.806 441.967L390.705 450.986L388.106 452.688L379.973 448.839L379.946 448.855L384.143 455.275L382.153 456.575L376.255 447.556Z" fill="#DDD8CB"></path><path d="M398.827 439.923C399.207 440.439 399.479 440.967 399.648 441.516C399.811 442.065 399.86 442.609 399.789 443.152C399.718 443.696 399.523 444.229 399.196 444.745C398.87 445.262 398.413 445.74 397.815 446.18C397.212 446.626 396.614 446.93 396.027 447.088C395.44 447.246 394.874 447.278 394.331 447.186C393.787 447.094 393.282 446.892 392.809 446.572C392.336 446.251 391.906 445.838 391.526 445.327L387.584 440.005L389.492 438.591L393.379 443.837C393.581 444.109 393.803 444.321 394.059 444.49C394.314 444.658 394.581 444.761 394.858 444.816C395.135 444.87 395.418 444.859 395.706 444.794C395.994 444.729 396.261 444.598 396.516 444.413C396.766 444.229 396.967 444.006 397.109 443.756C397.25 443.506 397.337 443.239 397.37 442.956C397.402 442.674 397.37 442.386 397.294 442.097C397.217 441.809 397.071 441.527 396.87 441.255L392.983 436.009L394.891 434.595L398.832 439.918L398.827 439.923Z" fill="#DDD8CB"></path><path d="M397.642 432.415L403.29 427.756L404.687 429.447L400.871 432.595L402.148 434.144L405.753 431.17L407.15 432.861L403.545 435.835L404.943 437.526L408.971 434.204L410.368 435.895L404.508 440.728L397.647 432.415H397.642Z" fill="#DDD8CB"></path><path d="M443.138 390.224C469.676 353.092 485.292 307.62 485.292 258.5C485.292 166.662 430.704 87.5732 352.205 51.9105M164.205 52.179C86.0218 87.9691 31.707 166.891 31.707 258.5C31.707 307.419 47.1961 352.72 73.5366 389.768M485.294 258.5C485.294 318.843 461.726 373.682 423.294 414.314" stroke="#6F7EB1" stroke-width="1.175"></path></g><defs><clipPath id="clip0_3195_7579"><rect width="517" height="517" fill="white"></rect></clipPath></defs></svg> 