<?xml version="1.0" encoding="UTF-8"?> <svg xmlns="http://www.w3.org/2000/svg" width="138.744" height="37.307" viewBox="0 0 138.744 37.307"><g id="Group_4701" data-name="Group 4701" transform="translate(-747.074 -2378.328)"><path id="Path_4142" data-name="Path 4142" d="M642.7,29.977h0c.021-.026.039-.052.06-.078-.021.026-.039.052-.06.078" transform="translate(175 2363)" fill="#fff"></path><path id="Path_4143" data-name="Path 4143" d="M606.188,39.031c-.345-.051-.416-.243-.5-.485a8.492,8.492,0,0,1-.3-.99.9.9,0,0,1,.06-.549,2.776,2.776,0,0,0-.889-3.733,8.754,8.754,0,0,0-2.658-1.068c-.163-.045-.306-.056-.31-.285-.016-.791-.028-1.583-.081-2.371a9.32,9.32,0,0,0-.217-1.526,5.266,5.266,0,0,0-1.47-2.8c.406-.481.829-.92,1.179-1.41a6.935,6.935,0,0,0,1.6-4.225,2.865,2.865,0,0,0-2.108-2.778,7.842,7.842,0,0,0-3.964-.144,15.061,15.061,0,0,0-3.561,1.175.427.427,0,0,1-.578-.118c-.676-.642-1.336-1.305-2.064-1.883a4.806,4.806,0,0,0-1.217-.513h-1.464c-.459.137-.928.247-1.375.417a15.714,15.714,0,0,0-3.2,1.7,29.464,29.464,0,0,0-4.738,4.083,29.79,29.79,0,0,0-4.461,5.891,12.6,12.6,0,0,0-1.505,3.49c-.079.359-.191.712-.288,1.067v1.7a4.639,4.639,0,0,0,1.981,2.569.439.439,0,0,1,.2.581,5.594,5.594,0,0,0,.14,3.924,6.066,6.066,0,0,0,2.392,2.726,6.207,6.207,0,0,0,2.743.912c.747,1.134,1.357,2.241,2.142,3.207a12.86,12.86,0,0,0,3.744,3.087,15.389,15.389,0,0,0,3.848,1.524c.7.173,1.435.235,2.153.351a1.33,1.33,0,0,1,.232.081h3.083c.291-.05.581-.109.873-.148a15.031,15.031,0,0,0,4.5-1.308,12.385,12.385,0,0,0,4.747-3.837,10.264,10.264,0,0,0,2.291-6.909c-.036-.564-.483-1.33-.96-1.4m-24.477,2.958a2.5,2.5,0,0,1-1.666.925,3.925,3.925,0,0,1-3.129-1.064,4.409,4.409,0,0,1-1.5-2.484,4.626,4.626,0,0,1-.04-.766,3.712,3.712,0,0,1,2.678-3.725,3.34,3.34,0,0,1,3.968,2,6.5,6.5,0,0,1,.443,2.7,3.862,3.862,0,0,1-.756,2.419m-1.829-12.5c-.655,1.2-1.216,2.452-1.775,3.7a.592.592,0,0,1-.468.354,4.744,4.744,0,0,0-2.633,1.807,2.838,2.838,0,0,1-1.562-3.2,14.422,14.422,0,0,1,2.362-5.314,35.009,35.009,0,0,1,2.785-3.689,27.96,27.96,0,0,1,3.1-2.965,24.66,24.66,0,0,1,3.184-2.251,6.923,6.923,0,0,1,3.944-1.22,1.288,1.288,0,0,1,.923.358c.5.521,1.026,1.024,1.577,1.571-.753.476-1.479.887-2.152,1.372-1.338.965-2.678,1.933-3.96,2.969a21.482,21.482,0,0,0-5.327,6.506m5.409-3.587c.27-.808,3.546-3.509,4.661-3.851l-.431,1.088.084.07a9.221,9.221,0,0,1,4.2-1.422l-.779.823a8.083,8.083,0,0,1,3.573,1.013A14.555,14.555,0,0,0,585.291,25.9m19.02,19.2a9.679,9.679,0,0,1-3.851,2.933,8.673,8.673,0,0,1-3.01.812,16.858,16.858,0,0,1-2.93-.018,7.52,7.52,0,0,1-3.674-1.6,5.932,5.932,0,0,1-2.019-2.828,6.628,6.628,0,0,1-.353-2.973,7.247,7.247,0,0,1,1.306-3.488c.134-.184.274-.364.416-.542.334-.421.313-.623-.021-1.024-.5-.6-1.013-1.209-1.461-1.854a4.123,4.123,0,0,1,2.126-6.164,7.121,7.121,0,0,1,1.97-.041c1.533.077,3.075.214,4.3-1a1.643,1.643,0,0,1,2.863.858,12.392,12.392,0,0,1,.231,1.6c.055.66.078,1.324.081,1.986.005,1.37.3,1.4,1.368,1.747a15.008,15.008,0,0,1,2.09.809,1.528,1.528,0,0,1,.192,2.523,8.783,8.783,0,0,1-4.053,2.275,16.264,16.264,0,0,1-2.654.541,25.874,25.874,0,0,1-2.813.158c-.49.008-.98-.1-1.471-.142a1.785,1.785,0,0,0-1.821,1.7,2.519,2.519,0,0,0,1.775,2.763,7.224,7.224,0,0,0,3.6.536,12.227,12.227,0,0,0,6.319-2.123,10.5,10.5,0,0,0,1.247-1.256l.051-.061-.092,0c-.891.47-1.764.982-2.68,1.4a11.388,11.388,0,0,1-3.705,1.041,14.139,14.139,0,0,1-2.119.138,5.253,5.253,0,0,1-2.719-.716,1.681,1.681,0,0,1-.776-1.058,8.761,8.761,0,0,0,5.95-.066c-1.975-.09-3.983.108-5.863-.726a.943.943,0,0,1,1.225-.624,8.182,8.182,0,0,0,1.2.116,16.04,16.04,0,0,0,6.453-.912,11.253,11.253,0,0,0,3.148-1.66,2.518,2.518,0,0,1,.256-.145c.176.614.339,1.212.526,1.8a.37.37,0,0,0,.258.22.708.708,0,0,1,.73.788,6.813,6.813,0,0,1-1.6,4.259" transform="translate(175 2363)" fill="#aeaeae"></path><path id="Path_4144" data-name="Path 4144" d="M710.27,32.3a3.947,3.947,0,0,0-2-2.3,5.1,5.1,0,0,0-2.4-.344,2.632,2.632,0,0,0-2.082,1.067,16.388,16.388,0,0,0-1.074,1.75,2.38,2.38,0,0,1-.274.314l-.124-.067a6.073,6.073,0,0,0,.236-2.869h-2.9V44.063H703.7V39.592a2.874,2.874,0,0,0,.243.413,3.105,3.105,0,0,0,3.674,1.063,3.941,3.941,0,0,0,2.826-3.055c.136-.468.254-.941.379-1.411V34.289c-.179-.663-.318-1.341-.548-1.986m-3.535,4.161a6.689,6.689,0,0,1-.326,1.445,1.236,1.236,0,0,1-2.173.107,3.547,3.547,0,0,1-.585-2.192,3.624,3.624,0,0,1,.578-2.246,1.142,1.142,0,0,1,1.058-.594,1.289,1.289,0,0,1,1.218.876,4.785,4.785,0,0,1,.23,2.6" transform="translate(175 2363)" fill="#aaa"></path><path id="Path_4145" data-name="Path 4145" d="M698.011,32.136a2.972,2.972,0,0,0-2.136-2.341c-.313-.08-.645-.083-.964-.145a2.527,2.527,0,0,0-2.223.624,4.642,4.642,0,0,0-1.367,2.126c-.044.134-.19.234-.289.35a2.732,2.732,0,0,1-.172-.422c-.043-.181-.024-.376-.074-.553a2.433,2.433,0,0,0-1.963-2.03,9.892,9.892,0,0,0-1.323-.077,2.107,2.107,0,0,0-1.822.965,17.043,17.043,0,0,0-1.049,1.857c-.1.182-.157.332-.43.212a11.688,11.688,0,0,0,.325-1.375,12.7,12.7,0,0,0,.012-1.462h-2.973V40.989h3.973c.02-.024.041-.047.062-.071q.006-2.887.014-5.776a3.3,3.3,0,0,1,.555-1.766.753.753,0,0,1,.823-.392.84.84,0,0,1,.786.695,9.151,9.151,0,0,1,.146,1.348c.019,1.963.015,3.927.019,5.891l.062.071h3.93c.021-.023.041-.046.061-.07q.008-2.865.017-5.732a3.141,3.141,0,0,1,.541-1.8.755.755,0,0,1,.743-.41.8.8,0,0,1,.787.585,7.482,7.482,0,0,1,.233,1.508c.03,1.949.018,3.9.022,5.848l.064.072h3.853l.063-.071c0-2.246.03-4.492,0-6.738a8.28,8.28,0,0,0-.3-2.044" transform="translate(175 2363)" fill="#aaa"></path><path id="Path_4146" data-name="Path 4146" d="M629.342,32.36a3.084,3.084,0,0,0-1.922-2.475,9.534,9.534,0,0,0-1.328-.227,2.524,2.524,0,0,0-2.371.82,5.537,5.537,0,0,0-1.151,1.934,1.875,1.875,0,0,1-.277.374,3.767,3.767,0,0,1-.185-.78,2.923,2.923,0,0,0-1-1.8,3.276,3.276,0,0,0-2.1-.561,2.5,2.5,0,0,0-2,.9,5.342,5.342,0,0,0-1.077,1.875c-.07.193-.143.432-.478.283a5.28,5.28,0,0,0,.292-2.845h-2.9V40.992h4.03c0-2.015-.01-3.992.006-5.969A2.785,2.785,0,0,1,617.5,33.3a.8.8,0,0,1,.938-.27.762.762,0,0,1,.58.615,3.47,3.47,0,0,1,.145.8c.018,2.042.02,4.084.027,6.126v.4h4.083c0-1.966,0-3.906,0-5.845a3.157,3.157,0,0,1,.463-1.631.844.844,0,0,1,.863-.522.9.9,0,0,1,.815.755,7.458,7.458,0,0,1,.165,1.193c.017,1.849.007,3.7.007,5.549v.509h4v-.4c0-2.017.02-4.034-.011-6.05a11.05,11.05,0,0,0-.237-2.178" transform="translate(175 2363)" fill="#aaa"></path><path id="Path_4147" data-name="Path 4147" d="M674.752,34.6a8.992,8.992,0,0,0-.3-2.615,3.073,3.073,0,0,0-1.161-1.767,3.82,3.82,0,0,0-3.019-.508A2.773,2.773,0,0,0,668.5,30.87c-.34.491-.612,1.028-.906,1.548-.105.185-.16.422-.509.283a12.989,12.989,0,0,0,.659-6.213h-3.5v14.5h4.041V40.7c0-1.875,0-3.75.014-5.625a2.712,2.712,0,0,1,.593-1.709,1.31,1.31,0,0,1,.892-.365.761.761,0,0,1,.8.614,5.646,5.646,0,0,1,.169,1.15c.017,1.939.008,3.878.008,5.818v.4h4.071c0-.081,0-.143,0-.205-.026-2.061-.068-4.123-.073-6.184" transform="translate(175 2363)" fill="#aaa"></path><path id="Path_4148" data-name="Path 4148" d="M640.987,32.625a3.88,3.88,0,0,0-3.524-2.943,12.984,12.984,0,0,0-3.175.09,19.223,19.223,0,0,0-2.788.789c-.121.037-.3.169-.306.26-.021,1.07-.013,2.14-.013,3.237a9.409,9.409,0,0,1,4.879-1.324c.7.044,1.466.548,1.165,1.5a7.211,7.211,0,0,0-.859-.1,9.445,9.445,0,0,0-3.272.3,3.939,3.939,0,0,0-1.989,1.43,3.589,3.589,0,0,0-.6,2.39,2.959,2.959,0,0,0,1.452,2.459,3.914,3.914,0,0,0,2.337.511,3.551,3.551,0,0,0,2.8-1.436,10.14,10.14,0,0,0,.757-1.458,1.318,1.318,0,0,1,.245-.252c.053,1.032.1,1.964.15,2.9H641.4c0-1.873.012-3.709-.005-5.546a9.969,9.969,0,0,0-.4-2.821m-5.933,5.832c-.521.034-.929-.187-1.007-.551a1.086,1.086,0,0,1,.639-1.2,3.439,3.439,0,0,1,1.909-.2,2.887,2.887,0,0,0,.727.01,2.7,2.7,0,0,1-2.268,1.934" transform="translate(175 2363)" fill="#aaa"></path><path id="Path_4149" data-name="Path 4149" d="M661.319,36.944a4.986,4.986,0,0,1-3.589.192,2.013,2.013,0,0,1-1.181-1.448,1.993,1.993,0,0,1,1.562-2.029,4.972,4.972,0,0,1,1.716-.079,7.122,7.122,0,0,1,2.195.592c.286.131.569.269.9.427,0-1.282,0-2.5-.006-3.717a.337.337,0,0,0-.131-.252,6.043,6.043,0,0,0-1.093-.568,8.73,8.73,0,0,0-4.426-.316,4.946,4.946,0,0,0-2.929,1.732,5.448,5.448,0,0,0-1.164,3.114,6.949,6.949,0,0,0,.764,4.018,4.9,4.9,0,0,0,3.839,2.592,5.907,5.907,0,0,0,2.932-.221c.715-.288,1.393-.673,2.078-1.032a.378.378,0,0,0,.13-.29c.009-1.141.006-2.283.006-3.471-.566.27-1.071.551-1.6.756" transform="translate(175 2363)" fill="#aaa"></path><rect id="Rectangle_6021" data-name="Rectangle 6021" width="4.011" height="14.502" transform="translate(823.082 2389.486)" fill="#aaa"></rect><path id="Path_4150" data-name="Path 4150" d="M646.543,29.926a5,5,0,0,1-3.785-.027l-.059.078v11h4.049v-11l-.061-.073a.848.848,0,0,0-.144.024" transform="translate(175 2363)" fill="#aaa"></path><path id="Path_4151" data-name="Path 4151" d="M676.294,29.97l-.151,0q-.006,2.476-.01,4.954c0,2,.008,3.994.013,5.991l.063.07h3.963V29.863a5.393,5.393,0,0,1-3.878.107" transform="translate(175 2363)" fill="#aaa"></path><path id="Path_4152" data-name="Path 4152" d="M679.988,26.89a2.811,2.811,0,0,0-1.842-.465c-1.046,0-1.093,0-1.634.311-1.117.65-1.168,1.729-.178,2.356a3.178,3.178,0,0,0,3.629-.046,1.231,1.231,0,0,0,.025-2.156" transform="translate(175 2363)" fill="#aaa"></path><path id="Path_4153" data-name="Path 4153" d="M644.689,26.429a2.643,2.643,0,0,0-1.892.5,1.232,1.232,0,0,0,0,2.1,3.387,3.387,0,0,0,3.724.053,1.232,1.232,0,0,0,.226-2.026,2.648,2.648,0,0,0-2.054-.627" transform="translate(175 2363)" fill="#aaa"></path><path id="Path_4154" data-name="Path 4154" d="M676.183,29.886l-.039.088.15,0-.111-.084" transform="translate(175 2363)" fill="#636162"></path><path id="Path_4155" data-name="Path 4155" d="M599.1,32.952c.115-.022.189-.318.259-.5a.791.791,0,0,0,.005-.267l.082-.021c-.134-.531-.246-1.068-.409-1.589a.6.6,0,0,0-.777-.369c-.289.061-.357.312-.364.59a4.228,4.228,0,0,0,.429,1.891c.184.4.507.314.775.263" transform="translate(175 2363)" fill="#aeaeae"></path><path id="Path_4156" data-name="Path 4156" d="M594.727,33.868a1.179,1.179,0,0,0-.089-.407,2.549,2.549,0,0,0-3.835-.037c-.044.059-.076.2-.05.223a.365.365,0,0,0,.26.073c.512-.109,1.015-.274,1.532-.342a5.092,5.092,0,0,1,2.182.49" transform="translate(175 2363)" fill="#aeaeae"></path><path id="Path_4157" data-name="Path 4157" d="M593.5,34.063c-.007.023-.014.047-.022.07a2.433,2.433,0,0,0-.382,0,1.2,1.2,0,0,0-.914.581.246.246,0,0,0-.017.191.167.167,0,0,0,.154.056,3.357,3.357,0,0,1,1.979-.22c.081.017.185-.083.279-.128-.052-.1-.083-.243-.16-.273-.3-.114-.61-.19-.917-.28" transform="translate(175 2363)" fill="#aeaeae"></path><path id="Path_4158" data-name="Path 4158" d="M599.093,33.824a.612.612,0,0,0-.505.607c-.007.34.251.706.494.7.3,0,.506-.278.513-.677-.064-.363-.2-.653-.5-.634" transform="translate(175 2363)" fill="#aeaeae"></path><path id="Path_4159" data-name="Path 4159" d="M597.3,35.745c.262-.016.543-.041.52-.437-.02-.34-.277-.554-.713-.556-.262,0-.534-.027-.526.362a.7.7,0,0,0,.719.631" transform="translate(175 2363)" fill="#aeaeae"></path><path id="Path_4160" data-name="Path 4160" d="M580.713,40.379a.534.534,0,0,1-.546-.771c.111-.317.253-.624.356-.944a1.774,1.774,0,0,0-.9-2.3,1.722,1.722,0,0,0-1.864.173,2.183,2.183,0,0,0-.82,1.941.34.34,0,0,0,.185.252c.069.021.209-.071.262-.15a1.858,1.858,0,0,0,.165-.411,1.155,1.155,0,0,1,1.3-.838,1.074,1.074,0,0,1,.745,1.454,1.738,1.738,0,0,0,.027,1.735.88.88,0,0,0,.88.473c.322-.049.679-.113.753-.61h-.542" transform="translate(175 2363)" fill="#aeaeae"></path></g></svg>