<?xml version="1.0" encoding="UTF-8"?> <svg xmlns="http://www.w3.org/2000/svg" width="120" height="42" viewBox="0 0 120 42" fill="none"><g clip-path="url(#clip0_805_1676)"><path d="M53.9017 30.5971V13.6425H48.0537V10.7065H63.2724V13.6425H57.387V30.6078H53.9017V30.5971Z" fill="#D7D6D5"></path><path d="M72.7998 30.5971V10.7065H79.5651C83.0878 10.7065 85.8158 11.5891 87.6638 13.3198C89.5118 15.0478 90.4291 17.4612 90.4291 20.5598C90.4291 23.6558 89.5251 26.1065 87.7011 27.9118C85.8771 29.7145 83.0771 30.6105 79.2851 30.6105L72.7998 30.5971ZM76.3118 27.5865H79.7865C82.0371 27.5865 83.7758 26.9891 85.0478 25.8211C86.3065 24.6531 86.9065 22.8852 86.9065 20.6718C86.9065 18.4585 86.2691 16.7278 85.0478 15.4852C83.8238 14.2425 81.9278 13.6825 79.4318 13.6825H76.3118V27.5865Z" fill="#D7D6D5"></path><path d="M109.721 30.8087C106.993 30.8833 104.35 29.8007 102.406 27.8727C98.4544 23.8167 98.4544 17.2993 102.406 13.246C104.34 11.318 106.993 10.2353 109.721 10.31C112.449 10.2727 115.092 11.318 117.036 13.246C120.988 17.302 120.988 23.8193 117.036 27.8727C115.092 29.8007 112.449 30.846 109.721 30.8087ZM109.721 13.1953C107.897 13.158 106.124 13.9553 104.937 15.3607C103.676 16.766 102.956 18.6193 103.004 20.5473C102.966 22.438 103.641 24.2913 104.937 25.6967C107.31 28.3953 111.385 28.5953 114.028 26.182C114.188 26.0193 114.345 25.8593 114.505 25.6967C117.073 22.7607 117.073 18.2967 114.505 15.3713C113.318 13.966 111.545 13.158 109.721 13.1953Z" fill="#D7D6D5"></path><path d="M65.4111 14.8479C65.4111 12.7945 66.8778 11.0665 68.8485 10.7919H68.8858V26.5012C68.8858 28.5545 67.4191 30.2825 65.4485 30.5572H65.4111V14.8479Z" fill="#D7D6D5"></path><path d="M93.2295 14.8479C93.2295 12.7945 94.6962 11.0665 96.6668 10.7919H96.7042V26.5012C96.7042 28.5545 95.2375 30.2825 93.2668 30.5572H93.2295V14.8479Z" fill="#D7D6D5"></path><path d="M25.36 0.148041C22.032 0.148041 18.7653 1.31604 16.184 3.43071C13.6773 5.48404 11.8907 8.3427 11.144 11.5294C4.56267 13.172 0 19.092 0 26.02V40.9214H14.656C21.2987 40.9214 27.048 36.444 28.7733 29.988L40.0293 29.9507V14.9987C39.9653 6.81471 33.3973 0.148041 25.36 0.148041ZM25.3973 29.9374H25.752C24.0773 34.7374 19.696 37.924 14.6453 37.924H2.888V25.9694C2.888 20.8947 6.09333 16.3534 10.7547 14.6867C10.7547 14.8227 10.7547 14.948 10.7547 15.084C10.7893 23.284 17.36 29.9374 25.3973 29.9374ZM14.656 11.0814H14.6187C14.4853 11.0814 14.3627 11.0814 14.2267 11.0814C15.8667 6.34271 20.344 3.08404 25.3227 3.08404C31.7947 3.08404 37.08 8.43337 37.1147 15.0014V27.004H29.248C29.272 26.644 29.296 26.2814 29.296 25.948C29.2987 17.748 22.7307 11.0814 14.656 11.0814ZM13.6533 14.0787C13.9947 14.0547 14.3253 14.028 14.656 14.028H14.6933C21.1413 14.028 26.4133 19.3774 26.4507 25.9454C26.4507 26.2947 26.4267 26.6547 26.4027 27.0014H25.4C18.928 27.0014 13.6427 21.652 13.608 15.084C13.6027 14.7507 13.6267 14.4147 13.6533 14.0787Z" fill="#D7D6D5"></path></g><defs><clipPath id="clip0_805_1676"><rect width="120" height="41.0667" fill="white"></rect></clipPath></defs></svg>