<?xml version="1.0" encoding="UTF-8"?> <svg xmlns="http://www.w3.org/2000/svg" width="84" height="42" viewBox="0 0 84 42" fill="none"><path d="M43.7207 28.3933C39.5248 28.3933 37.1752 25.8732 37.1752 22.7652C37.1752 21.5051 37.2591 12.097 37.2591 12.097C35.9164 12.097 35.1611 11.341 35.1611 10.501C35.1611 9.49294 36.0003 8.73693 37.0073 8.73693H37.0912C37.0912 8.73693 37.0912 5.62887 37.0912 4.28485C37.0912 2.77282 38.2661 1.5968 39.6927 1.5968C41.2032 1.5968 42.378 2.85682 42.378 4.28485C42.378 5.37687 42.2941 6.9729 42.2941 8.65293H45.0634C46.49 8.65293 47.0774 9.40894 47.0774 10.501C47.0774 11.425 46.3222 12.181 45.3991 12.181H45.3152C44.3921 12.181 42.2941 12.181 42.2941 12.181C42.2102 15.205 42.1263 18.8171 42.1263 21.6732C42.1263 22.9332 43.1333 23.9412 44.3921 23.9412C44.476 23.9412 44.5599 23.9412 44.6438 23.9412C48.6719 23.9412 49.7628 19.9091 49.7628 12.265C49.7628 11.257 50.602 10.417 51.609 10.417C52.616 10.417 53.4552 11.257 53.4552 12.265C53.3712 22.2612 50.8537 28.3933 43.7207 28.3933Z" fill="#D7D6D5"></path><path d="M60.7556 12.4326C61.5948 11.8446 62.5179 11.4246 63.441 11.2566C64.448 11.2566 64.2802 11.4246 64.2802 12.4326C64.2802 23.2688 62.3501 28.3929 55.301 28.3929C52.28 28.3929 49.4268 26.1248 49.4268 23.3528C49.4268 22.2608 49.5946 20.0767 49.5946 18.9847C49.6785 8.56854 49.5107 6.3845 49.5107 3.27644C49.5107 1.76442 50.6855 0.504395 52.196 0.504395C53.6226 0.504395 54.7975 1.68042 54.7975 3.10844V3.19244C54.7975 6.3005 54.4618 10.7526 54.3779 22.3448C54.3779 23.3528 54.8814 24.0248 56.1402 24.0248C60.0004 23.8568 60.6717 18.9007 60.7556 12.4326Z" fill="#D7D6D5"></path><path d="M73.5118 26.5453C73.5118 26.5453 72.0013 28.4773 68.3089 28.3933C63.3578 28.3093 61.0081 24.3613 60.8402 20.2452C60.6724 17.1371 60.7563 15.0371 60.7563 13.0211C60.6724 11.593 61.6794 10.417 63.106 10.333H63.1899C64.7005 10.333 65.5396 11.593 65.5396 13.0211C65.5396 15.0371 65.3718 16.8011 65.3718 18.9012C65.3718 21.5052 66.211 23.8572 68.3928 23.8572C70.5747 23.8572 72.7565 22.9332 72.8405 18.4811C72.8405 16.2971 72.7565 15.0371 72.7565 13.0211C72.7565 11.593 73.8475 10.501 75.2741 10.501C76.7007 10.501 77.7916 11.593 77.7916 13.0211C77.7916 15.0371 77.6238 16.9691 77.6238 20.0772C77.6238 20.0772 77.5398 26.2933 77.7916 27.6373C78.9664 27.1333 79.8895 26.2093 80.477 25.1173C80.9805 24.2772 82.1553 23.9412 83.0784 24.3613C83.9176 24.9493 84.1693 26.0413 83.6658 26.9653C82.6588 29.1493 81.4 30.4934 78.1273 31.5854C78.1273 35.2814 77.8755 40.8255 70.9943 41.8336C65.12 42.6736 62.4347 39.2295 62.4347 36.3735C62.4347 31.7534 67.0501 30.4094 73.6796 28.8133L73.5118 26.5453ZM74.1831 32.5094C70.8264 33.2654 66.6306 34.2734 66.7145 36.3735C66.7984 38.3055 68.7285 38.6415 70.4069 38.3055C73.8475 37.5495 74.2671 35.5334 74.1831 32.5094Z" fill="#D7D6D5"></path><path d="M26.3502 23.3521C26.3502 22.0921 26.1824 11.8439 26.1824 11.8439C26.0145 10.4999 27.0215 9.23989 28.3642 9.15589C29.7069 8.98789 30.9657 9.99591 31.0496 11.3399C31.0496 11.5079 31.0496 11.7599 31.0496 11.9279C30.8817 16.716 30.7978 19.8241 30.7978 21.5041C30.7978 22.4281 31.3013 23.9401 32.8958 23.9401C36.5042 23.9401 37.2595 20.5801 37.2595 12.516C37.3434 11.5079 38.2665 10.6679 39.2735 10.6679C40.2805 10.6679 41.1197 11.4239 41.1197 12.4319C41.1197 24.6122 39.0217 28.3082 32.1405 28.3082C29.2873 28.3922 26.3502 26.6282 26.3502 23.3521Z" fill="#D7D6D5"></path><path d="M28.0278 10.0807C27.0208 10.0807 26.9369 10.3327 26.3495 11.3407C26.3495 15.7928 25.8459 20.7489 20.1396 23.437C23.9998 16.3808 20.2235 8.98871 14.2653 8.98871C12.1674 8.90471 10.1534 9.66072 8.55893 10.9207C8.55893 8.7367 8.64285 4.87264 8.64285 4.87264C8.64285 2.18459 7.71975 0.0845536 4.44697 0.000552112C2.51687 -0.0834494 0.838515 1.00857 0.167174 2.8566C-0.168496 3.44461 -0.000660983 4.28463 0.586762 4.70463C1.2581 4.95664 2.01336 4.78864 2.43295 4.20063C2.6847 3.86462 2.85254 3.78062 3.10429 3.78062C3.52388 3.86462 3.52388 4.45263 3.52388 4.87264C3.52388 5.29264 3.85955 8.98871 3.69171 20.8329C3.69171 24.109 6.29316 28.309 12.4191 28.309C23.748 28.309 30.4614 22.933 30.4614 11.2567C30.4614 10.4167 29.0348 10.0807 28.0278 10.0807ZM12.4191 23.857C10.1534 23.857 8.64285 23.017 8.55893 21.0009C8.55893 20.4129 8.55893 19.7409 8.55893 19.1529C8.81068 16.2128 10.6569 14.3648 12.6709 13.9448C15.1884 13.4408 16.8668 14.6168 16.8668 17.8929C16.7829 19.9929 16.1954 23.773 12.4191 23.857Z" fill="#D7D6D5"></path><path d="M28.699 6.9729C30.1821 6.9729 31.3844 5.76942 31.3844 4.28485C31.3844 2.80028 30.1821 1.5968 28.699 1.5968C27.2159 1.5968 26.0137 2.80028 26.0137 4.28485C26.0137 5.76942 27.2159 6.9729 28.699 6.9729Z" fill="#D7D6D5"></path></svg>