<?xml version="1.0" encoding="UTF-8"?> <svg xmlns="http://www.w3.org/2000/svg" width="76.865" height="76.865" viewBox="0 0 76.865 76.865"><path id="Path_4162" data-name="Path 4162" d="M40.348,111.958A38.432,38.432,0,1,0,78.78,150.391a38.433,38.433,0,0,0-38.432-38.433m27.071,38.871a1.9,1.9,0,0,1-2.208.5c-.126-.1-.314-.222-.323-.345s.171-.276.3-.345a.81.81,0,0,0,.509-.888.888.888,0,0,0-.736-.806,2.529,2.529,0,0,0-2.576.736,4.92,4.92,0,0,0-1.431,3.348,3.667,3.667,0,0,0,.32,2.025c.534.985,1.266,1.132,2.087.361a4.717,4.717,0,0,0,1.182-2.006,2.2,2.2,0,0,1,1.58-1.538c.568-.147.952.125.864.705a8.932,8.932,0,0,1-.544,2.116,3.019,3.019,0,0,0,.589,3.558c.141.151.27.489.195.627-.136.253-.392.208-.694.069a4.02,4.02,0,0,1-2.446-2.759,12.281,12.281,0,0,1-1.135.816,2.469,2.469,0,0,1-2.893-.333,3.654,3.654,0,0,1-1.249-3.945c.032-.109.058-.22.09-.345a5.718,5.718,0,0,1-1.61.48c-.9-.012-1.284.551-1.736,1.15a11.4,11.4,0,0,1-2.965,2.87,5.241,5.241,0,0,1-1.408.558c-.393.108-.655-.189-.784-.511-.242-.606-.428-1.235-.6-1.756-.847.563-1.732,1.215-2.679,1.758a6.267,6.267,0,0,1-1.728.6,1.837,1.837,0,0,1-2.067-1.827,10.757,10.757,0,0,1,.876-4.382c.1-.272.216-.54.292-.819a.289.289,0,0,0-.427-.374,2.546,2.546,0,0,0-.607.374,8.955,8.955,0,0,0-2.929,4.052c-.145.449-.194.927-.316,1.384a2.241,2.241,0,0,1-1.657,1.588c-.509.157-.98-.4-.858-1,.042-.209.126-.41.221-.709-.722.406-1.338.782-1.981,1.1a4.05,4.05,0,0,1-1.2.413,1.526,1.526,0,0,1-1.956-1.225,2.917,2.917,0,0,1-2.758,1.291,3.388,3.388,0,0,1-2.454-1.925c-.507.535-.932,1.05-1.424,1.49a10.9,10.9,0,0,1-4.79,2.54A6.817,6.817,0,0,1,13,153.857a13.868,13.868,0,0,1,.715-7.166,17,17,0,0,1,6.379-8.682,7.324,7.324,0,0,1,4.771-1.369,4.225,4.225,0,0,1,3.794,4.051,4.393,4.393,0,0,1-3.632,4.621c-.319.083-.585.042-.683-.234-.053-.151.107-.408.225-.581a3.024,3.024,0,0,1,.444-.422,4.066,4.066,0,0,0,1.309-3.924c-.058-.3-.022-.617-.09-.912a1.914,1.914,0,0,0-2.478-1.495,7.289,7.289,0,0,0-3.64,2.623,18.729,18.729,0,0,0-4.214,9.244,8.363,8.363,0,0,0,1.087,6.022,4.275,4.275,0,0,0,4.937,1.993,10.6,10.6,0,0,0,5.095-2.9.875.875,0,0,0,.2-.536,6.634,6.634,0,0,1,4.53-6.09,4.69,4.69,0,0,1,3.451.205,1.871,1.871,0,0,1,1.011,2.323,1.82,1.82,0,0,1-2.6.71c-.24-.222-.2-.446.084-.564a.843.843,0,0,0,.586-1.088c-.108-.416-.539-.636-1.16-.627-1.7.026-2.8.961-3.331,2.808a4.809,4.809,0,0,0-.2,2.645,1.787,1.787,0,0,0,1.029,1.316,1.114,1.114,0,0,0,1.358-.452,9.037,9.037,0,0,0,1.019-1.917,2.181,2.181,0,0,1,1.393-1.513,1.1,1.1,0,0,1,.888.082,1.176,1.176,0,0,1,.2.884c-.059.517-.274,1.017-.325,1.533a1.216,1.216,0,0,0,.251.864.844.844,0,0,0,.767,0,18.554,18.554,0,0,0,1.858-1.168.873.873,0,0,0,.271-.518c.274-1.386.523-2.777.792-4.164a1.7,1.7,0,0,1,2.082-1.326c.4.094.579.448.473.992-.111.577-.255,1.148-.385,1.721l.175.149a1.726,1.726,0,0,1,.2-.393,8.357,8.357,0,0,1,3.392-2.484,3.66,3.66,0,0,1,1.25-.181.7.7,0,0,1,.712.812,12.863,12.863,0,0,1-.327,1.894c-.366,1.4-.788,2.788-1.167,4.186a.731.731,0,0,0,.922.921,5.823,5.823,0,0,0,3.124-2.192,1.155,1.155,0,0,0,.127-.578c.1-1.048.156-2.1.3-3.144a2.214,2.214,0,0,1,1.555-1.811,1.194,1.194,0,0,1,.939.1c.139.089.121.557.046.818a13.446,13.446,0,0,0-.775,4.39,15.054,15.054,0,0,0,.32,1.989c.073.378.292.433.582.184a12.688,12.688,0,0,0,2.559-3.118,3.441,3.441,0,0,1-1.449-2.222,4.138,4.138,0,0,1,.57-3.18,2.5,2.5,0,0,1,2.625-1.093,1.807,1.807,0,0,1,1.342,1.568,5.568,5.568,0,0,1-.849,3.694,2.226,2.226,0,0,0,1.944-.47,7.5,7.5,0,0,0,1-.949,5.577,5.577,0,0,1,5.021-1.992,2.914,2.914,0,0,1,1.9.9,1.864,1.864,0,0,1,.119,2.191" transform="translate(-1.915 -111.958)" fill="#d9d8d8"></path></svg>