<?xml version="1.0" encoding="UTF-8"?> <svg xmlns="http://www.w3.org/2000/svg" width="108" height="13.598" viewBox="0 0 108 13.598"><path id="Path_4165" data-name="Path 4165" d="M227.846,146.362h13.462v2.529h-9.9v2.992h6.336v2.529h-6.336v3.019h9.9v2.529H227.846Zm-49.187,2.774v8.05a2.687,2.687,0,0,1-2.774,2.774h-8.758a2.687,2.687,0,0,1-2.774-2.774v-8.05a2.686,2.686,0,0,1,2.774-2.774h8.758a2.686,2.686,0,0,1,2.774,2.774m-2.2,4.025-2.475-4.27h-4.95l-2.475,4.27,2.475,4.27h4.95Zm47.328,1.811,2.891,4.988H222.84l-2.885-4.977H215.8v4.977h-3.563v-13.6h11.286a2.686,2.686,0,0,1,2.774,2.774v3.073a2.674,2.674,0,0,1-2.515,2.763m-1.047-5.238a.848.848,0,0,0-.844-.843H215.8v3.563h6.091a.848.848,0,0,0,.844-.843Zm-12.143-.6v8.05a2.687,2.687,0,0,1-2.774,2.774h-8.758a2.687,2.687,0,0,1-2.774-2.774v-8.05a2.686,2.686,0,0,1,2.774-2.774h8.758a2.686,2.686,0,0,1,2.774,2.774m-2.2,4.025-2.475-4.27h-4.95l-2.475,4.27,2.475,4.27h4.95Zm-16.487-6.8h-8.757a2.686,2.686,0,0,0-2.774,2.774v8.05a2.686,2.686,0,0,0,2.774,2.774H191.9a2.686,2.686,0,0,0,2.774-2.774v-2.2h-3.259L190,157.431h-4.95l-2.475-4.27,2.475-4.27H190l1.418,2.448h3.259v-2.2a2.686,2.686,0,0,0-2.774-2.774m-31.574,8.61,2.891,4.988h-3.834l-2.885-4.977h-4.154v4.977h-3.562v-13.6h11.286a2.686,2.686,0,0,1,2.774,2.774v3.073a2.675,2.675,0,0,1-2.516,2.763m-1.047-5.238a.847.847,0,0,0-.843-.843h-6.092v3.563h6.092a.847.847,0,0,0,.843-.843Zm-11.914-.6v3.073a2.687,2.687,0,0,1-2.774,2.774h-7.724v4.977h-3.563v-13.6H144.6a2.686,2.686,0,0,1,2.774,2.774m-3.563.6a.848.848,0,0,0-.843-.843h-6.092v3.563h6.092a.848.848,0,0,0,.843-.843Z" transform="translate(-133.308 -146.362)" fill="#a9a9a9"></path></svg>