<?xml version="1.0" encoding="UTF-8"?> <svg xmlns="http://www.w3.org/2000/svg" width="154.004" height="35.612" viewBox="0 0 154.004 35.612"><g id="Group_4702" data-name="Group 4702" transform="translate(-851.041 -2495.876)"><path id="Path_4315" data-name="Path 4315" d="M678.278,149.766a1.808,1.808,0,0,0-.889,1.491c0,1.71-.012,3.421.005,5.132a2.363,2.363,0,0,0,1.537,2.194c1.3.616,2.614,1.22,3.92,1.833q2.208,1.036,4.414,2.078,3.99,1.884,7.98,3.772c1.137.536,2.277,1.065,3.416,1.6.258.121.487.253.164.549-1.482,0-2.963-.011-4.444-.011q-3.183,0-6.366.009a4.914,4.914,0,0,1-3.058-1.5c-2.459-2.443-4.92-4.885-7.346-7.36a7.358,7.358,0,0,1-1.114-1.641,7.855,7.855,0,0,1-.456-1.321v-.171a2.369,2.369,0,0,0,.081-.434q.013-3.762.015-7.526c.449.236.907.455,1.342.713a9.156,9.156,0,0,1,.8.6" transform="translate(175 2363)" fill="#bbbaba"></path><path id="Path_4316" data-name="Path 4316" d="M676.041,144.775l.333-1.031a1.221,1.221,0,0,1,.365.075c.763.431,1.513.884,2.278,1.312.627.351,1.268.677,1.9,1.014.007.483.018.967.019,1.45,0,.4-.348.463-.609.608-.545-.327-1.085-.664-1.638-.978-.847-.482-1.7-.948-2.554-1.421-.032-.286-.065-.572-.1-.858Z" transform="translate(175 2363)" fill="#bdbdbc"></path><path id="Path_4317" data-name="Path 4317" d="M688.015,132.952a.164.164,0,0,0,.01-.076h12.412c0,.031-.007.062-.01.092l-10.262,0-2.15-.019" transform="translate(175 2363)" fill="#d9d8d8"></path><path id="Path_4318" data-name="Path 4318" d="M676.041,144.947c.032.286.065.572.1.857v2.654q-.006,3.764-.016,7.526a2.369,2.369,0,0,1-.081.434Z" transform="translate(175 2363)" fill="#cac9c9"></path><path id="Path_4319" data-name="Path 4319" d="M688.025,168.488a.118.118,0,0,0-.01-.076q3.183,0,6.366-.008c1.481,0,2.962.007,4.443.011a.356.356,0,0,1-.013.073Z" transform="translate(175 2363)" fill="#cac9c9"></path><path id="Path_4320" data-name="Path 4320" d="M707.644,156.993q-2.173-5.433-4.347-10.867c-.251-.628-.476-1.267-.745-1.886a.534.534,0,0,0-.392-.267c-1.2-.023-2.4-.016-3.595-.019a1.128,1.128,0,0,0-1.124.815q-2.136,5.37-4.285,10.736c-.051.127-.114.25-.209.458-.376-1.188-.69-2.3-1.085-3.389a2.354,2.354,0,0,0-1.808-1.465l-.223-.053a12.454,12.454,0,0,0,1.423-.59,2.742,2.742,0,0,0,1.377-2.255,4.363,4.363,0,0,0-.216-2.3,3.187,3.187,0,0,0-2.408-1.729c-.416-.091-.839-.155-1.323-.243,2.246-1.51,4.434-2.98,6.622-4.453,2.13-1.434,4.269-2.857,6.383-4.314a1.465,1.465,0,0,1,1.978.167c2.159,2.218,4.359,4.4,6.563,6.571a4.664,4.664,0,0,1,1.416,3.457c.008,3.509,0,7.019,0,10.528a4.883,4.883,0,0,1-1.522,3.679c-2.33,2.27-4.618,4.582-6.923,6.877a1.392,1.392,0,0,1-1.927.368c-1.487-.631-2.987-1.231-4.477-1.856-1.347-.566-2.684-1.158-4.032-1.721-1.44-.6-2.891-1.176-4.331-1.778-1.332-.556-2.651-1.142-3.983-1.7-1.47-.614-2.948-1.206-4.42-1.815-.466-.193-.916-.422-1.382-.613a.753.753,0,0,1-.5-.761c-.005-1.712-.01-3.424.009-5.135a.782.782,0,0,1,.246-.56c.8-.583,1.631-1.127,2.522-1.733v8h4.079v-4.788c.681.044,1.329.049,1.961.147a.846.846,0,0,1,.521.489c.431,1.189.809,2.4,1.223,3.591a.806.806,0,0,0,.8.593c2.3,0,4.594.005,6.89-.009a.44.44,0,0,0,.329-.229c.293-.733.559-1.477.845-2.25h4.012c.738,0,.726,0,1.019.683a5.969,5.969,0,0,0,.627,1.225,1.517,1.517,0,0,0,1.3.586c1.027-.019,2.054-.011,3.081-.014l.021-.175" transform="translate(175 2363)" fill="#bbbaba"></path><path id="Path_4321" data-name="Path 4321" d="M775.157,164.765h-3.683v-.436c0-1.355.012-2.709-.007-4.064a6.122,6.122,0,0,0-.156-1.25,1.089,1.089,0,0,0-1.722-.4,1.817,1.817,0,0,0-.645,1.413c-.009,1.568,0,3.135,0,4.731H765.3v-9.183h3.342v.968a3.8,3.8,0,0,1,3.074-1.165,3.354,3.354,0,0,1,2.831,1.495,3.58,3.58,0,0,1,1.883-1.331c1.791-.435,3.681-.136,4.423,1.564a5.554,5.554,0,0,1,.452,1.994c.062,1.838.024,3.678.024,5.518a.755.755,0,0,1-.032.144h-3.614c-.008-.12-.022-.242-.023-.363,0-1.44.006-2.881-.006-4.321a4.942,4.942,0,0,0-.11-.961,1.1,1.1,0,0,0-1.861-.394,2.3,2.3,0,0,0-.486,1.138c-.061,1.48-.034,2.964-.04,4.447v.457" transform="translate(175 2363)" fill="#bbbaba"></path><path id="Path_4322" data-name="Path 4322" d="M776.222,143.825c-.126.135-.259.21-.275.305-.155.937-.293,1.878-.431,2.818-.12.818-.219,1.639-.356,2.454a.887.887,0,0,1-.892.707q-1.947.02-3.894,0a.421.421,0,0,1-.32-.232q-1.051-4.26-2.067-8.53a1.907,1.907,0,0,1,0-.429h3.588c.352,1.9.709,3.816,1.066,5.736l.093-.007c.215-1.073.432-2.145.643-3.219.148-.752.276-1.508.445-2.255a.463.463,0,0,1,.347-.261c1.369-.018,2.737-.012,4.139-.012.391,1.946.78,3.88,1.169,5.814l.09.01c.345-1.919.691-3.838,1.043-5.794h3.7q-.554,2.334-1.108,4.665c-.329,1.381-.669,2.759-.991,4.142-.064.275-.17.4-.475.39-1.169-.018-2.339-.023-3.508,0-.683.012-1.112-.236-1.244-1.1-.229-1.5-.405-3-.608-4.506-.025-.191-.08-.379-.148-.693" transform="translate(175 2363)" fill="#bbbaba"></path><path id="Path_4323" data-name="Path 4323" d="M734.214,150.1c-1.2,0-2.4,0-3.595,0a.772.772,0,0,1-.727-.621c-.343-.993-.671-1.992-1-2.991-.2-.622-.389-.769-1.039-.77h-1.319v4.352H722.62V137.852c.12-.008.242-.023.365-.023,2.068,0,4.137-.035,6.2.016a11.95,11.95,0,0,1,2.483.359,2.529,2.529,0,0,1,1.9,2.433,4.581,4.581,0,0,1-.207,1.969A2.869,2.869,0,0,1,731,144.365c.365.177.768.335,1.133.557.646.393.776,1.107,1,1.752.353,1.037.684,2.081,1.022,3.124a2.472,2.472,0,0,1,.059.3m-7.623-6.915c.665-.043,1.31-.061,1.948-.132a1.227,1.227,0,0,0,1.135-1.712c-.094-.387-.281-.677-.657-.72-.8-.092-1.612-.12-2.426-.175Z" transform="translate(175 2363)" fill="#bbbaba"></path><path id="Path_4324" data-name="Path 4324" d="M719.995,164.786c.057-.172.089-.291.134-.4q2.218-5.544,4.439-11.088a1.009,1.009,0,0,1,1.154-.793c1.055-.005,2.111,0,3.166-.009a.393.393,0,0,1,.452.275q2.348,5.905,4.713,11.8a.966.966,0,0,1,.027.159,3.194,3.194,0,0,1-.323.036c-.841,0-1.683-.005-2.525.011a1.62,1.62,0,0,1-1.672-1.166c-.127-.37-.266-.737-.411-1.139-1.424,0-2.848-.006-4.272.013-.1,0-.239.17-.287.289-.223.566-.412,1.145-.637,1.711-.047.12-.189.286-.289.288-1.207.02-2.414.013-3.669.013m7.032-8.354-.1-.028-1.208,3.3h2.464c-.391-1.111-.771-2.191-1.152-3.272" transform="translate(175 2363)" fill="#bbbaba"></path><path id="Path_4325" data-name="Path 4325" d="M760.5,145.648v4.414h-3.714v-.428c0-3.409.021-6.817-.012-10.226a1.448,1.448,0,0,1,1.606-1.582c.692.046,1.389.009,2.112.009v6.918l.085.041q.51-.735,1.018-1.47c.392-.57.776-1.147,1.173-1.713a1.682,1.682,0,0,1,1.489-.754c1.194.015,2.388,0,3.7,0l-3.4,4.32,3.717,4.912c-.16.007-.264.015-.369.017q-1.555.03-3.112.058a1.949,1.949,0,0,1-1.742-.927c-.817-1.211-1.648-2.412-2.473-3.617l-.077.024" transform="translate(175 2363)" fill="#bbbaba"></path><path id="Path_4326" data-name="Path 4326" d="M793.3,164.773c-.946,0-1.87.028-2.792-.011-.555-.024-.8-.362-.911-1.118l-.184.232a2.841,2.841,0,0,1-2,1.086,4.628,4.628,0,0,1-3.405-.845,4.136,4.136,0,0,1-1.546-2.625,6.607,6.607,0,0,1,.08-3.056,3.867,3.867,0,0,1,3.419-3.039,8.178,8.178,0,0,1,1.844.011c.611.091,1.009.269,1.81,1.219V155.5H793.3Zm-3.711-4.62-.035-.005c0-.2.006-.4,0-.6a1.646,1.646,0,0,0-1.05-1.477,1.534,1.534,0,0,0-1.835.548,2.606,2.606,0,0,0-.129,2.828,1.559,1.559,0,0,0,2.921-.342,8.638,8.638,0,0,0,.129-.955" transform="translate(175 2363)" fill="#bbbaba"></path><path id="Path_4327" data-name="Path 4327" d="M745.513,145.555a4.532,4.532,0,0,1-3.949,4.645,6.578,6.578,0,0,1-5.492-.988,4.022,4.022,0,0,1-1.633-3.21,7.343,7.343,0,0,1,.128-1.765,4.166,4.166,0,0,1,3.28-3.307,7.715,7.715,0,0,1,4.953.274,3.852,3.852,0,0,1,2.495,2.987c.083.453.146.909.218,1.364m-3.821.105a9.642,9.642,0,0,0-.272-1.3,1.488,1.488,0,0,0-1.327-1.032,1.445,1.445,0,0,0-1.374.586,2.55,2.55,0,0,0-.325,2.61,1.556,1.556,0,0,0,2.8.493,4.469,4.469,0,0,0,.5-1.36" transform="translate(175 2363)" fill="#bbbaba"></path><path id="Path_4328" data-name="Path 4328" d="M818.691,160.178a4.38,4.38,0,0,1-1.852,3.841,6.6,6.6,0,0,1-2.925.973,7.767,7.767,0,0,1-2.945-.269,4.441,4.441,0,0,1-3.275-3.631,5.075,5.075,0,0,1,.687-3.674A4.266,4.266,0,0,1,811.4,155.5a8.406,8.406,0,0,1,4.5.31A4.106,4.106,0,0,1,818.57,159c.077.385.082.784.121,1.176m-3.8.07c-.1-.473-.15-.875-.262-1.259a1.576,1.576,0,0,0-2.466-.667,2.254,2.254,0,0,0-.693,1.581,2.708,2.708,0,0,0,.39,1.694,1.521,1.521,0,0,0,2.687-.159,7.238,7.238,0,0,0,.344-1.19" transform="translate(175 2363)" fill="#bbbaba"></path><path id="Path_4329" data-name="Path 4329" d="M764.077,160.159a4.373,4.373,0,0,1-1.775,3.8,6.485,6.485,0,0,1-2.99,1.034,7.609,7.609,0,0,1-2.945-.267,4.417,4.417,0,0,1-3.28-3.56,5.1,5.1,0,0,1,.643-3.688,4.274,4.274,0,0,1,3.036-1.974,8.36,8.36,0,0,1,4.543.311,4.1,4.1,0,0,1,2.645,3.213c.073.371.084.755.123,1.133m-7.349-.086a11,11,0,0,0,.447,1.4,1.481,1.481,0,0,0,1.477.852,1.576,1.576,0,0,0,1.375-1.093,3.453,3.453,0,0,0,.064-2.031,1.573,1.573,0,0,0-1.445-1.238,1.433,1.433,0,0,0-1.417.744,10.643,10.643,0,0,0-.5,1.368" transform="translate(175 2363)" fill="#bbbaba"></path><path id="Path_4330" data-name="Path 4330" d="M823.6,164.766h-3.694v-9.185h3.355v.906c.237-.172.4-.29.561-.407a3.711,3.711,0,0,1,2.784-.691,9.619,9.619,0,0,1,1.038.135,2.928,2.928,0,0,1,2.214,2.458,8.674,8.674,0,0,1,.172,1.632c.023,1.569.008,3.138.008,4.707v.441h-3.666c-.006-.143-.018-.292-.019-.441,0-1.412.011-2.824-.008-4.236a4.467,4.467,0,0,0-.174-1.117.823.823,0,0,0-.788-.591c-1.293-.167-1.746.757-1.765,1.636-.031,1.426-.014,2.853-.018,4.279v.474" transform="translate(175 2363)" fill="#bbbaba"></path><path id="Path_4331" data-name="Path 4331" d="M738.113,155.573v5.034a1.32,1.32,0,0,0,1.1,1.371,1.448,1.448,0,0,0,1.449-1.08,9.531,9.531,0,0,0,.185-1.587c.026-1.237.008-2.476.008-3.738h3.684v9.169c-.871,0-1.737.032-2.6-.013-.46-.025-.715-.39-.791-.917a11.582,11.582,0,0,1-1.248.728,3.945,3.945,0,0,1-4.309-.457,3.377,3.377,0,0,1-1.071-1.881,3.492,3.492,0,0,1-.1-.878c-.009-1.908,0-3.817,0-5.751Z" transform="translate(175 2363)" fill="#bbbaba"></path><path id="Path_4332" data-name="Path 4332" d="M788.513,146.676a1.413,1.413,0,0,0,1.477,1.172c1.268.031,2.538.015,3.807,0,.3,0,.6-.063.95-.1a2.557,2.557,0,0,1-1.708,2.144,6.256,6.256,0,0,1-3,.519,6.15,6.15,0,0,1-3.669-1.168,4.564,4.564,0,0,1-1.537-3.055,5.589,5.589,0,0,1,.321-2.8,3.92,3.92,0,0,1,3.06-2.534,7.5,7.5,0,0,1,3.987.163,3.71,3.71,0,0,1,2.494,2.525,9.311,9.311,0,0,1,.349,2.618c.009.391-.128.526-.52.523-1.854-.014-3.708-.006-5.562-.006Zm3.107-1.985c-.045-.676-.107-1.32-.738-1.679a1.683,1.683,0,0,0-1.76.044,1.575,1.575,0,0,0-.666,1.635Z" transform="translate(175 2363)" fill="#bbbaba"></path><path id="Path_4333" data-name="Path 4333" d="M755.212,147.437c0,.73,0,1.426,0,2.121,0,.288-.17.394-.416.444a11.071,11.071,0,0,1-4.324.238,4.314,4.314,0,0,1-3.791-3.635,4.54,4.54,0,0,1,3.976-5.867,13.163,13.163,0,0,1,3.937.262c.581.1.608.15.608.746v1.91c-.568-.045-1.1-.09-1.626-.128a4.279,4.279,0,0,0-2.2.216,1.945,1.945,0,0,0,.408,3.6,5.837,5.837,0,0,0,2.387.1,7.028,7.028,0,0,1,1.043-.008" transform="translate(175 2363)" fill="#bbbaba"></path><path id="Path_4334" data-name="Path 4334" d="M752.381,155.65v2.608h-2.217v6.491c-.981,0-1.919.04-2.852-.014a1.227,1.227,0,0,1-1.082-1.256c-.009-1.412,0-2.824,0-4.236v-6.7h3.927v3.023h2.16c.023.028.045.057.068.086" transform="translate(175 2363)" fill="#bbbaba"></path><path id="Path_4335" data-name="Path 4335" d="M794.875,152.521h3.7v2.991H800.8v2.728H798.61v6.533h-1.124c-.414,0-.827.013-1.24,0a1.314,1.314,0,0,1-1.366-1.338c-.012-3.62-.005-7.24-.005-10.912" transform="translate(175 2363)" fill="#bbbaba"></path><path id="Path_4336" data-name="Path 4336" d="M802.148,150.093V139.451c0-1.082.51-1.586,1.6-1.587h2.257v12.229Z" transform="translate(175 2363)" fill="#bbbaba"></path><path id="Path_4337" data-name="Path 4337" d="M800.284,137.864V150.1h-3.849c-.008-.125-.022-.246-.022-.367q0-5.175,0-10.351a1.373,1.373,0,0,1,1.538-1.523h2.334" transform="translate(175 2363)" fill="#bbbaba"></path><path id="Path_4338" data-name="Path 4338" d="M806.054,164.769c-.919,0-1.816.037-2.709-.012a1.236,1.236,0,0,1-1.182-1.3c-.014-2.582-.005-5.164,0-7.746a.638.638,0,0,1,.035-.139h3.859Z" transform="translate(175 2363)" fill="#bbbaba"></path><path id="Path_4339" data-name="Path 4339" d="M683.716,135.724l2.061-1.918c.245.165.481.346.736.494q2.625,1.528,5.258,3.042c.625.359,1.262.7,1.894,1.043l-2.544,1.882c-.416-.287-.815-.6-1.251-.856-1.685-.974-3.387-1.92-5.071-2.9a12.264,12.264,0,0,1-1.083-.791" transform="translate(175 2363)" fill="#c7c6c6"></path><path id="Path_4340" data-name="Path 4340" d="M693.665,138.385c-.632-.347-1.269-.684-1.894-1.042q-2.634-1.514-5.258-3.043c-.255-.148-.491-.329-.736-.494a4.683,4.683,0,0,1,2.239-.854l2.149.019a2.2,2.2,0,0,0,.4.4c1.844,1.075,3.7,2.137,5.545,3.2l-2.443,1.814" transform="translate(175 2363)" fill="#cac9c8"></path><path id="Path_4341" data-name="Path 4341" d="M696.107,136.571c-1.849-1.066-3.7-2.128-5.544-3.2a2.2,2.2,0,0,1-.4-.4l10.262,0c.193.2.115.353-.075.491q-2.121,1.557-4.245,3.112" transform="translate(175 2363)" fill="#cdcccb"></path><path id="Path_4342" data-name="Path 4342" d="M683.716,135.724a12.264,12.264,0,0,0,1.083.791c1.684.976,3.386,1.922,5.071,2.9.436.252.835.569,1.251.856l-1.9,1.406c-.067-.083-.117-.2-.2-.246-1.76-1.016-3.527-2.02-5.285-3.039-.561-.326-1.1-.691-1.648-1.038l1.629-1.626" transform="translate(175 2363)" fill="#c5c4c4"></path><path id="Path_4343" data-name="Path 4343" d="M682.086,137.35c.549.347,1.087.712,1.648,1.038,1.758,1.019,3.525,2.023,5.285,3.039.086.05.136.163.2.246l-1.57,1.156c-.076-.037-.157-.068-.23-.111q-2.973-1.709-5.939-3.423a7.76,7.76,0,0,1-.769-.578l1.372-1.367" transform="translate(175 2363)" fill="#c3c3c2"></path><path id="Path_4344" data-name="Path 4344" d="M680.714,138.717a7.883,7.883,0,0,0,.769.578q2.963,1.724,5.939,3.423c.073.043.153.074.231.111a6.9,6.9,0,0,1-1.243.916,4.359,4.359,0,0,1-1.3.16c-.088-.129-.147-.307-.269-.379-1.337-.794-2.687-1.565-4.026-2.357-.531-.314-1.042-.664-1.563-1Z" transform="translate(175 2363)" fill="#c2c1c1"></path><path id="Path_4345" data-name="Path 4345" d="M679.256,140.172c.52.333,1.031.683,1.563,1,1.338.792,2.688,1.563,4.025,2.357.122.072.182.25.27.379q-1.836.009-3.671.018c-.17,0-.34.015-.51.024a1.308,1.308,0,0,0-.247-.312c-.3-.207-.614-.4-.934-.578-.723-.405-1.454-.8-2.181-1.2l1.685-1.689" transform="translate(175 2363)" fill="#c1c0bf"></path><path id="Path_4346" data-name="Path 4346" d="M677.571,141.861c.728.4,1.458.791,2.181,1.2.32.178.633.371.934.577a1.349,1.349,0,0,1,.247.312q-.008,1.1-.013,2.2c-.636-.337-1.277-.663-1.9-1.014-.765-.428-1.515-.881-2.278-1.312a1.214,1.214,0,0,0-.365-.075,4.478,4.478,0,0,1,1.2-1.883" transform="translate(175 2363)" fill="#bfbebe"></path><path id="Path_4347" data-name="Path 4347" d="M685.108,149.655v-2.963c.9.077,1.769.11,2.626.241a.856.856,0,0,1,.716.959,4.087,4.087,0,0,1-.076.878.905.905,0,0,1-.792.718,5.762,5.762,0,0,1-.729.159c-.566.025-1.133.008-1.745.008" transform="translate(175 2363)" fill="#bbbaba"></path><path id="Path_4348" data-name="Path 4348" d="M676.137,148.458q0-1.327,0-2.654c.851.473,1.707.94,2.553,1.421.553.315,1.093.652,1.639.979l-2.052,1.563a8.831,8.831,0,0,0-.8-.6c-.434-.259-.893-.477-1.341-.713" transform="translate(175 2363)" fill="#bcbbbb"></path><rect id="Rectangle_6062" data-name="Rectangle 6062" width="3.87" height="1.875" transform="translate(977.188 2515.528)" fill="#bbbaba"></rect><path id="Path_4349" data-name="Path 4349" d="M701.341,151.7h-2.675c.45-1.238.888-2.442,1.355-3.729.451,1.273.877,2.477,1.32,3.729" transform="translate(175 2363)" fill="#bbbaba"></path><path id="Path_4350" data-name="Path 4350" d="M707.644,156.993l-.021.175.021-.175" transform="translate(175 2363)" fill="#e6e4e4"></path><path id="Path_4351" data-name="Path 4351" d="M752.381,155.65c-.023-.029-.045-.058-.068-.086.023.028.045.057.068.086" transform="translate(175 2363)" fill="#c3c2c1"></path></g></svg>