<?xml version="1.0" encoding="UTF-8"?> <svg xmlns="http://www.w3.org/2000/svg" xmlns:xlink="http://www.w3.org/1999/xlink" width="144.859" height="33.027" viewBox="0 0 144.859 33.027"><defs><clipPath id="clip-path"><path id="Path_4164" data-name="Path 4164" d="M912.945,156.212l-6.969,4.019a2.051,2.051,0,1,0,2.05,3.554l3.9-2.253v4.5a2.052,2.052,0,1,0,4.1,0v-8.046a2.049,2.049,0,0,0-1.9-2.043c-.057,0-.115-.007-.173-.007a2.01,2.01,0,0,0-1.017.275m8.327-.268a2.048,2.048,0,0,0-1.9,2.043v8.046a2.051,2.051,0,1,0,4.1,0v-4.5l3.9,2.253a2.051,2.051,0,1,0,2.049-3.554l-6.968-4.019a2.008,2.008,0,0,0-1.015-.275c-.057,0-.115,0-.173.007m-3.947-3.156-.839-.838a.581.581,0,0,1-.148-.361v-.032a.6.6,0,0,1,.148-.367l.839-.834a.581.581,0,0,1,.361-.151h.032a.591.591,0,0,1,.363.151l.839.834a.62.62,0,0,1,.153.367v.032a.6.6,0,0,1-.153.361l-.839.838a.59.59,0,0,1-.363.15h-.032a.582.582,0,0,1-.361-.15m.593-5.052h-.642a.583.583,0,0,0-.363.152l-2.9,2.893a.591.591,0,0,0-.151.364V152a.581.581,0,0,0,.151.36l2.9,2.894a.586.586,0,0,0,.363.154h.852a.574.574,0,0,0,.363-.154l2.9-2.894a.59.59,0,0,0,.149-.36v-.854a.6.6,0,0,0-.149-.364l-2.9-2.893a.577.577,0,0,0-.363-.152Zm-16.374-1.213a2.046,2.046,0,0,0,.75,2.8l3.892,2.251-3.892,2.243a2.052,2.052,0,1,0,2.051,3.554l6.964-4.024a2.069,2.069,0,0,0,1.03-1.839,2.191,2.191,0,0,0-.075-.484,2.036,2.036,0,0,0-.955-1.231l-6.964-4.021a2.049,2.049,0,0,0-2.8.751m29.519-.751-6.97,4.021a2.056,2.056,0,0,0-.95,1.231,2.062,2.062,0,0,0,.019,1.152,2.041,2.041,0,0,0,.931,1.171l6.97,4.024a2.051,2.051,0,1,0,2.049-3.554l-3.892-2.243,3.892-2.251a2.05,2.05,0,1,0-2.049-3.551m59.023-.309a.858.858,0,0,0-.333.389v0l-3.278,8.972-2.527-6.014,0,0a.858.858,0,0,0-.342-.388.923.923,0,0,0-.491-.14.892.892,0,0,0-.474.141.878.878,0,0,0-.336.387v0l-2.532,6.018-3.3-8.968h0a.753.753,0,0,0-.313-.4.894.894,0,0,0-.478-.142.846.846,0,0,0-.323.065h-.005l0,0a.862.862,0,0,0-.435,1.1l4.053,10.885v.005a.9.9,0,0,0,.142.24.677.677,0,0,0,.189.143.559.559,0,0,0,.066.051.358.358,0,0,0,.123.043.868.868,0,0,0,.3.059.835.835,0,0,0,.452-.147.786.786,0,0,0,.3-.378l.011-.008,2.564-6.128,2.567,6.1h0a.815.815,0,0,0,.283.381.911.911,0,0,0,.422.177h.107a.8.8,0,0,0,.286-.052.912.912,0,0,0,.218-.124.984.984,0,0,0,.309-.409v0l4.029-10.837a.881.881,0,0,0,.06-.312.86.86,0,0,0-.52-.787l0,0,0,0a.78.78,0,0,0-.31-.065.9.9,0,0,0-.47.139m-38.321,1.217v-.5a.869.869,0,0,0-.236-.6.82.82,0,0,0-.6-.259.852.852,0,0,0-.86.86v11.138l.036.036v0a.478.478,0,0,0,.059.117.917.917,0,0,0,.545.432l.035.01h.185a.868.868,0,0,0,.366-.081.735.735,0,0,0,.264-.221h0c.009-.009.011-.02.021-.029s.008-.006.011-.009a.832.832,0,0,0,.108-.177,1.327,1.327,0,0,0,.052-.178l.008-.032V150.5a3.582,3.582,0,0,1,1.05-2.45,3.453,3.453,0,0,1,5.9,2.441v6.568a.863.863,0,0,0,1.461.614.849.849,0,0,0,.257-.614v-6.568a5.171,5.171,0,0,0-8.666-3.815m13.3,8.182a4.727,4.727,0,0,1-1.274-3.254,4.781,4.781,0,0,1,1.274-3.272,4.015,4.015,0,0,1,6.006,0,4.789,4.789,0,0,1,1.272,3.272,4.734,4.734,0,0,1-1.272,3.254,4.037,4.037,0,0,1-6.006,0m-1.237-7.692a6.5,6.5,0,0,0,0,8.874,5.748,5.748,0,0,0,8.493,0,6.513,6.513,0,0,0,0-8.874,5.75,5.75,0,0,0-8.493,0m44.063,7.7a4.745,4.745,0,0,1-1.272-3.265,4.8,4.8,0,0,1,1.272-3.281,4.045,4.045,0,0,1,6.017,0,4.874,4.874,0,0,1,0,6.549,4.077,4.077,0,0,1-6.019,0m7.539-9.336a.855.855,0,0,0-.257.615v1.038a5.777,5.777,0,0,0-8.528-.027,6.535,6.535,0,0,0,0,8.887,5.747,5.747,0,0,0,8.528-.052v1.065a.846.846,0,0,0,.255.6.856.856,0,0,0,1.461-.6V146.152a.847.847,0,0,0-.856-.855.87.87,0,0,0-.6.24M1035.646,147a4.383,4.383,0,0,1,4.212,3.387h-8.493a4.433,4.433,0,0,1,4.281-3.387m-4.352.149a6.435,6.435,0,0,0-1.79,4.479,6.346,6.346,0,0,0,1.775,4.419,6.047,6.047,0,0,0,4.32,1.868h.577a5.448,5.448,0,0,0,2.97-.926,7.212,7.212,0,0,0,2.143-2.2l0,0,0-.006a.869.869,0,0,0,.122-.443.931.931,0,0,0-.392-.745l-.011-.007-.009,0a.842.842,0,0,0-.436-.12.832.832,0,0,0-.4.1.794.794,0,0,0-.319.307,5.222,5.222,0,0,1-1.573,1.652,3.782,3.782,0,0,1-2.1.678h-.568a4.476,4.476,0,0,1-4.363-4.105h9.633a.9.9,0,0,0,.593-.218.786.786,0,0,0,.267-.591V151.2l0-.011a6.526,6.526,0,0,0-1.916-4.186,5.929,5.929,0,0,0-4.173-1.707,6.031,6.031,0,0,0-4.352,1.855M940.64,146.1a3.249,3.249,0,0,0-1.008,1,3.2,3.2,0,0,0-.415,1.617c0,.03,0,.06,0,.09a2.562,2.562,0,0,0,.541,1.621,4.405,4.405,0,0,0,1.986,1.291c.733.27,1.464.432,1.927.586a9.2,9.2,0,0,1,1.846.763,2.135,2.135,0,0,1,.592.517,1.092,1.092,0,0,1,.212.645v.018a1.471,1.471,0,0,1-.286.9,2.519,2.519,0,0,1-1.185.8,4.161,4.161,0,0,1-1.275.235,5.133,5.133,0,0,1-2.4-.537c-.271-.136-.49-.269-.688-.382a2.75,2.75,0,0,0-.288-.143.793.793,0,0,0-.309-.064.609.609,0,0,0-.216.039.62.62,0,0,0-.189.124.913.913,0,0,0-.186.246.671.671,0,0,0-.067.295.849.849,0,0,0,.153.46,2.4,2.4,0,0,0,.6.56,7.242,7.242,0,0,0,.946.524,6.9,6.9,0,0,0,2.633.6h0a5.174,5.174,0,0,0,3.173-.939v0h0a3.406,3.406,0,0,0,1.413-2.732,2.97,2.97,0,0,0-.39-1.538,3.678,3.678,0,0,0-1.67-1.387,20.523,20.523,0,0,0-2.265-.829,15.545,15.545,0,0,1-1.976-.723,1.911,1.911,0,0,1-.6-.457.863.863,0,0,1-.205-.566,1.373,1.373,0,0,1,.249-.8,2.32,2.32,0,0,1,1.058-.769,3.482,3.482,0,0,1,1.216-.251,3.354,3.354,0,0,1,2.062.662c.233.169.43.341.616.483a1.779,1.779,0,0,0,.289.19.782.782,0,0,0,.34.088.582.582,0,0,0,.234-.046.731.731,0,0,0,.208-.131.712.712,0,0,0,.155-.209.644.644,0,0,0,.051-.248.924.924,0,0,0-.119-.429,2.679,2.679,0,0,0-.583-.688,5.706,5.706,0,0,0-1.414-.9,4.178,4.178,0,0,0-1.666-.406,5.457,5.457,0,0,0-3.111.821m103.15-1.287h.383c.186,0,.292.08.292.241s-.115.23-.292.23h-.383Zm-.47-.435v1.794h.47V145.7h.383l.328.471h.489v-.1l-.338-.489a.627.627,0,0,0,.311-.551c0-.4-.311-.657-.781-.657Zm-.809.933a1.564,1.564,0,0,1,1.6-1.688,1.69,1.69,0,1,1-1.6,1.688m-.4,0a2.008,2.008,0,1,0,2-2.07,1.959,1.959,0,0,0-2,2.07M998.5,140.151c-.025,0-.05,0-.077.005s-.048-.005-.072-.005a4.514,4.514,0,0,0-1.425.206,2.592,2.592,0,0,0-1.167.759h0v0a3.058,3.058,0,0,0-.673,1.291,6.762,6.762,0,0,0-.19,1.69v1.231h-1.357a.842.842,0,0,0-.845.834.9.9,0,0,0,.249.634.915.915,0,0,0,.607.278h1.346v10.008l0,.023a.849.849,0,0,0,.257.607.89.89,0,0,0,.619.243.845.845,0,0,0,.833-.85V147.076h1.458a.92.92,0,0,0,.607-.27.886.886,0,0,0,.255-.624v-.033a.841.841,0,0,0-.853-.819H996.6V144.1a5.11,5.11,0,0,1,.147-1.243,1.512,1.512,0,0,1,.283-.6.957.957,0,0,1,.419-.256,2.854,2.854,0,0,1,.86-.107h.044c.023,0,.046,0,.067,0s.051,0,.079,0h.192a.874.874,0,0,0,0-1.749Zm3.127.216a.856.856,0,0,0-.252.6v16.091a.848.848,0,0,0,.252.6.874.874,0,0,0,1.489-.6V140.972a.874.874,0,0,0-.884-.859.853.853,0,0,0-.6.254m17.716,0a.868.868,0,0,0-.255.6v16.091a.867.867,0,0,0,.859.855.87.87,0,0,0,.883-.855v-2.655l2.185-2.183,4.455,5.374a.683.683,0,0,0,.31.253,1.026,1.026,0,0,0,.366.066.9.9,0,0,0,.561-.182l.01-.006.011-.013a.915.915,0,0,0,.28-.648.9.9,0,0,0-.212-.57v0l-4.535-5.513,4.489-4.341h0a.876.876,0,0,0,.264-.617.82.82,0,0,0-.264-.6.005.005,0,0,0-.005-.006l0,0h0a.837.837,0,0,0-1.2,0l-6.711,6.541V140.972a.871.871,0,0,0-.883-.859.849.849,0,0,0-.6.254m-107.41-3.258v4.5l-3.9-2.255a2.051,2.051,0,0,0-2.05,3.554l6.969,4.022a2.06,2.06,0,0,0,3.089-1.778v-8.045a2.052,2.052,0,0,0-4.1,0m7.444,0v8.045a2.058,2.058,0,0,0,3.086,1.778l6.968-4.022a2.051,2.051,0,1,0-2.049-3.554l-3.9,2.255v-4.5a2.051,2.051,0,0,0-4.1,0" fill="none"></path></clipPath></defs><g id="Group_4704" data-name="Group 4704" transform="translate(-1076.268 -2498.059)"><g id="Group_4625" data-name="Group 4625" transform="translate(175 2363)"><g id="Group_4624" data-name="Group 4624" clip-path="url(#clip-path)"><rect id="Rectangle_6023" data-name="Rectangle 6023" width="150.412" height="38.579" transform="translate(898.491 132.283)" fill="#d7d6d5"></rect></g></g></g></svg>