<?xml version="1.0" encoding="UTF-8"?> <svg xmlns="http://www.w3.org/2000/svg" width="126" height="41.42" viewBox="0 0 126 41.42"><g id="Group_4698" data-name="Group 4698" transform="translate(-175 -2373.152)"><path id="Path_4200" data-name="Path 4200" d="M6.358,30.768l-3.926-2a.868.868,0,0,1-.4-.783V26.465a.506.506,0,0,1,.559-.558H7.251a.316.316,0,0,0,.335-.335V24.525a.335.335,0,0,0-.335-.358l-4.662-.112H2.343c-1.562,0-2.232.826-2.232,2.41v1.612A2.283,2.283,0,0,0,1.45,30.4l3.928,2a.888.888,0,0,1,.4.78v2.058a.5.5,0,0,1-.557.557H.335A.317.317,0,0,0,0,36.129v1.048a.335.335,0,0,0,.335.356l4.886.112h.246c1.56,0,2.23-.825,2.23-2.409V33.089a2.347,2.347,0,0,0-1.339-2.321M18.2,24.122H9.719a.316.316,0,0,0-.335.335v1.115a.3.3,0,0,0,.335.335h3.256V37.266a.306.306,0,0,0,.335.335H14.6a.315.315,0,0,0,.333-.335V25.907H18.2a.316.316,0,0,0,.334-.335V24.457a.3.3,0,0,0-.334-.335m21.816,0H31.534a.317.317,0,0,0-.334.335v1.115a.3.3,0,0,0,.334.335h3.259V37.266a.3.3,0,0,0,.334.335h1.294a.317.317,0,0,0,.335-.335V25.907h3.257a.315.315,0,0,0,.334-.335V24.457a.305.305,0,0,0-.334-.335m-13.078,0H22.808a2.053,2.053,0,0,0-2.231,2.232V37.333a.317.317,0,0,0,.334.335H22.2a.305.305,0,0,0,.335-.335V32.977L27.2,32.8v4.535a.317.317,0,0,0,.334.335h1.3a.306.306,0,0,0,.335-.335V26.4a2.087,2.087,0,0,0-2.232-2.276M27.2,31.17H22.54V26.4a.473.473,0,0,1,.536-.535h3.592a.473.473,0,0,1,.535.535Z" transform="translate(175 2363)" fill="#aeaeae"></path><path id="Path_4201" data-name="Path 4201" d="M90.307,29.492a4.518,4.518,0,0,1-1.57-.277l.111-.555a5.008,5.008,0,0,0,1.475.231c.848,0,1.022-.223,1.022-.826,0-.712-.008-.777-1.093-1.022-1.277-.285-1.427-.53-1.427-1.624,0-.92.38-1.364,1.687-1.364a6.061,6.061,0,0,1,1.427.174l-.056.58a6.445,6.445,0,0,0-1.355-.151c-.863,0-1.022.174-1.022.784,0,.729,0,.761,1.046,1.023,1.4.348,1.474.554,1.474,1.585,0,.919-.269,1.442-1.719,1.442m3.027-5.357h3.107v.609H94.015V26.4h2.252v.612H94.015V28.8h2.434v.61H93.334Zm8.528,5.278h-.689l-.437-1.268H98.493l-.427,1.268h-.689l1.783-5.278h.918Zm-2.243-4.787-.944,2.925h1.887Zm5.23,2.877h-1.292v1.91h-.681V24.135h2.013c1.134,0,1.531.491,1.531,1.3v.759a1.117,1.117,0,0,1-.841,1.23l1.371,1.989h-.784Zm.016-2.759h-1.308V26.9h1.308c.649,0,.872-.181.872-.7v-.761c0-.523-.223-.7-.872-.7m3.606,3.155c0,.738.287.975,1.15.975a8.154,8.154,0,0,0,1.236-.111l.071.587a6.771,6.771,0,0,1-1.331.142c-1.293,0-1.807-.555-1.807-1.553v-2.33c0-1,.514-1.554,1.807-1.554a6.848,6.848,0,0,1,1.331.142l-.071.587a8.274,8.274,0,0,0-1.236-.11c-.863,0-1.15.238-1.15.973Zm6.666,1.514V27.019H112.8v2.394h-.682V24.135h.682v2.274h2.338V24.135h.682v5.278Zm-22.1,8.175h-.691l-.435-1.268H89.666l-.428,1.268h-.69l1.783-5.278h.92ZM90.791,32.8l-.944,2.926h1.887ZM94.7,33.1v4.493h-.649V32.31h.935l2.3,4.518V32.31h.649v5.278H97Zm8.734,4.493h-.689l-.437-1.268h-2.242l-.429,1.268h-.688l1.782-5.278h.92ZM101.189,32.8l-.942,2.926h1.886Zm3.94,4.177h2.29v.61h-2.973V32.31h.683Zm5.444-4.668h.714l-1.753,3.685v1.593h-.681V35.995L107.1,32.31h.714l1.378,2.948Zm2.691.61h-1.578v-.61h3.836v.61h-1.577v4.668h-.681Zm3.931,4.668h-.682V32.31h.682Zm2.068-1.513c0,.736.286.974,1.15.974a8.142,8.142,0,0,0,1.235-.111l.072.586a6.791,6.791,0,0,1-1.332.144c-1.292,0-1.806-.555-1.806-1.555v-2.33c0-1,.514-1.553,1.806-1.553a6.715,6.715,0,0,1,1.332.143l-.072.587a8.142,8.142,0,0,0-1.235-.111c-.864,0-1.15.237-1.15.974Zm5.016,1.593a4.512,4.512,0,0,1-1.568-.278l.11-.555a5.038,5.038,0,0,0,1.475.229c.848,0,1.022-.221,1.022-.823,0-.714-.008-.777-1.094-1.023-1.275-.284-1.425-.531-1.425-1.624,0-.92.378-1.364,1.687-1.364a5.944,5.944,0,0,1,1.426.175l-.055.577a6.6,6.6,0,0,0-1.355-.15c-.864,0-1.023.176-1.023.785,0,.73,0,.762,1.046,1.023,1.4.348,1.475.554,1.475,1.586,0,.918-.27,1.442-1.721,1.442" transform="translate(175 2363)" fill="#d3d2d2"></path><rect id="Rectangle_6024" data-name="Rectangle 6024" width="15.627" height="0.584" transform="translate(252.888 2408.188) rotate(-67.523)" fill="#d3d2d2"></rect><path id="Path_4202" data-name="Path 4202" d="M78.155,16.716a.289.289,0,0,1-.111-.022L63.6,10.714a.292.292,0,0,1,.223-.54l14.438,5.981a.291.291,0,0,1-.111.561" transform="translate(175 2363)" fill="#d5d4d3"></path><path id="Path_4203" data-name="Path 4203" d="M43.3,31.153a.3.3,0,0,1-.112-.022.293.293,0,0,1-.158-.381L49.01,16.312a.292.292,0,0,1,.539.224l-5.98,14.437a.292.292,0,0,1-.27.18" transform="translate(175 2363)" fill="#d3d2d2"></path><path id="Path_4204" data-name="Path 4204" d="M63.717,51.572a.319.319,0,0,1-.112-.022L49.168,45.569a.291.291,0,0,1-.158-.381.3.3,0,0,1,.381-.158l14.438,5.981a.292.292,0,0,1-.112.561" transform="translate(175 2363)" fill="#d9d8d8"></path><path id="Path_4205" data-name="Path 4205" d="M84.135,31.153a.292.292,0,0,1-.27-.18L77.886,16.536a.292.292,0,0,1,.539-.224L84.4,30.75a.292.292,0,0,1-.27.4" transform="translate(175 2363)" fill="#d9d8d8"></path><path id="Path_4206" data-name="Path 4206" d="M49.279,16.716a.292.292,0,0,1-.112-.561L63.6,10.174a.292.292,0,0,1,.223.54l-14.437,5.98a.3.3,0,0,1-.112.022" transform="translate(175 2363)" fill="#d7d6d5"></path><path id="Path_4207" data-name="Path 4207" d="M49.279,45.591a.293.293,0,0,1-.27-.181l-5.98-14.437a.292.292,0,1,1,.539-.223l5.981,14.438a.293.293,0,0,1-.158.381.319.319,0,0,1-.112.022" transform="translate(175 2363)" fill="#d5d4d3"></path><path id="Path_4208" data-name="Path 4208" d="M63.717,51.572a.292.292,0,0,1-.112-.561L78.044,45.03a.3.3,0,0,1,.381.158.291.291,0,0,1-.158.381L63.829,51.55a.319.319,0,0,1-.112.022" transform="translate(175 2363)" fill="#d7d6d5"></path><path id="Path_4209" data-name="Path 4209" d="M78.155,45.591H49.279a.292.292,0,0,1,0-.584H78.155a.292.292,0,0,1,0,.584" transform="translate(175 2363)" fill="#d9d8d8"></path><path id="Path_4210" data-name="Path 4210" d="M49.279,45.591a.291.291,0,0,1-.291-.292V16.424a.292.292,0,0,1,.583,0V45.3a.292.292,0,0,1-.292.292" transform="translate(175 2363)" fill="#d5d4d3"></path><path id="Path_4211" data-name="Path 4211" d="M63.717,51.572a.294.294,0,0,1-.207-.086l-20.4-20.46a.292.292,0,0,1,.413-.412l20.4,20.46a.291.291,0,0,1,0,.412.286.286,0,0,1-.206.086" transform="translate(175 2363)" fill="#d7d6d5"></path><path id="Path_4212" data-name="Path 4212" d="M43.3,31.153a.291.291,0,0,1-.206-.5L63.511,10.238a.291.291,0,0,1,.412.412L43.505,31.068a.289.289,0,0,1-.206.085" transform="translate(175 2363)" fill="#d5d4d3"></path><path id="Path_4213" data-name="Path 4213" d="M84.135,31.153a.291.291,0,0,1-.206-.085L63.511,10.65a.291.291,0,0,1,.412-.412L84.341,30.656a.291.291,0,0,1-.206.5" transform="translate(175 2363)" fill="#d3d2d2"></path><path id="Path_4214" data-name="Path 4214" d="M78.155,16.716H49.279a.292.292,0,0,1,0-.583H78.155a.292.292,0,1,1,0,.583" transform="translate(175 2363)" fill="#d9d8d8"></path><path id="Path_4215" data-name="Path 4215" d="M78.155,45.591a.292.292,0,0,1-.292-.292V16.424a.292.292,0,0,1,.584,0V45.3a.292.292,0,0,1-.292.292" transform="translate(175 2363)" fill="#d9d8d8"></path><path id="Path_4216" data-name="Path 4216" d="M63.717,51.572a.286.286,0,0,1-.206-.086.291.291,0,0,1,0-.412L83.929,30.656a.291.291,0,0,1,.412.412L63.923,51.486a.286.286,0,0,1-.206.086" transform="translate(175 2363)" fill="#d7d6d5"></path><path id="Path_4217" data-name="Path 4217" d="M49.279,45.591a.292.292,0,0,1-.112-.561L84.023,30.592a.292.292,0,0,1,.223.539L49.391,45.569a.319.319,0,0,1-.112.022" transform="translate(175 2363)" fill="#d3d2d2"></path><path id="Path_4218" data-name="Path 4218" d="M49.322,45.61a.309.309,0,0,1-.111-.022.293.293,0,0,1-.159-.381l14.4-34.874a.291.291,0,1,1,.539.222L49.592,45.429a.293.293,0,0,1-.27.181" transform="translate(175 2363)" fill="#d7d6d5"></path><path id="Path_4219" data-name="Path 4219" d="M78.155,45.591a.309.309,0,0,1-.111-.022L43.187,31.131a.292.292,0,0,1,.223-.539L78.266,45.03a.291.291,0,0,1-.111.561" transform="translate(175 2363)" fill="#d3d2d2"></path><path id="Path_4220" data-name="Path 4220" d="M43.3,31.153a.292.292,0,0,1-.112-.561L78.044,16.155a.292.292,0,1,1,.223.539L43.411,31.131a.3.3,0,0,1-.112.022" transform="translate(175 2363)" fill="#d9d8d8"></path><path id="Path_4221" data-name="Path 4221" d="M63.717,51.572a.293.293,0,0,1-.27-.181L49.01,16.536a.292.292,0,0,1,.539-.223L63.987,51.169a.293.293,0,0,1-.158.381.319.319,0,0,1-.112.022" transform="translate(175 2363)" fill="#d7d6d5"></path><path id="Path_4222" data-name="Path 4222" d="M84.135,31.153a.289.289,0,0,1-.111-.022L49.168,16.694a.292.292,0,1,1,.223-.539L84.246,30.592a.291.291,0,0,1-.111.561" transform="translate(175 2363)" fill="#d3d2d2"></path><path id="Path_4223" data-name="Path 4223" d="M78.155,45.591a.293.293,0,0,1-.27-.181L63.447,10.555a.292.292,0,0,1,.539-.223L78.425,45.188a.292.292,0,0,1-.159.381.309.309,0,0,1-.111.022" transform="translate(175 2363)" fill="#d5d4d3"></path><path id="Path_4224" data-name="Path 4224" d="M63.717,51.572a.319.319,0,0,1-.112-.022.293.293,0,0,1-.158-.381L77.886,16.313a.292.292,0,0,1,.539.223L63.987,51.391a.293.293,0,0,1-.27.181" transform="translate(175 2363)" fill="#d5d4d3"></path><path id="Path_4225" data-name="Path 4225" d="M49.322,45.61a.286.286,0,0,1-.206-.086.291.291,0,0,1,0-.412L77.949,16.218a.292.292,0,0,1,.412.413L49.529,45.524a.294.294,0,0,1-.207.086" transform="translate(175 2363)" fill="#d3d2d2"></path><path id="Path_4226" data-name="Path 4226" d="M84.135,31.153H43.3a.292.292,0,0,1,0-.583H84.135a.292.292,0,1,1,0,.583" transform="translate(175 2363)" fill="#d7d6d5"></path><path id="Path_4227" data-name="Path 4227" d="M78.155,45.591a.288.288,0,0,1-.206-.086L49.073,16.63a.291.291,0,1,1,.412-.412L78.361,45.093a.291.291,0,0,1,0,.412.288.288,0,0,1-.206.086" transform="translate(175 2363)" fill="#d5d4d3"></path><path id="Path_4228" data-name="Path 4228" d="M63.717,51.572a.292.292,0,0,1-.292-.292V10.444a.292.292,0,0,1,.584,0V51.28a.292.292,0,0,1-.292.292" transform="translate(175 2363)" fill="#d9d8d8"></path></g></svg>